G04 #@! TF.GenerationSoftware,KiCad,Pcbnew,6.0.2+dfsg-1*
G04 #@! TF.CreationDate,2023-01-01T13:43:31+01:00*
G04 #@! TF.ProjectId,ESP-TC-PROG,4553502d-5443-42d5-9052-4f472e6b6963,rev?*
G04 #@! TF.SameCoordinates,Original*
G04 #@! TF.FileFunction,Legend,Bot*
G04 #@! TF.FilePolarity,Positive*
%FSLAX46Y46*%
G04 Gerber Fmt 4.6, Leading zero omitted, Abs format (unit mm)*
G04 Created by KiCad (PCBNEW 6.0.2+dfsg-1) date 2023-01-01 13:43:31*
%MOMM*%
%LPD*%
G01*
G04 APERTURE LIST*
%ADD10C,0.150000*%
%ADD11C,0.130000*%
G04 APERTURE END LIST*
D10*
X121452193Y-92862316D02*
X121547917Y-93502822D01*
X121521502Y-93583806D01*
X121489456Y-93627114D01*
X121419733Y-93676052D01*
X121269026Y-93698576D01*
X121188042Y-93672160D01*
X121144734Y-93640115D01*
X121095796Y-93570392D01*
X121000072Y-92929886D01*
X120773597Y-93734100D02*
X120666198Y-93788669D01*
X120477814Y-93816823D01*
X120396829Y-93790408D01*
X120353522Y-93758362D01*
X120304583Y-93688639D01*
X120293321Y-93613286D01*
X120319737Y-93532301D01*
X120351783Y-93488994D01*
X120421505Y-93440055D01*
X120566582Y-93379855D01*
X120636304Y-93330917D01*
X120668350Y-93287609D01*
X120694765Y-93206625D01*
X120683504Y-93131271D01*
X120634565Y-93061548D01*
X120591258Y-93029502D01*
X120510273Y-93003087D01*
X120321889Y-93031241D01*
X120214490Y-93085811D01*
X119662339Y-93514995D02*
X119554939Y-93569564D01*
X119522893Y-93612872D01*
X119496478Y-93693856D01*
X119513370Y-93806887D01*
X119562309Y-93876610D01*
X119605616Y-93908656D01*
X119686601Y-93935071D01*
X119988015Y-93890024D01*
X119869768Y-93098811D01*
X119606030Y-93138227D01*
X119536307Y-93187166D01*
X119504261Y-93230473D01*
X119477846Y-93311458D01*
X119489108Y-93386811D01*
X119538046Y-93456534D01*
X119581354Y-93488580D01*
X119662339Y-93514995D01*
X119926076Y-93475579D01*
X119151756Y-93706857D02*
X118548927Y-93796951D01*
X118098958Y-93363461D02*
X118194683Y-94003966D01*
X118168267Y-94084950D01*
X118136222Y-94128258D01*
X118066499Y-94177197D01*
X117915792Y-94199720D01*
X117834807Y-94173305D01*
X117791500Y-94141259D01*
X117742561Y-94071536D01*
X117646837Y-93431031D01*
X117392208Y-94046860D02*
X117015440Y-94103168D01*
X117501347Y-94261659D02*
X117119362Y-93509862D01*
X116973872Y-94340491D01*
X116258013Y-94447477D02*
X116465442Y-94031293D01*
X116710134Y-94379907D02*
X116591887Y-93588694D01*
X116290472Y-93633741D01*
X116220749Y-93682679D01*
X116188704Y-93725987D01*
X116162288Y-93806971D01*
X116179181Y-93920001D01*
X116228119Y-93989724D01*
X116271427Y-94021770D01*
X116352411Y-94048185D01*
X116653826Y-94003139D01*
X115913704Y-93690049D02*
X115461583Y-93757619D01*
X115805891Y-94515047D02*
X115687644Y-93723834D01*
X115271046Y-94286833D02*
X114668217Y-94376926D01*
X114010819Y-94359620D02*
X113903420Y-94414190D01*
X113871374Y-94457497D01*
X113844959Y-94538482D01*
X113861851Y-94651512D01*
X113910790Y-94721235D01*
X113954097Y-94753281D01*
X114035082Y-94779696D01*
X114336496Y-94734649D01*
X114218249Y-93943437D01*
X113954511Y-93982852D01*
X113884788Y-94031791D01*
X113852742Y-94075098D01*
X113826327Y-94156083D01*
X113837589Y-94231436D01*
X113886527Y-94301159D01*
X113929835Y-94333205D01*
X114010819Y-94359620D01*
X114274557Y-94320204D01*
X113093162Y-94920467D02*
X113300591Y-94504283D01*
X113545283Y-94852897D02*
X113427036Y-94061684D01*
X113125621Y-94106731D01*
X113055899Y-94155669D01*
X113023853Y-94198977D01*
X112997438Y-94279961D01*
X113014330Y-94392992D01*
X113063269Y-94462714D01*
X113106576Y-94494760D01*
X113187561Y-94521175D01*
X113488975Y-94476129D01*
X112754071Y-94971144D02*
X112635823Y-94179932D01*
X112377303Y-95027453D02*
X112259055Y-94236240D01*
X112070671Y-94264394D01*
X111963272Y-94318963D01*
X111899180Y-94405579D01*
X111872765Y-94486563D01*
X111857611Y-94642901D01*
X111874504Y-94755931D01*
X111934704Y-94901008D01*
X111983642Y-94970731D01*
X112070258Y-95034822D01*
X112188919Y-95055607D01*
X112377303Y-95027453D01*
X111059029Y-94454103D02*
X111128751Y-94405165D01*
X111241782Y-94388272D01*
X111360443Y-94409057D01*
X111447058Y-94473149D01*
X111495997Y-94542871D01*
X111556197Y-94687948D01*
X111573089Y-94800978D01*
X111557936Y-94957316D01*
X111531521Y-95038301D01*
X111467429Y-95124916D01*
X111360029Y-95179485D01*
X111284676Y-95190747D01*
X111166014Y-95169963D01*
X111122707Y-95137917D01*
X111083291Y-94874179D01*
X111233998Y-94851656D01*
X110732938Y-94849503D02*
X110469201Y-94888919D01*
X110418109Y-95320256D02*
X110794877Y-95263948D01*
X110676630Y-94472735D01*
X110299862Y-94529043D01*
X119562772Y-94524033D02*
X119519464Y-94491987D01*
X119438480Y-94465572D01*
X119250096Y-94493726D01*
X119180373Y-94542665D01*
X119148327Y-94585972D01*
X119121912Y-94666957D01*
X119133173Y-94742310D01*
X119187743Y-94849710D01*
X119707434Y-95234261D01*
X119217636Y-95307462D01*
X118609590Y-94589450D02*
X118534237Y-94600712D01*
X118464514Y-94649651D01*
X118432468Y-94692958D01*
X118406053Y-94773943D01*
X118390899Y-94930281D01*
X118419053Y-95118665D01*
X118479254Y-95263741D01*
X118528192Y-95333464D01*
X118571500Y-95365510D01*
X118652484Y-95391925D01*
X118727838Y-95380663D01*
X118797560Y-95331725D01*
X118829606Y-95288417D01*
X118856022Y-95207433D01*
X118871175Y-95051095D01*
X118843021Y-94862711D01*
X118782821Y-94717634D01*
X118733882Y-94647912D01*
X118690575Y-94615866D01*
X118609590Y-94589450D01*
X118055700Y-94749267D02*
X118012392Y-94717221D01*
X117931408Y-94690805D01*
X117743024Y-94718960D01*
X117673301Y-94767898D01*
X117641255Y-94811206D01*
X117614840Y-94892190D01*
X117626102Y-94967544D01*
X117680671Y-95074943D01*
X118200363Y-95459495D01*
X117710564Y-95532696D01*
X117328579Y-94780899D02*
X116838781Y-94854100D01*
X117147565Y-95116098D01*
X117034535Y-95132991D01*
X116964812Y-95181929D01*
X116932766Y-95225237D01*
X116906351Y-95306221D01*
X116934505Y-95494605D01*
X116983443Y-95564328D01*
X117026751Y-95596374D01*
X117107736Y-95622789D01*
X117333796Y-95589004D01*
X117403519Y-95540066D01*
X117435565Y-95496758D01*
X116011630Y-95247346D02*
X115902078Y-95802976D01*
X115634862Y-95303655D01*
X114997835Y-95938116D02*
X115449957Y-95870546D01*
X115223896Y-95904331D02*
X115105648Y-95113118D01*
X115197894Y-95214887D01*
X115284510Y-95278979D01*
X115365494Y-95305394D01*
X114647482Y-95913440D02*
X114615436Y-95956747D01*
X114658744Y-95988793D01*
X114690790Y-95945486D01*
X114647482Y-95913440D01*
X114658744Y-95988793D01*
X114212667Y-95323612D02*
X114169359Y-95291566D01*
X114088375Y-95265151D01*
X113899991Y-95293305D01*
X113830268Y-95342243D01*
X113798222Y-95385551D01*
X113771807Y-95466535D01*
X113783069Y-95541889D01*
X113837638Y-95649288D01*
X114357329Y-96033840D01*
X113867531Y-96107041D01*
X113517178Y-96082365D02*
X113485132Y-96125672D01*
X113528440Y-96157718D01*
X113560486Y-96114411D01*
X113517178Y-96082365D01*
X113528440Y-96157718D01*
X112737227Y-96275966D02*
X113189349Y-96208396D01*
X112963288Y-96242181D02*
X112845041Y-95450968D01*
X112937287Y-95552737D01*
X113023902Y-95616829D01*
X113104886Y-95643244D01*
X122610749Y-95717479D02*
X122642795Y-95674171D01*
X122712518Y-95625233D01*
X122787872Y-95613971D01*
X122868856Y-95640386D01*
X122912164Y-95672432D01*
X122961102Y-95742155D01*
X122972364Y-95817509D01*
X122945949Y-95898493D01*
X122913903Y-95941801D01*
X122844180Y-95990739D01*
X122768826Y-96002001D01*
X122687842Y-95975586D01*
X122644534Y-95943540D01*
X122599488Y-95642126D02*
X122644534Y-95943540D01*
X122612488Y-95986848D01*
X122574812Y-95992478D01*
X122493827Y-95966063D01*
X122444889Y-95896340D01*
X122416735Y-95707957D01*
X122475196Y-95583664D01*
X122576964Y-95491418D01*
X122722041Y-95431218D01*
X122878379Y-95446372D01*
X123002671Y-95504833D01*
X123094917Y-95606601D01*
X123155117Y-95751678D01*
X123139964Y-95908016D01*
X123081503Y-96032308D01*
X122979734Y-96124554D01*
X122834657Y-96184754D01*
X122678319Y-96169601D01*
X122554027Y-96111140D01*
X122060751Y-95645604D02*
X122162106Y-96323786D01*
X122211044Y-96393509D01*
X122292029Y-96419924D01*
X122329706Y-96414293D01*
X122021335Y-95381866D02*
X122064643Y-95413912D01*
X122032597Y-95457220D01*
X121989289Y-95425174D01*
X122021335Y-95381866D01*
X122032597Y-95457220D01*
X121423724Y-96280065D02*
X121361784Y-95865620D01*
X121388199Y-95784635D01*
X121457922Y-95735697D01*
X121608629Y-95713174D01*
X121689614Y-95739589D01*
X121418093Y-96242388D02*
X121499077Y-96268803D01*
X121687461Y-96240649D01*
X121757184Y-96191710D01*
X121783599Y-96110726D01*
X121772337Y-96035372D01*
X121723399Y-95965650D01*
X121642414Y-95939234D01*
X121454030Y-95967389D01*
X121373046Y-95940973D01*
X120968124Y-95808898D02*
X121046956Y-96336373D01*
X120979386Y-95884251D02*
X120936078Y-95852205D01*
X120855094Y-95825790D01*
X120742063Y-95842683D01*
X120672340Y-95891621D01*
X120645925Y-95972606D01*
X120707864Y-96387050D01*
X119992005Y-96494036D02*
X119930066Y-96079592D01*
X119956481Y-95998607D01*
X120026204Y-95949669D01*
X120176911Y-95927145D01*
X120257896Y-95953560D01*
X119986374Y-96456360D02*
X120067359Y-96482775D01*
X120255743Y-96454620D01*
X120325466Y-96405682D01*
X120351881Y-96324698D01*
X120340619Y-96249344D01*
X120291681Y-96179621D01*
X120210696Y-96153206D01*
X120022312Y-96181360D01*
X119941328Y-96154945D01*
X119069131Y-96246778D02*
X119101177Y-96203470D01*
X119170899Y-96154531D01*
X119246253Y-96143270D01*
X119327237Y-96169685D01*
X119370545Y-96201731D01*
X119419484Y-96271454D01*
X119430745Y-96346807D01*
X119404330Y-96427792D01*
X119372284Y-96471099D01*
X119302561Y-96520038D01*
X119227208Y-96531299D01*
X119146223Y-96504884D01*
X119102916Y-96472838D01*
X119057869Y-96171424D02*
X119102916Y-96472838D01*
X119070870Y-96516146D01*
X119033193Y-96521777D01*
X118952209Y-96495362D01*
X118903270Y-96425639D01*
X118875116Y-96237255D01*
X118933577Y-96112963D01*
X119035346Y-96020717D01*
X119180422Y-95960517D01*
X119336760Y-95975670D01*
X119461052Y-96034131D01*
X119553298Y-96135900D01*
X119613498Y-96280976D01*
X119598345Y-96437314D01*
X119539884Y-96561606D01*
X119438115Y-96653852D01*
X119293039Y-96714053D01*
X119136701Y-96698899D01*
X119012409Y-96640438D01*
X118597964Y-96702377D02*
X118519132Y-96174902D01*
X118530394Y-96250256D02*
X118487086Y-96218210D01*
X118406102Y-96191795D01*
X118293071Y-96208687D01*
X118223349Y-96257626D01*
X118196934Y-96338610D01*
X118258873Y-96753055D01*
X118196934Y-96338610D02*
X118147995Y-96268887D01*
X118067011Y-96242472D01*
X117953980Y-96259365D01*
X117884258Y-96308303D01*
X117857842Y-96389288D01*
X117919782Y-96803732D01*
X117539536Y-96321304D02*
X117429983Y-96876933D01*
X117162768Y-96377612D02*
X117429983Y-96876933D01*
X117533491Y-97054055D01*
X117576799Y-97086101D01*
X117657783Y-97112516D01*
X116972231Y-96906826D02*
X116902508Y-96955765D01*
X116751801Y-96978288D01*
X116670817Y-96951873D01*
X116621878Y-96882150D01*
X116616247Y-96844473D01*
X116642662Y-96763489D01*
X116712385Y-96714551D01*
X116825416Y-96697658D01*
X116895138Y-96648720D01*
X116921553Y-96567735D01*
X116915923Y-96530058D01*
X116866984Y-96460336D01*
X116786000Y-96433920D01*
X116672969Y-96450813D01*
X116603247Y-96499751D01*
X116333878Y-96501491D02*
X116032464Y-96546537D01*
X116181432Y-96254645D02*
X116282787Y-96932828D01*
X116256372Y-97013812D01*
X116186649Y-97062751D01*
X116111295Y-97074012D01*
X115847558Y-97113428D02*
X115768726Y-96585953D01*
X115729310Y-96322215D02*
X115772618Y-96354261D01*
X115740572Y-96397569D01*
X115697264Y-96365523D01*
X115729310Y-96322215D01*
X115740572Y-96397569D01*
X115126068Y-97182737D02*
X115207052Y-97209152D01*
X115357760Y-97186629D01*
X115427482Y-97137691D01*
X115459528Y-97094383D01*
X115485943Y-97013398D01*
X115452158Y-96787338D01*
X115403220Y-96717615D01*
X115359912Y-96685569D01*
X115278928Y-96659154D01*
X115128221Y-96681677D01*
X115058498Y-96730616D01*
X114453516Y-97321769D02*
X114391577Y-96907324D01*
X114417992Y-96826340D01*
X114487715Y-96777401D01*
X114638422Y-96754878D01*
X114719407Y-96781293D01*
X114447886Y-97284092D02*
X114528870Y-97310507D01*
X114717254Y-97282353D01*
X114786977Y-97233415D01*
X114813392Y-97152430D01*
X114802130Y-97077077D01*
X114753192Y-97007354D01*
X114672207Y-96980939D01*
X114483823Y-97009093D01*
X114402839Y-96982678D01*
X113963718Y-97394970D02*
X114033441Y-97346031D01*
X114059856Y-97265047D01*
X113958501Y-96586865D01*
X113651042Y-97364663D02*
X113618996Y-97407971D01*
X113662304Y-97440017D01*
X113694350Y-97396709D01*
X113651042Y-97364663D01*
X113662304Y-97440017D01*
X112867613Y-97019527D02*
X112963337Y-97660033D01*
X113012276Y-97729756D01*
X113055583Y-97761802D01*
X113136568Y-97788217D01*
X113249598Y-97771324D01*
X113319321Y-97722386D01*
X112940814Y-97509326D02*
X113021798Y-97535741D01*
X113172505Y-97513217D01*
X113242228Y-97464279D01*
X113274274Y-97420971D01*
X113300689Y-97339987D01*
X113266904Y-97113926D01*
X113217966Y-97044203D01*
X113174658Y-97012157D01*
X113093674Y-96985742D01*
X112942967Y-97008266D01*
X112873244Y-97057204D01*
X112230586Y-97653988D02*
X112168646Y-97239544D01*
X112195062Y-97158559D01*
X112264784Y-97109621D01*
X112415491Y-97087097D01*
X112496476Y-97113512D01*
X112224955Y-97616311D02*
X112305939Y-97642727D01*
X112494323Y-97614572D01*
X112564046Y-97565634D01*
X112590461Y-97484650D01*
X112579199Y-97409296D01*
X112530261Y-97339573D01*
X112449276Y-97313158D01*
X112260893Y-97341312D01*
X112179908Y-97314897D01*
X111853818Y-97710297D02*
X111774986Y-97182822D01*
X111797509Y-97333529D02*
X111748571Y-97263806D01*
X111705263Y-97231760D01*
X111624279Y-97205345D01*
X111548925Y-97216607D01*
X111024928Y-97834175D02*
X110906681Y-97042962D01*
X111019297Y-97796498D02*
X111100282Y-97822913D01*
X111250989Y-97800390D01*
X111320712Y-97751452D01*
X111352758Y-97708144D01*
X111379173Y-97627159D01*
X111345388Y-97401099D01*
X111296449Y-97331376D01*
X111253142Y-97299330D01*
X111172157Y-97272915D01*
X111021450Y-97295438D01*
X110951727Y-97344377D01*
X110341115Y-97897853D02*
X110422099Y-97924268D01*
X110572807Y-97901745D01*
X110642529Y-97852807D01*
X110668945Y-97771822D01*
X110623898Y-97470408D01*
X110574959Y-97400685D01*
X110493975Y-97374270D01*
X110343268Y-97396793D01*
X110273545Y-97445732D01*
X110247130Y-97526716D01*
X110258392Y-97602070D01*
X110646421Y-97621115D01*
X109891146Y-97464363D02*
X109969978Y-97991838D01*
X109902408Y-97539717D02*
X109859100Y-97507671D01*
X109778116Y-97481256D01*
X109665085Y-97498148D01*
X109595363Y-97547087D01*
X109568948Y-97628071D01*
X109630887Y-98042516D01*
D11*
X137961904Y-98251666D02*
X137580952Y-97985000D01*
X137961904Y-97794523D02*
X137161904Y-97794523D01*
X137161904Y-98099285D01*
X137200000Y-98175476D01*
X137238095Y-98213571D01*
X137314285Y-98251666D01*
X137428571Y-98251666D01*
X137504761Y-98213571D01*
X137542857Y-98175476D01*
X137580952Y-98099285D01*
X137580952Y-97794523D01*
X137161904Y-98518333D02*
X137961904Y-99051666D01*
X137161904Y-99051666D02*
X137961904Y-98518333D01*
X137961904Y-99356428D02*
X137161904Y-99356428D01*
X137161904Y-99546904D01*
X137200000Y-99661190D01*
X137276190Y-99737380D01*
X137352380Y-99775476D01*
X137504761Y-99813571D01*
X137619047Y-99813571D01*
X137771428Y-99775476D01*
X137847619Y-99737380D01*
X137923809Y-99661190D01*
X137961904Y-99546904D01*
X137961904Y-99356428D01*
X137200000Y-93090476D02*
X137161904Y-93014285D01*
X137161904Y-92900000D01*
X137200000Y-92785714D01*
X137276190Y-92709523D01*
X137352380Y-92671428D01*
X137504761Y-92633333D01*
X137619047Y-92633333D01*
X137771428Y-92671428D01*
X137847619Y-92709523D01*
X137923809Y-92785714D01*
X137961904Y-92900000D01*
X137961904Y-92976190D01*
X137923809Y-93090476D01*
X137885714Y-93128571D01*
X137619047Y-93128571D01*
X137619047Y-92976190D01*
X137961904Y-93471428D02*
X137161904Y-93471428D01*
X137961904Y-93928571D01*
X137161904Y-93928571D01*
X137961904Y-94309523D02*
X137161904Y-94309523D01*
X137161904Y-94500000D01*
X137200000Y-94614285D01*
X137276190Y-94690476D01*
X137352380Y-94728571D01*
X137504761Y-94766666D01*
X137619047Y-94766666D01*
X137771428Y-94728571D01*
X137847619Y-94690476D01*
X137923809Y-94614285D01*
X137961904Y-94500000D01*
X137961904Y-94309523D01*
X137542857Y-100719523D02*
X137542857Y-100986190D01*
X137961904Y-101100476D02*
X137961904Y-100719523D01*
X137161904Y-100719523D01*
X137161904Y-101100476D01*
X137961904Y-101443333D02*
X137161904Y-101443333D01*
X137961904Y-101900476D01*
X137161904Y-101900476D01*
X137961904Y-103050000D02*
X137161904Y-103050000D01*
X137161904Y-103583333D02*
X137161904Y-103735714D01*
X137200000Y-103811904D01*
X137276190Y-103888095D01*
X137428571Y-103926190D01*
X137695238Y-103926190D01*
X137847619Y-103888095D01*
X137923809Y-103811904D01*
X137961904Y-103735714D01*
X137961904Y-103583333D01*
X137923809Y-103507142D01*
X137847619Y-103430952D01*
X137695238Y-103392857D01*
X137428571Y-103392857D01*
X137276190Y-103430952D01*
X137200000Y-103507142D01*
X137161904Y-103583333D01*
X137161904Y-104421428D02*
X137161904Y-104497619D01*
X137200000Y-104573809D01*
X137238095Y-104611904D01*
X137314285Y-104650000D01*
X137466666Y-104688095D01*
X137657142Y-104688095D01*
X137809523Y-104650000D01*
X137885714Y-104611904D01*
X137923809Y-104573809D01*
X137961904Y-104497619D01*
X137961904Y-104421428D01*
X137923809Y-104345238D01*
X137885714Y-104307142D01*
X137809523Y-104269047D01*
X137657142Y-104230952D01*
X137466666Y-104230952D01*
X137314285Y-104269047D01*
X137238095Y-104307142D01*
X137200000Y-104345238D01*
X137161904Y-104421428D01*
X137161904Y-95220476D02*
X137161904Y-95677619D01*
X137961904Y-95449047D02*
X137161904Y-95449047D01*
X137161904Y-95868095D02*
X137961904Y-96401428D01*
X137161904Y-96401428D02*
X137961904Y-95868095D01*
X137961904Y-96706190D02*
X137161904Y-96706190D01*
X137161904Y-96896666D01*
X137200000Y-97010952D01*
X137276190Y-97087142D01*
X137352380Y-97125238D01*
X137504761Y-97163333D01*
X137619047Y-97163333D01*
X137771428Y-97125238D01*
X137847619Y-97087142D01*
X137923809Y-97010952D01*
X137961904Y-96896666D01*
X137961904Y-96706190D01*
M02*
