M48
; DRILL file {KiCad 6.0.0-d3dd2cf0fa~116~ubuntu20.04.1} date Sun 09 Jan 2022 06:16:13 PM CET
; FORMAT={-:-/ absolute / metric / decimal}
; #@! TF.CreationDate,2022-01-09T18:16:13+01:00
; #@! TF.GenerationSoftware,Kicad,Pcbnew,6.0.0-d3dd2cf0fa~116~ubuntu20.04.1
; #@! TF.FileFunction,Plated,1,2,PTH
FMAT,2
METRIC
; #@! TA.AperFunction,Plated,PTH,ViaDrill
T1C0.400
; #@! TA.AperFunction,Plated,PTH,ComponentDrill
T2C0.600
; #@! TA.AperFunction,Plated,PTH,ComponentDrill
T3C1.000
; #@! TA.AperFunction,Plated,PTH,ComponentDrill
T4C1.016
%
G90
G05
T1
X105.11Y-98.96
X105.43Y-98.29
X108.259Y-100.774
X108.6Y-96.8
X109.1Y-101.1
X109.26Y-99.43
X109.9Y-97.3
X110.0Y-96.0
X111.37Y-103.83
X111.75Y-97.35
X113.1Y-94.9
X113.37Y-105.84
X116.0Y-97.9
X116.1Y-95.2
X116.5Y-99.6
X116.5Y-101.0
X116.5Y-102.4
X116.5Y-103.8
X116.53Y-105.93
X116.6Y-97.35
X117.0Y-95.6
X117.1Y-96.6
X117.7Y-97.2
X117.71Y-95.55
X120.4Y-94.5
X121.0Y-97.45
X121.3Y-103.8
X122.5Y-95.05
X122.5Y-98.5
X124.1Y-92.7
X124.3Y-94.4
X124.3Y-97.1
X124.35Y-107.1
X124.9Y-102.7
X125.75Y-102.8
X126.0Y-96.1
X126.0Y-99.1
X126.5Y-103.75
X126.65Y-101.9
X128.2Y-94.5
X132.1Y-98.0
X132.15Y-100.65
X132.15Y-102.55
X132.3Y-94.9
X133.3Y-95.8
X133.8Y-99.1
X133.8Y-104.55
X133.85Y-100.65
X133.85Y-102.55
X133.9Y-107.1
T3
X135.48Y-93.69
X135.48Y-96.23
X135.48Y-98.77
X135.48Y-101.31
X135.48Y-103.85
X135.48Y-106.39
T4
X128.06Y-97.46
X128.06Y-100.0
X128.06Y-102.54
X130.6Y-97.46
X130.6Y-100.0
X130.6Y-102.54
T2
X102.205Y-95.68G85X101.605Y-95.68
G05
X102.205Y-104.32G85X101.605Y-104.32
G05
X106.635Y-95.68G85X105.535Y-95.68
G05
X106.635Y-104.32G85X105.535Y-104.32
G05
T0
M30
