G04 #@! TF.GenerationSoftware,KiCad,Pcbnew,6.0.0-d3dd2cf0fa~116~ubuntu20.04.1*
G04 #@! TF.CreationDate,2022-01-09T18:16:10+01:00*
G04 #@! TF.ProjectId,ESP-TC-PROG,4553502d-5443-42d5-9052-4f472e6b6963,rev?*
G04 #@! TF.SameCoordinates,Original*
G04 #@! TF.FileFunction,Paste,Top*
G04 #@! TF.FilePolarity,Positive*
%FSLAX46Y46*%
G04 Gerber Fmt 4.6, Leading zero omitted, Abs format (unit mm)*
G04 Created by KiCad (PCBNEW 6.0.0-d3dd2cf0fa~116~ubuntu20.04.1) date 2022-01-09 18:16:10*
%MOMM*%
%LPD*%
G01*
G04 APERTURE LIST*
G04 Aperture macros list*
%AMRoundRect*
0 Rectangle with rounded corners*
0 $1 Rounding radius*
0 $2 $3 $4 $5 $6 $7 $8 $9 X,Y pos of 4 corners*
0 Add a 4 corners polygon primitive as box body*
4,1,4,$2,$3,$4,$5,$6,$7,$8,$9,$2,$3,0*
0 Add four circle primitives for the rounded corners*
1,1,$1+$1,$2,$3*
1,1,$1+$1,$4,$5*
1,1,$1+$1,$6,$7*
1,1,$1+$1,$8,$9*
0 Add four rect primitives between the rounded corners*
20,1,$1+$1,$2,$3,$4,$5,0*
20,1,$1+$1,$4,$5,$6,$7,0*
20,1,$1+$1,$6,$7,$8,$9,0*
20,1,$1+$1,$8,$9,$2,$3,0*%
%AMRotRect*
0 Rectangle, with rotation*
0 The origin of the aperture is its center*
0 $1 length*
0 $2 width*
0 $3 Rotation angle, in degrees counterclockwise*
0 Add horizontal line*
21,1,$1,$2,0,0,$3*%
G04 Aperture macros list end*
%ADD10R,0.600000X0.500000*%
%ADD11RoundRect,0.218750X-0.178471X-0.285769X0.254223X-0.221102X0.178471X0.285769X-0.254223X0.221102X0*%
%ADD12R,1.450000X0.600000*%
%ADD13R,1.450000X0.300000*%
%ADD14R,0.800000X0.900000*%
%ADD15RotRect,0.500000X0.600000X188.500000*%
%ADD16R,0.500000X0.600000*%
%ADD17R,0.650000X1.060000*%
%ADD18R,1.950000X0.600000*%
%ADD19R,1.400000X1.200000*%
%ADD20R,0.600000X0.900000*%
G04 APERTURE END LIST*
D10*
X110900000Y-97370000D03*
X110900000Y-96430000D03*
X108460000Y-103760000D03*
X108460000Y-104700000D03*
X112600000Y-97370000D03*
X112600000Y-96430000D03*
D11*
X110521150Y-95016400D03*
X112078850Y-94783600D03*
D12*
X107000000Y-96800000D03*
X107000000Y-97600000D03*
D13*
X107000000Y-98750000D03*
X107000000Y-99750000D03*
X107000000Y-100250000D03*
X107000000Y-101250000D03*
D12*
X107000000Y-97600000D03*
X107000000Y-96800000D03*
X107000000Y-103200000D03*
X107000000Y-102400000D03*
D13*
X107000000Y-101750000D03*
X107000000Y-100750000D03*
X107000000Y-99250000D03*
X107000000Y-98250000D03*
D12*
X107000000Y-102400000D03*
X107000000Y-103200000D03*
D14*
X121550000Y-99425000D03*
X123450000Y-99425000D03*
X122500000Y-97425000D03*
D15*
X109314837Y-95230530D03*
X108385163Y-95369470D03*
D16*
X123105000Y-100625000D03*
X124045000Y-100625000D03*
X122145000Y-100625000D03*
X121205000Y-100625000D03*
X120430000Y-93550000D03*
X121370000Y-93550000D03*
D17*
X109950000Y-100900000D03*
X110900000Y-100900000D03*
X111850000Y-100900000D03*
X111850000Y-98700000D03*
X110900000Y-98700000D03*
X109950000Y-98700000D03*
D18*
X114525000Y-95555000D03*
X114525000Y-96825000D03*
X114525000Y-98095000D03*
X114525000Y-99365000D03*
X114525000Y-100635000D03*
X114525000Y-101905000D03*
X114525000Y-103175000D03*
X114525000Y-104445000D03*
X119475000Y-104445000D03*
X119475000Y-103175000D03*
X119475000Y-101905000D03*
X119475000Y-100635000D03*
X119475000Y-99365000D03*
X119475000Y-98095000D03*
X119475000Y-96825000D03*
X119475000Y-95555000D03*
D19*
X110090000Y-104350000D03*
X112290000Y-104350000D03*
X112290000Y-102650000D03*
X110090000Y-102650000D03*
D10*
X108500000Y-102770000D03*
X108500000Y-101830000D03*
D14*
X123550000Y-101825000D03*
X121650000Y-101825000D03*
X122600000Y-103825000D03*
D10*
X119350000Y-94370000D03*
X119350000Y-93430000D03*
D20*
X118300000Y-94200000D03*
X116800000Y-94200000D03*
D16*
X114310000Y-105790000D03*
X115250000Y-105790000D03*
D14*
X121550000Y-96025000D03*
X123450000Y-96025000D03*
X122500000Y-94025000D03*
D10*
X108600000Y-97680000D03*
X108600000Y-98620000D03*
M02*
