M48
; DRILL file {KiCad 5.1.5-52549c5~84~ubuntu19.10.1} date Do 02 Apr 2020 17:38:43 CEST
; FORMAT={-:-/ absolute / inch / decimal}
; #@! TF.CreationDate,2020-04-02T17:38:43+02:00
; #@! TF.GenerationSoftware,Kicad,Pcbnew,5.1.5-52549c5~84~ubuntu19.10.1
; #@! TF.FileFunction,Plated,1,2,PTH
FMAT,2
INCH
T1C0.0157
T2C0.0236
T3C0.0394
T4C0.0400
%
G90
G05
T1
X4.1382Y-3.8961
X4.1508Y-3.8697
X4.2622Y-3.9675
X4.2756Y-3.811
X4.2953Y-3.9803
X4.3016Y-3.9146
X4.3268Y-3.8307
X4.3307Y-3.7795
X4.3846Y-4.0878
X4.3996Y-3.8327
X4.4528Y-3.7362
X4.4634Y-4.1669
X4.5669Y-3.8543
X4.5709Y-3.748
X4.5866Y-3.9213
X4.5866Y-3.9764
X4.5866Y-4.0315
X4.5866Y-4.0866
X4.5878Y-4.1705
X4.5906Y-3.8327
X4.6063Y-3.7638
X4.6102Y-3.8031
X4.6339Y-3.8268
X4.6343Y-3.7618
X4.7402Y-3.7205
X4.7638Y-3.8366
X4.7756Y-4.0866
X4.8228Y-3.7421
X4.8228Y-3.878
X4.8858Y-3.6496
X4.8937Y-3.7165
X4.8937Y-3.8228
X4.8957Y-4.2165
X4.9173Y-4.0433
X4.9508Y-4.0472
X4.9606Y-3.7835
X4.9606Y-3.9016
X4.9803Y-4.0846
X4.9862Y-4.0118
X5.0472Y-3.7205
X5.2008Y-3.8583
X5.2028Y-3.9626
X5.2028Y-4.0374
X5.2087Y-3.7362
X5.248Y-3.7717
X5.2677Y-3.9016
X5.2677Y-4.1161
X5.2697Y-3.9626
X5.2697Y-4.0374
X5.2717Y-4.2165
T3
X5.3339Y-3.6886
X5.3339Y-3.7886
X5.3339Y-3.8886
X5.3339Y-3.9886
X5.3339Y-4.0886
X5.3339Y-4.1886
T4
X5.0417Y-3.837
X5.0417Y-3.937
X5.0417Y-4.037
X5.1417Y-3.837
X5.1417Y-3.937
X5.1417Y-4.037
T2
X4.0238Y-3.7669G85X4.0002Y-3.7669
G05
X4.0238Y-4.1071G85X4.0002Y-4.1071
G05
X4.1982Y-3.7669G85X4.1549Y-3.7669
G05
X4.1982Y-4.1071G85X4.1549Y-4.1071
G05
T0
M30
