G04 #@! TF.GenerationSoftware,KiCad,Pcbnew,5.1.5-52549c5~84~ubuntu19.10.1*
G04 #@! TF.CreationDate,2020-03-14T21:45:10+01:00*
G04 #@! TF.ProjectId,ESP-TC-PROG,4553502d-5443-42d5-9052-4f472e6b6963,rev?*
G04 #@! TF.SameCoordinates,Original*
G04 #@! TF.FileFunction,Copper,L1,Top*
G04 #@! TF.FilePolarity,Positive*
%FSLAX46Y46*%
G04 Gerber Fmt 4.6, Leading zero omitted, Abs format (unit mm)*
G04 Created by KiCad (PCBNEW 5.1.5-52549c5~84~ubuntu19.10.1) date 2020-03-14 21:45:10*
%MOMM*%
%LPD*%
G04 APERTURE LIST*
%ADD10R,0.800000X0.900000*%
%ADD11O,1.727200X1.727200*%
%ADD12R,1.727200X1.727200*%
%ADD13O,1.700000X1.700000*%
%ADD14R,1.700000X1.700000*%
%ADD15R,1.400000X1.200000*%
%ADD16R,1.950000X0.600000*%
%ADD17R,0.650000X1.060000*%
%ADD18R,0.500000X0.600000*%
%ADD19C,0.100000*%
%ADD20R,0.600000X0.500000*%
%ADD21R,1.450000X0.600000*%
%ADD22O,2.100000X1.000000*%
%ADD23O,1.600000X1.000000*%
%ADD24R,1.450000X0.300000*%
%ADD25R,0.600000X0.900000*%
%ADD26C,0.600000*%
%ADD27C,0.200000*%
%ADD28C,0.300000*%
%ADD29C,0.400000*%
G04 APERTURE END LIST*
D10*
X122500000Y-94025000D03*
X123450000Y-96025000D03*
X121550000Y-96025000D03*
D11*
X128060000Y-97460000D03*
X130600000Y-97460000D03*
X128060000Y-100000000D03*
X130600000Y-100000000D03*
X128060000Y-102540000D03*
D12*
X130600000Y-102540000D03*
D13*
X135480000Y-93690000D03*
X135480000Y-96230000D03*
X135480000Y-98770000D03*
X135480000Y-101310000D03*
X135480000Y-103850000D03*
D14*
X135480000Y-106390000D03*
D15*
X112300000Y-104350000D03*
X110100000Y-104350000D03*
X110100000Y-102650000D03*
X112300000Y-102650000D03*
D16*
X119475000Y-95555000D03*
X119475000Y-96825000D03*
X119475000Y-98095000D03*
X119475000Y-99365000D03*
X119475000Y-100635000D03*
X119475000Y-101905000D03*
X119475000Y-103175000D03*
X119475000Y-104445000D03*
X114525000Y-104445000D03*
X114525000Y-103175000D03*
X114525000Y-101905000D03*
X114525000Y-100635000D03*
X114525000Y-99365000D03*
X114525000Y-98095000D03*
X114525000Y-96825000D03*
X114525000Y-95555000D03*
D17*
X110900000Y-98700000D03*
X109950000Y-98700000D03*
X111850000Y-98700000D03*
X111850000Y-100900000D03*
X110900000Y-100900000D03*
X109950000Y-100900000D03*
D18*
X121370000Y-93550000D03*
X120430000Y-93550000D03*
X121205000Y-100625000D03*
X122145000Y-100625000D03*
X124045000Y-100625000D03*
X123105000Y-100625000D03*
G04 #@! TA.AperFunction,SMDPad,CuDef*
D19*
G36*
X108588074Y-95035813D02*
G01*
X108676760Y-95629222D01*
X108182252Y-95703127D01*
X108093566Y-95109718D01*
X108588074Y-95035813D01*
G37*
G04 #@! TD.AperFunction*
G04 #@! TA.AperFunction,SMDPad,CuDef*
G36*
X109517748Y-94896873D02*
G01*
X109606434Y-95490282D01*
X109111926Y-95564187D01*
X109023240Y-94970778D01*
X109517748Y-94896873D01*
G37*
G04 #@! TD.AperFunction*
D20*
X108500000Y-101830000D03*
X108500000Y-102770000D03*
X108600000Y-98620000D03*
X108600000Y-97680000D03*
D10*
X122500000Y-97425000D03*
X123450000Y-99425000D03*
X121550000Y-99425000D03*
X122600000Y-103825000D03*
X121650000Y-101825000D03*
X123550000Y-101825000D03*
D21*
X107000000Y-97600000D03*
X107000000Y-102400000D03*
X107000000Y-103200000D03*
X107000000Y-96800000D03*
D22*
X106085000Y-95680000D03*
X106085000Y-104320000D03*
D23*
X101905000Y-95680000D03*
X101905000Y-104320000D03*
D21*
X107000000Y-103200000D03*
X107000000Y-102400000D03*
D24*
X107000000Y-101750000D03*
X107000000Y-101250000D03*
X107000000Y-100750000D03*
X107000000Y-100250000D03*
X107000000Y-99750000D03*
X107000000Y-99250000D03*
X107000000Y-98750000D03*
X107000000Y-98250000D03*
D21*
X107000000Y-97600000D03*
X107000000Y-96800000D03*
G04 #@! TA.AperFunction,SMDPad,CuDef*
D19*
G36*
X112289182Y-94281414D02*
G01*
X112310241Y-94285579D01*
X112330791Y-94291788D01*
X112350633Y-94299981D01*
X112369576Y-94310080D01*
X112387438Y-94321987D01*
X112404047Y-94335588D01*
X112419244Y-94350751D01*
X112432880Y-94367330D01*
X112444826Y-94385166D01*
X112454966Y-94404087D01*
X112463203Y-94423912D01*
X112469457Y-94444447D01*
X112473668Y-94465498D01*
X112549420Y-94972369D01*
X112551548Y-94993730D01*
X112551571Y-95015197D01*
X112549490Y-95036563D01*
X112545325Y-95057623D01*
X112539116Y-95078172D01*
X112530922Y-95098014D01*
X112520824Y-95116957D01*
X112508917Y-95134820D01*
X112495316Y-95151429D01*
X112480153Y-95166625D01*
X112463574Y-95180261D01*
X112445737Y-95192207D01*
X112426816Y-95202348D01*
X112406992Y-95210584D01*
X112386456Y-95216838D01*
X112365407Y-95221049D01*
X111932713Y-95285716D01*
X111911351Y-95287844D01*
X111889884Y-95287867D01*
X111868518Y-95285786D01*
X111847459Y-95281621D01*
X111826909Y-95275412D01*
X111807067Y-95267219D01*
X111788124Y-95257120D01*
X111770262Y-95245213D01*
X111753653Y-95231612D01*
X111738456Y-95216449D01*
X111724820Y-95199870D01*
X111712874Y-95182034D01*
X111702734Y-95163113D01*
X111694497Y-95143288D01*
X111688243Y-95122753D01*
X111684032Y-95101702D01*
X111608280Y-94594831D01*
X111606152Y-94573470D01*
X111606129Y-94552003D01*
X111608210Y-94530637D01*
X111612375Y-94509577D01*
X111618584Y-94489028D01*
X111626778Y-94469186D01*
X111636876Y-94450243D01*
X111648783Y-94432380D01*
X111662384Y-94415771D01*
X111677547Y-94400575D01*
X111694126Y-94386939D01*
X111711963Y-94374993D01*
X111730884Y-94364852D01*
X111750708Y-94356616D01*
X111771244Y-94350362D01*
X111792293Y-94346151D01*
X112224987Y-94281484D01*
X112246349Y-94279356D01*
X112267816Y-94279333D01*
X112289182Y-94281414D01*
G37*
G04 #@! TD.AperFunction*
G04 #@! TA.AperFunction,SMDPad,CuDef*
G36*
X110731482Y-94514214D02*
G01*
X110752541Y-94518379D01*
X110773091Y-94524588D01*
X110792933Y-94532781D01*
X110811876Y-94542880D01*
X110829738Y-94554787D01*
X110846347Y-94568388D01*
X110861544Y-94583551D01*
X110875180Y-94600130D01*
X110887126Y-94617966D01*
X110897266Y-94636887D01*
X110905503Y-94656712D01*
X110911757Y-94677247D01*
X110915968Y-94698298D01*
X110991720Y-95205169D01*
X110993848Y-95226530D01*
X110993871Y-95247997D01*
X110991790Y-95269363D01*
X110987625Y-95290423D01*
X110981416Y-95310972D01*
X110973222Y-95330814D01*
X110963124Y-95349757D01*
X110951217Y-95367620D01*
X110937616Y-95384229D01*
X110922453Y-95399425D01*
X110905874Y-95413061D01*
X110888037Y-95425007D01*
X110869116Y-95435148D01*
X110849292Y-95443384D01*
X110828756Y-95449638D01*
X110807707Y-95453849D01*
X110375013Y-95518516D01*
X110353651Y-95520644D01*
X110332184Y-95520667D01*
X110310818Y-95518586D01*
X110289759Y-95514421D01*
X110269209Y-95508212D01*
X110249367Y-95500019D01*
X110230424Y-95489920D01*
X110212562Y-95478013D01*
X110195953Y-95464412D01*
X110180756Y-95449249D01*
X110167120Y-95432670D01*
X110155174Y-95414834D01*
X110145034Y-95395913D01*
X110136797Y-95376088D01*
X110130543Y-95355553D01*
X110126332Y-95334502D01*
X110050580Y-94827631D01*
X110048452Y-94806270D01*
X110048429Y-94784803D01*
X110050510Y-94763437D01*
X110054675Y-94742377D01*
X110060884Y-94721828D01*
X110069078Y-94701986D01*
X110079176Y-94683043D01*
X110091083Y-94665180D01*
X110104684Y-94648571D01*
X110119847Y-94633375D01*
X110136426Y-94619739D01*
X110154263Y-94607793D01*
X110173184Y-94597652D01*
X110193008Y-94589416D01*
X110213544Y-94583162D01*
X110234593Y-94578951D01*
X110667287Y-94514284D01*
X110688649Y-94512156D01*
X110710116Y-94512133D01*
X110731482Y-94514214D01*
G37*
G04 #@! TD.AperFunction*
D20*
X112600000Y-96430000D03*
X112600000Y-97370000D03*
D18*
X113830000Y-105800000D03*
X114770000Y-105800000D03*
D20*
X108500000Y-103760000D03*
X108500000Y-104700000D03*
X119350000Y-93430000D03*
X119350000Y-94370000D03*
X110900000Y-96430000D03*
X110900000Y-97370000D03*
D25*
X116800000Y-94200000D03*
X118300000Y-94200000D03*
D26*
X109100000Y-101100000D03*
X112800000Y-105600000D03*
X111600000Y-105500000D03*
X108600000Y-96800000D03*
X109900000Y-97300000D03*
X116100000Y-95200000D03*
X117100000Y-96600000D03*
X116500000Y-99600000D03*
X116500000Y-101000000D03*
X116500000Y-102400000D03*
X116500000Y-103800000D03*
X121300000Y-103800000D03*
X124900000Y-102700000D03*
X122500000Y-98500000D03*
X124300000Y-97100000D03*
X126000000Y-99100000D03*
X124100000Y-92700000D03*
X124300000Y-94400000D03*
X126000000Y-96100000D03*
X128200000Y-94500000D03*
X132300000Y-94900000D03*
X133300000Y-95800000D03*
X133800000Y-99100000D03*
X132100000Y-98000000D03*
X132150000Y-100650000D03*
X133850000Y-100650000D03*
X133850000Y-102550000D03*
X132150000Y-102550000D03*
X133800000Y-104550000D03*
X126500000Y-103750000D03*
X121000000Y-97450000D03*
X110000000Y-96000000D03*
X113100000Y-94900000D03*
X133900000Y-107100000D03*
X124350000Y-107100000D03*
X105430000Y-98290000D03*
X105110000Y-98960000D03*
X117710000Y-95550000D03*
X117000000Y-95600000D03*
X111750000Y-97350000D03*
X113620000Y-102810000D03*
X110960000Y-102710000D03*
X120400000Y-94500000D03*
X117700000Y-97199998D03*
X109260000Y-99430000D03*
X108258831Y-100773533D03*
X126650000Y-101900000D03*
X125750000Y-102800002D03*
X116600000Y-97350000D03*
X116000000Y-97900000D03*
X122500000Y-95050000D03*
D27*
X108070000Y-103200000D02*
X107000000Y-103200000D01*
X108500000Y-102770000D02*
X108070000Y-103200000D01*
D28*
X112200000Y-102650000D02*
X111550000Y-103300000D01*
X111550000Y-103300000D02*
X111300000Y-103300000D01*
X110900000Y-101350000D02*
X110900000Y-100900000D01*
X112200000Y-102650000D02*
X110900000Y-101350000D01*
X112300000Y-102650000D02*
X112200000Y-102650000D01*
X109750000Y-104700000D02*
X110100000Y-104350000D01*
X109100000Y-104700000D02*
X109100000Y-105000000D01*
X108500000Y-104700000D02*
X109100000Y-104700000D01*
X109100000Y-104700000D02*
X109750000Y-104700000D01*
X107000000Y-103405000D02*
X106085000Y-104320000D01*
X107000000Y-103200000D02*
X107000000Y-103405000D01*
X107000000Y-96595000D02*
X106085000Y-95680000D01*
X107000000Y-96800000D02*
X107000000Y-96595000D01*
D29*
X110900000Y-98700000D02*
X110900000Y-97370000D01*
X119475000Y-94495000D02*
X119350000Y-94370000D01*
X119475000Y-95555000D02*
X119475000Y-94495000D01*
X118470000Y-94370000D02*
X118300000Y-94200000D01*
X119350000Y-94370000D02*
X118470000Y-94370000D01*
X106138002Y-97600000D02*
X107000000Y-97600000D01*
X105304001Y-98415999D02*
X105430000Y-98290000D01*
X105304001Y-98434001D02*
X105304001Y-98415999D01*
X105430000Y-98290000D02*
X106138002Y-97600000D01*
X105130000Y-98608002D02*
X105304001Y-98434001D01*
X105110000Y-98960000D02*
X105130000Y-98608002D01*
X107000000Y-102400000D02*
X106138002Y-102400000D01*
X106138002Y-102400000D02*
X105130000Y-101391998D01*
X105130000Y-98940000D02*
X105110000Y-98960000D01*
X105130000Y-101391998D02*
X105130000Y-98940000D01*
X119430000Y-95600000D02*
X119475000Y-95555000D01*
X117000000Y-95600000D02*
X119430000Y-95600000D01*
X110920000Y-97350000D02*
X110900000Y-97370000D01*
X111750000Y-97350000D02*
X110920000Y-97350000D01*
X111750000Y-95112450D02*
X112078850Y-94783600D01*
X111750000Y-97350000D02*
X111750000Y-95112450D01*
D27*
X114525000Y-103175000D02*
X113985000Y-103175000D01*
X113985000Y-103175000D02*
X113620000Y-102810000D01*
X110160000Y-102710000D02*
X110100000Y-102650000D01*
X110960000Y-102710000D02*
X110160000Y-102710000D01*
X110000000Y-102650000D02*
X110100000Y-102650000D01*
X108890000Y-103760000D02*
X110000000Y-102650000D01*
X108500000Y-103760000D02*
X108890000Y-103760000D01*
X114430000Y-104350000D02*
X114525000Y-104445000D01*
X112300000Y-104350000D02*
X114430000Y-104350000D01*
X114770000Y-104690000D02*
X114525000Y-104445000D01*
X114770000Y-105800000D02*
X114770000Y-104690000D01*
D29*
X112600000Y-98020000D02*
X112600000Y-97370000D01*
X112600000Y-98815000D02*
X112600000Y-98020000D01*
X113150000Y-99365000D02*
X112600000Y-98815000D01*
X114525000Y-99365000D02*
X113150000Y-99365000D01*
D27*
X120400000Y-93580000D02*
X120430000Y-93550000D01*
X120400000Y-94500000D02*
X120400000Y-93580000D01*
X121000000Y-92900000D02*
X120430000Y-93470000D01*
X122950000Y-92900000D02*
X121000000Y-92900000D01*
X120430000Y-93470000D02*
X120430000Y-93550000D01*
X123450000Y-96025000D02*
X123450000Y-93400000D01*
X123450000Y-93400000D02*
X122950000Y-92900000D01*
X115534998Y-99365000D02*
X117700000Y-97199998D01*
X114525000Y-99365000D02*
X115534998Y-99365000D01*
D29*
X109528967Y-95016400D02*
X109314837Y-95230530D01*
X110521150Y-95016400D02*
X109528967Y-95016400D01*
D27*
X108420000Y-101750000D02*
X108500000Y-101830000D01*
X107000000Y-101750000D02*
X108420000Y-101750000D01*
X109950000Y-99430000D02*
X109950000Y-98700000D01*
X110170001Y-99650001D02*
X109950000Y-99430000D01*
X107900000Y-99750000D02*
X107000000Y-99750000D01*
X107999999Y-99650001D02*
X107900000Y-99750000D01*
X112560000Y-99650001D02*
X110170001Y-99650001D01*
X113000000Y-100090000D02*
X112560000Y-99650001D01*
X114000000Y-101160000D02*
X113240000Y-101160000D01*
X114525000Y-100635000D02*
X114000000Y-101160000D01*
X113240000Y-101160000D02*
X113000000Y-100920000D01*
X113000000Y-100920000D02*
X113000000Y-100090000D01*
X107000000Y-100750000D02*
X108235298Y-100750000D01*
X108235298Y-100750000D02*
X108258831Y-100773533D01*
X109260000Y-99430000D02*
X109260000Y-99640000D01*
X110170001Y-99650001D02*
X109250000Y-99650000D01*
X109260000Y-99640000D02*
X109250000Y-99650000D01*
X109250000Y-99650000D02*
X107999999Y-99650001D01*
X110069989Y-100050011D02*
X109950000Y-100170000D01*
X109950000Y-100170000D02*
X109950000Y-100900000D01*
X106075000Y-100250000D02*
X105900000Y-100075000D01*
X107000000Y-100250000D02*
X106075000Y-100250000D01*
X105900000Y-99425000D02*
X106075000Y-99250000D01*
X106075000Y-99250000D02*
X107000000Y-99250000D01*
X105900000Y-100075000D02*
X105900000Y-99425000D01*
X113350000Y-101905000D02*
X112599989Y-101154989D01*
X114525000Y-101905000D02*
X113350000Y-101905000D01*
X112394312Y-100050012D02*
X110069989Y-100050011D01*
X112599989Y-100255690D02*
X112394312Y-100050012D01*
X112599989Y-101154989D02*
X112599989Y-100255690D01*
X108165689Y-100050011D02*
X107965700Y-100250000D01*
X107965700Y-100250000D02*
X107000000Y-100250000D01*
X110069989Y-100050011D02*
X108165689Y-100050011D01*
X108100000Y-98620000D02*
X108600000Y-98620000D01*
X107970000Y-98750000D02*
X108100000Y-98620000D01*
X107000000Y-98750000D02*
X107970000Y-98750000D01*
X127196401Y-98323599D02*
X128060000Y-97460000D01*
X126896399Y-98623601D02*
X127196401Y-98323599D01*
X126896399Y-100558529D02*
X126896399Y-98623601D01*
X135480000Y-101310000D02*
X127647870Y-101310000D01*
X127400000Y-101150000D02*
X127400000Y-101100000D01*
X126650000Y-101900000D02*
X127400000Y-101150000D01*
X127647870Y-101310000D02*
X127400000Y-101100000D01*
X127400000Y-101100000D02*
X126896399Y-100558529D01*
X122600000Y-103825000D02*
X124725002Y-103825000D01*
X124725002Y-103825000D02*
X125750000Y-102800002D01*
X134630001Y-97079999D02*
X135480000Y-96230000D01*
X132873601Y-98836399D02*
X134630001Y-97079999D01*
X129223601Y-98836399D02*
X132873601Y-98836399D01*
X128060000Y-100000000D02*
X129223601Y-98836399D01*
X114525000Y-96825000D02*
X116075000Y-96825000D01*
X116075000Y-96825000D02*
X116600000Y-97350000D01*
X134250000Y-100000000D02*
X135480000Y-98770000D01*
X130600000Y-100000000D02*
X134250000Y-100000000D01*
X114525000Y-98095000D02*
X115805000Y-98095000D01*
X115805000Y-98095000D02*
X116000000Y-97900000D01*
X121370000Y-95845000D02*
X121550000Y-96025000D01*
X121370000Y-93550000D02*
X121370000Y-95845000D01*
X121550000Y-96675000D02*
X121550000Y-96025000D01*
X121900000Y-97425000D02*
X121550000Y-97075000D01*
X121550000Y-97075000D02*
X121550000Y-96675000D01*
X122500000Y-97425000D02*
X121900000Y-97425000D01*
X134277919Y-103850000D02*
X135480000Y-103850000D01*
X129350000Y-103850000D02*
X134277919Y-103850000D01*
X128060000Y-102540000D02*
X128060000Y-102560000D01*
X128060000Y-102560000D02*
X129350000Y-103850000D01*
X126340000Y-102540000D02*
X128060000Y-102540000D01*
X122500000Y-97425000D02*
X123325000Y-97425000D01*
X125200000Y-101400000D02*
X126340000Y-102540000D01*
X125200000Y-99300000D02*
X125200000Y-101400000D01*
X123325000Y-97425000D02*
X125200000Y-99300000D01*
X122500000Y-94025000D02*
X122500000Y-95050000D01*
X122145000Y-101330000D02*
X122145000Y-100625000D01*
X121650000Y-101825000D02*
X122145000Y-101330000D01*
X122145000Y-100020000D02*
X122145000Y-100625000D01*
X121550000Y-99425000D02*
X122145000Y-100020000D01*
X123105000Y-99770000D02*
X123450000Y-99425000D01*
X123105000Y-100625000D02*
X123105000Y-99770000D01*
X123105000Y-101380000D02*
X123550000Y-101825000D01*
X123105000Y-100625000D02*
X123105000Y-101380000D01*
X124250001Y-102515001D02*
X124015002Y-102750000D01*
X124250001Y-100880001D02*
X124250001Y-102515001D01*
X124045000Y-100625000D02*
X124045000Y-100675000D01*
X124045000Y-100675000D02*
X124250001Y-100880001D01*
X120865002Y-102750000D02*
X120665002Y-102550000D01*
X124015002Y-102750000D02*
X120865002Y-102750000D01*
X118304998Y-102550000D02*
X118050000Y-102295002D01*
X120665002Y-102550000D02*
X118304998Y-102550000D01*
X118300000Y-99365000D02*
X119475000Y-99365000D01*
X118050000Y-99615000D02*
X118300000Y-99365000D01*
X118050000Y-102295002D02*
X118050000Y-99615000D01*
X121205000Y-100575000D02*
X120850000Y-100220000D01*
X121205000Y-100625000D02*
X121205000Y-100575000D01*
X120850000Y-98295000D02*
X120650000Y-98095000D01*
X120650000Y-98095000D02*
X119475000Y-98095000D01*
X120850000Y-100220000D02*
X120850000Y-98295000D01*
G36*
X137562250Y-92284624D02*
G01*
X137641359Y-92308508D01*
X137714329Y-92347307D01*
X137778371Y-92399539D01*
X137831049Y-92463215D01*
X137870354Y-92535908D01*
X137894793Y-92614859D01*
X137905000Y-92711965D01*
X137905001Y-107284092D01*
X137895376Y-107382250D01*
X137871491Y-107461362D01*
X137832693Y-107534330D01*
X137780460Y-107598373D01*
X137716786Y-107651048D01*
X137644092Y-107690354D01*
X137565140Y-107714793D01*
X137468036Y-107725000D01*
X124523545Y-107725000D01*
X115165991Y-106362132D01*
X115187477Y-106350647D01*
X115233158Y-106313158D01*
X115270647Y-106267477D01*
X115298504Y-106215360D01*
X115315659Y-106158810D01*
X115321451Y-106100000D01*
X115321451Y-105540000D01*
X134328549Y-105540000D01*
X134328549Y-107240000D01*
X134334341Y-107298810D01*
X134351496Y-107355360D01*
X134379353Y-107407477D01*
X134416842Y-107453158D01*
X134462523Y-107490647D01*
X134514640Y-107518504D01*
X134571190Y-107535659D01*
X134630000Y-107541451D01*
X136330000Y-107541451D01*
X136388810Y-107535659D01*
X136445360Y-107518504D01*
X136497477Y-107490647D01*
X136543158Y-107453158D01*
X136580647Y-107407477D01*
X136608504Y-107355360D01*
X136625659Y-107298810D01*
X136631451Y-107240000D01*
X136631451Y-105540000D01*
X136625659Y-105481190D01*
X136608504Y-105424640D01*
X136580647Y-105372523D01*
X136543158Y-105326842D01*
X136497477Y-105289353D01*
X136445360Y-105261496D01*
X136388810Y-105244341D01*
X136330000Y-105238549D01*
X134630000Y-105238549D01*
X134571190Y-105244341D01*
X134514640Y-105261496D01*
X134462523Y-105289353D01*
X134416842Y-105326842D01*
X134379353Y-105372523D01*
X134351496Y-105424640D01*
X134334341Y-105481190D01*
X134328549Y-105540000D01*
X115321451Y-105540000D01*
X115321451Y-105500000D01*
X115315659Y-105441190D01*
X115298504Y-105384640D01*
X115270647Y-105332523D01*
X115233158Y-105286842D01*
X115187477Y-105249353D01*
X115170000Y-105240011D01*
X115170000Y-105046451D01*
X115500000Y-105046451D01*
X115558810Y-105040659D01*
X115615360Y-105023504D01*
X115667477Y-104995647D01*
X115713158Y-104958158D01*
X115750647Y-104912477D01*
X115778504Y-104860360D01*
X115795659Y-104803810D01*
X115801451Y-104745000D01*
X115801451Y-104145000D01*
X118198549Y-104145000D01*
X118198549Y-104745000D01*
X118204341Y-104803810D01*
X118221496Y-104860360D01*
X118249353Y-104912477D01*
X118286842Y-104958158D01*
X118332523Y-104995647D01*
X118384640Y-105023504D01*
X118441190Y-105040659D01*
X118500000Y-105046451D01*
X120450000Y-105046451D01*
X120508810Y-105040659D01*
X120565360Y-105023504D01*
X120617477Y-104995647D01*
X120663158Y-104958158D01*
X120700647Y-104912477D01*
X120728504Y-104860360D01*
X120745659Y-104803810D01*
X120751451Y-104745000D01*
X120751451Y-104145000D01*
X120745659Y-104086190D01*
X120728504Y-104029640D01*
X120700647Y-103977523D01*
X120663158Y-103931842D01*
X120617477Y-103894353D01*
X120565360Y-103866496D01*
X120508810Y-103849341D01*
X120450000Y-103843549D01*
X118500000Y-103843549D01*
X118441190Y-103849341D01*
X118384640Y-103866496D01*
X118332523Y-103894353D01*
X118286842Y-103931842D01*
X118249353Y-103977523D01*
X118221496Y-104029640D01*
X118204341Y-104086190D01*
X118198549Y-104145000D01*
X115801451Y-104145000D01*
X115795659Y-104086190D01*
X115778504Y-104029640D01*
X115750647Y-103977523D01*
X115713158Y-103931842D01*
X115667477Y-103894353D01*
X115615360Y-103866496D01*
X115558810Y-103849341D01*
X115500000Y-103843549D01*
X113550000Y-103843549D01*
X113491190Y-103849341D01*
X113434640Y-103866496D01*
X113382523Y-103894353D01*
X113336842Y-103931842D01*
X113321940Y-103950000D01*
X113301451Y-103950000D01*
X113301451Y-103750000D01*
X113295659Y-103691190D01*
X113278504Y-103634640D01*
X113250647Y-103582523D01*
X113213158Y-103536842D01*
X113168266Y-103500001D01*
X113213159Y-103463159D01*
X113248549Y-103420036D01*
X113248549Y-103475000D01*
X113254341Y-103533810D01*
X113271496Y-103590360D01*
X113299353Y-103642477D01*
X113336842Y-103688158D01*
X113382523Y-103725647D01*
X113434640Y-103753504D01*
X113491190Y-103770659D01*
X113550000Y-103776451D01*
X115500000Y-103776451D01*
X115558810Y-103770659D01*
X115615360Y-103753504D01*
X115667477Y-103725647D01*
X115713158Y-103688158D01*
X115750647Y-103642477D01*
X115778504Y-103590360D01*
X115795659Y-103533810D01*
X115801451Y-103475000D01*
X115801451Y-102875000D01*
X115795659Y-102816190D01*
X115778504Y-102759640D01*
X115750647Y-102707523D01*
X115713158Y-102661842D01*
X115667477Y-102624353D01*
X115615360Y-102596496D01*
X115558810Y-102579341D01*
X115500000Y-102573549D01*
X114171494Y-102573549D01*
X114151713Y-102525793D01*
X114138789Y-102506451D01*
X115500000Y-102506451D01*
X115558810Y-102500659D01*
X115615360Y-102483504D01*
X115667477Y-102455647D01*
X115713158Y-102418158D01*
X115750647Y-102372477D01*
X115778504Y-102320360D01*
X115795659Y-102263810D01*
X115801451Y-102205000D01*
X115801451Y-101605000D01*
X115795659Y-101546190D01*
X115778504Y-101489640D01*
X115750647Y-101437523D01*
X115713158Y-101391842D01*
X115667477Y-101354353D01*
X115615360Y-101326496D01*
X115558810Y-101309341D01*
X115500000Y-101303549D01*
X114422136Y-101303549D01*
X114489234Y-101236451D01*
X115500000Y-101236451D01*
X115558810Y-101230659D01*
X115615360Y-101213504D01*
X115667477Y-101185647D01*
X115713158Y-101148158D01*
X115750647Y-101102477D01*
X115778504Y-101050360D01*
X115795659Y-100993810D01*
X115801451Y-100935000D01*
X115801451Y-100335000D01*
X115795659Y-100276190D01*
X115778504Y-100219640D01*
X115750647Y-100167523D01*
X115713158Y-100121842D01*
X115667477Y-100084353D01*
X115615360Y-100056496D01*
X115558810Y-100039341D01*
X115500000Y-100033549D01*
X113550000Y-100033549D01*
X113491190Y-100039341D01*
X113434640Y-100056496D01*
X113400435Y-100074779D01*
X113400000Y-100070363D01*
X113400000Y-100070353D01*
X113394212Y-100011586D01*
X113371340Y-99936186D01*
X113343043Y-99883247D01*
X113382523Y-99915647D01*
X113434640Y-99943504D01*
X113491190Y-99960659D01*
X113550000Y-99966451D01*
X115500000Y-99966451D01*
X115558810Y-99960659D01*
X115615360Y-99943504D01*
X115667477Y-99915647D01*
X115713158Y-99878158D01*
X115750647Y-99832477D01*
X115778504Y-99780360D01*
X115795659Y-99723810D01*
X115801451Y-99665000D01*
X115801451Y-99663785D01*
X115819209Y-99649211D01*
X115831735Y-99633948D01*
X117665686Y-97799998D01*
X117759095Y-97799998D01*
X117875014Y-97776940D01*
X117984207Y-97731711D01*
X118082478Y-97666048D01*
X118166050Y-97582476D01*
X118231713Y-97484205D01*
X118276942Y-97375012D01*
X118284774Y-97335638D01*
X118286842Y-97338158D01*
X118332523Y-97375647D01*
X118384640Y-97403504D01*
X118441190Y-97420659D01*
X118500000Y-97426451D01*
X120450000Y-97426451D01*
X120508810Y-97420659D01*
X120565360Y-97403504D01*
X120617477Y-97375647D01*
X120663158Y-97338158D01*
X120700647Y-97292477D01*
X120728504Y-97240360D01*
X120745659Y-97183810D01*
X120751451Y-97125000D01*
X120751451Y-96525000D01*
X120745659Y-96466190D01*
X120728504Y-96409640D01*
X120700647Y-96357523D01*
X120663158Y-96311842D01*
X120617477Y-96274353D01*
X120565360Y-96246496D01*
X120508810Y-96229341D01*
X120450000Y-96223549D01*
X118500000Y-96223549D01*
X118441190Y-96229341D01*
X118384640Y-96246496D01*
X118332523Y-96274353D01*
X118286842Y-96311842D01*
X118249353Y-96357523D01*
X118221496Y-96409640D01*
X118204341Y-96466190D01*
X118198549Y-96525000D01*
X118198549Y-96866158D01*
X118166050Y-96817520D01*
X118082478Y-96733948D01*
X117984207Y-96668285D01*
X117875014Y-96623056D01*
X117759095Y-96599998D01*
X117640905Y-96599998D01*
X117524986Y-96623056D01*
X117415793Y-96668285D01*
X117317522Y-96733948D01*
X117233950Y-96817520D01*
X117168287Y-96915791D01*
X117123058Y-97024984D01*
X117118788Y-97046450D01*
X117066050Y-96967522D01*
X116982478Y-96883950D01*
X116884207Y-96818287D01*
X116775014Y-96773058D01*
X116659095Y-96750000D01*
X116565685Y-96750000D01*
X116371737Y-96556052D01*
X116359211Y-96540789D01*
X116298303Y-96490803D01*
X116228814Y-96453660D01*
X116153414Y-96430788D01*
X116094647Y-96425000D01*
X116094646Y-96425000D01*
X116075000Y-96423065D01*
X116055354Y-96425000D01*
X115783164Y-96425000D01*
X115778504Y-96409640D01*
X115750647Y-96357523D01*
X115713158Y-96311842D01*
X115667477Y-96274353D01*
X115615360Y-96246496D01*
X115558810Y-96229341D01*
X115500000Y-96223549D01*
X113550000Y-96223549D01*
X113491190Y-96229341D01*
X113434640Y-96246496D01*
X113382523Y-96274353D01*
X113336842Y-96311842D01*
X113299353Y-96357523D01*
X113271496Y-96409640D01*
X113254341Y-96466190D01*
X113248549Y-96525000D01*
X113248549Y-97125000D01*
X113254341Y-97183810D01*
X113271496Y-97240360D01*
X113299353Y-97292477D01*
X113336842Y-97338158D01*
X113382523Y-97375647D01*
X113434640Y-97403504D01*
X113491190Y-97420659D01*
X113550000Y-97426451D01*
X115500000Y-97426451D01*
X115558810Y-97420659D01*
X115615360Y-97403504D01*
X115667477Y-97375647D01*
X115713158Y-97338158D01*
X115750647Y-97292477D01*
X115778504Y-97240360D01*
X115783164Y-97225000D01*
X115909315Y-97225000D01*
X115984315Y-97300000D01*
X115940905Y-97300000D01*
X115824986Y-97323058D01*
X115715793Y-97368287D01*
X115617522Y-97433950D01*
X115552730Y-97498742D01*
X115500000Y-97493549D01*
X113550000Y-97493549D01*
X113491190Y-97499341D01*
X113434640Y-97516496D01*
X113382523Y-97544353D01*
X113336842Y-97581842D01*
X113299353Y-97627523D01*
X113271496Y-97679640D01*
X113254341Y-97736190D01*
X113248549Y-97795000D01*
X113248549Y-98395000D01*
X113254341Y-98453810D01*
X113271496Y-98510360D01*
X113299353Y-98562477D01*
X113336842Y-98608158D01*
X113382523Y-98645647D01*
X113434640Y-98673504D01*
X113491190Y-98690659D01*
X113550000Y-98696451D01*
X115500000Y-98696451D01*
X115558810Y-98690659D01*
X115615360Y-98673504D01*
X115667477Y-98645647D01*
X115713158Y-98608158D01*
X115750647Y-98562477D01*
X115778504Y-98510360D01*
X115783164Y-98495000D01*
X115785354Y-98495000D01*
X115805000Y-98496935D01*
X115824646Y-98495000D01*
X115824647Y-98495000D01*
X115840915Y-98493398D01*
X115563538Y-98770775D01*
X115558810Y-98769341D01*
X115500000Y-98763549D01*
X113550000Y-98763549D01*
X113491190Y-98769341D01*
X113434640Y-98786496D01*
X113382523Y-98814353D01*
X113340745Y-98848639D01*
X113100000Y-98607894D01*
X113100000Y-97843956D01*
X113113158Y-97833158D01*
X113150647Y-97787477D01*
X113178504Y-97735360D01*
X113195659Y-97678810D01*
X113201451Y-97620000D01*
X113201451Y-97120000D01*
X113195659Y-97061190D01*
X113178504Y-97004640D01*
X113150647Y-96952523D01*
X113113158Y-96906842D01*
X113104822Y-96900001D01*
X113113159Y-96893159D01*
X113150648Y-96847478D01*
X113178505Y-96795361D01*
X113195660Y-96738810D01*
X113201452Y-96680000D01*
X113200000Y-96605000D01*
X113125000Y-96530000D01*
X112700000Y-96530000D01*
X112700000Y-96550000D01*
X112500000Y-96550000D01*
X112500000Y-96530000D01*
X112480000Y-96530000D01*
X112480000Y-96330000D01*
X112500000Y-96330000D01*
X112500000Y-95955000D01*
X112700000Y-95955000D01*
X112700000Y-96330000D01*
X113125000Y-96330000D01*
X113200000Y-96255000D01*
X113201452Y-96180000D01*
X113195660Y-96121190D01*
X113178505Y-96064639D01*
X113150648Y-96012522D01*
X113113159Y-95966841D01*
X113067478Y-95929352D01*
X113015361Y-95901495D01*
X112958810Y-95884340D01*
X112900000Y-95878548D01*
X112775000Y-95880000D01*
X112700000Y-95955000D01*
X112500000Y-95955000D01*
X112425000Y-95880000D01*
X112300000Y-95878548D01*
X112250000Y-95883472D01*
X112250000Y-95855000D01*
X113248548Y-95855000D01*
X113254340Y-95913810D01*
X113271495Y-95970361D01*
X113299352Y-96022478D01*
X113336841Y-96068159D01*
X113382522Y-96105648D01*
X113434639Y-96133505D01*
X113491190Y-96150660D01*
X113550000Y-96156452D01*
X114350000Y-96155000D01*
X114425000Y-96080000D01*
X114425000Y-95655000D01*
X114625000Y-95655000D01*
X114625000Y-96080000D01*
X114700000Y-96155000D01*
X115500000Y-96156452D01*
X115558810Y-96150660D01*
X115615361Y-96133505D01*
X115667478Y-96105648D01*
X115713159Y-96068159D01*
X115750648Y-96022478D01*
X115778505Y-95970361D01*
X115795660Y-95913810D01*
X115801452Y-95855000D01*
X115800000Y-95730000D01*
X115725000Y-95655000D01*
X114625000Y-95655000D01*
X114425000Y-95655000D01*
X113325000Y-95655000D01*
X113250000Y-95730000D01*
X113248548Y-95855000D01*
X112250000Y-95855000D01*
X112250000Y-95543096D01*
X112409964Y-95519189D01*
X112508857Y-95494303D01*
X112600996Y-95450601D01*
X112682839Y-95389764D01*
X112751240Y-95314130D01*
X112786593Y-95255000D01*
X113248548Y-95255000D01*
X113250000Y-95380000D01*
X113325000Y-95455000D01*
X114425000Y-95455000D01*
X114425000Y-95030000D01*
X114625000Y-95030000D01*
X114625000Y-95455000D01*
X115725000Y-95455000D01*
X115800000Y-95380000D01*
X115801452Y-95255000D01*
X115795660Y-95196190D01*
X115778505Y-95139639D01*
X115750648Y-95087522D01*
X115713159Y-95041841D01*
X115667478Y-95004352D01*
X115615361Y-94976495D01*
X115558810Y-94959340D01*
X115500000Y-94953548D01*
X114700000Y-94955000D01*
X114625000Y-95030000D01*
X114425000Y-95030000D01*
X114350000Y-94955000D01*
X113550000Y-94953548D01*
X113491190Y-94959340D01*
X113434639Y-94976495D01*
X113382522Y-95004352D01*
X113336841Y-95041841D01*
X113299352Y-95087522D01*
X113271495Y-95139639D01*
X113254340Y-95196190D01*
X113248548Y-95255000D01*
X112786593Y-95255000D01*
X112803571Y-95226604D01*
X112837822Y-95130550D01*
X112852675Y-95029661D01*
X112847560Y-94927812D01*
X112806041Y-94650000D01*
X116198548Y-94650000D01*
X116204340Y-94708810D01*
X116221495Y-94765361D01*
X116249352Y-94817478D01*
X116286841Y-94863159D01*
X116332522Y-94900648D01*
X116384639Y-94928505D01*
X116441190Y-94945660D01*
X116500000Y-94951452D01*
X116625000Y-94950000D01*
X116700000Y-94875000D01*
X116700000Y-94300000D01*
X116900000Y-94300000D01*
X116900000Y-94875000D01*
X116975000Y-94950000D01*
X117100000Y-94951452D01*
X117158810Y-94945660D01*
X117215361Y-94928505D01*
X117267478Y-94900648D01*
X117313159Y-94863159D01*
X117350648Y-94817478D01*
X117378505Y-94765361D01*
X117395660Y-94708810D01*
X117401452Y-94650000D01*
X117400000Y-94375000D01*
X117325000Y-94300000D01*
X116900000Y-94300000D01*
X116700000Y-94300000D01*
X116275000Y-94300000D01*
X116200000Y-94375000D01*
X116198548Y-94650000D01*
X112806041Y-94650000D01*
X112771808Y-94420941D01*
X112746922Y-94322046D01*
X112703220Y-94229907D01*
X112642383Y-94148065D01*
X112566748Y-94079664D01*
X112481130Y-94028473D01*
X114385687Y-93750000D01*
X116198548Y-93750000D01*
X116200000Y-94025000D01*
X116275000Y-94100000D01*
X116700000Y-94100000D01*
X116700000Y-93525000D01*
X116900000Y-93525000D01*
X116900000Y-94100000D01*
X117325000Y-94100000D01*
X117400000Y-94025000D01*
X117401452Y-93750000D01*
X117395660Y-93691190D01*
X117378505Y-93634639D01*
X117350648Y-93582522D01*
X117313159Y-93536841D01*
X117267478Y-93499352D01*
X117215361Y-93471495D01*
X117158810Y-93454340D01*
X117100000Y-93448548D01*
X116975000Y-93450000D01*
X116900000Y-93525000D01*
X116700000Y-93525000D01*
X116625000Y-93450000D01*
X116500000Y-93448548D01*
X116441190Y-93454340D01*
X116384639Y-93471495D01*
X116332522Y-93499352D01*
X116286841Y-93536841D01*
X116249352Y-93582522D01*
X116221495Y-93634639D01*
X116204340Y-93691190D01*
X116198548Y-93750000D01*
X114385687Y-93750000D01*
X118757498Y-93110780D01*
X118754340Y-93121190D01*
X118748548Y-93180000D01*
X118750000Y-93255000D01*
X118825000Y-93330000D01*
X119250000Y-93330000D01*
X119250000Y-93310000D01*
X119450000Y-93310000D01*
X119450000Y-93330000D01*
X119470000Y-93330000D01*
X119470000Y-93530000D01*
X119450000Y-93530000D01*
X119450000Y-93550000D01*
X119250000Y-93550000D01*
X119250000Y-93530000D01*
X118825000Y-93530000D01*
X118815412Y-93539588D01*
X118813158Y-93536842D01*
X118767477Y-93499353D01*
X118715360Y-93471496D01*
X118658810Y-93454341D01*
X118600000Y-93448549D01*
X118000000Y-93448549D01*
X117941190Y-93454341D01*
X117884640Y-93471496D01*
X117832523Y-93499353D01*
X117786842Y-93536842D01*
X117749353Y-93582523D01*
X117721496Y-93634640D01*
X117704341Y-93691190D01*
X117698549Y-93750000D01*
X117698549Y-94650000D01*
X117704341Y-94708810D01*
X117721496Y-94765360D01*
X117749353Y-94817477D01*
X117786842Y-94863158D01*
X117832523Y-94900647D01*
X117884640Y-94928504D01*
X117941190Y-94945659D01*
X118000000Y-94951451D01*
X118600000Y-94951451D01*
X118658810Y-94945659D01*
X118715360Y-94928504D01*
X118767477Y-94900647D01*
X118804821Y-94870000D01*
X118881735Y-94870000D01*
X118882523Y-94870647D01*
X118934640Y-94898504D01*
X118975001Y-94910748D01*
X118975001Y-94953549D01*
X118500000Y-94953549D01*
X118441190Y-94959341D01*
X118384640Y-94976496D01*
X118332523Y-95004353D01*
X118286842Y-95041842D01*
X118249353Y-95087523D01*
X118242684Y-95100000D01*
X118108528Y-95100000D01*
X118092478Y-95083950D01*
X117994207Y-95018287D01*
X117885014Y-94973058D01*
X117769095Y-94950000D01*
X117650905Y-94950000D01*
X117534986Y-94973058D01*
X117425793Y-95018287D01*
X117327522Y-95083950D01*
X117319562Y-95091910D01*
X117284207Y-95068287D01*
X117175014Y-95023058D01*
X117059095Y-95000000D01*
X116940905Y-95000000D01*
X116824986Y-95023058D01*
X116715793Y-95068287D01*
X116617522Y-95133950D01*
X116533950Y-95217522D01*
X116468287Y-95315793D01*
X116423058Y-95424986D01*
X116400000Y-95540905D01*
X116400000Y-95659095D01*
X116423058Y-95775014D01*
X116468287Y-95884207D01*
X116533950Y-95982478D01*
X116617522Y-96066050D01*
X116715793Y-96131713D01*
X116824986Y-96176942D01*
X116940905Y-96200000D01*
X117059095Y-96200000D01*
X117175014Y-96176942D01*
X117284207Y-96131713D01*
X117331669Y-96100000D01*
X117469942Y-96100000D01*
X117534986Y-96126942D01*
X117650905Y-96150000D01*
X117769095Y-96150000D01*
X117885014Y-96126942D01*
X117950058Y-96100000D01*
X118325642Y-96100000D01*
X118332523Y-96105647D01*
X118384640Y-96133504D01*
X118441190Y-96150659D01*
X118500000Y-96156451D01*
X120450000Y-96156451D01*
X120508810Y-96150659D01*
X120565360Y-96133504D01*
X120617477Y-96105647D01*
X120663158Y-96068158D01*
X120700647Y-96022477D01*
X120728504Y-95970360D01*
X120745659Y-95913810D01*
X120751451Y-95855000D01*
X120751451Y-95255000D01*
X120745659Y-95196190D01*
X120728504Y-95139640D01*
X120700647Y-95087523D01*
X120663158Y-95041842D01*
X120662016Y-95040905D01*
X120684207Y-95031713D01*
X120782478Y-94966050D01*
X120866050Y-94882478D01*
X120931713Y-94784207D01*
X120970000Y-94691772D01*
X120970001Y-95334630D01*
X120936842Y-95361842D01*
X120899353Y-95407523D01*
X120871496Y-95459640D01*
X120854341Y-95516190D01*
X120848549Y-95575000D01*
X120848549Y-96475000D01*
X120854341Y-96533810D01*
X120871496Y-96590360D01*
X120899353Y-96642477D01*
X120936842Y-96688158D01*
X120982523Y-96725647D01*
X121034640Y-96753504D01*
X121091190Y-96770659D01*
X121150000Y-96776451D01*
X121150000Y-97055354D01*
X121148065Y-97075000D01*
X121152990Y-97125000D01*
X121155788Y-97153413D01*
X121178660Y-97228813D01*
X121215803Y-97298302D01*
X121265789Y-97359211D01*
X121281052Y-97371737D01*
X121603267Y-97693953D01*
X121615789Y-97709211D01*
X121631047Y-97721733D01*
X121631049Y-97721735D01*
X121676697Y-97759197D01*
X121746186Y-97796340D01*
X121798549Y-97812224D01*
X121798549Y-97875000D01*
X121804341Y-97933810D01*
X121821496Y-97990360D01*
X121849353Y-98042477D01*
X121886842Y-98088158D01*
X121932523Y-98125647D01*
X121984640Y-98153504D01*
X122041190Y-98170659D01*
X122100000Y-98176451D01*
X122900000Y-98176451D01*
X122958810Y-98170659D01*
X123015360Y-98153504D01*
X123067477Y-98125647D01*
X123113158Y-98088158D01*
X123150647Y-98042477D01*
X123178504Y-97990360D01*
X123195659Y-97933810D01*
X123201451Y-97875000D01*
X123201451Y-97867136D01*
X124800000Y-99465685D01*
X124800001Y-101380344D01*
X124798065Y-101400000D01*
X124805788Y-101478413D01*
X124828661Y-101553814D01*
X124865803Y-101623302D01*
X124903265Y-101668950D01*
X124903268Y-101668953D01*
X124915790Y-101684211D01*
X124931048Y-101696733D01*
X125491822Y-102257507D01*
X125465793Y-102268289D01*
X125367522Y-102333952D01*
X125283950Y-102417524D01*
X125218287Y-102515795D01*
X125173058Y-102624988D01*
X125150000Y-102740907D01*
X125150000Y-102834316D01*
X124559317Y-103425000D01*
X123301451Y-103425000D01*
X123301451Y-103375000D01*
X123295659Y-103316190D01*
X123278504Y-103259640D01*
X123250647Y-103207523D01*
X123213158Y-103161842D01*
X123198728Y-103150000D01*
X123995356Y-103150000D01*
X124015002Y-103151935D01*
X124034648Y-103150000D01*
X124034649Y-103150000D01*
X124093416Y-103144212D01*
X124168816Y-103121340D01*
X124238305Y-103084197D01*
X124299213Y-103034211D01*
X124311739Y-103018948D01*
X124518949Y-102811738D01*
X124534212Y-102799212D01*
X124584198Y-102738304D01*
X124621341Y-102668815D01*
X124644213Y-102593415D01*
X124650001Y-102534648D01*
X124651936Y-102515001D01*
X124650001Y-102495354D01*
X124650001Y-100899636D01*
X124651935Y-100880000D01*
X124650001Y-100860364D01*
X124650001Y-100860354D01*
X124644213Y-100801587D01*
X124621341Y-100726187D01*
X124596451Y-100679622D01*
X124596451Y-100325000D01*
X124590659Y-100266190D01*
X124573504Y-100209640D01*
X124545647Y-100157523D01*
X124508158Y-100111842D01*
X124462477Y-100074353D01*
X124410360Y-100046496D01*
X124353810Y-100029341D01*
X124295000Y-100023549D01*
X124110764Y-100023549D01*
X124128504Y-99990360D01*
X124145659Y-99933810D01*
X124151451Y-99875000D01*
X124151451Y-98975000D01*
X124145659Y-98916190D01*
X124128504Y-98859640D01*
X124100647Y-98807523D01*
X124063158Y-98761842D01*
X124017477Y-98724353D01*
X123965360Y-98696496D01*
X123908810Y-98679341D01*
X123850000Y-98673549D01*
X123050000Y-98673549D01*
X122991190Y-98679341D01*
X122934640Y-98696496D01*
X122882523Y-98724353D01*
X122836842Y-98761842D01*
X122799353Y-98807523D01*
X122771496Y-98859640D01*
X122754341Y-98916190D01*
X122748549Y-98975000D01*
X122748549Y-99588332D01*
X122733661Y-99616186D01*
X122710788Y-99691587D01*
X122703065Y-99770000D01*
X122705001Y-99789656D01*
X122705001Y-100065011D01*
X122687523Y-100074353D01*
X122641842Y-100111842D01*
X122625000Y-100132364D01*
X122608158Y-100111842D01*
X122562477Y-100074353D01*
X122545000Y-100065011D01*
X122545000Y-100039643D01*
X122546935Y-100019999D01*
X122544629Y-99996587D01*
X122539212Y-99941586D01*
X122516340Y-99866186D01*
X122479197Y-99796697D01*
X122462784Y-99776698D01*
X122441735Y-99751049D01*
X122441733Y-99751047D01*
X122429211Y-99735789D01*
X122413954Y-99723268D01*
X122251451Y-99560765D01*
X122251451Y-98975000D01*
X122245659Y-98916190D01*
X122228504Y-98859640D01*
X122200647Y-98807523D01*
X122163158Y-98761842D01*
X122117477Y-98724353D01*
X122065360Y-98696496D01*
X122008810Y-98679341D01*
X121950000Y-98673549D01*
X121250000Y-98673549D01*
X121250000Y-98314647D01*
X121251935Y-98295000D01*
X121244212Y-98216586D01*
X121221340Y-98141186D01*
X121219033Y-98136870D01*
X121184197Y-98071697D01*
X121134211Y-98010789D01*
X121118943Y-97998259D01*
X120946735Y-97826050D01*
X120934211Y-97810789D01*
X120873303Y-97760803D01*
X120803814Y-97723660D01*
X120735579Y-97702961D01*
X120728504Y-97679640D01*
X120700647Y-97627523D01*
X120663158Y-97581842D01*
X120617477Y-97544353D01*
X120565360Y-97516496D01*
X120508810Y-97499341D01*
X120450000Y-97493549D01*
X118500000Y-97493549D01*
X118441190Y-97499341D01*
X118384640Y-97516496D01*
X118332523Y-97544353D01*
X118286842Y-97581842D01*
X118249353Y-97627523D01*
X118221496Y-97679640D01*
X118204341Y-97736190D01*
X118198549Y-97795000D01*
X118198549Y-98395000D01*
X118204341Y-98453810D01*
X118221496Y-98510360D01*
X118249353Y-98562477D01*
X118286842Y-98608158D01*
X118332523Y-98645647D01*
X118384640Y-98673504D01*
X118441190Y-98690659D01*
X118500000Y-98696451D01*
X120450001Y-98696451D01*
X120450001Y-98763549D01*
X118500000Y-98763549D01*
X118441190Y-98769341D01*
X118384640Y-98786496D01*
X118332523Y-98814353D01*
X118286842Y-98851842D01*
X118249353Y-98897523D01*
X118221496Y-98949640D01*
X118214421Y-98972961D01*
X118146186Y-98993660D01*
X118076697Y-99030803D01*
X118015789Y-99080789D01*
X118003259Y-99096057D01*
X117781048Y-99318267D01*
X117765790Y-99330789D01*
X117753268Y-99346047D01*
X117753265Y-99346050D01*
X117715803Y-99391698D01*
X117678661Y-99461186D01*
X117655788Y-99536587D01*
X117648065Y-99615000D01*
X117650001Y-99634656D01*
X117650000Y-102275355D01*
X117648065Y-102295002D01*
X117650000Y-102314648D01*
X117655788Y-102373415D01*
X117678660Y-102448815D01*
X117715803Y-102518304D01*
X117765789Y-102579213D01*
X117781053Y-102591740D01*
X118008257Y-102818943D01*
X118020787Y-102834211D01*
X118074651Y-102878416D01*
X118081695Y-102884197D01*
X118151184Y-102921340D01*
X118198549Y-102935708D01*
X118198549Y-103475000D01*
X118204341Y-103533810D01*
X118221496Y-103590360D01*
X118249353Y-103642477D01*
X118286842Y-103688158D01*
X118332523Y-103725647D01*
X118384640Y-103753504D01*
X118441190Y-103770659D01*
X118500000Y-103776451D01*
X120450000Y-103776451D01*
X120508810Y-103770659D01*
X120565360Y-103753504D01*
X120617477Y-103725647D01*
X120663158Y-103688158D01*
X120700647Y-103642477D01*
X120728504Y-103590360D01*
X120745659Y-103533810D01*
X120751451Y-103475000D01*
X120751451Y-103133553D01*
X120786588Y-103144212D01*
X120865002Y-103151935D01*
X120884649Y-103150000D01*
X122001272Y-103150000D01*
X121986842Y-103161842D01*
X121949353Y-103207523D01*
X121921496Y-103259640D01*
X121904341Y-103316190D01*
X121898549Y-103375000D01*
X121898549Y-104275000D01*
X121904341Y-104333810D01*
X121921496Y-104390360D01*
X121949353Y-104442477D01*
X121986842Y-104488158D01*
X122032523Y-104525647D01*
X122084640Y-104553504D01*
X122141190Y-104570659D01*
X122200000Y-104576451D01*
X123000000Y-104576451D01*
X123058810Y-104570659D01*
X123115360Y-104553504D01*
X123167477Y-104525647D01*
X123213158Y-104488158D01*
X123250647Y-104442477D01*
X123278504Y-104390360D01*
X123295659Y-104333810D01*
X123301451Y-104275000D01*
X123301451Y-104225000D01*
X124705356Y-104225000D01*
X124725002Y-104226935D01*
X124744648Y-104225000D01*
X124744649Y-104225000D01*
X124803416Y-104219212D01*
X124878816Y-104196340D01*
X124948305Y-104159197D01*
X125009213Y-104109211D01*
X125021739Y-104093948D01*
X125715686Y-103400002D01*
X125809095Y-103400002D01*
X125925014Y-103376944D01*
X126034207Y-103331715D01*
X126132478Y-103266052D01*
X126216050Y-103182480D01*
X126281713Y-103084209D01*
X126326942Y-102975016D01*
X126333647Y-102941308D01*
X126339999Y-102941934D01*
X126359635Y-102940000D01*
X126966214Y-102940000D01*
X127028831Y-103091171D01*
X127156173Y-103281752D01*
X127318248Y-103443827D01*
X127508829Y-103571169D01*
X127720590Y-103658883D01*
X127945395Y-103703600D01*
X128174605Y-103703600D01*
X128399410Y-103658883D01*
X128536439Y-103602124D01*
X129053263Y-104118948D01*
X129065789Y-104134211D01*
X129126697Y-104184197D01*
X129196186Y-104221340D01*
X129271586Y-104244212D01*
X129330353Y-104250000D01*
X129330363Y-104250000D01*
X129349999Y-104251934D01*
X129369635Y-104250000D01*
X134400935Y-104250000D01*
X134460884Y-104394729D01*
X134586737Y-104583082D01*
X134746918Y-104743263D01*
X134935271Y-104869116D01*
X135144557Y-104955806D01*
X135366735Y-105000000D01*
X135593265Y-105000000D01*
X135815443Y-104955806D01*
X136024729Y-104869116D01*
X136213082Y-104743263D01*
X136373263Y-104583082D01*
X136499116Y-104394729D01*
X136585806Y-104185443D01*
X136630000Y-103963265D01*
X136630000Y-103736735D01*
X136585806Y-103514557D01*
X136499116Y-103305271D01*
X136373263Y-103116918D01*
X136213082Y-102956737D01*
X136024729Y-102830884D01*
X135815443Y-102744194D01*
X135593265Y-102700000D01*
X135366735Y-102700000D01*
X135144557Y-102744194D01*
X134935271Y-102830884D01*
X134746918Y-102956737D01*
X134586737Y-103116918D01*
X134460884Y-103305271D01*
X134400935Y-103450000D01*
X131760481Y-103450000D01*
X131765051Y-103403600D01*
X131765051Y-101710000D01*
X134400935Y-101710000D01*
X134460884Y-101854729D01*
X134586737Y-102043082D01*
X134746918Y-102203263D01*
X134935271Y-102329116D01*
X135144557Y-102415806D01*
X135366735Y-102460000D01*
X135593265Y-102460000D01*
X135815443Y-102415806D01*
X136024729Y-102329116D01*
X136213082Y-102203263D01*
X136373263Y-102043082D01*
X136499116Y-101854729D01*
X136585806Y-101645443D01*
X136630000Y-101423265D01*
X136630000Y-101196735D01*
X136585806Y-100974557D01*
X136499116Y-100765271D01*
X136373263Y-100576918D01*
X136213082Y-100416737D01*
X136024729Y-100290884D01*
X135815443Y-100204194D01*
X135593265Y-100160000D01*
X135366735Y-100160000D01*
X135144557Y-100204194D01*
X134935271Y-100290884D01*
X134746918Y-100416737D01*
X134586737Y-100576918D01*
X134460884Y-100765271D01*
X134400935Y-100910000D01*
X131332513Y-100910000D01*
X131341752Y-100903827D01*
X131503827Y-100741752D01*
X131631169Y-100551171D01*
X131693786Y-100400000D01*
X134230354Y-100400000D01*
X134250000Y-100401935D01*
X134269646Y-100400000D01*
X134269647Y-100400000D01*
X134328414Y-100394212D01*
X134403814Y-100371340D01*
X134473303Y-100334197D01*
X134534211Y-100284211D01*
X134546737Y-100268948D01*
X134999828Y-99815857D01*
X135144557Y-99875806D01*
X135366735Y-99920000D01*
X135593265Y-99920000D01*
X135815443Y-99875806D01*
X136024729Y-99789116D01*
X136213082Y-99663263D01*
X136373263Y-99503082D01*
X136499116Y-99314729D01*
X136585806Y-99105443D01*
X136630000Y-98883265D01*
X136630000Y-98656735D01*
X136585806Y-98434557D01*
X136499116Y-98225271D01*
X136373263Y-98036918D01*
X136213082Y-97876737D01*
X136024729Y-97750884D01*
X135815443Y-97664194D01*
X135593265Y-97620000D01*
X135366735Y-97620000D01*
X135144557Y-97664194D01*
X134935271Y-97750884D01*
X134746918Y-97876737D01*
X134586737Y-98036918D01*
X134460884Y-98225271D01*
X134374194Y-98434557D01*
X134330000Y-98656735D01*
X134330000Y-98883265D01*
X134374194Y-99105443D01*
X134434143Y-99250172D01*
X134084315Y-99600000D01*
X131693786Y-99600000D01*
X131631169Y-99448829D01*
X131503827Y-99258248D01*
X131481978Y-99236399D01*
X132853955Y-99236399D01*
X132873601Y-99238334D01*
X132893247Y-99236399D01*
X132893248Y-99236399D01*
X132952015Y-99230611D01*
X133027415Y-99207739D01*
X133096904Y-99170596D01*
X133157812Y-99120610D01*
X133170338Y-99105347D01*
X134999828Y-97275857D01*
X135144557Y-97335806D01*
X135366735Y-97380000D01*
X135593265Y-97380000D01*
X135815443Y-97335806D01*
X136024729Y-97249116D01*
X136213082Y-97123263D01*
X136373263Y-96963082D01*
X136499116Y-96774729D01*
X136585806Y-96565443D01*
X136630000Y-96343265D01*
X136630000Y-96116735D01*
X136585806Y-95894557D01*
X136499116Y-95685271D01*
X136373263Y-95496918D01*
X136213082Y-95336737D01*
X136024729Y-95210884D01*
X135815443Y-95124194D01*
X135593265Y-95080000D01*
X135366735Y-95080000D01*
X135144557Y-95124194D01*
X134935271Y-95210884D01*
X134746918Y-95336737D01*
X134586737Y-95496918D01*
X134460884Y-95685271D01*
X134374194Y-95894557D01*
X134330000Y-96116735D01*
X134330000Y-96343265D01*
X134374194Y-96565443D01*
X134434143Y-96710172D01*
X132707916Y-98436399D01*
X131223602Y-98436399D01*
X131290996Y-98396216D01*
X131460365Y-98243420D01*
X131596671Y-98060518D01*
X131694675Y-97854538D01*
X131729379Y-97740123D01*
X131683997Y-97560000D01*
X130700000Y-97560000D01*
X130700000Y-97580000D01*
X130500000Y-97580000D01*
X130500000Y-97560000D01*
X129516003Y-97560000D01*
X129470621Y-97740123D01*
X129505325Y-97854538D01*
X129603329Y-98060518D01*
X129739635Y-98243420D01*
X129909004Y-98396216D01*
X129976398Y-98436399D01*
X129243236Y-98436399D01*
X129223600Y-98434465D01*
X129203964Y-98436399D01*
X129203954Y-98436399D01*
X129145187Y-98442187D01*
X129069787Y-98465059D01*
X129000298Y-98502202D01*
X128987427Y-98512765D01*
X128954650Y-98539664D01*
X128954648Y-98539666D01*
X128939390Y-98552188D01*
X128926868Y-98567446D01*
X128550581Y-98943734D01*
X128399410Y-98881117D01*
X128174605Y-98836400D01*
X127945395Y-98836400D01*
X127720590Y-98881117D01*
X127508829Y-98968831D01*
X127318248Y-99096173D01*
X127296399Y-99118022D01*
X127296399Y-98789286D01*
X127493136Y-98592550D01*
X127493141Y-98592544D01*
X127569419Y-98516266D01*
X127720590Y-98578883D01*
X127945395Y-98623600D01*
X128174605Y-98623600D01*
X128399410Y-98578883D01*
X128611171Y-98491169D01*
X128801752Y-98363827D01*
X128963827Y-98201752D01*
X129091169Y-98011171D01*
X129178883Y-97799410D01*
X129223600Y-97574605D01*
X129223600Y-97345395D01*
X129190677Y-97179877D01*
X129470621Y-97179877D01*
X129516003Y-97360000D01*
X130500000Y-97360000D01*
X130500000Y-96375700D01*
X130700000Y-96375700D01*
X130700000Y-97360000D01*
X131683997Y-97360000D01*
X131729379Y-97179877D01*
X131694675Y-97065462D01*
X131596671Y-96859482D01*
X131460365Y-96676580D01*
X131290996Y-96523784D01*
X131095072Y-96406966D01*
X130880123Y-96330616D01*
X130700000Y-96375700D01*
X130500000Y-96375700D01*
X130319877Y-96330616D01*
X130104928Y-96406966D01*
X129909004Y-96523784D01*
X129739635Y-96676580D01*
X129603329Y-96859482D01*
X129505325Y-97065462D01*
X129470621Y-97179877D01*
X129190677Y-97179877D01*
X129178883Y-97120590D01*
X129091169Y-96908829D01*
X128963827Y-96718248D01*
X128801752Y-96556173D01*
X128611171Y-96428831D01*
X128399410Y-96341117D01*
X128174605Y-96296400D01*
X127945395Y-96296400D01*
X127720590Y-96341117D01*
X127508829Y-96428831D01*
X127318248Y-96556173D01*
X127156173Y-96718248D01*
X127028831Y-96908829D01*
X126941117Y-97120590D01*
X126896400Y-97345395D01*
X126896400Y-97574605D01*
X126941117Y-97799410D01*
X127003734Y-97950581D01*
X126927456Y-98026859D01*
X126927450Y-98026864D01*
X126627446Y-98326869D01*
X126612189Y-98339390D01*
X126599667Y-98354648D01*
X126599664Y-98354651D01*
X126562202Y-98400299D01*
X126525060Y-98469787D01*
X126502187Y-98545188D01*
X126494464Y-98623601D01*
X126496400Y-98643257D01*
X126496399Y-100531616D01*
X126494728Y-100543974D01*
X126496399Y-100570913D01*
X126496399Y-100578175D01*
X126497616Y-100590529D01*
X126499606Y-100622615D01*
X126501471Y-100629675D01*
X126502187Y-100636942D01*
X126511522Y-100667714D01*
X126519733Y-100698794D01*
X126522939Y-100705352D01*
X126525059Y-100712342D01*
X126540217Y-100740701D01*
X126554335Y-100769583D01*
X126558760Y-100775392D01*
X126562202Y-100781831D01*
X126582596Y-100806682D01*
X126590119Y-100816557D01*
X126595063Y-100821873D01*
X126612188Y-100842740D01*
X126621831Y-100850654D01*
X126868472Y-101115842D01*
X126684315Y-101300000D01*
X126590905Y-101300000D01*
X126474986Y-101323058D01*
X126365793Y-101368287D01*
X126267522Y-101433950D01*
X126183950Y-101517522D01*
X126118287Y-101615793D01*
X126078217Y-101712532D01*
X125600000Y-101234315D01*
X125600000Y-99319635D01*
X125601934Y-99299999D01*
X125600000Y-99280363D01*
X125600000Y-99280353D01*
X125594212Y-99221586D01*
X125571340Y-99146186D01*
X125534197Y-99076697D01*
X125484211Y-99015789D01*
X125468949Y-99003264D01*
X123621737Y-97156052D01*
X123609211Y-97140789D01*
X123548303Y-97090803D01*
X123478814Y-97053660D01*
X123403414Y-97030788D01*
X123344647Y-97025000D01*
X123344646Y-97025000D01*
X123325000Y-97023065D01*
X123305354Y-97025000D01*
X123201451Y-97025000D01*
X123201451Y-96975000D01*
X123195659Y-96916190D01*
X123178504Y-96859640D01*
X123150647Y-96807523D01*
X123125147Y-96776451D01*
X123850000Y-96776451D01*
X123908810Y-96770659D01*
X123965360Y-96753504D01*
X124017477Y-96725647D01*
X124063158Y-96688158D01*
X124100647Y-96642477D01*
X124128504Y-96590360D01*
X124145659Y-96533810D01*
X124151451Y-96475000D01*
X124151451Y-95575000D01*
X124145659Y-95516190D01*
X124128504Y-95459640D01*
X124100647Y-95407523D01*
X124063158Y-95361842D01*
X124017477Y-95324353D01*
X123965360Y-95296496D01*
X123908810Y-95279341D01*
X123850000Y-95273549D01*
X123850000Y-93967987D01*
X134364104Y-93967987D01*
X134397721Y-94078823D01*
X134494372Y-94282494D01*
X134628900Y-94463396D01*
X134796136Y-94614577D01*
X134989652Y-94730227D01*
X135202012Y-94805901D01*
X135380000Y-94760649D01*
X135380000Y-93790000D01*
X135580000Y-93790000D01*
X135580000Y-94760649D01*
X135757988Y-94805901D01*
X135970348Y-94730227D01*
X136163864Y-94614577D01*
X136331100Y-94463396D01*
X136465628Y-94282494D01*
X136562279Y-94078823D01*
X136595896Y-93967987D01*
X136550339Y-93790000D01*
X135580000Y-93790000D01*
X135380000Y-93790000D01*
X134409661Y-93790000D01*
X134364104Y-93967987D01*
X123850000Y-93967987D01*
X123850000Y-93419647D01*
X123850751Y-93412013D01*
X134364104Y-93412013D01*
X134409661Y-93590000D01*
X135380000Y-93590000D01*
X135380000Y-92619351D01*
X135580000Y-92619351D01*
X135580000Y-93590000D01*
X136550339Y-93590000D01*
X136595896Y-93412013D01*
X136562279Y-93301177D01*
X136465628Y-93097506D01*
X136331100Y-92916604D01*
X136163864Y-92765423D01*
X135970348Y-92649773D01*
X135757988Y-92574099D01*
X135580000Y-92619351D01*
X135380000Y-92619351D01*
X135202012Y-92574099D01*
X134989652Y-92649773D01*
X134796136Y-92765423D01*
X134628900Y-92916604D01*
X134494372Y-93097506D01*
X134397721Y-93301177D01*
X134364104Y-93412013D01*
X123850751Y-93412013D01*
X123851935Y-93400000D01*
X123844212Y-93321586D01*
X123821340Y-93246186D01*
X123784197Y-93176697D01*
X123746735Y-93131049D01*
X123746733Y-93131047D01*
X123734211Y-93115789D01*
X123718953Y-93103267D01*
X123246737Y-92631052D01*
X123234211Y-92615789D01*
X123173303Y-92565803D01*
X123103814Y-92528660D01*
X123028414Y-92505788D01*
X122969647Y-92500000D01*
X122969646Y-92500000D01*
X122950000Y-92498065D01*
X122943966Y-92498659D01*
X124473637Y-92275000D01*
X137464103Y-92275000D01*
X137562250Y-92284624D01*
G37*
X137562250Y-92284624D02*
X137641359Y-92308508D01*
X137714329Y-92347307D01*
X137778371Y-92399539D01*
X137831049Y-92463215D01*
X137870354Y-92535908D01*
X137894793Y-92614859D01*
X137905000Y-92711965D01*
X137905001Y-107284092D01*
X137895376Y-107382250D01*
X137871491Y-107461362D01*
X137832693Y-107534330D01*
X137780460Y-107598373D01*
X137716786Y-107651048D01*
X137644092Y-107690354D01*
X137565140Y-107714793D01*
X137468036Y-107725000D01*
X124523545Y-107725000D01*
X115165991Y-106362132D01*
X115187477Y-106350647D01*
X115233158Y-106313158D01*
X115270647Y-106267477D01*
X115298504Y-106215360D01*
X115315659Y-106158810D01*
X115321451Y-106100000D01*
X115321451Y-105540000D01*
X134328549Y-105540000D01*
X134328549Y-107240000D01*
X134334341Y-107298810D01*
X134351496Y-107355360D01*
X134379353Y-107407477D01*
X134416842Y-107453158D01*
X134462523Y-107490647D01*
X134514640Y-107518504D01*
X134571190Y-107535659D01*
X134630000Y-107541451D01*
X136330000Y-107541451D01*
X136388810Y-107535659D01*
X136445360Y-107518504D01*
X136497477Y-107490647D01*
X136543158Y-107453158D01*
X136580647Y-107407477D01*
X136608504Y-107355360D01*
X136625659Y-107298810D01*
X136631451Y-107240000D01*
X136631451Y-105540000D01*
X136625659Y-105481190D01*
X136608504Y-105424640D01*
X136580647Y-105372523D01*
X136543158Y-105326842D01*
X136497477Y-105289353D01*
X136445360Y-105261496D01*
X136388810Y-105244341D01*
X136330000Y-105238549D01*
X134630000Y-105238549D01*
X134571190Y-105244341D01*
X134514640Y-105261496D01*
X134462523Y-105289353D01*
X134416842Y-105326842D01*
X134379353Y-105372523D01*
X134351496Y-105424640D01*
X134334341Y-105481190D01*
X134328549Y-105540000D01*
X115321451Y-105540000D01*
X115321451Y-105500000D01*
X115315659Y-105441190D01*
X115298504Y-105384640D01*
X115270647Y-105332523D01*
X115233158Y-105286842D01*
X115187477Y-105249353D01*
X115170000Y-105240011D01*
X115170000Y-105046451D01*
X115500000Y-105046451D01*
X115558810Y-105040659D01*
X115615360Y-105023504D01*
X115667477Y-104995647D01*
X115713158Y-104958158D01*
X115750647Y-104912477D01*
X115778504Y-104860360D01*
X115795659Y-104803810D01*
X115801451Y-104745000D01*
X115801451Y-104145000D01*
X118198549Y-104145000D01*
X118198549Y-104745000D01*
X118204341Y-104803810D01*
X118221496Y-104860360D01*
X118249353Y-104912477D01*
X118286842Y-104958158D01*
X118332523Y-104995647D01*
X118384640Y-105023504D01*
X118441190Y-105040659D01*
X118500000Y-105046451D01*
X120450000Y-105046451D01*
X120508810Y-105040659D01*
X120565360Y-105023504D01*
X120617477Y-104995647D01*
X120663158Y-104958158D01*
X120700647Y-104912477D01*
X120728504Y-104860360D01*
X120745659Y-104803810D01*
X120751451Y-104745000D01*
X120751451Y-104145000D01*
X120745659Y-104086190D01*
X120728504Y-104029640D01*
X120700647Y-103977523D01*
X120663158Y-103931842D01*
X120617477Y-103894353D01*
X120565360Y-103866496D01*
X120508810Y-103849341D01*
X120450000Y-103843549D01*
X118500000Y-103843549D01*
X118441190Y-103849341D01*
X118384640Y-103866496D01*
X118332523Y-103894353D01*
X118286842Y-103931842D01*
X118249353Y-103977523D01*
X118221496Y-104029640D01*
X118204341Y-104086190D01*
X118198549Y-104145000D01*
X115801451Y-104145000D01*
X115795659Y-104086190D01*
X115778504Y-104029640D01*
X115750647Y-103977523D01*
X115713158Y-103931842D01*
X115667477Y-103894353D01*
X115615360Y-103866496D01*
X115558810Y-103849341D01*
X115500000Y-103843549D01*
X113550000Y-103843549D01*
X113491190Y-103849341D01*
X113434640Y-103866496D01*
X113382523Y-103894353D01*
X113336842Y-103931842D01*
X113321940Y-103950000D01*
X113301451Y-103950000D01*
X113301451Y-103750000D01*
X113295659Y-103691190D01*
X113278504Y-103634640D01*
X113250647Y-103582523D01*
X113213158Y-103536842D01*
X113168266Y-103500001D01*
X113213159Y-103463159D01*
X113248549Y-103420036D01*
X113248549Y-103475000D01*
X113254341Y-103533810D01*
X113271496Y-103590360D01*
X113299353Y-103642477D01*
X113336842Y-103688158D01*
X113382523Y-103725647D01*
X113434640Y-103753504D01*
X113491190Y-103770659D01*
X113550000Y-103776451D01*
X115500000Y-103776451D01*
X115558810Y-103770659D01*
X115615360Y-103753504D01*
X115667477Y-103725647D01*
X115713158Y-103688158D01*
X115750647Y-103642477D01*
X115778504Y-103590360D01*
X115795659Y-103533810D01*
X115801451Y-103475000D01*
X115801451Y-102875000D01*
X115795659Y-102816190D01*
X115778504Y-102759640D01*
X115750647Y-102707523D01*
X115713158Y-102661842D01*
X115667477Y-102624353D01*
X115615360Y-102596496D01*
X115558810Y-102579341D01*
X115500000Y-102573549D01*
X114171494Y-102573549D01*
X114151713Y-102525793D01*
X114138789Y-102506451D01*
X115500000Y-102506451D01*
X115558810Y-102500659D01*
X115615360Y-102483504D01*
X115667477Y-102455647D01*
X115713158Y-102418158D01*
X115750647Y-102372477D01*
X115778504Y-102320360D01*
X115795659Y-102263810D01*
X115801451Y-102205000D01*
X115801451Y-101605000D01*
X115795659Y-101546190D01*
X115778504Y-101489640D01*
X115750647Y-101437523D01*
X115713158Y-101391842D01*
X115667477Y-101354353D01*
X115615360Y-101326496D01*
X115558810Y-101309341D01*
X115500000Y-101303549D01*
X114422136Y-101303549D01*
X114489234Y-101236451D01*
X115500000Y-101236451D01*
X115558810Y-101230659D01*
X115615360Y-101213504D01*
X115667477Y-101185647D01*
X115713158Y-101148158D01*
X115750647Y-101102477D01*
X115778504Y-101050360D01*
X115795659Y-100993810D01*
X115801451Y-100935000D01*
X115801451Y-100335000D01*
X115795659Y-100276190D01*
X115778504Y-100219640D01*
X115750647Y-100167523D01*
X115713158Y-100121842D01*
X115667477Y-100084353D01*
X115615360Y-100056496D01*
X115558810Y-100039341D01*
X115500000Y-100033549D01*
X113550000Y-100033549D01*
X113491190Y-100039341D01*
X113434640Y-100056496D01*
X113400435Y-100074779D01*
X113400000Y-100070363D01*
X113400000Y-100070353D01*
X113394212Y-100011586D01*
X113371340Y-99936186D01*
X113343043Y-99883247D01*
X113382523Y-99915647D01*
X113434640Y-99943504D01*
X113491190Y-99960659D01*
X113550000Y-99966451D01*
X115500000Y-99966451D01*
X115558810Y-99960659D01*
X115615360Y-99943504D01*
X115667477Y-99915647D01*
X115713158Y-99878158D01*
X115750647Y-99832477D01*
X115778504Y-99780360D01*
X115795659Y-99723810D01*
X115801451Y-99665000D01*
X115801451Y-99663785D01*
X115819209Y-99649211D01*
X115831735Y-99633948D01*
X117665686Y-97799998D01*
X117759095Y-97799998D01*
X117875014Y-97776940D01*
X117984207Y-97731711D01*
X118082478Y-97666048D01*
X118166050Y-97582476D01*
X118231713Y-97484205D01*
X118276942Y-97375012D01*
X118284774Y-97335638D01*
X118286842Y-97338158D01*
X118332523Y-97375647D01*
X118384640Y-97403504D01*
X118441190Y-97420659D01*
X118500000Y-97426451D01*
X120450000Y-97426451D01*
X120508810Y-97420659D01*
X120565360Y-97403504D01*
X120617477Y-97375647D01*
X120663158Y-97338158D01*
X120700647Y-97292477D01*
X120728504Y-97240360D01*
X120745659Y-97183810D01*
X120751451Y-97125000D01*
X120751451Y-96525000D01*
X120745659Y-96466190D01*
X120728504Y-96409640D01*
X120700647Y-96357523D01*
X120663158Y-96311842D01*
X120617477Y-96274353D01*
X120565360Y-96246496D01*
X120508810Y-96229341D01*
X120450000Y-96223549D01*
X118500000Y-96223549D01*
X118441190Y-96229341D01*
X118384640Y-96246496D01*
X118332523Y-96274353D01*
X118286842Y-96311842D01*
X118249353Y-96357523D01*
X118221496Y-96409640D01*
X118204341Y-96466190D01*
X118198549Y-96525000D01*
X118198549Y-96866158D01*
X118166050Y-96817520D01*
X118082478Y-96733948D01*
X117984207Y-96668285D01*
X117875014Y-96623056D01*
X117759095Y-96599998D01*
X117640905Y-96599998D01*
X117524986Y-96623056D01*
X117415793Y-96668285D01*
X117317522Y-96733948D01*
X117233950Y-96817520D01*
X117168287Y-96915791D01*
X117123058Y-97024984D01*
X117118788Y-97046450D01*
X117066050Y-96967522D01*
X116982478Y-96883950D01*
X116884207Y-96818287D01*
X116775014Y-96773058D01*
X116659095Y-96750000D01*
X116565685Y-96750000D01*
X116371737Y-96556052D01*
X116359211Y-96540789D01*
X116298303Y-96490803D01*
X116228814Y-96453660D01*
X116153414Y-96430788D01*
X116094647Y-96425000D01*
X116094646Y-96425000D01*
X116075000Y-96423065D01*
X116055354Y-96425000D01*
X115783164Y-96425000D01*
X115778504Y-96409640D01*
X115750647Y-96357523D01*
X115713158Y-96311842D01*
X115667477Y-96274353D01*
X115615360Y-96246496D01*
X115558810Y-96229341D01*
X115500000Y-96223549D01*
X113550000Y-96223549D01*
X113491190Y-96229341D01*
X113434640Y-96246496D01*
X113382523Y-96274353D01*
X113336842Y-96311842D01*
X113299353Y-96357523D01*
X113271496Y-96409640D01*
X113254341Y-96466190D01*
X113248549Y-96525000D01*
X113248549Y-97125000D01*
X113254341Y-97183810D01*
X113271496Y-97240360D01*
X113299353Y-97292477D01*
X113336842Y-97338158D01*
X113382523Y-97375647D01*
X113434640Y-97403504D01*
X113491190Y-97420659D01*
X113550000Y-97426451D01*
X115500000Y-97426451D01*
X115558810Y-97420659D01*
X115615360Y-97403504D01*
X115667477Y-97375647D01*
X115713158Y-97338158D01*
X115750647Y-97292477D01*
X115778504Y-97240360D01*
X115783164Y-97225000D01*
X115909315Y-97225000D01*
X115984315Y-97300000D01*
X115940905Y-97300000D01*
X115824986Y-97323058D01*
X115715793Y-97368287D01*
X115617522Y-97433950D01*
X115552730Y-97498742D01*
X115500000Y-97493549D01*
X113550000Y-97493549D01*
X113491190Y-97499341D01*
X113434640Y-97516496D01*
X113382523Y-97544353D01*
X113336842Y-97581842D01*
X113299353Y-97627523D01*
X113271496Y-97679640D01*
X113254341Y-97736190D01*
X113248549Y-97795000D01*
X113248549Y-98395000D01*
X113254341Y-98453810D01*
X113271496Y-98510360D01*
X113299353Y-98562477D01*
X113336842Y-98608158D01*
X113382523Y-98645647D01*
X113434640Y-98673504D01*
X113491190Y-98690659D01*
X113550000Y-98696451D01*
X115500000Y-98696451D01*
X115558810Y-98690659D01*
X115615360Y-98673504D01*
X115667477Y-98645647D01*
X115713158Y-98608158D01*
X115750647Y-98562477D01*
X115778504Y-98510360D01*
X115783164Y-98495000D01*
X115785354Y-98495000D01*
X115805000Y-98496935D01*
X115824646Y-98495000D01*
X115824647Y-98495000D01*
X115840915Y-98493398D01*
X115563538Y-98770775D01*
X115558810Y-98769341D01*
X115500000Y-98763549D01*
X113550000Y-98763549D01*
X113491190Y-98769341D01*
X113434640Y-98786496D01*
X113382523Y-98814353D01*
X113340745Y-98848639D01*
X113100000Y-98607894D01*
X113100000Y-97843956D01*
X113113158Y-97833158D01*
X113150647Y-97787477D01*
X113178504Y-97735360D01*
X113195659Y-97678810D01*
X113201451Y-97620000D01*
X113201451Y-97120000D01*
X113195659Y-97061190D01*
X113178504Y-97004640D01*
X113150647Y-96952523D01*
X113113158Y-96906842D01*
X113104822Y-96900001D01*
X113113159Y-96893159D01*
X113150648Y-96847478D01*
X113178505Y-96795361D01*
X113195660Y-96738810D01*
X113201452Y-96680000D01*
X113200000Y-96605000D01*
X113125000Y-96530000D01*
X112700000Y-96530000D01*
X112700000Y-96550000D01*
X112500000Y-96550000D01*
X112500000Y-96530000D01*
X112480000Y-96530000D01*
X112480000Y-96330000D01*
X112500000Y-96330000D01*
X112500000Y-95955000D01*
X112700000Y-95955000D01*
X112700000Y-96330000D01*
X113125000Y-96330000D01*
X113200000Y-96255000D01*
X113201452Y-96180000D01*
X113195660Y-96121190D01*
X113178505Y-96064639D01*
X113150648Y-96012522D01*
X113113159Y-95966841D01*
X113067478Y-95929352D01*
X113015361Y-95901495D01*
X112958810Y-95884340D01*
X112900000Y-95878548D01*
X112775000Y-95880000D01*
X112700000Y-95955000D01*
X112500000Y-95955000D01*
X112425000Y-95880000D01*
X112300000Y-95878548D01*
X112250000Y-95883472D01*
X112250000Y-95855000D01*
X113248548Y-95855000D01*
X113254340Y-95913810D01*
X113271495Y-95970361D01*
X113299352Y-96022478D01*
X113336841Y-96068159D01*
X113382522Y-96105648D01*
X113434639Y-96133505D01*
X113491190Y-96150660D01*
X113550000Y-96156452D01*
X114350000Y-96155000D01*
X114425000Y-96080000D01*
X114425000Y-95655000D01*
X114625000Y-95655000D01*
X114625000Y-96080000D01*
X114700000Y-96155000D01*
X115500000Y-96156452D01*
X115558810Y-96150660D01*
X115615361Y-96133505D01*
X115667478Y-96105648D01*
X115713159Y-96068159D01*
X115750648Y-96022478D01*
X115778505Y-95970361D01*
X115795660Y-95913810D01*
X115801452Y-95855000D01*
X115800000Y-95730000D01*
X115725000Y-95655000D01*
X114625000Y-95655000D01*
X114425000Y-95655000D01*
X113325000Y-95655000D01*
X113250000Y-95730000D01*
X113248548Y-95855000D01*
X112250000Y-95855000D01*
X112250000Y-95543096D01*
X112409964Y-95519189D01*
X112508857Y-95494303D01*
X112600996Y-95450601D01*
X112682839Y-95389764D01*
X112751240Y-95314130D01*
X112786593Y-95255000D01*
X113248548Y-95255000D01*
X113250000Y-95380000D01*
X113325000Y-95455000D01*
X114425000Y-95455000D01*
X114425000Y-95030000D01*
X114625000Y-95030000D01*
X114625000Y-95455000D01*
X115725000Y-95455000D01*
X115800000Y-95380000D01*
X115801452Y-95255000D01*
X115795660Y-95196190D01*
X115778505Y-95139639D01*
X115750648Y-95087522D01*
X115713159Y-95041841D01*
X115667478Y-95004352D01*
X115615361Y-94976495D01*
X115558810Y-94959340D01*
X115500000Y-94953548D01*
X114700000Y-94955000D01*
X114625000Y-95030000D01*
X114425000Y-95030000D01*
X114350000Y-94955000D01*
X113550000Y-94953548D01*
X113491190Y-94959340D01*
X113434639Y-94976495D01*
X113382522Y-95004352D01*
X113336841Y-95041841D01*
X113299352Y-95087522D01*
X113271495Y-95139639D01*
X113254340Y-95196190D01*
X113248548Y-95255000D01*
X112786593Y-95255000D01*
X112803571Y-95226604D01*
X112837822Y-95130550D01*
X112852675Y-95029661D01*
X112847560Y-94927812D01*
X112806041Y-94650000D01*
X116198548Y-94650000D01*
X116204340Y-94708810D01*
X116221495Y-94765361D01*
X116249352Y-94817478D01*
X116286841Y-94863159D01*
X116332522Y-94900648D01*
X116384639Y-94928505D01*
X116441190Y-94945660D01*
X116500000Y-94951452D01*
X116625000Y-94950000D01*
X116700000Y-94875000D01*
X116700000Y-94300000D01*
X116900000Y-94300000D01*
X116900000Y-94875000D01*
X116975000Y-94950000D01*
X117100000Y-94951452D01*
X117158810Y-94945660D01*
X117215361Y-94928505D01*
X117267478Y-94900648D01*
X117313159Y-94863159D01*
X117350648Y-94817478D01*
X117378505Y-94765361D01*
X117395660Y-94708810D01*
X117401452Y-94650000D01*
X117400000Y-94375000D01*
X117325000Y-94300000D01*
X116900000Y-94300000D01*
X116700000Y-94300000D01*
X116275000Y-94300000D01*
X116200000Y-94375000D01*
X116198548Y-94650000D01*
X112806041Y-94650000D01*
X112771808Y-94420941D01*
X112746922Y-94322046D01*
X112703220Y-94229907D01*
X112642383Y-94148065D01*
X112566748Y-94079664D01*
X112481130Y-94028473D01*
X114385687Y-93750000D01*
X116198548Y-93750000D01*
X116200000Y-94025000D01*
X116275000Y-94100000D01*
X116700000Y-94100000D01*
X116700000Y-93525000D01*
X116900000Y-93525000D01*
X116900000Y-94100000D01*
X117325000Y-94100000D01*
X117400000Y-94025000D01*
X117401452Y-93750000D01*
X117395660Y-93691190D01*
X117378505Y-93634639D01*
X117350648Y-93582522D01*
X117313159Y-93536841D01*
X117267478Y-93499352D01*
X117215361Y-93471495D01*
X117158810Y-93454340D01*
X117100000Y-93448548D01*
X116975000Y-93450000D01*
X116900000Y-93525000D01*
X116700000Y-93525000D01*
X116625000Y-93450000D01*
X116500000Y-93448548D01*
X116441190Y-93454340D01*
X116384639Y-93471495D01*
X116332522Y-93499352D01*
X116286841Y-93536841D01*
X116249352Y-93582522D01*
X116221495Y-93634639D01*
X116204340Y-93691190D01*
X116198548Y-93750000D01*
X114385687Y-93750000D01*
X118757498Y-93110780D01*
X118754340Y-93121190D01*
X118748548Y-93180000D01*
X118750000Y-93255000D01*
X118825000Y-93330000D01*
X119250000Y-93330000D01*
X119250000Y-93310000D01*
X119450000Y-93310000D01*
X119450000Y-93330000D01*
X119470000Y-93330000D01*
X119470000Y-93530000D01*
X119450000Y-93530000D01*
X119450000Y-93550000D01*
X119250000Y-93550000D01*
X119250000Y-93530000D01*
X118825000Y-93530000D01*
X118815412Y-93539588D01*
X118813158Y-93536842D01*
X118767477Y-93499353D01*
X118715360Y-93471496D01*
X118658810Y-93454341D01*
X118600000Y-93448549D01*
X118000000Y-93448549D01*
X117941190Y-93454341D01*
X117884640Y-93471496D01*
X117832523Y-93499353D01*
X117786842Y-93536842D01*
X117749353Y-93582523D01*
X117721496Y-93634640D01*
X117704341Y-93691190D01*
X117698549Y-93750000D01*
X117698549Y-94650000D01*
X117704341Y-94708810D01*
X117721496Y-94765360D01*
X117749353Y-94817477D01*
X117786842Y-94863158D01*
X117832523Y-94900647D01*
X117884640Y-94928504D01*
X117941190Y-94945659D01*
X118000000Y-94951451D01*
X118600000Y-94951451D01*
X118658810Y-94945659D01*
X118715360Y-94928504D01*
X118767477Y-94900647D01*
X118804821Y-94870000D01*
X118881735Y-94870000D01*
X118882523Y-94870647D01*
X118934640Y-94898504D01*
X118975001Y-94910748D01*
X118975001Y-94953549D01*
X118500000Y-94953549D01*
X118441190Y-94959341D01*
X118384640Y-94976496D01*
X118332523Y-95004353D01*
X118286842Y-95041842D01*
X118249353Y-95087523D01*
X118242684Y-95100000D01*
X118108528Y-95100000D01*
X118092478Y-95083950D01*
X117994207Y-95018287D01*
X117885014Y-94973058D01*
X117769095Y-94950000D01*
X117650905Y-94950000D01*
X117534986Y-94973058D01*
X117425793Y-95018287D01*
X117327522Y-95083950D01*
X117319562Y-95091910D01*
X117284207Y-95068287D01*
X117175014Y-95023058D01*
X117059095Y-95000000D01*
X116940905Y-95000000D01*
X116824986Y-95023058D01*
X116715793Y-95068287D01*
X116617522Y-95133950D01*
X116533950Y-95217522D01*
X116468287Y-95315793D01*
X116423058Y-95424986D01*
X116400000Y-95540905D01*
X116400000Y-95659095D01*
X116423058Y-95775014D01*
X116468287Y-95884207D01*
X116533950Y-95982478D01*
X116617522Y-96066050D01*
X116715793Y-96131713D01*
X116824986Y-96176942D01*
X116940905Y-96200000D01*
X117059095Y-96200000D01*
X117175014Y-96176942D01*
X117284207Y-96131713D01*
X117331669Y-96100000D01*
X117469942Y-96100000D01*
X117534986Y-96126942D01*
X117650905Y-96150000D01*
X117769095Y-96150000D01*
X117885014Y-96126942D01*
X117950058Y-96100000D01*
X118325642Y-96100000D01*
X118332523Y-96105647D01*
X118384640Y-96133504D01*
X118441190Y-96150659D01*
X118500000Y-96156451D01*
X120450000Y-96156451D01*
X120508810Y-96150659D01*
X120565360Y-96133504D01*
X120617477Y-96105647D01*
X120663158Y-96068158D01*
X120700647Y-96022477D01*
X120728504Y-95970360D01*
X120745659Y-95913810D01*
X120751451Y-95855000D01*
X120751451Y-95255000D01*
X120745659Y-95196190D01*
X120728504Y-95139640D01*
X120700647Y-95087523D01*
X120663158Y-95041842D01*
X120662016Y-95040905D01*
X120684207Y-95031713D01*
X120782478Y-94966050D01*
X120866050Y-94882478D01*
X120931713Y-94784207D01*
X120970000Y-94691772D01*
X120970001Y-95334630D01*
X120936842Y-95361842D01*
X120899353Y-95407523D01*
X120871496Y-95459640D01*
X120854341Y-95516190D01*
X120848549Y-95575000D01*
X120848549Y-96475000D01*
X120854341Y-96533810D01*
X120871496Y-96590360D01*
X120899353Y-96642477D01*
X120936842Y-96688158D01*
X120982523Y-96725647D01*
X121034640Y-96753504D01*
X121091190Y-96770659D01*
X121150000Y-96776451D01*
X121150000Y-97055354D01*
X121148065Y-97075000D01*
X121152990Y-97125000D01*
X121155788Y-97153413D01*
X121178660Y-97228813D01*
X121215803Y-97298302D01*
X121265789Y-97359211D01*
X121281052Y-97371737D01*
X121603267Y-97693953D01*
X121615789Y-97709211D01*
X121631047Y-97721733D01*
X121631049Y-97721735D01*
X121676697Y-97759197D01*
X121746186Y-97796340D01*
X121798549Y-97812224D01*
X121798549Y-97875000D01*
X121804341Y-97933810D01*
X121821496Y-97990360D01*
X121849353Y-98042477D01*
X121886842Y-98088158D01*
X121932523Y-98125647D01*
X121984640Y-98153504D01*
X122041190Y-98170659D01*
X122100000Y-98176451D01*
X122900000Y-98176451D01*
X122958810Y-98170659D01*
X123015360Y-98153504D01*
X123067477Y-98125647D01*
X123113158Y-98088158D01*
X123150647Y-98042477D01*
X123178504Y-97990360D01*
X123195659Y-97933810D01*
X123201451Y-97875000D01*
X123201451Y-97867136D01*
X124800000Y-99465685D01*
X124800001Y-101380344D01*
X124798065Y-101400000D01*
X124805788Y-101478413D01*
X124828661Y-101553814D01*
X124865803Y-101623302D01*
X124903265Y-101668950D01*
X124903268Y-101668953D01*
X124915790Y-101684211D01*
X124931048Y-101696733D01*
X125491822Y-102257507D01*
X125465793Y-102268289D01*
X125367522Y-102333952D01*
X125283950Y-102417524D01*
X125218287Y-102515795D01*
X125173058Y-102624988D01*
X125150000Y-102740907D01*
X125150000Y-102834316D01*
X124559317Y-103425000D01*
X123301451Y-103425000D01*
X123301451Y-103375000D01*
X123295659Y-103316190D01*
X123278504Y-103259640D01*
X123250647Y-103207523D01*
X123213158Y-103161842D01*
X123198728Y-103150000D01*
X123995356Y-103150000D01*
X124015002Y-103151935D01*
X124034648Y-103150000D01*
X124034649Y-103150000D01*
X124093416Y-103144212D01*
X124168816Y-103121340D01*
X124238305Y-103084197D01*
X124299213Y-103034211D01*
X124311739Y-103018948D01*
X124518949Y-102811738D01*
X124534212Y-102799212D01*
X124584198Y-102738304D01*
X124621341Y-102668815D01*
X124644213Y-102593415D01*
X124650001Y-102534648D01*
X124651936Y-102515001D01*
X124650001Y-102495354D01*
X124650001Y-100899636D01*
X124651935Y-100880000D01*
X124650001Y-100860364D01*
X124650001Y-100860354D01*
X124644213Y-100801587D01*
X124621341Y-100726187D01*
X124596451Y-100679622D01*
X124596451Y-100325000D01*
X124590659Y-100266190D01*
X124573504Y-100209640D01*
X124545647Y-100157523D01*
X124508158Y-100111842D01*
X124462477Y-100074353D01*
X124410360Y-100046496D01*
X124353810Y-100029341D01*
X124295000Y-100023549D01*
X124110764Y-100023549D01*
X124128504Y-99990360D01*
X124145659Y-99933810D01*
X124151451Y-99875000D01*
X124151451Y-98975000D01*
X124145659Y-98916190D01*
X124128504Y-98859640D01*
X124100647Y-98807523D01*
X124063158Y-98761842D01*
X124017477Y-98724353D01*
X123965360Y-98696496D01*
X123908810Y-98679341D01*
X123850000Y-98673549D01*
X123050000Y-98673549D01*
X122991190Y-98679341D01*
X122934640Y-98696496D01*
X122882523Y-98724353D01*
X122836842Y-98761842D01*
X122799353Y-98807523D01*
X122771496Y-98859640D01*
X122754341Y-98916190D01*
X122748549Y-98975000D01*
X122748549Y-99588332D01*
X122733661Y-99616186D01*
X122710788Y-99691587D01*
X122703065Y-99770000D01*
X122705001Y-99789656D01*
X122705001Y-100065011D01*
X122687523Y-100074353D01*
X122641842Y-100111842D01*
X122625000Y-100132364D01*
X122608158Y-100111842D01*
X122562477Y-100074353D01*
X122545000Y-100065011D01*
X122545000Y-100039643D01*
X122546935Y-100019999D01*
X122544629Y-99996587D01*
X122539212Y-99941586D01*
X122516340Y-99866186D01*
X122479197Y-99796697D01*
X122462784Y-99776698D01*
X122441735Y-99751049D01*
X122441733Y-99751047D01*
X122429211Y-99735789D01*
X122413954Y-99723268D01*
X122251451Y-99560765D01*
X122251451Y-98975000D01*
X122245659Y-98916190D01*
X122228504Y-98859640D01*
X122200647Y-98807523D01*
X122163158Y-98761842D01*
X122117477Y-98724353D01*
X122065360Y-98696496D01*
X122008810Y-98679341D01*
X121950000Y-98673549D01*
X121250000Y-98673549D01*
X121250000Y-98314647D01*
X121251935Y-98295000D01*
X121244212Y-98216586D01*
X121221340Y-98141186D01*
X121219033Y-98136870D01*
X121184197Y-98071697D01*
X121134211Y-98010789D01*
X121118943Y-97998259D01*
X120946735Y-97826050D01*
X120934211Y-97810789D01*
X120873303Y-97760803D01*
X120803814Y-97723660D01*
X120735579Y-97702961D01*
X120728504Y-97679640D01*
X120700647Y-97627523D01*
X120663158Y-97581842D01*
X120617477Y-97544353D01*
X120565360Y-97516496D01*
X120508810Y-97499341D01*
X120450000Y-97493549D01*
X118500000Y-97493549D01*
X118441190Y-97499341D01*
X118384640Y-97516496D01*
X118332523Y-97544353D01*
X118286842Y-97581842D01*
X118249353Y-97627523D01*
X118221496Y-97679640D01*
X118204341Y-97736190D01*
X118198549Y-97795000D01*
X118198549Y-98395000D01*
X118204341Y-98453810D01*
X118221496Y-98510360D01*
X118249353Y-98562477D01*
X118286842Y-98608158D01*
X118332523Y-98645647D01*
X118384640Y-98673504D01*
X118441190Y-98690659D01*
X118500000Y-98696451D01*
X120450001Y-98696451D01*
X120450001Y-98763549D01*
X118500000Y-98763549D01*
X118441190Y-98769341D01*
X118384640Y-98786496D01*
X118332523Y-98814353D01*
X118286842Y-98851842D01*
X118249353Y-98897523D01*
X118221496Y-98949640D01*
X118214421Y-98972961D01*
X118146186Y-98993660D01*
X118076697Y-99030803D01*
X118015789Y-99080789D01*
X118003259Y-99096057D01*
X117781048Y-99318267D01*
X117765790Y-99330789D01*
X117753268Y-99346047D01*
X117753265Y-99346050D01*
X117715803Y-99391698D01*
X117678661Y-99461186D01*
X117655788Y-99536587D01*
X117648065Y-99615000D01*
X117650001Y-99634656D01*
X117650000Y-102275355D01*
X117648065Y-102295002D01*
X117650000Y-102314648D01*
X117655788Y-102373415D01*
X117678660Y-102448815D01*
X117715803Y-102518304D01*
X117765789Y-102579213D01*
X117781053Y-102591740D01*
X118008257Y-102818943D01*
X118020787Y-102834211D01*
X118074651Y-102878416D01*
X118081695Y-102884197D01*
X118151184Y-102921340D01*
X118198549Y-102935708D01*
X118198549Y-103475000D01*
X118204341Y-103533810D01*
X118221496Y-103590360D01*
X118249353Y-103642477D01*
X118286842Y-103688158D01*
X118332523Y-103725647D01*
X118384640Y-103753504D01*
X118441190Y-103770659D01*
X118500000Y-103776451D01*
X120450000Y-103776451D01*
X120508810Y-103770659D01*
X120565360Y-103753504D01*
X120617477Y-103725647D01*
X120663158Y-103688158D01*
X120700647Y-103642477D01*
X120728504Y-103590360D01*
X120745659Y-103533810D01*
X120751451Y-103475000D01*
X120751451Y-103133553D01*
X120786588Y-103144212D01*
X120865002Y-103151935D01*
X120884649Y-103150000D01*
X122001272Y-103150000D01*
X121986842Y-103161842D01*
X121949353Y-103207523D01*
X121921496Y-103259640D01*
X121904341Y-103316190D01*
X121898549Y-103375000D01*
X121898549Y-104275000D01*
X121904341Y-104333810D01*
X121921496Y-104390360D01*
X121949353Y-104442477D01*
X121986842Y-104488158D01*
X122032523Y-104525647D01*
X122084640Y-104553504D01*
X122141190Y-104570659D01*
X122200000Y-104576451D01*
X123000000Y-104576451D01*
X123058810Y-104570659D01*
X123115360Y-104553504D01*
X123167477Y-104525647D01*
X123213158Y-104488158D01*
X123250647Y-104442477D01*
X123278504Y-104390360D01*
X123295659Y-104333810D01*
X123301451Y-104275000D01*
X123301451Y-104225000D01*
X124705356Y-104225000D01*
X124725002Y-104226935D01*
X124744648Y-104225000D01*
X124744649Y-104225000D01*
X124803416Y-104219212D01*
X124878816Y-104196340D01*
X124948305Y-104159197D01*
X125009213Y-104109211D01*
X125021739Y-104093948D01*
X125715686Y-103400002D01*
X125809095Y-103400002D01*
X125925014Y-103376944D01*
X126034207Y-103331715D01*
X126132478Y-103266052D01*
X126216050Y-103182480D01*
X126281713Y-103084209D01*
X126326942Y-102975016D01*
X126333647Y-102941308D01*
X126339999Y-102941934D01*
X126359635Y-102940000D01*
X126966214Y-102940000D01*
X127028831Y-103091171D01*
X127156173Y-103281752D01*
X127318248Y-103443827D01*
X127508829Y-103571169D01*
X127720590Y-103658883D01*
X127945395Y-103703600D01*
X128174605Y-103703600D01*
X128399410Y-103658883D01*
X128536439Y-103602124D01*
X129053263Y-104118948D01*
X129065789Y-104134211D01*
X129126697Y-104184197D01*
X129196186Y-104221340D01*
X129271586Y-104244212D01*
X129330353Y-104250000D01*
X129330363Y-104250000D01*
X129349999Y-104251934D01*
X129369635Y-104250000D01*
X134400935Y-104250000D01*
X134460884Y-104394729D01*
X134586737Y-104583082D01*
X134746918Y-104743263D01*
X134935271Y-104869116D01*
X135144557Y-104955806D01*
X135366735Y-105000000D01*
X135593265Y-105000000D01*
X135815443Y-104955806D01*
X136024729Y-104869116D01*
X136213082Y-104743263D01*
X136373263Y-104583082D01*
X136499116Y-104394729D01*
X136585806Y-104185443D01*
X136630000Y-103963265D01*
X136630000Y-103736735D01*
X136585806Y-103514557D01*
X136499116Y-103305271D01*
X136373263Y-103116918D01*
X136213082Y-102956737D01*
X136024729Y-102830884D01*
X135815443Y-102744194D01*
X135593265Y-102700000D01*
X135366735Y-102700000D01*
X135144557Y-102744194D01*
X134935271Y-102830884D01*
X134746918Y-102956737D01*
X134586737Y-103116918D01*
X134460884Y-103305271D01*
X134400935Y-103450000D01*
X131760481Y-103450000D01*
X131765051Y-103403600D01*
X131765051Y-101710000D01*
X134400935Y-101710000D01*
X134460884Y-101854729D01*
X134586737Y-102043082D01*
X134746918Y-102203263D01*
X134935271Y-102329116D01*
X135144557Y-102415806D01*
X135366735Y-102460000D01*
X135593265Y-102460000D01*
X135815443Y-102415806D01*
X136024729Y-102329116D01*
X136213082Y-102203263D01*
X136373263Y-102043082D01*
X136499116Y-101854729D01*
X136585806Y-101645443D01*
X136630000Y-101423265D01*
X136630000Y-101196735D01*
X136585806Y-100974557D01*
X136499116Y-100765271D01*
X136373263Y-100576918D01*
X136213082Y-100416737D01*
X136024729Y-100290884D01*
X135815443Y-100204194D01*
X135593265Y-100160000D01*
X135366735Y-100160000D01*
X135144557Y-100204194D01*
X134935271Y-100290884D01*
X134746918Y-100416737D01*
X134586737Y-100576918D01*
X134460884Y-100765271D01*
X134400935Y-100910000D01*
X131332513Y-100910000D01*
X131341752Y-100903827D01*
X131503827Y-100741752D01*
X131631169Y-100551171D01*
X131693786Y-100400000D01*
X134230354Y-100400000D01*
X134250000Y-100401935D01*
X134269646Y-100400000D01*
X134269647Y-100400000D01*
X134328414Y-100394212D01*
X134403814Y-100371340D01*
X134473303Y-100334197D01*
X134534211Y-100284211D01*
X134546737Y-100268948D01*
X134999828Y-99815857D01*
X135144557Y-99875806D01*
X135366735Y-99920000D01*
X135593265Y-99920000D01*
X135815443Y-99875806D01*
X136024729Y-99789116D01*
X136213082Y-99663263D01*
X136373263Y-99503082D01*
X136499116Y-99314729D01*
X136585806Y-99105443D01*
X136630000Y-98883265D01*
X136630000Y-98656735D01*
X136585806Y-98434557D01*
X136499116Y-98225271D01*
X136373263Y-98036918D01*
X136213082Y-97876737D01*
X136024729Y-97750884D01*
X135815443Y-97664194D01*
X135593265Y-97620000D01*
X135366735Y-97620000D01*
X135144557Y-97664194D01*
X134935271Y-97750884D01*
X134746918Y-97876737D01*
X134586737Y-98036918D01*
X134460884Y-98225271D01*
X134374194Y-98434557D01*
X134330000Y-98656735D01*
X134330000Y-98883265D01*
X134374194Y-99105443D01*
X134434143Y-99250172D01*
X134084315Y-99600000D01*
X131693786Y-99600000D01*
X131631169Y-99448829D01*
X131503827Y-99258248D01*
X131481978Y-99236399D01*
X132853955Y-99236399D01*
X132873601Y-99238334D01*
X132893247Y-99236399D01*
X132893248Y-99236399D01*
X132952015Y-99230611D01*
X133027415Y-99207739D01*
X133096904Y-99170596D01*
X133157812Y-99120610D01*
X133170338Y-99105347D01*
X134999828Y-97275857D01*
X135144557Y-97335806D01*
X135366735Y-97380000D01*
X135593265Y-97380000D01*
X135815443Y-97335806D01*
X136024729Y-97249116D01*
X136213082Y-97123263D01*
X136373263Y-96963082D01*
X136499116Y-96774729D01*
X136585806Y-96565443D01*
X136630000Y-96343265D01*
X136630000Y-96116735D01*
X136585806Y-95894557D01*
X136499116Y-95685271D01*
X136373263Y-95496918D01*
X136213082Y-95336737D01*
X136024729Y-95210884D01*
X135815443Y-95124194D01*
X135593265Y-95080000D01*
X135366735Y-95080000D01*
X135144557Y-95124194D01*
X134935271Y-95210884D01*
X134746918Y-95336737D01*
X134586737Y-95496918D01*
X134460884Y-95685271D01*
X134374194Y-95894557D01*
X134330000Y-96116735D01*
X134330000Y-96343265D01*
X134374194Y-96565443D01*
X134434143Y-96710172D01*
X132707916Y-98436399D01*
X131223602Y-98436399D01*
X131290996Y-98396216D01*
X131460365Y-98243420D01*
X131596671Y-98060518D01*
X131694675Y-97854538D01*
X131729379Y-97740123D01*
X131683997Y-97560000D01*
X130700000Y-97560000D01*
X130700000Y-97580000D01*
X130500000Y-97580000D01*
X130500000Y-97560000D01*
X129516003Y-97560000D01*
X129470621Y-97740123D01*
X129505325Y-97854538D01*
X129603329Y-98060518D01*
X129739635Y-98243420D01*
X129909004Y-98396216D01*
X129976398Y-98436399D01*
X129243236Y-98436399D01*
X129223600Y-98434465D01*
X129203964Y-98436399D01*
X129203954Y-98436399D01*
X129145187Y-98442187D01*
X129069787Y-98465059D01*
X129000298Y-98502202D01*
X128987427Y-98512765D01*
X128954650Y-98539664D01*
X128954648Y-98539666D01*
X128939390Y-98552188D01*
X128926868Y-98567446D01*
X128550581Y-98943734D01*
X128399410Y-98881117D01*
X128174605Y-98836400D01*
X127945395Y-98836400D01*
X127720590Y-98881117D01*
X127508829Y-98968831D01*
X127318248Y-99096173D01*
X127296399Y-99118022D01*
X127296399Y-98789286D01*
X127493136Y-98592550D01*
X127493141Y-98592544D01*
X127569419Y-98516266D01*
X127720590Y-98578883D01*
X127945395Y-98623600D01*
X128174605Y-98623600D01*
X128399410Y-98578883D01*
X128611171Y-98491169D01*
X128801752Y-98363827D01*
X128963827Y-98201752D01*
X129091169Y-98011171D01*
X129178883Y-97799410D01*
X129223600Y-97574605D01*
X129223600Y-97345395D01*
X129190677Y-97179877D01*
X129470621Y-97179877D01*
X129516003Y-97360000D01*
X130500000Y-97360000D01*
X130500000Y-96375700D01*
X130700000Y-96375700D01*
X130700000Y-97360000D01*
X131683997Y-97360000D01*
X131729379Y-97179877D01*
X131694675Y-97065462D01*
X131596671Y-96859482D01*
X131460365Y-96676580D01*
X131290996Y-96523784D01*
X131095072Y-96406966D01*
X130880123Y-96330616D01*
X130700000Y-96375700D01*
X130500000Y-96375700D01*
X130319877Y-96330616D01*
X130104928Y-96406966D01*
X129909004Y-96523784D01*
X129739635Y-96676580D01*
X129603329Y-96859482D01*
X129505325Y-97065462D01*
X129470621Y-97179877D01*
X129190677Y-97179877D01*
X129178883Y-97120590D01*
X129091169Y-96908829D01*
X128963827Y-96718248D01*
X128801752Y-96556173D01*
X128611171Y-96428831D01*
X128399410Y-96341117D01*
X128174605Y-96296400D01*
X127945395Y-96296400D01*
X127720590Y-96341117D01*
X127508829Y-96428831D01*
X127318248Y-96556173D01*
X127156173Y-96718248D01*
X127028831Y-96908829D01*
X126941117Y-97120590D01*
X126896400Y-97345395D01*
X126896400Y-97574605D01*
X126941117Y-97799410D01*
X127003734Y-97950581D01*
X126927456Y-98026859D01*
X126927450Y-98026864D01*
X126627446Y-98326869D01*
X126612189Y-98339390D01*
X126599667Y-98354648D01*
X126599664Y-98354651D01*
X126562202Y-98400299D01*
X126525060Y-98469787D01*
X126502187Y-98545188D01*
X126494464Y-98623601D01*
X126496400Y-98643257D01*
X126496399Y-100531616D01*
X126494728Y-100543974D01*
X126496399Y-100570913D01*
X126496399Y-100578175D01*
X126497616Y-100590529D01*
X126499606Y-100622615D01*
X126501471Y-100629675D01*
X126502187Y-100636942D01*
X126511522Y-100667714D01*
X126519733Y-100698794D01*
X126522939Y-100705352D01*
X126525059Y-100712342D01*
X126540217Y-100740701D01*
X126554335Y-100769583D01*
X126558760Y-100775392D01*
X126562202Y-100781831D01*
X126582596Y-100806682D01*
X126590119Y-100816557D01*
X126595063Y-100821873D01*
X126612188Y-100842740D01*
X126621831Y-100850654D01*
X126868472Y-101115842D01*
X126684315Y-101300000D01*
X126590905Y-101300000D01*
X126474986Y-101323058D01*
X126365793Y-101368287D01*
X126267522Y-101433950D01*
X126183950Y-101517522D01*
X126118287Y-101615793D01*
X126078217Y-101712532D01*
X125600000Y-101234315D01*
X125600000Y-99319635D01*
X125601934Y-99299999D01*
X125600000Y-99280363D01*
X125600000Y-99280353D01*
X125594212Y-99221586D01*
X125571340Y-99146186D01*
X125534197Y-99076697D01*
X125484211Y-99015789D01*
X125468949Y-99003264D01*
X123621737Y-97156052D01*
X123609211Y-97140789D01*
X123548303Y-97090803D01*
X123478814Y-97053660D01*
X123403414Y-97030788D01*
X123344647Y-97025000D01*
X123344646Y-97025000D01*
X123325000Y-97023065D01*
X123305354Y-97025000D01*
X123201451Y-97025000D01*
X123201451Y-96975000D01*
X123195659Y-96916190D01*
X123178504Y-96859640D01*
X123150647Y-96807523D01*
X123125147Y-96776451D01*
X123850000Y-96776451D01*
X123908810Y-96770659D01*
X123965360Y-96753504D01*
X124017477Y-96725647D01*
X124063158Y-96688158D01*
X124100647Y-96642477D01*
X124128504Y-96590360D01*
X124145659Y-96533810D01*
X124151451Y-96475000D01*
X124151451Y-95575000D01*
X124145659Y-95516190D01*
X124128504Y-95459640D01*
X124100647Y-95407523D01*
X124063158Y-95361842D01*
X124017477Y-95324353D01*
X123965360Y-95296496D01*
X123908810Y-95279341D01*
X123850000Y-95273549D01*
X123850000Y-93967987D01*
X134364104Y-93967987D01*
X134397721Y-94078823D01*
X134494372Y-94282494D01*
X134628900Y-94463396D01*
X134796136Y-94614577D01*
X134989652Y-94730227D01*
X135202012Y-94805901D01*
X135380000Y-94760649D01*
X135380000Y-93790000D01*
X135580000Y-93790000D01*
X135580000Y-94760649D01*
X135757988Y-94805901D01*
X135970348Y-94730227D01*
X136163864Y-94614577D01*
X136331100Y-94463396D01*
X136465628Y-94282494D01*
X136562279Y-94078823D01*
X136595896Y-93967987D01*
X136550339Y-93790000D01*
X135580000Y-93790000D01*
X135380000Y-93790000D01*
X134409661Y-93790000D01*
X134364104Y-93967987D01*
X123850000Y-93967987D01*
X123850000Y-93419647D01*
X123850751Y-93412013D01*
X134364104Y-93412013D01*
X134409661Y-93590000D01*
X135380000Y-93590000D01*
X135380000Y-92619351D01*
X135580000Y-92619351D01*
X135580000Y-93590000D01*
X136550339Y-93590000D01*
X136595896Y-93412013D01*
X136562279Y-93301177D01*
X136465628Y-93097506D01*
X136331100Y-92916604D01*
X136163864Y-92765423D01*
X135970348Y-92649773D01*
X135757988Y-92574099D01*
X135580000Y-92619351D01*
X135380000Y-92619351D01*
X135202012Y-92574099D01*
X134989652Y-92649773D01*
X134796136Y-92765423D01*
X134628900Y-92916604D01*
X134494372Y-93097506D01*
X134397721Y-93301177D01*
X134364104Y-93412013D01*
X123850751Y-93412013D01*
X123851935Y-93400000D01*
X123844212Y-93321586D01*
X123821340Y-93246186D01*
X123784197Y-93176697D01*
X123746735Y-93131049D01*
X123746733Y-93131047D01*
X123734211Y-93115789D01*
X123718953Y-93103267D01*
X123246737Y-92631052D01*
X123234211Y-92615789D01*
X123173303Y-92565803D01*
X123103814Y-92528660D01*
X123028414Y-92505788D01*
X122969647Y-92500000D01*
X122969646Y-92500000D01*
X122950000Y-92498065D01*
X122943966Y-92498659D01*
X124473637Y-92275000D01*
X137464103Y-92275000D01*
X137562250Y-92284624D01*
G36*
X109917161Y-94410236D02*
G01*
X109848760Y-94485870D01*
X109830506Y-94516400D01*
X109553527Y-94516400D01*
X109528967Y-94513981D01*
X109504407Y-94516400D01*
X109430950Y-94523635D01*
X109336700Y-94552225D01*
X109249838Y-94598654D01*
X109199989Y-94639563D01*
X108978683Y-94672638D01*
X108921374Y-94687060D01*
X108867981Y-94712384D01*
X108820554Y-94747639D01*
X108780916Y-94791468D01*
X108775383Y-94800722D01*
X108767385Y-94793488D01*
X108716664Y-94763163D01*
X108661002Y-94743316D01*
X108602537Y-94734708D01*
X108543517Y-94737672D01*
X108469555Y-94750194D01*
X108406465Y-94835456D01*
X108469284Y-95255787D01*
X108489064Y-95252831D01*
X108518626Y-95450635D01*
X108498846Y-95453591D01*
X108561665Y-95873922D01*
X108646926Y-95937013D01*
X108721317Y-95927363D01*
X108778625Y-95912942D01*
X108832019Y-95887617D01*
X108879446Y-95852362D01*
X108919084Y-95808533D01*
X108924618Y-95799278D01*
X108932616Y-95806511D01*
X108983337Y-95836836D01*
X109038999Y-95856684D01*
X109097463Y-95865291D01*
X109156483Y-95862327D01*
X109650991Y-95788422D01*
X109708300Y-95774000D01*
X109761693Y-95748676D01*
X109809120Y-95713421D01*
X109848758Y-95669592D01*
X109879083Y-95618871D01*
X109896607Y-95569727D01*
X109896780Y-95570093D01*
X109957617Y-95651935D01*
X110033252Y-95720336D01*
X110120778Y-95772668D01*
X110216831Y-95806918D01*
X110317721Y-95821771D01*
X110419570Y-95816656D01*
X110852264Y-95751989D01*
X110951157Y-95727103D01*
X111043296Y-95683401D01*
X111125139Y-95622564D01*
X111193540Y-95546930D01*
X111245871Y-95459404D01*
X111250001Y-95447822D01*
X111250001Y-95883472D01*
X111200000Y-95878548D01*
X111075000Y-95880000D01*
X111000000Y-95955000D01*
X111000000Y-96330000D01*
X111020000Y-96330000D01*
X111020000Y-96530000D01*
X111000000Y-96530000D01*
X111000000Y-96550000D01*
X110800000Y-96550000D01*
X110800000Y-96530000D01*
X110375000Y-96530000D01*
X110300000Y-96605000D01*
X110298548Y-96680000D01*
X110304340Y-96738810D01*
X110321495Y-96795361D01*
X110349352Y-96847478D01*
X110386841Y-96893159D01*
X110395178Y-96900001D01*
X110386842Y-96906842D01*
X110349353Y-96952523D01*
X110321496Y-97004640D01*
X110304341Y-97061190D01*
X110298549Y-97120000D01*
X110298549Y-97620000D01*
X110304341Y-97678810D01*
X110321496Y-97735360D01*
X110349353Y-97787477D01*
X110386842Y-97833158D01*
X110400001Y-97843957D01*
X110400001Y-97896649D01*
X110390360Y-97891496D01*
X110333810Y-97874341D01*
X110275000Y-97868549D01*
X109625000Y-97868549D01*
X109566190Y-97874341D01*
X109509640Y-97891496D01*
X109457523Y-97919353D01*
X109411842Y-97956842D01*
X109374353Y-98002523D01*
X109346496Y-98054640D01*
X109329341Y-98111190D01*
X109323549Y-98170000D01*
X109323549Y-98830886D01*
X109319095Y-98830000D01*
X109201451Y-98830000D01*
X109201451Y-98370000D01*
X109195659Y-98311190D01*
X109178504Y-98254640D01*
X109150647Y-98202523D01*
X109113158Y-98156842D01*
X109104822Y-98150001D01*
X109113159Y-98143159D01*
X109150648Y-98097478D01*
X109178505Y-98045361D01*
X109195660Y-97988810D01*
X109201452Y-97930000D01*
X109200000Y-97855000D01*
X109125000Y-97780000D01*
X108700000Y-97780000D01*
X108700000Y-97800000D01*
X108500000Y-97800000D01*
X108500000Y-97780000D01*
X108480000Y-97780000D01*
X108480000Y-97580000D01*
X108500000Y-97580000D01*
X108500000Y-97205000D01*
X108700000Y-97205000D01*
X108700000Y-97580000D01*
X109125000Y-97580000D01*
X109200000Y-97505000D01*
X109201452Y-97430000D01*
X109195660Y-97371190D01*
X109178505Y-97314639D01*
X109150648Y-97262522D01*
X109113159Y-97216841D01*
X109067478Y-97179352D01*
X109015361Y-97151495D01*
X108958810Y-97134340D01*
X108900000Y-97128548D01*
X108775000Y-97130000D01*
X108700000Y-97205000D01*
X108500000Y-97205000D01*
X108425000Y-97130000D01*
X108300000Y-97128548D01*
X108241190Y-97134340D01*
X108184639Y-97151495D01*
X108132522Y-97179352D01*
X108086841Y-97216841D01*
X108049352Y-97262522D01*
X108026451Y-97305367D01*
X108026451Y-97300000D01*
X108020659Y-97241190D01*
X108008164Y-97200002D01*
X108020660Y-97158810D01*
X108026452Y-97100000D01*
X108025000Y-96975000D01*
X107950000Y-96900000D01*
X107100000Y-96900000D01*
X107100000Y-96920000D01*
X106900000Y-96920000D01*
X106900000Y-96900000D01*
X106880000Y-96900000D01*
X106880000Y-96700000D01*
X106900000Y-96700000D01*
X106900000Y-96680000D01*
X107100000Y-96680000D01*
X107100000Y-96700000D01*
X107950000Y-96700000D01*
X108025000Y-96625000D01*
X108026452Y-96500000D01*
X108020660Y-96441190D01*
X108003505Y-96384639D01*
X107975648Y-96332522D01*
X107938159Y-96286841D01*
X107892478Y-96249352D01*
X107840361Y-96221495D01*
X107783810Y-96204340D01*
X107725000Y-96198548D01*
X107247830Y-96199808D01*
X107266626Y-96180000D01*
X110298548Y-96180000D01*
X110300000Y-96255000D01*
X110375000Y-96330000D01*
X110800000Y-96330000D01*
X110800000Y-95955000D01*
X110725000Y-95880000D01*
X110600000Y-95878548D01*
X110541190Y-95884340D01*
X110484639Y-95901495D01*
X110432522Y-95929352D01*
X110386841Y-95966841D01*
X110349352Y-96012522D01*
X110321495Y-96064639D01*
X110304340Y-96121190D01*
X110298548Y-96180000D01*
X107266626Y-96180000D01*
X107271396Y-96174974D01*
X107355732Y-96041309D01*
X107403309Y-95902935D01*
X107353070Y-95780000D01*
X106185000Y-95780000D01*
X106185000Y-95800000D01*
X105985000Y-95800000D01*
X105985000Y-95780000D01*
X104816930Y-95780000D01*
X104766691Y-95902935D01*
X104814268Y-96041309D01*
X104898604Y-96174974D01*
X105007397Y-96289618D01*
X105136465Y-96380835D01*
X105280849Y-96445119D01*
X105435000Y-96480000D01*
X105975518Y-96480000D01*
X105973548Y-96500000D01*
X105975000Y-96625000D01*
X106049998Y-96699998D01*
X106028881Y-96699998D01*
X105953414Y-96624531D01*
X105851048Y-96556132D01*
X105737306Y-96509019D01*
X105616557Y-96485000D01*
X105493443Y-96485000D01*
X105372694Y-96509019D01*
X105258952Y-96556132D01*
X105156586Y-96624531D01*
X105069531Y-96711586D01*
X105001132Y-96813952D01*
X104954019Y-96927694D01*
X104930000Y-97048443D01*
X104930000Y-97171557D01*
X104954019Y-97292306D01*
X105001132Y-97406048D01*
X105069531Y-97508414D01*
X105156586Y-97595469D01*
X105258952Y-97663868D01*
X105327110Y-97692100D01*
X105318586Y-97700407D01*
X105254986Y-97713058D01*
X105145793Y-97758287D01*
X105047522Y-97823950D01*
X104963950Y-97907522D01*
X104898287Y-98005793D01*
X104853058Y-98114986D01*
X104837451Y-98193445D01*
X104803893Y-98227004D01*
X104795462Y-98233157D01*
X104769115Y-98261782D01*
X104759081Y-98271816D01*
X104752511Y-98279821D01*
X104728761Y-98305625D01*
X104721316Y-98317833D01*
X104712255Y-98328874D01*
X104695736Y-98359779D01*
X104677480Y-98389714D01*
X104672562Y-98403132D01*
X104665826Y-98415735D01*
X104655650Y-98449279D01*
X104643589Y-98482190D01*
X104641384Y-98496307D01*
X104637235Y-98509985D01*
X104633798Y-98544878D01*
X104632199Y-98555118D01*
X104631394Y-98569293D01*
X104628272Y-98600986D01*
X104578287Y-98675793D01*
X104533058Y-98784986D01*
X104510000Y-98900905D01*
X104510000Y-99019095D01*
X104533058Y-99135014D01*
X104578287Y-99244207D01*
X104630001Y-99321602D01*
X104630000Y-101367438D01*
X104627581Y-101391998D01*
X104637235Y-101490015D01*
X104645579Y-101517522D01*
X104665825Y-101584264D01*
X104712254Y-101671127D01*
X104774736Y-101747262D01*
X104793824Y-101762927D01*
X105335374Y-102304477D01*
X105258952Y-102336132D01*
X105156586Y-102404531D01*
X105069531Y-102491586D01*
X105001132Y-102593952D01*
X104954019Y-102707694D01*
X104930000Y-102828443D01*
X104930000Y-102951557D01*
X104954019Y-103072306D01*
X105001132Y-103186048D01*
X105069531Y-103288414D01*
X105156586Y-103375469D01*
X105258952Y-103443868D01*
X105372694Y-103490981D01*
X105493443Y-103515000D01*
X105616557Y-103515000D01*
X105737306Y-103490981D01*
X105851048Y-103443868D01*
X105953414Y-103375469D01*
X106028881Y-103300002D01*
X106049998Y-103300002D01*
X105975000Y-103375000D01*
X105973548Y-103500000D01*
X105975518Y-103520000D01*
X105435000Y-103520000D01*
X105280849Y-103554881D01*
X105136465Y-103619165D01*
X105007397Y-103710382D01*
X104898604Y-103825026D01*
X104814268Y-103958691D01*
X104766691Y-104097065D01*
X104816930Y-104220000D01*
X105985000Y-104220000D01*
X105985000Y-104200000D01*
X106185000Y-104200000D01*
X106185000Y-104220000D01*
X107353070Y-104220000D01*
X107403309Y-104097065D01*
X107355732Y-103958691D01*
X107271396Y-103825026D01*
X107247830Y-103800192D01*
X107725000Y-103801452D01*
X107783810Y-103795660D01*
X107840361Y-103778505D01*
X107892478Y-103750648D01*
X107898549Y-103745666D01*
X107898549Y-104010000D01*
X107904341Y-104068810D01*
X107921496Y-104125360D01*
X107949353Y-104177477D01*
X107986842Y-104223158D01*
X107995178Y-104229999D01*
X107986841Y-104236841D01*
X107949352Y-104282522D01*
X107921495Y-104334639D01*
X107904340Y-104391190D01*
X107898548Y-104450000D01*
X107900000Y-104525000D01*
X107975000Y-104600000D01*
X108400000Y-104600000D01*
X108400000Y-104580000D01*
X108600000Y-104580000D01*
X108600000Y-104600000D01*
X108620000Y-104600000D01*
X108620000Y-104800000D01*
X108600000Y-104800000D01*
X108600000Y-105175000D01*
X108675000Y-105250000D01*
X108800000Y-105251452D01*
X108858810Y-105245660D01*
X108915361Y-105228505D01*
X108967478Y-105200648D01*
X109013159Y-105163159D01*
X109050648Y-105117478D01*
X109078505Y-105065361D01*
X109095660Y-105008810D01*
X109100000Y-104964743D01*
X109104340Y-105008810D01*
X109121495Y-105065361D01*
X109149352Y-105117478D01*
X109186841Y-105163159D01*
X109232522Y-105200648D01*
X109284639Y-105228505D01*
X109341190Y-105245660D01*
X109400000Y-105251452D01*
X109925000Y-105250000D01*
X110000000Y-105175000D01*
X110000000Y-104450000D01*
X110200000Y-104450000D01*
X110200000Y-105175000D01*
X110275000Y-105250000D01*
X110800000Y-105251452D01*
X110858810Y-105245660D01*
X110915361Y-105228505D01*
X110967478Y-105200648D01*
X111013159Y-105163159D01*
X111050648Y-105117478D01*
X111078505Y-105065361D01*
X111095660Y-105008810D01*
X111101452Y-104950000D01*
X111100000Y-104525000D01*
X111025000Y-104450000D01*
X110200000Y-104450000D01*
X110000000Y-104450000D01*
X109175000Y-104450000D01*
X109100000Y-104525000D01*
X109101452Y-104450000D01*
X109095660Y-104391190D01*
X109078505Y-104334639D01*
X109050648Y-104282522D01*
X109013159Y-104236841D01*
X109004822Y-104229999D01*
X109013158Y-104223158D01*
X109050647Y-104177477D01*
X109078504Y-104125360D01*
X109083052Y-104110366D01*
X109099749Y-104101442D01*
X109100000Y-104175000D01*
X109175000Y-104250000D01*
X110000000Y-104250000D01*
X110000000Y-104230000D01*
X110200000Y-104230000D01*
X110200000Y-104250000D01*
X111025000Y-104250000D01*
X111100000Y-104175000D01*
X111101452Y-103750000D01*
X111095660Y-103691190D01*
X111078505Y-103634639D01*
X111050648Y-103582522D01*
X111013159Y-103536841D01*
X110968266Y-103499999D01*
X111013158Y-103463158D01*
X111050647Y-103417477D01*
X111078504Y-103365360D01*
X111095659Y-103308810D01*
X111097069Y-103294490D01*
X111135014Y-103286942D01*
X111244207Y-103241713D01*
X111298701Y-103205301D01*
X111298548Y-103250000D01*
X111304340Y-103308810D01*
X111321495Y-103365361D01*
X111349352Y-103417478D01*
X111386841Y-103463159D01*
X111431734Y-103500001D01*
X111386842Y-103536842D01*
X111349353Y-103582523D01*
X111321496Y-103634640D01*
X111304341Y-103691190D01*
X111298549Y-103750000D01*
X111298549Y-104950000D01*
X111304341Y-105008810D01*
X111321496Y-105065360D01*
X111349353Y-105117477D01*
X111386842Y-105163158D01*
X111432523Y-105200647D01*
X111484640Y-105228504D01*
X111541190Y-105245659D01*
X111600000Y-105251451D01*
X113000000Y-105251451D01*
X113058810Y-105245659D01*
X113115360Y-105228504D01*
X113167477Y-105200647D01*
X113213158Y-105163158D01*
X113250647Y-105117477D01*
X113278504Y-105065360D01*
X113295659Y-105008810D01*
X113301451Y-104950000D01*
X113301451Y-104915033D01*
X113336842Y-104958158D01*
X113382523Y-104995647D01*
X113434640Y-105023504D01*
X113491190Y-105040659D01*
X113550000Y-105046451D01*
X114370001Y-105046451D01*
X114370001Y-105240011D01*
X114352523Y-105249353D01*
X114306842Y-105286842D01*
X114300001Y-105295178D01*
X114293159Y-105286841D01*
X114247478Y-105249352D01*
X114195361Y-105221495D01*
X114138810Y-105204340D01*
X114080000Y-105198548D01*
X114005000Y-105200000D01*
X113930000Y-105275000D01*
X113930000Y-105700000D01*
X113950000Y-105700000D01*
X113950000Y-105900000D01*
X113930000Y-105900000D01*
X113930000Y-105920000D01*
X113730000Y-105920000D01*
X113730000Y-105900000D01*
X113355000Y-105900000D01*
X113280000Y-105975000D01*
X113278696Y-106087259D01*
X109246533Y-105500000D01*
X113278548Y-105500000D01*
X113280000Y-105625000D01*
X113355000Y-105700000D01*
X113730000Y-105700000D01*
X113730000Y-105275000D01*
X113655000Y-105200000D01*
X113580000Y-105198548D01*
X113521190Y-105204340D01*
X113464639Y-105221495D01*
X113412522Y-105249352D01*
X113366841Y-105286841D01*
X113329352Y-105332522D01*
X113301495Y-105384639D01*
X113284340Y-105441190D01*
X113278548Y-105500000D01*
X109246533Y-105500000D01*
X106637425Y-105120000D01*
X106735000Y-105120000D01*
X106889151Y-105085119D01*
X107033535Y-105020835D01*
X107133763Y-104950000D01*
X107898548Y-104950000D01*
X107904340Y-105008810D01*
X107921495Y-105065361D01*
X107949352Y-105117478D01*
X107986841Y-105163159D01*
X108032522Y-105200648D01*
X108084639Y-105228505D01*
X108141190Y-105245660D01*
X108200000Y-105251452D01*
X108325000Y-105250000D01*
X108400000Y-105175000D01*
X108400000Y-104800000D01*
X107975000Y-104800000D01*
X107900000Y-104875000D01*
X107898548Y-104950000D01*
X107133763Y-104950000D01*
X107162603Y-104929618D01*
X107271396Y-104814974D01*
X107355732Y-104681309D01*
X107403309Y-104542935D01*
X107353070Y-104420000D01*
X106185000Y-104420000D01*
X106185000Y-104440000D01*
X105985000Y-104440000D01*
X105985000Y-104420000D01*
X104816930Y-104420000D01*
X104766691Y-104542935D01*
X104814268Y-104681309D01*
X104898604Y-104814974D01*
X105003015Y-104925000D01*
X102736985Y-104925000D01*
X102841396Y-104814974D01*
X102925732Y-104681309D01*
X102973309Y-104542935D01*
X102923070Y-104420000D01*
X102005000Y-104420000D01*
X102005000Y-104440000D01*
X101805000Y-104440000D01*
X101805000Y-104420000D01*
X101785000Y-104420000D01*
X101785000Y-104220000D01*
X101805000Y-104220000D01*
X101805000Y-103520000D01*
X102005000Y-103520000D01*
X102005000Y-104220000D01*
X102923070Y-104220000D01*
X102973309Y-104097065D01*
X102925732Y-103958691D01*
X102841396Y-103825026D01*
X102732603Y-103710382D01*
X102603535Y-103619165D01*
X102459151Y-103554881D01*
X102305000Y-103520000D01*
X102005000Y-103520000D01*
X101805000Y-103520000D01*
X101505000Y-103520000D01*
X101350849Y-103554881D01*
X101206465Y-103619165D01*
X101077397Y-103710382D01*
X101000000Y-103791941D01*
X101000000Y-96208059D01*
X101077397Y-96289618D01*
X101206465Y-96380835D01*
X101350849Y-96445119D01*
X101505000Y-96480000D01*
X101805000Y-96480000D01*
X101805000Y-95780000D01*
X102005000Y-95780000D01*
X102005000Y-96480000D01*
X102305000Y-96480000D01*
X102459151Y-96445119D01*
X102603535Y-96380835D01*
X102732603Y-96289618D01*
X102841396Y-96174974D01*
X102925732Y-96041309D01*
X102973309Y-95902935D01*
X102923070Y-95780000D01*
X102005000Y-95780000D01*
X101805000Y-95780000D01*
X101785000Y-95780000D01*
X101785000Y-95623843D01*
X107867071Y-95623843D01*
X107884111Y-95747685D01*
X107898532Y-95804992D01*
X107923857Y-95858387D01*
X107959112Y-95905814D01*
X108002941Y-95945452D01*
X108053662Y-95975777D01*
X108109324Y-95995624D01*
X108167789Y-96004232D01*
X108226809Y-96001268D01*
X108300771Y-95988746D01*
X108363861Y-95903484D01*
X108301042Y-95483153D01*
X107930161Y-95538581D01*
X107867071Y-95623843D01*
X101785000Y-95623843D01*
X101785000Y-95580000D01*
X101805000Y-95580000D01*
X101805000Y-95560000D01*
X102005000Y-95560000D01*
X102005000Y-95580000D01*
X102923070Y-95580000D01*
X102973309Y-95457065D01*
X102925732Y-95318691D01*
X102841396Y-95185026D01*
X102736985Y-95075000D01*
X105003015Y-95075000D01*
X104898604Y-95185026D01*
X104814268Y-95318691D01*
X104766691Y-95457065D01*
X104816930Y-95580000D01*
X105985000Y-95580000D01*
X105985000Y-95560000D01*
X106185000Y-95560000D01*
X106185000Y-95580000D01*
X107353070Y-95580000D01*
X107403309Y-95457065D01*
X107355732Y-95318691D01*
X107271396Y-95185026D01*
X107186207Y-95095255D01*
X107792461Y-95095255D01*
X107795425Y-95154275D01*
X107815338Y-95277687D01*
X107900600Y-95340778D01*
X108271480Y-95285349D01*
X108208661Y-94865018D01*
X108123400Y-94801927D01*
X108049009Y-94811577D01*
X107991701Y-94825998D01*
X107938307Y-94851323D01*
X107890880Y-94886578D01*
X107851242Y-94930407D01*
X107820917Y-94981127D01*
X107801069Y-95036789D01*
X107792461Y-95095255D01*
X107186207Y-95095255D01*
X107162603Y-95070382D01*
X107033535Y-94979165D01*
X106889151Y-94914881D01*
X106735000Y-94880000D01*
X106657289Y-94880000D01*
X109928675Y-94401678D01*
X109917161Y-94410236D01*
G37*
X109917161Y-94410236D02*
X109848760Y-94485870D01*
X109830506Y-94516400D01*
X109553527Y-94516400D01*
X109528967Y-94513981D01*
X109504407Y-94516400D01*
X109430950Y-94523635D01*
X109336700Y-94552225D01*
X109249838Y-94598654D01*
X109199989Y-94639563D01*
X108978683Y-94672638D01*
X108921374Y-94687060D01*
X108867981Y-94712384D01*
X108820554Y-94747639D01*
X108780916Y-94791468D01*
X108775383Y-94800722D01*
X108767385Y-94793488D01*
X108716664Y-94763163D01*
X108661002Y-94743316D01*
X108602537Y-94734708D01*
X108543517Y-94737672D01*
X108469555Y-94750194D01*
X108406465Y-94835456D01*
X108469284Y-95255787D01*
X108489064Y-95252831D01*
X108518626Y-95450635D01*
X108498846Y-95453591D01*
X108561665Y-95873922D01*
X108646926Y-95937013D01*
X108721317Y-95927363D01*
X108778625Y-95912942D01*
X108832019Y-95887617D01*
X108879446Y-95852362D01*
X108919084Y-95808533D01*
X108924618Y-95799278D01*
X108932616Y-95806511D01*
X108983337Y-95836836D01*
X109038999Y-95856684D01*
X109097463Y-95865291D01*
X109156483Y-95862327D01*
X109650991Y-95788422D01*
X109708300Y-95774000D01*
X109761693Y-95748676D01*
X109809120Y-95713421D01*
X109848758Y-95669592D01*
X109879083Y-95618871D01*
X109896607Y-95569727D01*
X109896780Y-95570093D01*
X109957617Y-95651935D01*
X110033252Y-95720336D01*
X110120778Y-95772668D01*
X110216831Y-95806918D01*
X110317721Y-95821771D01*
X110419570Y-95816656D01*
X110852264Y-95751989D01*
X110951157Y-95727103D01*
X111043296Y-95683401D01*
X111125139Y-95622564D01*
X111193540Y-95546930D01*
X111245871Y-95459404D01*
X111250001Y-95447822D01*
X111250001Y-95883472D01*
X111200000Y-95878548D01*
X111075000Y-95880000D01*
X111000000Y-95955000D01*
X111000000Y-96330000D01*
X111020000Y-96330000D01*
X111020000Y-96530000D01*
X111000000Y-96530000D01*
X111000000Y-96550000D01*
X110800000Y-96550000D01*
X110800000Y-96530000D01*
X110375000Y-96530000D01*
X110300000Y-96605000D01*
X110298548Y-96680000D01*
X110304340Y-96738810D01*
X110321495Y-96795361D01*
X110349352Y-96847478D01*
X110386841Y-96893159D01*
X110395178Y-96900001D01*
X110386842Y-96906842D01*
X110349353Y-96952523D01*
X110321496Y-97004640D01*
X110304341Y-97061190D01*
X110298549Y-97120000D01*
X110298549Y-97620000D01*
X110304341Y-97678810D01*
X110321496Y-97735360D01*
X110349353Y-97787477D01*
X110386842Y-97833158D01*
X110400001Y-97843957D01*
X110400001Y-97896649D01*
X110390360Y-97891496D01*
X110333810Y-97874341D01*
X110275000Y-97868549D01*
X109625000Y-97868549D01*
X109566190Y-97874341D01*
X109509640Y-97891496D01*
X109457523Y-97919353D01*
X109411842Y-97956842D01*
X109374353Y-98002523D01*
X109346496Y-98054640D01*
X109329341Y-98111190D01*
X109323549Y-98170000D01*
X109323549Y-98830886D01*
X109319095Y-98830000D01*
X109201451Y-98830000D01*
X109201451Y-98370000D01*
X109195659Y-98311190D01*
X109178504Y-98254640D01*
X109150647Y-98202523D01*
X109113158Y-98156842D01*
X109104822Y-98150001D01*
X109113159Y-98143159D01*
X109150648Y-98097478D01*
X109178505Y-98045361D01*
X109195660Y-97988810D01*
X109201452Y-97930000D01*
X109200000Y-97855000D01*
X109125000Y-97780000D01*
X108700000Y-97780000D01*
X108700000Y-97800000D01*
X108500000Y-97800000D01*
X108500000Y-97780000D01*
X108480000Y-97780000D01*
X108480000Y-97580000D01*
X108500000Y-97580000D01*
X108500000Y-97205000D01*
X108700000Y-97205000D01*
X108700000Y-97580000D01*
X109125000Y-97580000D01*
X109200000Y-97505000D01*
X109201452Y-97430000D01*
X109195660Y-97371190D01*
X109178505Y-97314639D01*
X109150648Y-97262522D01*
X109113159Y-97216841D01*
X109067478Y-97179352D01*
X109015361Y-97151495D01*
X108958810Y-97134340D01*
X108900000Y-97128548D01*
X108775000Y-97130000D01*
X108700000Y-97205000D01*
X108500000Y-97205000D01*
X108425000Y-97130000D01*
X108300000Y-97128548D01*
X108241190Y-97134340D01*
X108184639Y-97151495D01*
X108132522Y-97179352D01*
X108086841Y-97216841D01*
X108049352Y-97262522D01*
X108026451Y-97305367D01*
X108026451Y-97300000D01*
X108020659Y-97241190D01*
X108008164Y-97200002D01*
X108020660Y-97158810D01*
X108026452Y-97100000D01*
X108025000Y-96975000D01*
X107950000Y-96900000D01*
X107100000Y-96900000D01*
X107100000Y-96920000D01*
X106900000Y-96920000D01*
X106900000Y-96900000D01*
X106880000Y-96900000D01*
X106880000Y-96700000D01*
X106900000Y-96700000D01*
X106900000Y-96680000D01*
X107100000Y-96680000D01*
X107100000Y-96700000D01*
X107950000Y-96700000D01*
X108025000Y-96625000D01*
X108026452Y-96500000D01*
X108020660Y-96441190D01*
X108003505Y-96384639D01*
X107975648Y-96332522D01*
X107938159Y-96286841D01*
X107892478Y-96249352D01*
X107840361Y-96221495D01*
X107783810Y-96204340D01*
X107725000Y-96198548D01*
X107247830Y-96199808D01*
X107266626Y-96180000D01*
X110298548Y-96180000D01*
X110300000Y-96255000D01*
X110375000Y-96330000D01*
X110800000Y-96330000D01*
X110800000Y-95955000D01*
X110725000Y-95880000D01*
X110600000Y-95878548D01*
X110541190Y-95884340D01*
X110484639Y-95901495D01*
X110432522Y-95929352D01*
X110386841Y-95966841D01*
X110349352Y-96012522D01*
X110321495Y-96064639D01*
X110304340Y-96121190D01*
X110298548Y-96180000D01*
X107266626Y-96180000D01*
X107271396Y-96174974D01*
X107355732Y-96041309D01*
X107403309Y-95902935D01*
X107353070Y-95780000D01*
X106185000Y-95780000D01*
X106185000Y-95800000D01*
X105985000Y-95800000D01*
X105985000Y-95780000D01*
X104816930Y-95780000D01*
X104766691Y-95902935D01*
X104814268Y-96041309D01*
X104898604Y-96174974D01*
X105007397Y-96289618D01*
X105136465Y-96380835D01*
X105280849Y-96445119D01*
X105435000Y-96480000D01*
X105975518Y-96480000D01*
X105973548Y-96500000D01*
X105975000Y-96625000D01*
X106049998Y-96699998D01*
X106028881Y-96699998D01*
X105953414Y-96624531D01*
X105851048Y-96556132D01*
X105737306Y-96509019D01*
X105616557Y-96485000D01*
X105493443Y-96485000D01*
X105372694Y-96509019D01*
X105258952Y-96556132D01*
X105156586Y-96624531D01*
X105069531Y-96711586D01*
X105001132Y-96813952D01*
X104954019Y-96927694D01*
X104930000Y-97048443D01*
X104930000Y-97171557D01*
X104954019Y-97292306D01*
X105001132Y-97406048D01*
X105069531Y-97508414D01*
X105156586Y-97595469D01*
X105258952Y-97663868D01*
X105327110Y-97692100D01*
X105318586Y-97700407D01*
X105254986Y-97713058D01*
X105145793Y-97758287D01*
X105047522Y-97823950D01*
X104963950Y-97907522D01*
X104898287Y-98005793D01*
X104853058Y-98114986D01*
X104837451Y-98193445D01*
X104803893Y-98227004D01*
X104795462Y-98233157D01*
X104769115Y-98261782D01*
X104759081Y-98271816D01*
X104752511Y-98279821D01*
X104728761Y-98305625D01*
X104721316Y-98317833D01*
X104712255Y-98328874D01*
X104695736Y-98359779D01*
X104677480Y-98389714D01*
X104672562Y-98403132D01*
X104665826Y-98415735D01*
X104655650Y-98449279D01*
X104643589Y-98482190D01*
X104641384Y-98496307D01*
X104637235Y-98509985D01*
X104633798Y-98544878D01*
X104632199Y-98555118D01*
X104631394Y-98569293D01*
X104628272Y-98600986D01*
X104578287Y-98675793D01*
X104533058Y-98784986D01*
X104510000Y-98900905D01*
X104510000Y-99019095D01*
X104533058Y-99135014D01*
X104578287Y-99244207D01*
X104630001Y-99321602D01*
X104630000Y-101367438D01*
X104627581Y-101391998D01*
X104637235Y-101490015D01*
X104645579Y-101517522D01*
X104665825Y-101584264D01*
X104712254Y-101671127D01*
X104774736Y-101747262D01*
X104793824Y-101762927D01*
X105335374Y-102304477D01*
X105258952Y-102336132D01*
X105156586Y-102404531D01*
X105069531Y-102491586D01*
X105001132Y-102593952D01*
X104954019Y-102707694D01*
X104930000Y-102828443D01*
X104930000Y-102951557D01*
X104954019Y-103072306D01*
X105001132Y-103186048D01*
X105069531Y-103288414D01*
X105156586Y-103375469D01*
X105258952Y-103443868D01*
X105372694Y-103490981D01*
X105493443Y-103515000D01*
X105616557Y-103515000D01*
X105737306Y-103490981D01*
X105851048Y-103443868D01*
X105953414Y-103375469D01*
X106028881Y-103300002D01*
X106049998Y-103300002D01*
X105975000Y-103375000D01*
X105973548Y-103500000D01*
X105975518Y-103520000D01*
X105435000Y-103520000D01*
X105280849Y-103554881D01*
X105136465Y-103619165D01*
X105007397Y-103710382D01*
X104898604Y-103825026D01*
X104814268Y-103958691D01*
X104766691Y-104097065D01*
X104816930Y-104220000D01*
X105985000Y-104220000D01*
X105985000Y-104200000D01*
X106185000Y-104200000D01*
X106185000Y-104220000D01*
X107353070Y-104220000D01*
X107403309Y-104097065D01*
X107355732Y-103958691D01*
X107271396Y-103825026D01*
X107247830Y-103800192D01*
X107725000Y-103801452D01*
X107783810Y-103795660D01*
X107840361Y-103778505D01*
X107892478Y-103750648D01*
X107898549Y-103745666D01*
X107898549Y-104010000D01*
X107904341Y-104068810D01*
X107921496Y-104125360D01*
X107949353Y-104177477D01*
X107986842Y-104223158D01*
X107995178Y-104229999D01*
X107986841Y-104236841D01*
X107949352Y-104282522D01*
X107921495Y-104334639D01*
X107904340Y-104391190D01*
X107898548Y-104450000D01*
X107900000Y-104525000D01*
X107975000Y-104600000D01*
X108400000Y-104600000D01*
X108400000Y-104580000D01*
X108600000Y-104580000D01*
X108600000Y-104600000D01*
X108620000Y-104600000D01*
X108620000Y-104800000D01*
X108600000Y-104800000D01*
X108600000Y-105175000D01*
X108675000Y-105250000D01*
X108800000Y-105251452D01*
X108858810Y-105245660D01*
X108915361Y-105228505D01*
X108967478Y-105200648D01*
X109013159Y-105163159D01*
X109050648Y-105117478D01*
X109078505Y-105065361D01*
X109095660Y-105008810D01*
X109100000Y-104964743D01*
X109104340Y-105008810D01*
X109121495Y-105065361D01*
X109149352Y-105117478D01*
X109186841Y-105163159D01*
X109232522Y-105200648D01*
X109284639Y-105228505D01*
X109341190Y-105245660D01*
X109400000Y-105251452D01*
X109925000Y-105250000D01*
X110000000Y-105175000D01*
X110000000Y-104450000D01*
X110200000Y-104450000D01*
X110200000Y-105175000D01*
X110275000Y-105250000D01*
X110800000Y-105251452D01*
X110858810Y-105245660D01*
X110915361Y-105228505D01*
X110967478Y-105200648D01*
X111013159Y-105163159D01*
X111050648Y-105117478D01*
X111078505Y-105065361D01*
X111095660Y-105008810D01*
X111101452Y-104950000D01*
X111100000Y-104525000D01*
X111025000Y-104450000D01*
X110200000Y-104450000D01*
X110000000Y-104450000D01*
X109175000Y-104450000D01*
X109100000Y-104525000D01*
X109101452Y-104450000D01*
X109095660Y-104391190D01*
X109078505Y-104334639D01*
X109050648Y-104282522D01*
X109013159Y-104236841D01*
X109004822Y-104229999D01*
X109013158Y-104223158D01*
X109050647Y-104177477D01*
X109078504Y-104125360D01*
X109083052Y-104110366D01*
X109099749Y-104101442D01*
X109100000Y-104175000D01*
X109175000Y-104250000D01*
X110000000Y-104250000D01*
X110000000Y-104230000D01*
X110200000Y-104230000D01*
X110200000Y-104250000D01*
X111025000Y-104250000D01*
X111100000Y-104175000D01*
X111101452Y-103750000D01*
X111095660Y-103691190D01*
X111078505Y-103634639D01*
X111050648Y-103582522D01*
X111013159Y-103536841D01*
X110968266Y-103499999D01*
X111013158Y-103463158D01*
X111050647Y-103417477D01*
X111078504Y-103365360D01*
X111095659Y-103308810D01*
X111097069Y-103294490D01*
X111135014Y-103286942D01*
X111244207Y-103241713D01*
X111298701Y-103205301D01*
X111298548Y-103250000D01*
X111304340Y-103308810D01*
X111321495Y-103365361D01*
X111349352Y-103417478D01*
X111386841Y-103463159D01*
X111431734Y-103500001D01*
X111386842Y-103536842D01*
X111349353Y-103582523D01*
X111321496Y-103634640D01*
X111304341Y-103691190D01*
X111298549Y-103750000D01*
X111298549Y-104950000D01*
X111304341Y-105008810D01*
X111321496Y-105065360D01*
X111349353Y-105117477D01*
X111386842Y-105163158D01*
X111432523Y-105200647D01*
X111484640Y-105228504D01*
X111541190Y-105245659D01*
X111600000Y-105251451D01*
X113000000Y-105251451D01*
X113058810Y-105245659D01*
X113115360Y-105228504D01*
X113167477Y-105200647D01*
X113213158Y-105163158D01*
X113250647Y-105117477D01*
X113278504Y-105065360D01*
X113295659Y-105008810D01*
X113301451Y-104950000D01*
X113301451Y-104915033D01*
X113336842Y-104958158D01*
X113382523Y-104995647D01*
X113434640Y-105023504D01*
X113491190Y-105040659D01*
X113550000Y-105046451D01*
X114370001Y-105046451D01*
X114370001Y-105240011D01*
X114352523Y-105249353D01*
X114306842Y-105286842D01*
X114300001Y-105295178D01*
X114293159Y-105286841D01*
X114247478Y-105249352D01*
X114195361Y-105221495D01*
X114138810Y-105204340D01*
X114080000Y-105198548D01*
X114005000Y-105200000D01*
X113930000Y-105275000D01*
X113930000Y-105700000D01*
X113950000Y-105700000D01*
X113950000Y-105900000D01*
X113930000Y-105900000D01*
X113930000Y-105920000D01*
X113730000Y-105920000D01*
X113730000Y-105900000D01*
X113355000Y-105900000D01*
X113280000Y-105975000D01*
X113278696Y-106087259D01*
X109246533Y-105500000D01*
X113278548Y-105500000D01*
X113280000Y-105625000D01*
X113355000Y-105700000D01*
X113730000Y-105700000D01*
X113730000Y-105275000D01*
X113655000Y-105200000D01*
X113580000Y-105198548D01*
X113521190Y-105204340D01*
X113464639Y-105221495D01*
X113412522Y-105249352D01*
X113366841Y-105286841D01*
X113329352Y-105332522D01*
X113301495Y-105384639D01*
X113284340Y-105441190D01*
X113278548Y-105500000D01*
X109246533Y-105500000D01*
X106637425Y-105120000D01*
X106735000Y-105120000D01*
X106889151Y-105085119D01*
X107033535Y-105020835D01*
X107133763Y-104950000D01*
X107898548Y-104950000D01*
X107904340Y-105008810D01*
X107921495Y-105065361D01*
X107949352Y-105117478D01*
X107986841Y-105163159D01*
X108032522Y-105200648D01*
X108084639Y-105228505D01*
X108141190Y-105245660D01*
X108200000Y-105251452D01*
X108325000Y-105250000D01*
X108400000Y-105175000D01*
X108400000Y-104800000D01*
X107975000Y-104800000D01*
X107900000Y-104875000D01*
X107898548Y-104950000D01*
X107133763Y-104950000D01*
X107162603Y-104929618D01*
X107271396Y-104814974D01*
X107355732Y-104681309D01*
X107403309Y-104542935D01*
X107353070Y-104420000D01*
X106185000Y-104420000D01*
X106185000Y-104440000D01*
X105985000Y-104440000D01*
X105985000Y-104420000D01*
X104816930Y-104420000D01*
X104766691Y-104542935D01*
X104814268Y-104681309D01*
X104898604Y-104814974D01*
X105003015Y-104925000D01*
X102736985Y-104925000D01*
X102841396Y-104814974D01*
X102925732Y-104681309D01*
X102973309Y-104542935D01*
X102923070Y-104420000D01*
X102005000Y-104420000D01*
X102005000Y-104440000D01*
X101805000Y-104440000D01*
X101805000Y-104420000D01*
X101785000Y-104420000D01*
X101785000Y-104220000D01*
X101805000Y-104220000D01*
X101805000Y-103520000D01*
X102005000Y-103520000D01*
X102005000Y-104220000D01*
X102923070Y-104220000D01*
X102973309Y-104097065D01*
X102925732Y-103958691D01*
X102841396Y-103825026D01*
X102732603Y-103710382D01*
X102603535Y-103619165D01*
X102459151Y-103554881D01*
X102305000Y-103520000D01*
X102005000Y-103520000D01*
X101805000Y-103520000D01*
X101505000Y-103520000D01*
X101350849Y-103554881D01*
X101206465Y-103619165D01*
X101077397Y-103710382D01*
X101000000Y-103791941D01*
X101000000Y-96208059D01*
X101077397Y-96289618D01*
X101206465Y-96380835D01*
X101350849Y-96445119D01*
X101505000Y-96480000D01*
X101805000Y-96480000D01*
X101805000Y-95780000D01*
X102005000Y-95780000D01*
X102005000Y-96480000D01*
X102305000Y-96480000D01*
X102459151Y-96445119D01*
X102603535Y-96380835D01*
X102732603Y-96289618D01*
X102841396Y-96174974D01*
X102925732Y-96041309D01*
X102973309Y-95902935D01*
X102923070Y-95780000D01*
X102005000Y-95780000D01*
X101805000Y-95780000D01*
X101785000Y-95780000D01*
X101785000Y-95623843D01*
X107867071Y-95623843D01*
X107884111Y-95747685D01*
X107898532Y-95804992D01*
X107923857Y-95858387D01*
X107959112Y-95905814D01*
X108002941Y-95945452D01*
X108053662Y-95975777D01*
X108109324Y-95995624D01*
X108167789Y-96004232D01*
X108226809Y-96001268D01*
X108300771Y-95988746D01*
X108363861Y-95903484D01*
X108301042Y-95483153D01*
X107930161Y-95538581D01*
X107867071Y-95623843D01*
X101785000Y-95623843D01*
X101785000Y-95580000D01*
X101805000Y-95580000D01*
X101805000Y-95560000D01*
X102005000Y-95560000D01*
X102005000Y-95580000D01*
X102923070Y-95580000D01*
X102973309Y-95457065D01*
X102925732Y-95318691D01*
X102841396Y-95185026D01*
X102736985Y-95075000D01*
X105003015Y-95075000D01*
X104898604Y-95185026D01*
X104814268Y-95318691D01*
X104766691Y-95457065D01*
X104816930Y-95580000D01*
X105985000Y-95580000D01*
X105985000Y-95560000D01*
X106185000Y-95560000D01*
X106185000Y-95580000D01*
X107353070Y-95580000D01*
X107403309Y-95457065D01*
X107355732Y-95318691D01*
X107271396Y-95185026D01*
X107186207Y-95095255D01*
X107792461Y-95095255D01*
X107795425Y-95154275D01*
X107815338Y-95277687D01*
X107900600Y-95340778D01*
X108271480Y-95285349D01*
X108208661Y-94865018D01*
X108123400Y-94801927D01*
X108049009Y-94811577D01*
X107991701Y-94825998D01*
X107938307Y-94851323D01*
X107890880Y-94886578D01*
X107851242Y-94930407D01*
X107820917Y-94981127D01*
X107801069Y-95036789D01*
X107792461Y-95095255D01*
X107186207Y-95095255D01*
X107162603Y-95070382D01*
X107033535Y-94979165D01*
X106889151Y-94914881D01*
X106735000Y-94880000D01*
X106657289Y-94880000D01*
X109928675Y-94401678D01*
X109917161Y-94410236D01*
G36*
X107100000Y-103100000D02*
G01*
X107120000Y-103100000D01*
X107120000Y-103300000D01*
X107100000Y-103300000D01*
X107100000Y-103320000D01*
X106900000Y-103320000D01*
X106900000Y-103300000D01*
X106880000Y-103300000D01*
X106880000Y-103100000D01*
X106900000Y-103100000D01*
X106900000Y-103080000D01*
X107100000Y-103080000D01*
X107100000Y-103100000D01*
G37*
X107100000Y-103100000D02*
X107120000Y-103100000D01*
X107120000Y-103300000D01*
X107100000Y-103300000D01*
X107100000Y-103320000D01*
X106900000Y-103320000D01*
X106900000Y-103300000D01*
X106880000Y-103300000D01*
X106880000Y-103100000D01*
X106900000Y-103100000D01*
X106900000Y-103080000D01*
X107100000Y-103080000D01*
X107100000Y-103100000D01*
G36*
X108025641Y-103265001D02*
G01*
X108025000Y-103265527D01*
X108025000Y-103264475D01*
X108025641Y-103265001D01*
G37*
X108025641Y-103265001D02*
X108025000Y-103265527D01*
X108025000Y-103264475D01*
X108025641Y-103265001D01*
G36*
X108600000Y-102670000D02*
G01*
X108620000Y-102670000D01*
X108620000Y-102870000D01*
X108600000Y-102870000D01*
X108600000Y-102890000D01*
X108400000Y-102890000D01*
X108400000Y-102870000D01*
X108380000Y-102870000D01*
X108380000Y-102670000D01*
X108400000Y-102670000D01*
X108400000Y-102650000D01*
X108600000Y-102650000D01*
X108600000Y-102670000D01*
G37*
X108600000Y-102670000D02*
X108620000Y-102670000D01*
X108620000Y-102870000D01*
X108600000Y-102870000D01*
X108600000Y-102890000D01*
X108400000Y-102890000D01*
X108400000Y-102870000D01*
X108380000Y-102870000D01*
X108380000Y-102670000D01*
X108400000Y-102670000D01*
X108400000Y-102650000D01*
X108600000Y-102650000D01*
X108600000Y-102670000D01*
G36*
X109323549Y-101430000D02*
G01*
X109329341Y-101488810D01*
X109346496Y-101545360D01*
X109374353Y-101597477D01*
X109411842Y-101643158D01*
X109457523Y-101680647D01*
X109509640Y-101708504D01*
X109566190Y-101725659D01*
X109625000Y-101731451D01*
X110275000Y-101731451D01*
X110333810Y-101725659D01*
X110390360Y-101708504D01*
X110424999Y-101689989D01*
X110459639Y-101708505D01*
X110516190Y-101725660D01*
X110575000Y-101731452D01*
X110725000Y-101730000D01*
X110800000Y-101655000D01*
X110800000Y-101000000D01*
X110780000Y-101000000D01*
X110780000Y-100800000D01*
X110800000Y-100800000D01*
X110800000Y-100780000D01*
X111000000Y-100780000D01*
X111000000Y-100800000D01*
X111020000Y-100800000D01*
X111020000Y-101000000D01*
X111000000Y-101000000D01*
X111000000Y-101655000D01*
X111075000Y-101730000D01*
X111225000Y-101731452D01*
X111283810Y-101725660D01*
X111340361Y-101708505D01*
X111375001Y-101689989D01*
X111409640Y-101708504D01*
X111466190Y-101725659D01*
X111525000Y-101731451D01*
X112175000Y-101731451D01*
X112233810Y-101725659D01*
X112290360Y-101708504D01*
X112342477Y-101680647D01*
X112388158Y-101643158D01*
X112425647Y-101597477D01*
X112443462Y-101564147D01*
X112628889Y-101749574D01*
X112475000Y-101750000D01*
X112400000Y-101825000D01*
X112400000Y-102550000D01*
X112420000Y-102550000D01*
X112420000Y-102750000D01*
X112400000Y-102750000D01*
X112400000Y-102770000D01*
X112200000Y-102770000D01*
X112200000Y-102750000D01*
X112180000Y-102750000D01*
X112180000Y-102550000D01*
X112200000Y-102550000D01*
X112200000Y-101825000D01*
X112125000Y-101750000D01*
X111600000Y-101748548D01*
X111541190Y-101754340D01*
X111484639Y-101771495D01*
X111432522Y-101799352D01*
X111386841Y-101836841D01*
X111349352Y-101882522D01*
X111321495Y-101934639D01*
X111304340Y-101991190D01*
X111298548Y-102050000D01*
X111299112Y-102214973D01*
X111244207Y-102178287D01*
X111135014Y-102133058D01*
X111101451Y-102126382D01*
X111101451Y-102050000D01*
X111095659Y-101991190D01*
X111078504Y-101934640D01*
X111050647Y-101882523D01*
X111013158Y-101836842D01*
X110967477Y-101799353D01*
X110915360Y-101771496D01*
X110858810Y-101754341D01*
X110800000Y-101748549D01*
X109400000Y-101748549D01*
X109341190Y-101754341D01*
X109284640Y-101771496D01*
X109232523Y-101799353D01*
X109186842Y-101836842D01*
X109149353Y-101882523D01*
X109121496Y-101934640D01*
X109104341Y-101991190D01*
X109101451Y-102020534D01*
X109101451Y-101580000D01*
X109095659Y-101521190D01*
X109078504Y-101464640D01*
X109050647Y-101412523D01*
X109013158Y-101366842D01*
X108967477Y-101329353D01*
X108915360Y-101301496D01*
X108858810Y-101284341D01*
X108800000Y-101278549D01*
X108582993Y-101278549D01*
X108641309Y-101239583D01*
X108724881Y-101156011D01*
X108790544Y-101057740D01*
X108835773Y-100948547D01*
X108858831Y-100832628D01*
X108858831Y-100714438D01*
X108835773Y-100598519D01*
X108790544Y-100489326D01*
X108764274Y-100450011D01*
X109323549Y-100450011D01*
X109323549Y-101430000D01*
G37*
X109323549Y-101430000D02*
X109329341Y-101488810D01*
X109346496Y-101545360D01*
X109374353Y-101597477D01*
X109411842Y-101643158D01*
X109457523Y-101680647D01*
X109509640Y-101708504D01*
X109566190Y-101725659D01*
X109625000Y-101731451D01*
X110275000Y-101731451D01*
X110333810Y-101725659D01*
X110390360Y-101708504D01*
X110424999Y-101689989D01*
X110459639Y-101708505D01*
X110516190Y-101725660D01*
X110575000Y-101731452D01*
X110725000Y-101730000D01*
X110800000Y-101655000D01*
X110800000Y-101000000D01*
X110780000Y-101000000D01*
X110780000Y-100800000D01*
X110800000Y-100800000D01*
X110800000Y-100780000D01*
X111000000Y-100780000D01*
X111000000Y-100800000D01*
X111020000Y-100800000D01*
X111020000Y-101000000D01*
X111000000Y-101000000D01*
X111000000Y-101655000D01*
X111075000Y-101730000D01*
X111225000Y-101731452D01*
X111283810Y-101725660D01*
X111340361Y-101708505D01*
X111375001Y-101689989D01*
X111409640Y-101708504D01*
X111466190Y-101725659D01*
X111525000Y-101731451D01*
X112175000Y-101731451D01*
X112233810Y-101725659D01*
X112290360Y-101708504D01*
X112342477Y-101680647D01*
X112388158Y-101643158D01*
X112425647Y-101597477D01*
X112443462Y-101564147D01*
X112628889Y-101749574D01*
X112475000Y-101750000D01*
X112400000Y-101825000D01*
X112400000Y-102550000D01*
X112420000Y-102550000D01*
X112420000Y-102750000D01*
X112400000Y-102750000D01*
X112400000Y-102770000D01*
X112200000Y-102770000D01*
X112200000Y-102750000D01*
X112180000Y-102750000D01*
X112180000Y-102550000D01*
X112200000Y-102550000D01*
X112200000Y-101825000D01*
X112125000Y-101750000D01*
X111600000Y-101748548D01*
X111541190Y-101754340D01*
X111484639Y-101771495D01*
X111432522Y-101799352D01*
X111386841Y-101836841D01*
X111349352Y-101882522D01*
X111321495Y-101934639D01*
X111304340Y-101991190D01*
X111298548Y-102050000D01*
X111299112Y-102214973D01*
X111244207Y-102178287D01*
X111135014Y-102133058D01*
X111101451Y-102126382D01*
X111101451Y-102050000D01*
X111095659Y-101991190D01*
X111078504Y-101934640D01*
X111050647Y-101882523D01*
X111013158Y-101836842D01*
X110967477Y-101799353D01*
X110915360Y-101771496D01*
X110858810Y-101754341D01*
X110800000Y-101748549D01*
X109400000Y-101748549D01*
X109341190Y-101754341D01*
X109284640Y-101771496D01*
X109232523Y-101799353D01*
X109186842Y-101836842D01*
X109149353Y-101882523D01*
X109121496Y-101934640D01*
X109104341Y-101991190D01*
X109101451Y-102020534D01*
X109101451Y-101580000D01*
X109095659Y-101521190D01*
X109078504Y-101464640D01*
X109050647Y-101412523D01*
X109013158Y-101366842D01*
X108967477Y-101329353D01*
X108915360Y-101301496D01*
X108858810Y-101284341D01*
X108800000Y-101278549D01*
X108582993Y-101278549D01*
X108641309Y-101239583D01*
X108724881Y-101156011D01*
X108790544Y-101057740D01*
X108835773Y-100948547D01*
X108858831Y-100832628D01*
X108858831Y-100714438D01*
X108835773Y-100598519D01*
X108790544Y-100489326D01*
X108764274Y-100450011D01*
X109323549Y-100450011D01*
X109323549Y-101430000D01*
M02*
