G04 #@! TF.GenerationSoftware,KiCad,Pcbnew,6.0.2+dfsg-1*
G04 #@! TF.CreationDate,2023-01-01T13:43:31+01:00*
G04 #@! TF.ProjectId,ESP-TC-PROG,4553502d-5443-42d5-9052-4f472e6b6963,rev?*
G04 #@! TF.SameCoordinates,Original*
G04 #@! TF.FileFunction,Copper,L1,Top*
G04 #@! TF.FilePolarity,Positive*
%FSLAX46Y46*%
G04 Gerber Fmt 4.6, Leading zero omitted, Abs format (unit mm)*
G04 Created by KiCad (PCBNEW 6.0.2+dfsg-1) date 2023-01-01 13:43:31*
%MOMM*%
%LPD*%
G01*
G04 APERTURE LIST*
G04 Aperture macros list*
%AMRoundRect*
0 Rectangle with rounded corners*
0 $1 Rounding radius*
0 $2 $3 $4 $5 $6 $7 $8 $9 X,Y pos of 4 corners*
0 Add a 4 corners polygon primitive as box body*
4,1,4,$2,$3,$4,$5,$6,$7,$8,$9,$2,$3,0*
0 Add four circle primitives for the rounded corners*
1,1,$1+$1,$2,$3*
1,1,$1+$1,$4,$5*
1,1,$1+$1,$6,$7*
1,1,$1+$1,$8,$9*
0 Add four rect primitives between the rounded corners*
20,1,$1+$1,$2,$3,$4,$5,0*
20,1,$1+$1,$4,$5,$6,$7,0*
20,1,$1+$1,$6,$7,$8,$9,0*
20,1,$1+$1,$8,$9,$2,$3,0*%
%AMRotRect*
0 Rectangle, with rotation*
0 The origin of the aperture is its center*
0 $1 length*
0 $2 width*
0 $3 Rotation angle, in degrees counterclockwise*
0 Add horizontal line*
21,1,$1,$2,0,0,$3*%
G04 Aperture macros list end*
G04 #@! TA.AperFunction,SMDPad,CuDef*
%ADD10R,1.450000X0.600000*%
G04 #@! TD*
G04 #@! TA.AperFunction,SMDPad,CuDef*
%ADD11R,1.450000X0.300000*%
G04 #@! TD*
G04 #@! TA.AperFunction,ComponentPad*
%ADD12O,2.100000X1.000000*%
G04 #@! TD*
G04 #@! TA.AperFunction,ComponentPad*
%ADD13O,1.600000X1.000000*%
G04 #@! TD*
G04 #@! TA.AperFunction,SMDPad,CuDef*
%ADD14R,0.700000X1.300000*%
G04 #@! TD*
G04 #@! TA.AperFunction,SMDPad,CuDef*
%ADD15R,0.600000X0.500000*%
G04 #@! TD*
G04 #@! TA.AperFunction,SMDPad,CuDef*
%ADD16RoundRect,0.218750X-0.178471X-0.285769X0.254223X-0.221102X0.178471X0.285769X-0.254223X0.221102X0*%
G04 #@! TD*
G04 #@! TA.AperFunction,ComponentPad*
%ADD17R,1.727200X1.727200*%
G04 #@! TD*
G04 #@! TA.AperFunction,ComponentPad*
%ADD18O,1.727200X1.727200*%
G04 #@! TD*
G04 #@! TA.AperFunction,SMDPad,CuDef*
%ADD19R,0.800000X0.900000*%
G04 #@! TD*
G04 #@! TA.AperFunction,SMDPad,CuDef*
%ADD20RotRect,0.500000X0.600000X188.500000*%
G04 #@! TD*
G04 #@! TA.AperFunction,SMDPad,CuDef*
%ADD21R,0.500000X0.600000*%
G04 #@! TD*
G04 #@! TA.AperFunction,SMDPad,CuDef*
%ADD22R,0.650000X1.060000*%
G04 #@! TD*
G04 #@! TA.AperFunction,SMDPad,CuDef*
%ADD23R,1.950000X0.600000*%
G04 #@! TD*
G04 #@! TA.AperFunction,ComponentPad*
%ADD24R,1.700000X1.700000*%
G04 #@! TD*
G04 #@! TA.AperFunction,ComponentPad*
%ADD25O,1.700000X1.700000*%
G04 #@! TD*
G04 #@! TA.AperFunction,SMDPad,CuDef*
%ADD26R,1.400000X1.200000*%
G04 #@! TD*
G04 #@! TA.AperFunction,ViaPad*
%ADD27C,0.600000*%
G04 #@! TD*
G04 #@! TA.AperFunction,Conductor*
%ADD28C,0.400000*%
G04 #@! TD*
G04 #@! TA.AperFunction,Conductor*
%ADD29C,0.200000*%
G04 #@! TD*
G04 #@! TA.AperFunction,Conductor*
%ADD30C,0.300000*%
G04 #@! TD*
G04 APERTURE END LIST*
D10*
X107000000Y-96800000D03*
X107000000Y-97600000D03*
D11*
X107000000Y-98750000D03*
X107000000Y-99750000D03*
X107000000Y-100250000D03*
X107000000Y-101250000D03*
D10*
X107000000Y-97600000D03*
X107000000Y-96800000D03*
X107000000Y-103200000D03*
X107000000Y-102400000D03*
D11*
X107000000Y-101750000D03*
X107000000Y-100750000D03*
X107000000Y-99250000D03*
X107000000Y-98250000D03*
D10*
X107000000Y-102400000D03*
X107000000Y-103200000D03*
D12*
X106085000Y-95680000D03*
D13*
X101905000Y-104320000D03*
X101905000Y-95680000D03*
D12*
X106085000Y-104320000D03*
D14*
X119550000Y-94100000D03*
X117650000Y-94100000D03*
D15*
X110900000Y-97370000D03*
X110900000Y-96430000D03*
X108460000Y-103760000D03*
X108460000Y-104700000D03*
X112600000Y-97370000D03*
X112600000Y-96430000D03*
D16*
X110521150Y-95016400D03*
X112078850Y-94783600D03*
D17*
X130600000Y-102540000D03*
D18*
X128060000Y-102540000D03*
X130600000Y-100000000D03*
X128060000Y-100000000D03*
X130600000Y-97460000D03*
X128060000Y-97460000D03*
D19*
X121550000Y-99425000D03*
X123450000Y-99425000D03*
X122500000Y-97425000D03*
D20*
X109314837Y-95230530D03*
X108385163Y-95369470D03*
D21*
X123105000Y-100625000D03*
X124045000Y-100625000D03*
X122145000Y-100625000D03*
X121205000Y-100625000D03*
X122130000Y-105100000D03*
X123070000Y-105100000D03*
D22*
X109950000Y-100900000D03*
X110900000Y-100900000D03*
X111850000Y-100900000D03*
X111850000Y-98700000D03*
X110900000Y-98700000D03*
X109950000Y-98700000D03*
D23*
X114525000Y-95555000D03*
X114525000Y-96825000D03*
X114525000Y-98095000D03*
X114525000Y-99365000D03*
X114525000Y-100635000D03*
X114525000Y-101905000D03*
X114525000Y-103175000D03*
X114525000Y-104445000D03*
X119475000Y-104445000D03*
X119475000Y-103175000D03*
X119475000Y-101905000D03*
X119475000Y-100635000D03*
X119475000Y-99365000D03*
X119475000Y-98095000D03*
X119475000Y-96825000D03*
X119475000Y-95555000D03*
D24*
X135480000Y-106390000D03*
D25*
X135480000Y-103850000D03*
X135480000Y-101310000D03*
X135480000Y-98770000D03*
X135480000Y-96230000D03*
X135480000Y-93690000D03*
D26*
X110090000Y-104350000D03*
X112290000Y-104350000D03*
X112290000Y-102650000D03*
X110090000Y-102650000D03*
D15*
X108500000Y-102770000D03*
X108500000Y-101830000D03*
D19*
X123550000Y-101825000D03*
X121650000Y-101825000D03*
X122600000Y-103825000D03*
D15*
X120700000Y-94470000D03*
X120700000Y-93530000D03*
D21*
X114310000Y-105790000D03*
X115250000Y-105790000D03*
D15*
X108600000Y-97680000D03*
X108600000Y-98620000D03*
D21*
X122970000Y-96200000D03*
X122030000Y-96200000D03*
D27*
X126000000Y-100700000D03*
X132150000Y-102550000D03*
X113100000Y-94900000D03*
X109900000Y-97300000D03*
X110000000Y-96000000D03*
X121300000Y-103800000D03*
X108600000Y-96800000D03*
X116500000Y-103800000D03*
X124900000Y-102700000D03*
X113370000Y-105879500D03*
X121000000Y-97450000D03*
X109100000Y-101100000D03*
X132100000Y-98000000D03*
X116500000Y-101000000D03*
X122500000Y-98500000D03*
X116100000Y-95200000D03*
X121400000Y-95300000D03*
X133800000Y-99100000D03*
X133850000Y-102550000D03*
X126500000Y-103750000D03*
X116530000Y-105930000D03*
X133800000Y-104550000D03*
X132150000Y-100650000D03*
X117100000Y-96600000D03*
X116500000Y-99600000D03*
X116500000Y-102400000D03*
X124300000Y-97100000D03*
X126000000Y-99100000D03*
X133850000Y-100650000D03*
X111370000Y-103830000D03*
X117000000Y-95600000D03*
X105430000Y-98290000D03*
X105110000Y-98960000D03*
X111750000Y-97350000D03*
X117710000Y-95550000D03*
X117700000Y-97199998D03*
X121200000Y-96200000D03*
X109260000Y-99430000D03*
X108258831Y-100773533D03*
X126650000Y-101900000D03*
X125750000Y-102800002D03*
X116600000Y-97350000D03*
X116000000Y-97900000D03*
D28*
X105430000Y-98290000D02*
X105510000Y-98290000D01*
X105510000Y-98290000D02*
X106200000Y-97600000D01*
X106200000Y-97600000D02*
X107000000Y-97600000D01*
X107000000Y-102400000D02*
X106192403Y-102400000D01*
X106192403Y-102400000D02*
X105130000Y-101337597D01*
X105130000Y-101337597D02*
X105130000Y-98940000D01*
X105130000Y-98940000D02*
X105110000Y-98960000D01*
D29*
X122030000Y-96200000D02*
X121200000Y-96200000D01*
X122970000Y-96200000D02*
X122970000Y-96955000D01*
X122970000Y-96955000D02*
X122500000Y-97425000D01*
X114525000Y-104445000D02*
X113690000Y-105280000D01*
X110980000Y-105280000D02*
X110090000Y-104390000D01*
X110090000Y-104390000D02*
X110090000Y-104350000D01*
X113690000Y-105280000D02*
X110980000Y-105280000D01*
D28*
X119475000Y-95555000D02*
X120200000Y-94830000D01*
X120200000Y-94830000D02*
X120200000Y-94750000D01*
X120200000Y-94750000D02*
X119550000Y-94100000D01*
X119475000Y-95555000D02*
X119615000Y-95555000D01*
X119615000Y-95555000D02*
X120700000Y-94470000D01*
D29*
X111370000Y-103830000D02*
X110190000Y-102650000D01*
X107715000Y-104700000D02*
X108049990Y-104700000D01*
X106085000Y-104320000D02*
X107335000Y-104320000D01*
X108620000Y-102650000D02*
X108500000Y-102770000D01*
X107335000Y-104320000D02*
X107715000Y-104700000D01*
D30*
X107000000Y-96800000D02*
X107000000Y-96595000D01*
D29*
X110900000Y-101840000D02*
X110090000Y-102650000D01*
X111890000Y-104350000D02*
X111370000Y-103830000D01*
X110900000Y-100900000D02*
X110900000Y-101840000D01*
D30*
X107000000Y-96595000D02*
X106085000Y-95680000D01*
D29*
X106465000Y-104700000D02*
X106085000Y-104320000D01*
X108460000Y-104700000D02*
X106465000Y-104700000D01*
X110190000Y-102650000D02*
X110090000Y-102650000D01*
X108500000Y-102770000D02*
X108070000Y-103200000D01*
X112290000Y-104350000D02*
X111890000Y-104350000D01*
D30*
X107000000Y-103405000D02*
X106085000Y-104320000D01*
D29*
X108070000Y-103200000D02*
X107000000Y-103200000D01*
D30*
X107000000Y-103200000D02*
X107000000Y-103405000D01*
D29*
X110090000Y-102650000D02*
X108620000Y-102650000D01*
D28*
X117000000Y-95600000D02*
X119430000Y-95600000D01*
X105130000Y-98608002D02*
X105304001Y-98434001D01*
X110900000Y-98700000D02*
X110900000Y-97370000D01*
X111750000Y-97350000D02*
X110920000Y-97350000D01*
X111750000Y-97350000D02*
X111750000Y-95112450D01*
X105304001Y-98415999D02*
X105430000Y-98290000D01*
X105304001Y-98434001D02*
X105304001Y-98415999D01*
X111750000Y-95112450D02*
X112078850Y-94783600D01*
X105110000Y-98960000D02*
X105130000Y-98608002D01*
X110920000Y-97350000D02*
X110900000Y-97370000D01*
X119430000Y-95600000D02*
X119475000Y-95555000D01*
D29*
X115255000Y-103175000D02*
X115850000Y-103770000D01*
X114525000Y-103175000D02*
X115255000Y-103175000D01*
X115850000Y-103770000D02*
X115850000Y-105100000D01*
X115850000Y-105100000D02*
X115250000Y-105700000D01*
X112815000Y-103175000D02*
X112290000Y-102650000D01*
X114525000Y-103175000D02*
X112815000Y-103175000D01*
X115250000Y-105700000D02*
X115250000Y-105790000D01*
X109500000Y-103760000D02*
X108460000Y-103760000D01*
X110090000Y-104350000D02*
X109500000Y-103760000D01*
X117500000Y-97399998D02*
X117700000Y-97199998D01*
D28*
X112600000Y-98020000D02*
X112600000Y-97370000D01*
X113150000Y-99365000D02*
X112600000Y-98815000D01*
X114525000Y-99365000D02*
X113150000Y-99365000D01*
D29*
X115534998Y-99365000D02*
X117700000Y-97199998D01*
X114525000Y-99365000D02*
X115534998Y-99365000D01*
X118255978Y-105100000D02*
X117500000Y-104344022D01*
D28*
X112600000Y-98815000D02*
X112600000Y-98020000D01*
D29*
X122130000Y-105100000D02*
X118255978Y-105100000D01*
X117500000Y-104344022D02*
X117500000Y-97399998D01*
D28*
X109528967Y-95016400D02*
X109314837Y-95230530D01*
X110521150Y-95016400D02*
X109528967Y-95016400D01*
D29*
X108420000Y-101750000D02*
X108500000Y-101830000D01*
X107000000Y-101750000D02*
X108420000Y-101750000D01*
X109260000Y-99640000D02*
X109250000Y-99650000D01*
X109250000Y-99650000D02*
X107999999Y-99650001D01*
X112560000Y-99650001D02*
X110170001Y-99650001D01*
X109260000Y-99430000D02*
X109260000Y-99640000D01*
X108235298Y-100750000D02*
X108258831Y-100773533D01*
X107900000Y-99750000D02*
X107000000Y-99750000D01*
X114000000Y-101160000D02*
X113240000Y-101160000D01*
X109950000Y-99430000D02*
X109950000Y-98700000D01*
X114525000Y-100635000D02*
X114000000Y-101160000D01*
X107000000Y-100750000D02*
X108235298Y-100750000D01*
X110170001Y-99650001D02*
X109250000Y-99650000D01*
X113240000Y-101160000D02*
X113000000Y-100920000D01*
X113000000Y-100090000D02*
X112560000Y-99650001D01*
X107999999Y-99650001D02*
X107900000Y-99750000D01*
X110170001Y-99650001D02*
X109950000Y-99430000D01*
X113000000Y-100920000D02*
X113000000Y-100090000D01*
X112599989Y-100255690D02*
X112394312Y-100050012D01*
X105900000Y-100075000D02*
X105900000Y-99425000D01*
X108165689Y-100050011D02*
X107965700Y-100250000D01*
X109950000Y-100170000D02*
X109950000Y-100900000D01*
X112394312Y-100050012D02*
X110069989Y-100050011D01*
X105900000Y-99425000D02*
X106075000Y-99250000D01*
X113350000Y-101905000D02*
X112599989Y-101154989D01*
X107965700Y-100250000D02*
X107000000Y-100250000D01*
X110069989Y-100050011D02*
X108165689Y-100050011D01*
X106075000Y-99250000D02*
X107000000Y-99250000D01*
X114525000Y-101905000D02*
X113350000Y-101905000D01*
X110069989Y-100050011D02*
X109950000Y-100170000D01*
X106075000Y-100250000D02*
X105900000Y-100075000D01*
X107000000Y-100250000D02*
X106075000Y-100250000D01*
X112599989Y-101154989D02*
X112599989Y-100255690D01*
X108100000Y-98620000D02*
X108600000Y-98620000D01*
X107970000Y-98750000D02*
X108100000Y-98620000D01*
X107000000Y-98750000D02*
X107970000Y-98750000D01*
X124725002Y-103825000D02*
X125750000Y-102800002D01*
X127400000Y-101150000D02*
X127400000Y-101100000D01*
X135480000Y-101310000D02*
X127647870Y-101310000D01*
X127196401Y-98323599D02*
X128060000Y-97460000D01*
X122600000Y-103825000D02*
X123070000Y-104295000D01*
X122600000Y-103825000D02*
X124725002Y-103825000D01*
X123070000Y-104295000D02*
X123070000Y-105100000D01*
X126650000Y-101900000D02*
X127400000Y-101150000D01*
X127647870Y-101310000D02*
X127400000Y-101100000D01*
X126896399Y-100558529D02*
X126896399Y-98623601D01*
X127400000Y-101100000D02*
X126896399Y-100558529D01*
X126896399Y-98623601D02*
X127196401Y-98323599D01*
X132873601Y-98836399D02*
X134630001Y-97079999D01*
X134630001Y-97079999D02*
X135480000Y-96230000D01*
X129223601Y-98836399D02*
X132873601Y-98836399D01*
X128060000Y-100000000D02*
X129223601Y-98836399D01*
X116075000Y-96825000D02*
X116600000Y-97350000D01*
X114525000Y-96825000D02*
X116075000Y-96825000D01*
X115805000Y-98095000D02*
X116000000Y-97900000D01*
X130600000Y-100000000D02*
X134250000Y-100000000D01*
X134250000Y-100000000D02*
X135480000Y-98770000D01*
X114525000Y-98095000D02*
X115805000Y-98095000D01*
X128060000Y-102560000D02*
X129350000Y-103850000D01*
X134277919Y-103850000D02*
X135480000Y-103850000D01*
X128060000Y-102540000D02*
X128060000Y-102560000D01*
X125200000Y-101400000D02*
X126340000Y-102540000D01*
X123325000Y-97425000D02*
X125200000Y-99300000D01*
X122500000Y-97425000D02*
X123325000Y-97425000D01*
X126340000Y-102540000D02*
X128060000Y-102540000D01*
X129350000Y-103850000D02*
X134277919Y-103850000D01*
X125200000Y-99300000D02*
X125200000Y-101400000D01*
X123105000Y-100625000D02*
X123105000Y-101380000D01*
X123105000Y-101380000D02*
X123550000Y-101825000D01*
X121550000Y-99425000D02*
X122145000Y-100020000D01*
X122145000Y-100020000D02*
X122145000Y-100625000D01*
X118304998Y-102550000D02*
X118050000Y-102295002D01*
X118050000Y-99615000D02*
X118300000Y-99365000D01*
X124045000Y-100625000D02*
X124045000Y-100020000D01*
X124015002Y-102750000D02*
X120865002Y-102750000D01*
X124250001Y-100880001D02*
X124250001Y-102515001D01*
X124045000Y-100625000D02*
X124045000Y-100675000D01*
X118300000Y-99365000D02*
X119475000Y-99365000D01*
X120865002Y-102750000D02*
X120665002Y-102550000D01*
X120665002Y-102550000D02*
X118304998Y-102550000D01*
X118050000Y-102295002D02*
X118050000Y-99615000D01*
X124045000Y-100675000D02*
X124250001Y-100880001D01*
X124045000Y-100020000D02*
X123450000Y-99425000D01*
X124250001Y-102515001D02*
X124015002Y-102750000D01*
X121205000Y-100575000D02*
X120850000Y-100220000D01*
X121205000Y-100625000D02*
X121205000Y-101380000D01*
X121205000Y-101380000D02*
X121650000Y-101825000D01*
X121205000Y-100625000D02*
X121205000Y-100575000D01*
X120650000Y-98095000D02*
X119475000Y-98095000D01*
X120850000Y-98295000D02*
X120650000Y-98095000D01*
X120850000Y-100220000D02*
X120850000Y-98295000D01*
G04 #@! TA.AperFunction,Conductor*
G36*
X137468227Y-92152518D02*
G01*
X137468778Y-92152645D01*
X137468779Y-92152645D01*
X137479642Y-92155143D01*
X137490514Y-92152683D01*
X137498540Y-92152697D01*
X137509450Y-92153319D01*
X137571972Y-92160363D01*
X137591304Y-92162541D01*
X137612917Y-92167475D01*
X137708109Y-92200784D01*
X137728083Y-92210403D01*
X137813472Y-92264057D01*
X137830804Y-92277878D01*
X137902122Y-92349196D01*
X137915943Y-92366528D01*
X137969597Y-92451917D01*
X137979217Y-92471892D01*
X138012527Y-92567088D01*
X138017459Y-92588699D01*
X138025658Y-92661456D01*
X138026744Y-92671096D01*
X138027367Y-92682356D01*
X138027356Y-92688776D01*
X138024857Y-92699642D01*
X138027318Y-92710516D01*
X138027559Y-92711583D01*
X138030000Y-92733432D01*
X138030000Y-107266040D01*
X138027482Y-107288227D01*
X138024857Y-107299642D01*
X138027317Y-107310514D01*
X138027303Y-107318540D01*
X138026681Y-107329450D01*
X138017459Y-107411303D01*
X138012525Y-107432917D01*
X137979216Y-107528109D01*
X137969597Y-107548083D01*
X137915943Y-107633472D01*
X137902122Y-107650804D01*
X137830804Y-107722122D01*
X137813472Y-107735943D01*
X137728083Y-107789597D01*
X137708108Y-107799217D01*
X137612912Y-107832527D01*
X137591301Y-107837459D01*
X137567962Y-107840089D01*
X137508897Y-107846744D01*
X137497644Y-107847367D01*
X137491224Y-107847356D01*
X137480358Y-107844857D01*
X137468417Y-107847559D01*
X137446568Y-107850000D01*
X124521655Y-107850000D01*
X124507387Y-107848966D01*
X124497727Y-107847559D01*
X120461775Y-107259748D01*
X134429500Y-107259748D01*
X134430448Y-107264512D01*
X134437507Y-107300000D01*
X134441133Y-107318231D01*
X134485448Y-107384552D01*
X134551769Y-107428867D01*
X134561332Y-107430769D01*
X134561334Y-107430770D01*
X134584005Y-107435279D01*
X134610252Y-107440500D01*
X136349748Y-107440500D01*
X136375995Y-107435279D01*
X136398666Y-107430770D01*
X136398668Y-107430769D01*
X136408231Y-107428867D01*
X136474552Y-107384552D01*
X136518867Y-107318231D01*
X136522494Y-107300000D01*
X136529552Y-107264512D01*
X136530500Y-107259748D01*
X136530500Y-105520252D01*
X136525279Y-105494005D01*
X136520770Y-105471334D01*
X136520769Y-105471332D01*
X136518867Y-105461769D01*
X136474552Y-105395448D01*
X136408231Y-105351133D01*
X136398668Y-105349231D01*
X136398666Y-105349230D01*
X136375995Y-105344721D01*
X136349748Y-105339500D01*
X134610252Y-105339500D01*
X134584005Y-105344721D01*
X134561334Y-105349230D01*
X134561332Y-105349231D01*
X134551769Y-105351133D01*
X134485448Y-105395448D01*
X134441133Y-105461769D01*
X134439231Y-105471332D01*
X134439230Y-105471334D01*
X134434721Y-105494005D01*
X134429500Y-105520252D01*
X134429500Y-107259748D01*
X120461775Y-107259748D01*
X115159232Y-106487466D01*
X115104374Y-106460370D01*
X115075919Y-106406203D01*
X115084738Y-106345657D01*
X115127460Y-106301857D01*
X115173500Y-106290500D01*
X115519748Y-106290500D01*
X115545995Y-106285279D01*
X115568666Y-106280770D01*
X115568668Y-106280769D01*
X115578231Y-106278867D01*
X115644552Y-106234552D01*
X115688867Y-106168231D01*
X115700500Y-106109748D01*
X115700500Y-105715479D01*
X115719407Y-105657288D01*
X115729496Y-105645475D01*
X116024651Y-105350320D01*
X116027780Y-105347620D01*
X116032269Y-105345425D01*
X116065893Y-105309178D01*
X116068469Y-105306502D01*
X116082248Y-105292723D01*
X116084793Y-105289013D01*
X116088229Y-105285100D01*
X116102185Y-105270055D01*
X116108401Y-105263354D01*
X116112666Y-105252664D01*
X116122980Y-105233348D01*
X116124321Y-105231393D01*
X116124322Y-105231390D01*
X116129492Y-105223854D01*
X116135641Y-105197941D01*
X116140014Y-105184116D01*
X116147294Y-105165868D01*
X116147294Y-105165866D01*
X116149883Y-105159378D01*
X116150500Y-105153085D01*
X116150500Y-105146916D01*
X116153175Y-105124057D01*
X116153230Y-105123827D01*
X116153230Y-105123825D01*
X116155340Y-105114934D01*
X116151404Y-105086012D01*
X116150500Y-105072663D01*
X116150500Y-103823508D01*
X116150803Y-103819383D01*
X116152425Y-103814658D01*
X116150570Y-103765239D01*
X116150500Y-103761526D01*
X116150500Y-103742052D01*
X116149675Y-103737622D01*
X116149338Y-103732417D01*
X116148569Y-103711925D01*
X116148226Y-103702792D01*
X116144620Y-103694398D01*
X116144619Y-103694395D01*
X116143683Y-103692217D01*
X116137317Y-103671266D01*
X116135209Y-103659947D01*
X116121232Y-103637271D01*
X116114548Y-103624404D01*
X116106795Y-103606358D01*
X116106794Y-103606357D01*
X116104036Y-103599937D01*
X116100022Y-103595051D01*
X116095658Y-103590687D01*
X116081387Y-103572632D01*
X116081264Y-103572433D01*
X116076468Y-103564652D01*
X116053231Y-103546982D01*
X116043161Y-103538190D01*
X115729496Y-103224525D01*
X115701719Y-103170008D01*
X115700500Y-103154521D01*
X115700500Y-102855252D01*
X115692390Y-102814481D01*
X115690770Y-102806334D01*
X115690769Y-102806332D01*
X115688867Y-102796769D01*
X115644552Y-102730448D01*
X115578231Y-102686133D01*
X115568668Y-102684231D01*
X115568666Y-102684230D01*
X115539128Y-102678355D01*
X115519748Y-102674500D01*
X113530252Y-102674500D01*
X113510872Y-102678355D01*
X113481334Y-102684230D01*
X113481332Y-102684231D01*
X113471769Y-102686133D01*
X113405448Y-102730448D01*
X113374416Y-102776891D01*
X113371815Y-102780783D01*
X113323765Y-102818662D01*
X113262627Y-102821064D01*
X113211753Y-102787071D01*
X113190500Y-102725781D01*
X113190500Y-102354219D01*
X113209407Y-102296028D01*
X113258907Y-102260064D01*
X113320093Y-102260064D01*
X113371814Y-102299217D01*
X113405448Y-102349552D01*
X113471769Y-102393867D01*
X113481332Y-102395769D01*
X113481334Y-102395770D01*
X113504005Y-102400279D01*
X113530252Y-102405500D01*
X115519748Y-102405500D01*
X115545995Y-102400279D01*
X115568666Y-102395770D01*
X115568668Y-102395769D01*
X115578231Y-102393867D01*
X115644552Y-102349552D01*
X115688867Y-102283231D01*
X115691818Y-102268398D01*
X115695454Y-102250117D01*
X115700500Y-102224748D01*
X115700500Y-101585252D01*
X115694439Y-101554782D01*
X115690770Y-101536334D01*
X115690769Y-101536332D01*
X115688867Y-101526769D01*
X115644552Y-101460448D01*
X115578231Y-101416133D01*
X115568668Y-101414231D01*
X115568666Y-101414230D01*
X115545995Y-101409721D01*
X115519748Y-101404500D01*
X114419479Y-101404500D01*
X114361288Y-101385593D01*
X114325324Y-101336093D01*
X114325324Y-101274907D01*
X114349475Y-101235496D01*
X114420475Y-101164496D01*
X114474992Y-101136719D01*
X114490479Y-101135500D01*
X115519748Y-101135500D01*
X115551330Y-101129218D01*
X115568666Y-101125770D01*
X115568668Y-101125769D01*
X115578231Y-101123867D01*
X115644552Y-101079552D01*
X115688867Y-101013231D01*
X115690857Y-101003231D01*
X115699552Y-100959512D01*
X115700500Y-100954748D01*
X115700500Y-100315252D01*
X115692972Y-100277407D01*
X115690770Y-100266334D01*
X115690769Y-100266332D01*
X115688867Y-100256769D01*
X115644552Y-100190448D01*
X115578231Y-100146133D01*
X115568668Y-100144231D01*
X115568666Y-100144230D01*
X115545995Y-100139721D01*
X115519748Y-100134500D01*
X113530252Y-100134500D01*
X113504005Y-100139721D01*
X113481334Y-100144230D01*
X113481332Y-100144231D01*
X113471769Y-100146133D01*
X113463659Y-100151552D01*
X113454503Y-100157670D01*
X113395615Y-100174280D01*
X113338211Y-100153104D01*
X113304218Y-100102231D01*
X113300500Y-100075356D01*
X113300500Y-100062052D01*
X113299675Y-100057622D01*
X113299338Y-100052417D01*
X113298569Y-100031926D01*
X113298226Y-100022791D01*
X113293681Y-100012212D01*
X113287317Y-99991263D01*
X113286884Y-99988936D01*
X113286882Y-99988931D01*
X113285209Y-99979947D01*
X113271232Y-99957271D01*
X113264551Y-99944411D01*
X113258224Y-99929684D01*
X113252625Y-99868757D01*
X113283908Y-99816174D01*
X113340124Y-99792020D01*
X113399801Y-99805523D01*
X113405288Y-99809791D01*
X113405448Y-99809552D01*
X113471769Y-99853867D01*
X113481332Y-99855769D01*
X113481334Y-99855770D01*
X113504005Y-99860279D01*
X113530252Y-99865500D01*
X115519748Y-99865500D01*
X115545995Y-99860279D01*
X115568666Y-99855770D01*
X115568668Y-99855769D01*
X115578231Y-99853867D01*
X115644552Y-99809552D01*
X115688867Y-99743231D01*
X115691320Y-99730903D01*
X115695279Y-99710995D01*
X115700500Y-99684748D01*
X115700500Y-99669210D01*
X115719407Y-99611019D01*
X115732746Y-99596153D01*
X115740346Y-99591468D01*
X115758016Y-99568231D01*
X115766808Y-99558161D01*
X117030496Y-98294474D01*
X117085013Y-98266697D01*
X117145445Y-98276268D01*
X117188710Y-98319533D01*
X117199500Y-98364478D01*
X117199500Y-104290514D01*
X117199197Y-104294639D01*
X117197575Y-104299364D01*
X117199238Y-104343666D01*
X117199430Y-104348783D01*
X117199500Y-104352496D01*
X117199500Y-104371970D01*
X117200325Y-104376400D01*
X117200661Y-104381593D01*
X117201774Y-104411230D01*
X117205380Y-104419624D01*
X117205381Y-104419627D01*
X117206317Y-104421805D01*
X117212683Y-104442756D01*
X117214791Y-104454075D01*
X117228768Y-104476750D01*
X117235451Y-104489617D01*
X117245964Y-104514085D01*
X117249978Y-104518971D01*
X117254342Y-104523335D01*
X117268613Y-104541390D01*
X117273532Y-104549370D01*
X117296769Y-104567040D01*
X117306839Y-104575832D01*
X118005662Y-105274656D01*
X118008359Y-105277781D01*
X118010553Y-105282269D01*
X118023331Y-105294122D01*
X118046787Y-105315881D01*
X118049463Y-105318457D01*
X118063254Y-105332248D01*
X118066965Y-105334793D01*
X118070884Y-105338234D01*
X118092624Y-105358401D01*
X118101112Y-105361787D01*
X118101115Y-105361789D01*
X118103316Y-105362667D01*
X118122632Y-105372981D01*
X118124587Y-105374322D01*
X118124589Y-105374323D01*
X118132124Y-105379492D01*
X118141012Y-105381601D01*
X118141014Y-105381602D01*
X118158036Y-105385641D01*
X118171862Y-105390014D01*
X118190110Y-105397294D01*
X118190112Y-105397294D01*
X118196600Y-105399883D01*
X118202893Y-105400500D01*
X118209062Y-105400500D01*
X118231921Y-105403175D01*
X118232151Y-105403230D01*
X118232153Y-105403230D01*
X118241044Y-105405340D01*
X118269966Y-105401404D01*
X118283315Y-105400500D01*
X121594845Y-105400500D01*
X121653036Y-105419407D01*
X121686309Y-105461614D01*
X121689230Y-105468666D01*
X121691133Y-105478231D01*
X121735448Y-105544552D01*
X121801769Y-105588867D01*
X121811332Y-105590769D01*
X121811334Y-105590770D01*
X121834005Y-105595279D01*
X121860252Y-105600500D01*
X122399748Y-105600500D01*
X122425995Y-105595279D01*
X122448666Y-105590770D01*
X122448668Y-105590769D01*
X122458231Y-105588867D01*
X122524552Y-105544552D01*
X122529971Y-105536442D01*
X122529996Y-105536417D01*
X122584513Y-105508640D01*
X122644945Y-105518211D01*
X122670004Y-105536417D01*
X122670029Y-105536442D01*
X122675448Y-105544552D01*
X122741769Y-105588867D01*
X122751332Y-105590769D01*
X122751334Y-105590770D01*
X122774005Y-105595279D01*
X122800252Y-105600500D01*
X123339748Y-105600500D01*
X123365995Y-105595279D01*
X123388666Y-105590770D01*
X123388668Y-105590769D01*
X123398231Y-105588867D01*
X123464552Y-105544552D01*
X123508867Y-105478231D01*
X123510806Y-105468487D01*
X123519552Y-105424512D01*
X123520500Y-105419748D01*
X123520500Y-104780252D01*
X123512222Y-104738636D01*
X123510770Y-104731334D01*
X123510769Y-104731332D01*
X123508867Y-104721769D01*
X123464552Y-104655448D01*
X123414497Y-104622002D01*
X123376619Y-104573951D01*
X123370500Y-104539687D01*
X123370500Y-104348508D01*
X123370803Y-104344383D01*
X123372425Y-104339658D01*
X123370570Y-104290238D01*
X123370500Y-104286525D01*
X123370500Y-104267052D01*
X123369675Y-104262622D01*
X123369338Y-104257417D01*
X123368242Y-104228213D01*
X123384953Y-104169354D01*
X123433070Y-104131559D01*
X123467172Y-104125500D01*
X124671494Y-104125500D01*
X124675619Y-104125803D01*
X124680344Y-104127425D01*
X124729763Y-104125570D01*
X124733476Y-104125500D01*
X124752950Y-104125500D01*
X124757380Y-104124675D01*
X124762573Y-104124339D01*
X124778604Y-104123737D01*
X124783077Y-104123569D01*
X124792210Y-104123226D01*
X124800604Y-104119620D01*
X124800607Y-104119619D01*
X124802785Y-104118683D01*
X124823736Y-104112317D01*
X124835055Y-104110209D01*
X124857731Y-104096232D01*
X124870598Y-104089548D01*
X124873145Y-104088454D01*
X124876244Y-104087123D01*
X124888644Y-104081795D01*
X124888645Y-104081794D01*
X124895065Y-104079036D01*
X124899951Y-104075022D01*
X124904315Y-104070658D01*
X124922370Y-104056387D01*
X124930350Y-104051468D01*
X124948020Y-104028231D01*
X124956812Y-104018161D01*
X125645959Y-103329014D01*
X125700476Y-103301237D01*
X125717774Y-103300035D01*
X125762090Y-103300848D01*
X125805446Y-103301643D01*
X125805448Y-103301643D01*
X125812499Y-103301772D01*
X125819302Y-103299917D01*
X125819304Y-103299917D01*
X125912670Y-103274462D01*
X125950817Y-103264062D01*
X126072991Y-103189047D01*
X126090584Y-103169611D01*
X126164468Y-103087984D01*
X126169200Y-103082756D01*
X126231710Y-102953735D01*
X126234279Y-102938470D01*
X126236244Y-102926788D01*
X126264545Y-102872541D01*
X126319326Y-102845288D01*
X126323896Y-102845062D01*
X126325066Y-102845340D01*
X126353988Y-102841404D01*
X126367337Y-102840500D01*
X126964534Y-102840500D01*
X127022725Y-102859407D01*
X127059699Y-102912211D01*
X127065837Y-102933617D01*
X127161225Y-103119221D01*
X127290847Y-103282763D01*
X127294527Y-103285895D01*
X127294529Y-103285897D01*
X127370423Y-103350488D01*
X127449765Y-103418013D01*
X127453988Y-103420373D01*
X127453992Y-103420376D01*
X127562633Y-103481093D01*
X127631927Y-103519820D01*
X127636525Y-103521314D01*
X127825789Y-103582810D01*
X127825791Y-103582811D01*
X127830394Y-103584306D01*
X128037607Y-103609014D01*
X128042429Y-103608643D01*
X128042432Y-103608643D01*
X128109854Y-103603455D01*
X128245673Y-103593005D01*
X128446667Y-103536886D01*
X128465896Y-103527173D01*
X128492488Y-103513740D01*
X128552953Y-103504378D01*
X128607130Y-103532101D01*
X129099680Y-104024651D01*
X129102380Y-104027780D01*
X129104575Y-104032269D01*
X129111278Y-104038487D01*
X129140822Y-104065893D01*
X129143498Y-104068469D01*
X129157276Y-104082247D01*
X129160987Y-104084792D01*
X129164892Y-104088220D01*
X129186646Y-104108401D01*
X129195133Y-104111787D01*
X129197336Y-104112666D01*
X129216652Y-104122980D01*
X129218607Y-104124321D01*
X129218610Y-104124322D01*
X129226146Y-104129492D01*
X129246491Y-104134320D01*
X129252058Y-104135641D01*
X129265884Y-104140014D01*
X129284132Y-104147294D01*
X129284134Y-104147294D01*
X129290622Y-104149883D01*
X129296915Y-104150500D01*
X129303084Y-104150500D01*
X129325943Y-104153175D01*
X129326173Y-104153230D01*
X129326175Y-104153230D01*
X129335066Y-104155340D01*
X129363988Y-104151404D01*
X129377337Y-104150500D01*
X134398684Y-104150500D01*
X134456875Y-104169407D01*
X134493849Y-104222213D01*
X134498544Y-104238586D01*
X134500759Y-104242896D01*
X134510990Y-104262803D01*
X134592712Y-104421818D01*
X134720677Y-104583270D01*
X134724357Y-104586402D01*
X134724359Y-104586404D01*
X134766187Y-104622002D01*
X134877564Y-104716791D01*
X134881787Y-104719151D01*
X134881791Y-104719154D01*
X134982590Y-104775488D01*
X135057398Y-104817297D01*
X135061996Y-104818791D01*
X135248724Y-104879463D01*
X135248726Y-104879464D01*
X135253329Y-104880959D01*
X135457894Y-104905351D01*
X135462716Y-104904980D01*
X135462719Y-104904980D01*
X135530541Y-104899761D01*
X135663300Y-104889546D01*
X135861725Y-104834145D01*
X135866038Y-104831966D01*
X135866044Y-104831964D01*
X136041289Y-104743441D01*
X136041291Y-104743440D01*
X136045610Y-104741258D01*
X136070555Y-104721769D01*
X136204135Y-104617406D01*
X136204139Y-104617402D01*
X136207951Y-104614424D01*
X136212435Y-104609230D01*
X136290487Y-104518804D01*
X136342564Y-104458472D01*
X136346809Y-104451000D01*
X136441934Y-104283550D01*
X136441935Y-104283547D01*
X136444323Y-104279344D01*
X136446896Y-104271611D01*
X136507824Y-104088454D01*
X136507824Y-104088452D01*
X136509351Y-104083863D01*
X136511511Y-104066769D01*
X136534823Y-103882228D01*
X136535171Y-103879474D01*
X136535583Y-103850000D01*
X136535313Y-103847244D01*
X136515952Y-103649780D01*
X136515951Y-103649776D01*
X136515480Y-103644970D01*
X136508846Y-103622995D01*
X136468814Y-103490407D01*
X136455935Y-103447749D01*
X136359218Y-103265849D01*
X136229011Y-103106200D01*
X136212790Y-103092781D01*
X136074002Y-102977965D01*
X136074000Y-102977964D01*
X136070275Y-102974882D01*
X135901389Y-102883566D01*
X135893309Y-102879197D01*
X135893308Y-102879197D01*
X135889055Y-102876897D01*
X135825855Y-102857333D01*
X135696875Y-102817407D01*
X135696871Y-102817406D01*
X135692254Y-102815977D01*
X135687446Y-102815472D01*
X135687443Y-102815471D01*
X135492185Y-102794949D01*
X135492183Y-102794949D01*
X135487369Y-102794443D01*
X135427354Y-102799905D01*
X135287022Y-102812675D01*
X135287017Y-102812676D01*
X135282203Y-102813114D01*
X135084572Y-102871280D01*
X135080288Y-102873519D01*
X135080287Y-102873520D01*
X135069428Y-102879197D01*
X134902002Y-102966726D01*
X134898231Y-102969758D01*
X134745220Y-103092781D01*
X134745217Y-103092783D01*
X134741447Y-103095815D01*
X134738333Y-103099526D01*
X134738332Y-103099527D01*
X134619847Y-103240732D01*
X134609024Y-103253630D01*
X134606689Y-103257878D01*
X134606688Y-103257879D01*
X134573376Y-103318474D01*
X134509776Y-103434162D01*
X134508313Y-103438774D01*
X134508168Y-103439232D01*
X134497558Y-103472680D01*
X134495098Y-103480434D01*
X134459481Y-103530184D01*
X134400732Y-103549500D01*
X131759639Y-103549500D01*
X131701448Y-103530593D01*
X131665484Y-103481093D01*
X131662541Y-103431187D01*
X131663152Y-103428114D01*
X131664100Y-103423348D01*
X131664100Y-101709500D01*
X131683007Y-101651309D01*
X131732507Y-101615345D01*
X131763100Y-101610500D01*
X134398684Y-101610500D01*
X134456875Y-101629407D01*
X134493849Y-101682213D01*
X134498544Y-101698586D01*
X134592712Y-101881818D01*
X134720677Y-102043270D01*
X134724357Y-102046402D01*
X134724359Y-102046404D01*
X134800006Y-102110784D01*
X134877564Y-102176791D01*
X134881787Y-102179151D01*
X134881791Y-102179154D01*
X134998702Y-102244493D01*
X135057398Y-102277297D01*
X135061996Y-102278791D01*
X135248724Y-102339463D01*
X135248726Y-102339464D01*
X135253329Y-102340959D01*
X135457894Y-102365351D01*
X135462716Y-102364980D01*
X135462719Y-102364980D01*
X135530541Y-102359761D01*
X135663300Y-102349546D01*
X135861725Y-102294145D01*
X135866038Y-102291966D01*
X135866044Y-102291964D01*
X136041289Y-102203441D01*
X136041291Y-102203440D01*
X136045610Y-102201258D01*
X136066321Y-102185077D01*
X136204135Y-102077406D01*
X136204139Y-102077402D01*
X136207951Y-102074424D01*
X136215348Y-102065855D01*
X136291339Y-101977817D01*
X136342564Y-101918472D01*
X136361231Y-101885613D01*
X136441934Y-101743550D01*
X136441935Y-101743547D01*
X136444323Y-101739344D01*
X136457882Y-101698586D01*
X136507824Y-101548454D01*
X136507824Y-101548452D01*
X136509351Y-101543863D01*
X136511511Y-101526769D01*
X136531231Y-101370663D01*
X136535171Y-101339474D01*
X136535353Y-101326492D01*
X136535544Y-101312776D01*
X136535583Y-101310000D01*
X136532142Y-101274907D01*
X136515952Y-101109780D01*
X136515951Y-101109776D01*
X136515480Y-101104970D01*
X136501117Y-101057396D01*
X136462733Y-100930266D01*
X136455935Y-100907749D01*
X136359218Y-100725849D01*
X136229011Y-100566200D01*
X136164301Y-100512667D01*
X136074002Y-100437965D01*
X136074000Y-100437964D01*
X136070275Y-100434882D01*
X135920148Y-100353709D01*
X135893309Y-100339197D01*
X135893308Y-100339197D01*
X135889055Y-100336897D01*
X135802520Y-100310110D01*
X135696875Y-100277407D01*
X135696871Y-100277406D01*
X135692254Y-100275977D01*
X135687446Y-100275472D01*
X135687443Y-100275471D01*
X135492185Y-100254949D01*
X135492183Y-100254949D01*
X135487369Y-100254443D01*
X135427354Y-100259905D01*
X135287022Y-100272675D01*
X135287017Y-100272676D01*
X135282203Y-100273114D01*
X135084572Y-100331280D01*
X135080288Y-100333519D01*
X135080287Y-100333520D01*
X135013854Y-100368251D01*
X134902002Y-100426726D01*
X134898231Y-100429758D01*
X134745220Y-100552781D01*
X134745217Y-100552783D01*
X134741447Y-100555815D01*
X134738333Y-100559526D01*
X134738332Y-100559527D01*
X134616396Y-100704845D01*
X134609024Y-100713630D01*
X134606689Y-100717878D01*
X134606688Y-100717879D01*
X134567874Y-100788481D01*
X134509776Y-100894162D01*
X134508313Y-100898774D01*
X134495098Y-100940434D01*
X134459481Y-100990184D01*
X134400732Y-101009500D01*
X131323876Y-101009500D01*
X131265685Y-100990593D01*
X131229721Y-100941093D01*
X131229721Y-100879907D01*
X131262925Y-100832487D01*
X131298882Y-100804394D01*
X131337375Y-100774320D01*
X131473731Y-100616350D01*
X131490044Y-100587635D01*
X131574420Y-100439107D01*
X131574421Y-100439105D01*
X131576808Y-100434903D01*
X131598980Y-100368251D01*
X131635289Y-100319003D01*
X131692919Y-100300500D01*
X134196492Y-100300500D01*
X134200617Y-100300803D01*
X134205342Y-100302425D01*
X134254761Y-100300570D01*
X134258474Y-100300500D01*
X134277948Y-100300500D01*
X134282378Y-100299675D01*
X134287571Y-100299339D01*
X134303602Y-100298737D01*
X134308075Y-100298569D01*
X134317208Y-100298226D01*
X134325602Y-100294620D01*
X134325605Y-100294619D01*
X134327783Y-100293683D01*
X134348734Y-100287317D01*
X134360053Y-100285209D01*
X134382729Y-100271232D01*
X134395596Y-100264548D01*
X134413642Y-100256795D01*
X134413643Y-100256794D01*
X134420063Y-100254036D01*
X134424949Y-100250022D01*
X134429313Y-100245658D01*
X134447368Y-100231387D01*
X134455348Y-100226468D01*
X134473018Y-100203231D01*
X134481810Y-100193161D01*
X134927654Y-99747317D01*
X134982171Y-99719540D01*
X135045957Y-99730903D01*
X135057398Y-99737297D01*
X135061996Y-99738791D01*
X135248724Y-99799463D01*
X135248726Y-99799464D01*
X135253329Y-99800959D01*
X135457894Y-99825351D01*
X135462716Y-99824980D01*
X135462719Y-99824980D01*
X135530541Y-99819761D01*
X135663300Y-99809546D01*
X135861725Y-99754145D01*
X135866038Y-99751966D01*
X135866044Y-99751964D01*
X136041289Y-99663441D01*
X136041291Y-99663440D01*
X136045610Y-99661258D01*
X136086753Y-99629114D01*
X136204135Y-99537406D01*
X136204139Y-99537402D01*
X136207951Y-99534424D01*
X136241957Y-99495028D01*
X136284595Y-99445630D01*
X136342564Y-99378472D01*
X136347618Y-99369575D01*
X136441934Y-99203550D01*
X136441935Y-99203547D01*
X136444323Y-99199344D01*
X136450900Y-99179575D01*
X136507824Y-99008454D01*
X136507824Y-99008452D01*
X136509351Y-99003863D01*
X136510698Y-98993205D01*
X136534823Y-98802228D01*
X136535171Y-98799474D01*
X136535358Y-98786133D01*
X136535544Y-98772776D01*
X136535583Y-98770000D01*
X136534611Y-98760082D01*
X136515952Y-98569780D01*
X136515951Y-98569776D01*
X136515480Y-98564970D01*
X136511674Y-98552362D01*
X136472703Y-98423287D01*
X136455935Y-98367749D01*
X136359218Y-98185849D01*
X136229011Y-98026200D01*
X136223655Y-98021769D01*
X136074002Y-97897965D01*
X136074000Y-97897964D01*
X136070275Y-97894882D01*
X135933039Y-97820679D01*
X135893309Y-97799197D01*
X135893308Y-97799197D01*
X135889055Y-97796897D01*
X135803741Y-97770488D01*
X135696875Y-97737407D01*
X135696871Y-97737406D01*
X135692254Y-97735977D01*
X135687446Y-97735472D01*
X135687443Y-97735471D01*
X135492185Y-97714949D01*
X135492183Y-97714949D01*
X135487369Y-97714443D01*
X135427354Y-97719905D01*
X135287022Y-97732675D01*
X135287017Y-97732676D01*
X135282203Y-97733114D01*
X135084572Y-97791280D01*
X135080288Y-97793519D01*
X135080287Y-97793520D01*
X135055669Y-97806390D01*
X134902002Y-97886726D01*
X134898231Y-97889758D01*
X134745220Y-98012781D01*
X134745217Y-98012783D01*
X134741447Y-98015815D01*
X134738333Y-98019526D01*
X134738332Y-98019527D01*
X134618555Y-98162272D01*
X134609024Y-98173630D01*
X134606689Y-98177878D01*
X134606688Y-98177879D01*
X134589832Y-98208541D01*
X134509776Y-98354162D01*
X134508313Y-98358775D01*
X134508311Y-98358779D01*
X134458585Y-98515538D01*
X134447484Y-98550532D01*
X134446944Y-98555344D01*
X134446944Y-98555345D01*
X134431336Y-98694500D01*
X134424520Y-98755262D01*
X134428000Y-98796699D01*
X134441301Y-98955094D01*
X134441759Y-98960553D01*
X134498544Y-99158586D01*
X134522542Y-99205282D01*
X134532323Y-99265678D01*
X134504493Y-99320536D01*
X134154525Y-99670504D01*
X134100008Y-99698281D01*
X134084521Y-99699500D01*
X131694387Y-99699500D01*
X131636196Y-99680593D01*
X131599612Y-99629114D01*
X131591567Y-99602468D01*
X131588570Y-99592541D01*
X131490600Y-99408287D01*
X131475417Y-99389671D01*
X131401036Y-99298470D01*
X131378910Y-99241425D01*
X131394540Y-99182270D01*
X131441955Y-99143599D01*
X131477756Y-99136899D01*
X132820093Y-99136899D01*
X132824218Y-99137202D01*
X132828943Y-99138824D01*
X132878362Y-99136969D01*
X132882075Y-99136899D01*
X132901549Y-99136899D01*
X132905979Y-99136074D01*
X132911172Y-99135738D01*
X132927203Y-99135136D01*
X132931676Y-99134968D01*
X132940809Y-99134625D01*
X132949203Y-99131019D01*
X132949206Y-99131018D01*
X132951384Y-99130082D01*
X132972335Y-99123716D01*
X132983654Y-99121608D01*
X133006330Y-99107631D01*
X133019197Y-99100947D01*
X133037243Y-99093194D01*
X133037244Y-99093193D01*
X133043664Y-99090435D01*
X133048550Y-99086421D01*
X133052914Y-99082057D01*
X133070969Y-99067786D01*
X133078949Y-99062867D01*
X133096619Y-99039630D01*
X133105411Y-99029560D01*
X134927654Y-97207317D01*
X134982171Y-97179540D01*
X135045957Y-97190903D01*
X135057398Y-97197297D01*
X135061996Y-97198791D01*
X135248724Y-97259463D01*
X135248726Y-97259464D01*
X135253329Y-97260959D01*
X135457894Y-97285351D01*
X135462716Y-97284980D01*
X135462719Y-97284980D01*
X135535326Y-97279393D01*
X135663300Y-97269546D01*
X135861725Y-97214145D01*
X135866038Y-97211966D01*
X135866044Y-97211964D01*
X136041289Y-97123441D01*
X136041291Y-97123440D01*
X136045610Y-97121258D01*
X136049427Y-97118276D01*
X136204135Y-96997406D01*
X136204139Y-96997402D01*
X136207951Y-96994424D01*
X136217331Y-96983558D01*
X136276398Y-96915127D01*
X136342564Y-96838472D01*
X136344957Y-96834260D01*
X136441934Y-96663550D01*
X136441935Y-96663547D01*
X136444323Y-96659344D01*
X136447316Y-96650349D01*
X136507824Y-96468454D01*
X136507824Y-96468452D01*
X136509351Y-96463863D01*
X136511511Y-96446769D01*
X136529860Y-96301518D01*
X136535171Y-96259474D01*
X136535234Y-96255011D01*
X136535544Y-96232776D01*
X136535583Y-96230000D01*
X136535313Y-96227244D01*
X136515952Y-96029780D01*
X136515951Y-96029776D01*
X136515480Y-96024970D01*
X136512511Y-96015134D01*
X136457333Y-95832380D01*
X136455935Y-95827749D01*
X136359218Y-95645849D01*
X136229011Y-95486200D01*
X136221732Y-95480178D01*
X136074002Y-95357965D01*
X136074000Y-95357964D01*
X136070275Y-95354882D01*
X135889055Y-95256897D01*
X135803741Y-95230488D01*
X135696875Y-95197407D01*
X135696871Y-95197406D01*
X135692254Y-95195977D01*
X135687446Y-95195472D01*
X135687443Y-95195471D01*
X135492185Y-95174949D01*
X135492183Y-95174949D01*
X135487369Y-95174443D01*
X135427354Y-95179905D01*
X135287022Y-95192675D01*
X135287017Y-95192676D01*
X135282203Y-95193114D01*
X135084572Y-95251280D01*
X135080288Y-95253519D01*
X135080287Y-95253520D01*
X135031254Y-95279154D01*
X134902002Y-95346726D01*
X134898231Y-95349758D01*
X134745220Y-95472781D01*
X134745217Y-95472783D01*
X134741447Y-95475815D01*
X134738333Y-95479526D01*
X134738332Y-95479527D01*
X134622659Y-95617381D01*
X134609024Y-95633630D01*
X134606689Y-95637878D01*
X134606688Y-95637879D01*
X134591497Y-95665512D01*
X134509776Y-95814162D01*
X134508313Y-95818775D01*
X134508311Y-95818779D01*
X134482219Y-95901033D01*
X134447484Y-96010532D01*
X134446944Y-96015344D01*
X134446944Y-96015345D01*
X134425730Y-96204478D01*
X134424520Y-96215262D01*
X134425991Y-96232776D01*
X134441252Y-96414513D01*
X134441759Y-96420553D01*
X134498544Y-96618586D01*
X134522542Y-96665282D01*
X134532323Y-96725678D01*
X134504493Y-96780536D01*
X134455058Y-96829971D01*
X134455052Y-96829976D01*
X133609473Y-97675556D01*
X132778126Y-98506903D01*
X132723609Y-98534680D01*
X132708122Y-98535899D01*
X131238075Y-98535899D01*
X131179884Y-98516992D01*
X131143920Y-98467492D01*
X131143920Y-98406306D01*
X131177124Y-98358886D01*
X131333217Y-98236933D01*
X131340189Y-98230295D01*
X131470155Y-98079726D01*
X131475714Y-98071845D01*
X131573959Y-97898904D01*
X131577875Y-97890109D01*
X131640658Y-97701375D01*
X131642795Y-97691969D01*
X131644868Y-97675556D01*
X131642369Y-97662455D01*
X131640958Y-97661130D01*
X131635903Y-97660000D01*
X129566520Y-97660000D01*
X129555102Y-97663710D01*
X129554918Y-97674222D01*
X129604969Y-97848774D01*
X129608520Y-97857742D01*
X129699435Y-98034642D01*
X129704655Y-98042742D01*
X129828199Y-98198616D01*
X129834897Y-98205553D01*
X129986365Y-98334462D01*
X129994279Y-98339963D01*
X130013098Y-98350480D01*
X130054670Y-98395373D01*
X130061915Y-98456128D01*
X130032065Y-98509538D01*
X129976522Y-98535203D01*
X129964800Y-98535899D01*
X129277109Y-98535899D01*
X129272984Y-98535596D01*
X129268259Y-98533974D01*
X129218839Y-98535829D01*
X129215126Y-98535899D01*
X129195653Y-98535899D01*
X129191223Y-98536724D01*
X129186030Y-98537060D01*
X129166899Y-98537778D01*
X129165527Y-98537830D01*
X129156392Y-98538173D01*
X129147995Y-98541781D01*
X129147994Y-98541781D01*
X129145813Y-98542718D01*
X129124864Y-98549082D01*
X129122537Y-98549515D01*
X129122532Y-98549517D01*
X129113548Y-98551190D01*
X129090873Y-98565167D01*
X129078006Y-98571850D01*
X129072359Y-98574276D01*
X129059959Y-98579604D01*
X129059958Y-98579605D01*
X129053538Y-98582363D01*
X129048652Y-98586377D01*
X129044288Y-98590741D01*
X129026233Y-98605012D01*
X129018253Y-98609931D01*
X129000583Y-98633168D01*
X128991791Y-98643238D01*
X128621538Y-99013491D01*
X128567021Y-99041268D01*
X128504447Y-99030572D01*
X128478605Y-99016599D01*
X128478604Y-99016598D01*
X128474351Y-99014299D01*
X128409683Y-98994281D01*
X128279623Y-98954020D01*
X128279619Y-98954019D01*
X128275002Y-98952590D01*
X128270194Y-98952085D01*
X128270191Y-98952084D01*
X128072281Y-98931283D01*
X128072279Y-98931283D01*
X128067465Y-98930777D01*
X128001282Y-98936800D01*
X127864463Y-98949251D01*
X127864459Y-98949252D01*
X127859643Y-98949690D01*
X127782685Y-98972340D01*
X127664099Y-99007242D01*
X127664096Y-99007243D01*
X127659452Y-99008610D01*
X127474519Y-99105291D01*
X127470750Y-99108321D01*
X127470749Y-99108322D01*
X127357933Y-99199028D01*
X127300735Y-99220755D01*
X127241690Y-99204713D01*
X127203351Y-99157028D01*
X127196899Y-99121873D01*
X127196899Y-98789080D01*
X127215806Y-98730889D01*
X127225895Y-98719076D01*
X127497659Y-98447312D01*
X127552176Y-98419535D01*
X127615959Y-98430896D01*
X127631927Y-98439820D01*
X127636525Y-98441314D01*
X127825789Y-98502810D01*
X127825791Y-98502811D01*
X127830394Y-98504306D01*
X128037607Y-98529014D01*
X128042429Y-98528643D01*
X128042432Y-98528643D01*
X128109854Y-98523455D01*
X128245673Y-98513005D01*
X128446667Y-98456886D01*
X128450980Y-98454707D01*
X128450986Y-98454705D01*
X128628611Y-98364980D01*
X128628613Y-98364978D01*
X128632932Y-98362797D01*
X128797375Y-98234320D01*
X128933731Y-98076350D01*
X128958016Y-98033601D01*
X129034420Y-97899107D01*
X129034421Y-97899105D01*
X129036808Y-97894903D01*
X129096838Y-97714443D01*
X129101150Y-97701482D01*
X129101150Y-97701480D01*
X129102677Y-97696891D01*
X129105988Y-97670687D01*
X129115257Y-97597311D01*
X129128832Y-97489855D01*
X129129012Y-97477005D01*
X129129085Y-97471757D01*
X129129249Y-97460000D01*
X129128979Y-97457250D01*
X129128979Y-97457241D01*
X129112124Y-97285351D01*
X129108885Y-97252315D01*
X129106501Y-97244419D01*
X129553866Y-97244419D01*
X129556547Y-97257483D01*
X129558250Y-97259038D01*
X129562698Y-97260000D01*
X130384320Y-97260000D01*
X130397005Y-97255878D01*
X130400000Y-97251757D01*
X130400000Y-97244320D01*
X130800000Y-97244320D01*
X130804122Y-97257005D01*
X130808243Y-97260000D01*
X131633456Y-97260000D01*
X131646141Y-97255878D01*
X131647715Y-97253713D01*
X131647875Y-97252234D01*
X131646994Y-97247781D01*
X131589503Y-97057365D01*
X131585833Y-97048461D01*
X131492454Y-96872839D01*
X131487122Y-96864814D01*
X131361412Y-96710678D01*
X131354618Y-96703837D01*
X131201362Y-96577052D01*
X131193379Y-96571668D01*
X131018410Y-96477062D01*
X131009539Y-96473333D01*
X130819520Y-96414513D01*
X130814274Y-96413436D01*
X130802548Y-96415929D01*
X130800881Y-96417780D01*
X130800000Y-96421925D01*
X130800000Y-97244320D01*
X130400000Y-97244320D01*
X130400000Y-96425840D01*
X130395878Y-96413155D01*
X130394081Y-96411849D01*
X130204288Y-96467708D01*
X130195347Y-96471321D01*
X130019091Y-96563465D01*
X130011015Y-96568749D01*
X129856010Y-96693377D01*
X129849126Y-96700118D01*
X129721280Y-96852479D01*
X129715827Y-96860443D01*
X129620013Y-97034729D01*
X129616213Y-97043593D01*
X129556074Y-97233177D01*
X129554069Y-97242610D01*
X129553866Y-97244419D01*
X129106501Y-97244419D01*
X129048570Y-97052541D01*
X128982171Y-96927663D01*
X128952873Y-96872561D01*
X128952871Y-96872558D01*
X128950600Y-96868287D01*
X128945788Y-96862386D01*
X128821769Y-96710324D01*
X128821768Y-96710323D01*
X128818708Y-96706571D01*
X128685016Y-96595971D01*
X128661643Y-96576635D01*
X128661641Y-96576634D01*
X128657916Y-96573552D01*
X128494438Y-96485160D01*
X128478605Y-96476599D01*
X128478604Y-96476599D01*
X128474351Y-96474299D01*
X128385416Y-96446769D01*
X128279623Y-96414020D01*
X128279619Y-96414019D01*
X128275002Y-96412590D01*
X128270194Y-96412085D01*
X128270191Y-96412084D01*
X128072281Y-96391283D01*
X128072279Y-96391283D01*
X128067465Y-96390777D01*
X127998076Y-96397092D01*
X127864463Y-96409251D01*
X127864459Y-96409252D01*
X127859643Y-96409690D01*
X127806938Y-96425202D01*
X127664099Y-96467242D01*
X127664096Y-96467243D01*
X127659452Y-96468610D01*
X127474519Y-96565291D01*
X127470750Y-96568321D01*
X127470749Y-96568322D01*
X127315659Y-96693017D01*
X127315657Y-96693019D01*
X127311886Y-96696051D01*
X127308772Y-96699762D01*
X127308771Y-96699763D01*
X127195915Y-96834260D01*
X127177748Y-96855910D01*
X127175412Y-96860158D01*
X127175412Y-96860159D01*
X127120463Y-96960110D01*
X127077215Y-97038778D01*
X127014117Y-97237691D01*
X127010690Y-97268244D01*
X126991818Y-97436490D01*
X126990855Y-97445071D01*
X126997165Y-97520214D01*
X127007603Y-97644512D01*
X127008317Y-97653020D01*
X127009650Y-97657668D01*
X127009650Y-97657669D01*
X127063912Y-97846903D01*
X127065837Y-97853617D01*
X127092209Y-97904930D01*
X127092440Y-97905380D01*
X127102223Y-97965778D01*
X127074392Y-98020637D01*
X126721748Y-98373281D01*
X126718619Y-98375981D01*
X126714130Y-98378176D01*
X126707912Y-98384879D01*
X126680506Y-98414423D01*
X126677930Y-98417099D01*
X126664151Y-98430878D01*
X126661606Y-98434588D01*
X126658170Y-98438501D01*
X126637998Y-98460247D01*
X126634611Y-98468735D01*
X126634611Y-98468736D01*
X126633733Y-98470937D01*
X126623419Y-98490253D01*
X126622078Y-98492208D01*
X126622077Y-98492211D01*
X126616907Y-98499747D01*
X126614797Y-98508639D01*
X126610758Y-98525659D01*
X126606385Y-98539485D01*
X126601248Y-98552362D01*
X126596516Y-98564223D01*
X126595899Y-98570516D01*
X126595899Y-98576685D01*
X126593224Y-98599544D01*
X126591059Y-98608667D01*
X126593090Y-98623587D01*
X126594995Y-98637588D01*
X126595899Y-98650938D01*
X126595899Y-100502483D01*
X126595877Y-100502719D01*
X126595789Y-100502949D01*
X126595935Y-100614894D01*
X126599237Y-100623418D01*
X126599237Y-100623419D01*
X126602734Y-100632447D01*
X126607743Y-100650075D01*
X126611190Y-100668582D01*
X126621345Y-100685056D01*
X126629382Y-100701238D01*
X126636371Y-100719281D01*
X126640205Y-100724309D01*
X126645615Y-100730126D01*
X126649374Y-100734168D01*
X126661153Y-100749637D01*
X126669931Y-100763877D01*
X126687324Y-100777102D01*
X126699889Y-100788481D01*
X126941659Y-101048432D01*
X126967444Y-101103919D01*
X126955690Y-101163965D01*
X126939170Y-101185859D01*
X126754366Y-101370663D01*
X126699849Y-101398440D01*
X126683762Y-101399657D01*
X126604505Y-101399172D01*
X126588427Y-101399074D01*
X126588426Y-101399074D01*
X126581376Y-101399031D01*
X126574599Y-101400968D01*
X126574598Y-101400968D01*
X126450309Y-101436490D01*
X126450307Y-101436491D01*
X126443529Y-101438428D01*
X126322280Y-101514930D01*
X126317613Y-101520214D01*
X126317611Y-101520216D01*
X126232044Y-101617103D01*
X126232042Y-101617105D01*
X126227377Y-101622388D01*
X126224381Y-101628770D01*
X126224380Y-101628771D01*
X126191602Y-101698586D01*
X126166447Y-101752163D01*
X126163735Y-101750889D01*
X126136018Y-101790492D01*
X126078171Y-101810426D01*
X126019655Y-101792550D01*
X126006416Y-101781445D01*
X125529496Y-101304525D01*
X125501719Y-101250008D01*
X125500500Y-101234521D01*
X125500500Y-99353508D01*
X125500803Y-99349383D01*
X125502425Y-99344658D01*
X125500570Y-99295238D01*
X125500500Y-99291525D01*
X125500500Y-99272052D01*
X125499675Y-99267622D01*
X125499338Y-99262417D01*
X125498569Y-99241926D01*
X125498226Y-99232791D01*
X125493681Y-99222212D01*
X125487317Y-99201263D01*
X125486884Y-99198936D01*
X125486882Y-99198931D01*
X125485209Y-99189947D01*
X125471232Y-99167271D01*
X125464548Y-99154404D01*
X125456795Y-99136358D01*
X125456794Y-99136357D01*
X125454036Y-99129937D01*
X125450022Y-99125051D01*
X125445658Y-99120687D01*
X125431387Y-99102632D01*
X125431264Y-99102433D01*
X125426468Y-99094652D01*
X125403231Y-99076982D01*
X125393161Y-99068190D01*
X123575320Y-97250349D01*
X123572620Y-97247220D01*
X123570425Y-97242731D01*
X123559930Y-97232995D01*
X123534178Y-97209107D01*
X123531502Y-97206531D01*
X123517723Y-97192752D01*
X123514013Y-97190207D01*
X123510100Y-97186771D01*
X123495055Y-97172815D01*
X123488354Y-97166599D01*
X123477664Y-97162334D01*
X123458348Y-97152020D01*
X123456393Y-97150679D01*
X123456390Y-97150678D01*
X123448854Y-97145508D01*
X123422941Y-97139359D01*
X123409116Y-97134986D01*
X123390868Y-97127706D01*
X123390866Y-97127706D01*
X123384378Y-97125117D01*
X123378085Y-97124500D01*
X123371916Y-97124500D01*
X123349062Y-97121826D01*
X123345412Y-97120960D01*
X123293158Y-97089130D01*
X123269592Y-97032665D01*
X123271026Y-97014490D01*
X123269883Y-97014378D01*
X123270265Y-97010486D01*
X123270265Y-97010478D01*
X123270500Y-97008085D01*
X123270500Y-97001916D01*
X123273175Y-96979057D01*
X123273230Y-96978827D01*
X123273230Y-96978825D01*
X123275340Y-96969934D01*
X123271404Y-96941012D01*
X123270500Y-96927663D01*
X123270500Y-96760313D01*
X123289407Y-96702122D01*
X123314497Y-96677998D01*
X123315974Y-96677011D01*
X123364552Y-96644552D01*
X123408867Y-96578231D01*
X123411855Y-96563212D01*
X123417469Y-96534986D01*
X123420500Y-96519748D01*
X123420500Y-95880252D01*
X123415279Y-95854005D01*
X123410770Y-95831334D01*
X123410769Y-95831332D01*
X123408867Y-95821769D01*
X123364552Y-95755448D01*
X123298231Y-95711133D01*
X123288668Y-95709231D01*
X123288666Y-95709230D01*
X123265995Y-95704721D01*
X123239748Y-95699500D01*
X122700252Y-95699500D01*
X122674005Y-95704721D01*
X122651334Y-95709230D01*
X122651332Y-95709231D01*
X122641769Y-95711133D01*
X122575448Y-95755448D01*
X122570029Y-95763558D01*
X122570004Y-95763583D01*
X122515487Y-95791360D01*
X122455055Y-95781789D01*
X122429996Y-95763583D01*
X122429971Y-95763558D01*
X122424552Y-95755448D01*
X122358231Y-95711133D01*
X122348668Y-95709231D01*
X122348666Y-95709230D01*
X122325995Y-95704721D01*
X122299748Y-95699500D01*
X121760252Y-95699500D01*
X121734005Y-95704721D01*
X121711334Y-95709230D01*
X121711332Y-95709231D01*
X121701769Y-95711133D01*
X121635448Y-95755448D01*
X121630029Y-95763558D01*
X121630028Y-95763559D01*
X121628928Y-95765205D01*
X121626349Y-95767238D01*
X121623137Y-95770450D01*
X121622757Y-95770070D01*
X121580877Y-95803082D01*
X121519738Y-95805482D01*
X121492768Y-95793275D01*
X121475048Y-95781789D01*
X121412095Y-95740985D01*
X121274739Y-95699907D01*
X121191497Y-95699398D01*
X121138427Y-95699074D01*
X121138426Y-95699074D01*
X121131376Y-95699031D01*
X121124599Y-95700968D01*
X121124598Y-95700968D01*
X121000309Y-95736490D01*
X121000307Y-95736491D01*
X120993529Y-95738428D01*
X120872280Y-95814930D01*
X120823703Y-95869934D01*
X120771012Y-95901033D01*
X120710103Y-95895221D01*
X120664243Y-95854719D01*
X120650500Y-95804398D01*
X120650500Y-95235252D01*
X120638867Y-95176769D01*
X120639000Y-95176743D01*
X120634715Y-95122312D01*
X120660976Y-95075417D01*
X120786897Y-94949496D01*
X120841414Y-94921719D01*
X120856901Y-94920500D01*
X121019748Y-94920500D01*
X121051888Y-94914107D01*
X121068666Y-94910770D01*
X121068668Y-94910769D01*
X121078231Y-94908867D01*
X121144552Y-94864552D01*
X121188867Y-94798231D01*
X121191889Y-94783042D01*
X121199552Y-94744512D01*
X121200500Y-94739748D01*
X121200500Y-94200252D01*
X121192345Y-94159252D01*
X121190770Y-94151334D01*
X121190769Y-94151332D01*
X121188867Y-94141769D01*
X121144552Y-94075448D01*
X121136442Y-94070029D01*
X121136057Y-94069644D01*
X121108280Y-94015127D01*
X121117851Y-93954695D01*
X121136057Y-93929636D01*
X121149611Y-93916082D01*
X121157535Y-93904222D01*
X134449065Y-93904222D01*
X134497674Y-94073743D01*
X134501225Y-94082711D01*
X134590919Y-94257236D01*
X134596142Y-94265341D01*
X134718037Y-94419134D01*
X134724720Y-94426055D01*
X134874164Y-94553241D01*
X134882078Y-94558742D01*
X135053373Y-94654475D01*
X135062201Y-94658332D01*
X135248833Y-94718972D01*
X135258247Y-94721042D01*
X135264429Y-94721779D01*
X135277515Y-94719188D01*
X135278955Y-94717633D01*
X135280000Y-94712882D01*
X135280000Y-94708685D01*
X135680000Y-94708685D01*
X135683747Y-94720218D01*
X135694079Y-94720434D01*
X135856882Y-94674978D01*
X135865862Y-94671496D01*
X136041020Y-94583017D01*
X136049155Y-94577854D01*
X136203787Y-94457042D01*
X136210771Y-94450391D01*
X136338990Y-94301848D01*
X136344546Y-94293973D01*
X136441471Y-94123353D01*
X136445392Y-94114546D01*
X136507334Y-93928346D01*
X136509469Y-93918944D01*
X136511161Y-93905557D01*
X136508661Y-93892454D01*
X136507251Y-93891130D01*
X136502196Y-93890000D01*
X135695680Y-93890000D01*
X135682995Y-93894122D01*
X135680000Y-93898243D01*
X135680000Y-94708685D01*
X135280000Y-94708685D01*
X135280000Y-93905680D01*
X135275878Y-93892995D01*
X135271757Y-93890000D01*
X134460667Y-93890000D01*
X134449249Y-93893710D01*
X134449065Y-93904222D01*
X121157535Y-93904222D01*
X121182979Y-93866142D01*
X121190298Y-93848474D01*
X121199052Y-93804462D01*
X121200000Y-93794840D01*
X121200000Y-93745680D01*
X121195878Y-93732995D01*
X121191757Y-93730000D01*
X120599000Y-93730000D01*
X120540809Y-93711093D01*
X120504845Y-93661593D01*
X120500000Y-93631000D01*
X120500000Y-93474665D01*
X134447602Y-93474665D01*
X134450233Y-93487483D01*
X134451936Y-93489039D01*
X134456382Y-93490000D01*
X135264320Y-93490000D01*
X135277005Y-93485878D01*
X135280000Y-93481757D01*
X135280000Y-93474320D01*
X135680000Y-93474320D01*
X135684122Y-93487005D01*
X135688243Y-93490000D01*
X136499791Y-93490000D01*
X136512476Y-93485878D01*
X136514049Y-93483713D01*
X136514116Y-93483098D01*
X136513589Y-93480438D01*
X136456869Y-93292572D01*
X136453199Y-93283668D01*
X136361072Y-93110401D01*
X136355740Y-93102376D01*
X136231716Y-92950307D01*
X136224922Y-92943466D01*
X136073721Y-92818381D01*
X136065738Y-92812997D01*
X135893114Y-92719660D01*
X135884243Y-92715931D01*
X135696780Y-92657901D01*
X135693614Y-92657252D01*
X135682548Y-92659604D01*
X135680880Y-92661456D01*
X135680000Y-92665597D01*
X135680000Y-93474320D01*
X135280000Y-93474320D01*
X135280000Y-92669963D01*
X135276327Y-92658659D01*
X135265638Y-92658510D01*
X135089407Y-92710378D01*
X135080466Y-92713991D01*
X134906573Y-92804899D01*
X134898497Y-92810184D01*
X134745571Y-92933140D01*
X134738687Y-92939881D01*
X134612551Y-93090205D01*
X134607104Y-93098159D01*
X134512573Y-93270111D01*
X134508773Y-93278976D01*
X134449439Y-93466021D01*
X134447602Y-93474665D01*
X120500000Y-93474665D01*
X120500000Y-93314320D01*
X120900000Y-93314320D01*
X120904122Y-93327005D01*
X120908243Y-93330000D01*
X121184320Y-93330000D01*
X121197005Y-93325878D01*
X121200000Y-93321757D01*
X121200000Y-93265160D01*
X121199052Y-93255538D01*
X121190298Y-93211526D01*
X121182979Y-93193858D01*
X121149611Y-93143918D01*
X121136082Y-93130389D01*
X121086142Y-93097021D01*
X121068474Y-93089702D01*
X121024462Y-93080948D01*
X121014840Y-93080000D01*
X120915680Y-93080000D01*
X120902995Y-93084122D01*
X120900000Y-93088243D01*
X120900000Y-93314320D01*
X120500000Y-93314320D01*
X120500000Y-93095680D01*
X120495878Y-93082995D01*
X120491757Y-93080000D01*
X120385160Y-93080000D01*
X120375538Y-93080948D01*
X120331526Y-93089702D01*
X120313858Y-93097021D01*
X120263918Y-93130389D01*
X120250389Y-93143918D01*
X120217021Y-93193858D01*
X120209702Y-93211527D01*
X120202407Y-93248201D01*
X120172511Y-93301585D01*
X120116946Y-93327202D01*
X120056936Y-93315265D01*
X120045151Y-93306344D01*
X120044552Y-93305448D01*
X120039561Y-93302113D01*
X120039557Y-93302110D01*
X120011956Y-93283668D01*
X119978231Y-93261133D01*
X119968668Y-93259231D01*
X119968666Y-93259230D01*
X119945995Y-93254721D01*
X119919748Y-93249500D01*
X119180252Y-93249500D01*
X119154005Y-93254721D01*
X119131334Y-93259230D01*
X119131332Y-93259231D01*
X119121769Y-93261133D01*
X119055448Y-93305448D01*
X119011133Y-93371769D01*
X119009231Y-93381332D01*
X119009230Y-93381334D01*
X119004721Y-93404005D01*
X118999500Y-93430252D01*
X118999500Y-94769748D01*
X119003263Y-94788666D01*
X119006879Y-94806843D01*
X119011133Y-94828231D01*
X119050415Y-94887019D01*
X119055448Y-94894552D01*
X119054142Y-94895425D01*
X119076860Y-94940013D01*
X119067289Y-95000445D01*
X119024024Y-95043710D01*
X118979079Y-95054500D01*
X118480252Y-95054500D01*
X118457016Y-95059122D01*
X118431334Y-95064230D01*
X118431332Y-95064231D01*
X118421769Y-95066133D01*
X118355448Y-95110448D01*
X118330569Y-95147682D01*
X118325343Y-95155503D01*
X118277292Y-95193381D01*
X118243028Y-95199500D01*
X118112997Y-95199500D01*
X118054806Y-95180593D01*
X118047917Y-95175103D01*
X118047006Y-95174308D01*
X118042400Y-95168963D01*
X118001096Y-95142191D01*
X117982899Y-95130396D01*
X117944352Y-95082880D01*
X117941097Y-95021781D01*
X117974377Y-94970438D01*
X118020032Y-94951680D01*
X118019698Y-94950000D01*
X118068474Y-94940298D01*
X118086142Y-94932979D01*
X118136082Y-94899611D01*
X118149611Y-94886082D01*
X118182979Y-94836142D01*
X118190298Y-94818474D01*
X118199052Y-94774462D01*
X118200000Y-94764840D01*
X118200000Y-94315680D01*
X118195878Y-94302995D01*
X118191757Y-94300000D01*
X117115680Y-94300000D01*
X117102995Y-94304122D01*
X117100000Y-94308243D01*
X117100000Y-94764840D01*
X117100948Y-94774462D01*
X117109702Y-94818474D01*
X117117021Y-94836142D01*
X117150389Y-94886082D01*
X117163918Y-94899611D01*
X117213858Y-94932979D01*
X117231525Y-94940297D01*
X117275539Y-94949052D01*
X117285160Y-94950000D01*
X117380491Y-94950000D01*
X117438682Y-94968907D01*
X117474646Y-95018407D01*
X117474646Y-95079593D01*
X117438682Y-95129093D01*
X117433320Y-95132727D01*
X117382280Y-95164930D01*
X117380101Y-95167398D01*
X117325128Y-95190057D01*
X117263686Y-95174425D01*
X117212095Y-95140985D01*
X117180931Y-95131665D01*
X117175845Y-95128150D01*
X117168502Y-95127948D01*
X117074739Y-95099907D01*
X116991497Y-95099398D01*
X116938427Y-95099074D01*
X116938426Y-95099074D01*
X116931376Y-95099031D01*
X116924599Y-95100968D01*
X116924598Y-95100968D01*
X116800309Y-95136490D01*
X116800307Y-95136491D01*
X116793529Y-95138428D01*
X116672280Y-95214930D01*
X116667613Y-95220214D01*
X116667611Y-95220216D01*
X116582044Y-95317103D01*
X116582042Y-95317105D01*
X116577377Y-95322388D01*
X116574381Y-95328770D01*
X116574380Y-95328771D01*
X116560673Y-95357965D01*
X116516447Y-95452163D01*
X116515362Y-95459132D01*
X116515361Y-95459135D01*
X116502327Y-95542854D01*
X116494391Y-95593823D01*
X116495306Y-95600820D01*
X116495306Y-95600821D01*
X116508154Y-95699074D01*
X116512980Y-95735979D01*
X116515821Y-95742435D01*
X116515821Y-95742436D01*
X116552077Y-95824833D01*
X116570720Y-95867203D01*
X116615089Y-95919987D01*
X116658431Y-95971549D01*
X116658434Y-95971551D01*
X116662970Y-95976948D01*
X116668841Y-95980856D01*
X116668842Y-95980857D01*
X116672054Y-95982995D01*
X116782313Y-96056390D01*
X116860594Y-96080846D01*
X116912425Y-96097039D01*
X116912426Y-96097039D01*
X116919157Y-96099142D01*
X116990828Y-96100456D01*
X117055445Y-96101641D01*
X117055447Y-96101641D01*
X117062499Y-96101770D01*
X117069302Y-96099915D01*
X117069304Y-96099915D01*
X117175207Y-96071042D01*
X117200817Y-96064060D01*
X117280501Y-96015134D01*
X117332302Y-96000500D01*
X117459885Y-96000500D01*
X117491891Y-96007742D01*
X117492313Y-96006390D01*
X117622425Y-96047039D01*
X117622426Y-96047039D01*
X117629157Y-96049142D01*
X117700828Y-96050456D01*
X117765445Y-96051641D01*
X117765447Y-96051641D01*
X117772499Y-96051770D01*
X117779302Y-96049915D01*
X117779304Y-96049915D01*
X117904013Y-96015915D01*
X117910817Y-96014060D01*
X117916827Y-96010370D01*
X117920820Y-96008642D01*
X117960137Y-96000500D01*
X118326835Y-96000500D01*
X118381838Y-96017185D01*
X118421769Y-96043867D01*
X118431332Y-96045769D01*
X118431334Y-96045770D01*
X118452174Y-96049915D01*
X118480252Y-96055500D01*
X120469748Y-96055500D01*
X120497826Y-96049915D01*
X120518666Y-96045770D01*
X120518668Y-96045769D01*
X120528231Y-96043867D01*
X120552224Y-96027835D01*
X120611112Y-96011226D01*
X120668515Y-96032403D01*
X120702509Y-96083276D01*
X120705048Y-96125377D01*
X120694391Y-96193823D01*
X120695306Y-96200820D01*
X120695306Y-96200821D01*
X120702392Y-96255011D01*
X120691189Y-96315162D01*
X120646770Y-96357240D01*
X120586101Y-96365173D01*
X120549225Y-96350161D01*
X120536341Y-96341552D01*
X120528231Y-96336133D01*
X120518668Y-96334231D01*
X120518666Y-96334230D01*
X120495995Y-96329721D01*
X120469748Y-96324500D01*
X118480252Y-96324500D01*
X118454005Y-96329721D01*
X118431334Y-96334230D01*
X118431332Y-96334231D01*
X118421769Y-96336133D01*
X118355448Y-96380448D01*
X118311133Y-96446769D01*
X118309231Y-96456332D01*
X118309230Y-96456334D01*
X118306342Y-96470855D01*
X118299500Y-96505252D01*
X118299500Y-96862386D01*
X118280593Y-96920577D01*
X118231093Y-96956541D01*
X118169907Y-96956541D01*
X118125501Y-96927010D01*
X118107686Y-96906334D01*
X118032400Y-96818961D01*
X117912095Y-96740983D01*
X117774739Y-96699905D01*
X117691497Y-96699396D01*
X117638427Y-96699072D01*
X117638426Y-96699072D01*
X117631376Y-96699029D01*
X117624599Y-96700966D01*
X117624598Y-96700966D01*
X117500309Y-96736488D01*
X117500307Y-96736489D01*
X117493529Y-96738426D01*
X117372280Y-96814928D01*
X117367613Y-96820212D01*
X117367611Y-96820214D01*
X117282044Y-96917101D01*
X117282042Y-96917103D01*
X117277377Y-96922386D01*
X117274381Y-96928768D01*
X117274380Y-96928769D01*
X117266954Y-96944585D01*
X117216447Y-97052161D01*
X117215361Y-97059134D01*
X117213300Y-97065876D01*
X117211191Y-97065231D01*
X117188208Y-97110631D01*
X117133764Y-97138550D01*
X117073307Y-97129137D01*
X117034570Y-97088741D01*
X117032703Y-97089935D01*
X117028905Y-97083997D01*
X117025984Y-97077572D01*
X116944976Y-96983558D01*
X116937005Y-96974307D01*
X116937004Y-96974306D01*
X116932400Y-96968963D01*
X116812095Y-96890985D01*
X116674739Y-96849907D01*
X116603032Y-96849469D01*
X116564610Y-96849234D01*
X116506536Y-96829972D01*
X116495211Y-96820240D01*
X116325320Y-96650349D01*
X116322620Y-96647220D01*
X116320425Y-96642731D01*
X116312569Y-96635443D01*
X116284178Y-96609107D01*
X116281502Y-96606531D01*
X116267723Y-96592752D01*
X116264013Y-96590207D01*
X116260100Y-96586771D01*
X116245055Y-96572815D01*
X116238354Y-96566599D01*
X116227664Y-96562334D01*
X116208348Y-96552020D01*
X116206393Y-96550679D01*
X116206390Y-96550678D01*
X116198854Y-96545508D01*
X116172941Y-96539359D01*
X116159116Y-96534986D01*
X116140868Y-96527706D01*
X116140866Y-96527706D01*
X116134378Y-96525117D01*
X116128085Y-96524500D01*
X116121916Y-96524500D01*
X116099057Y-96521825D01*
X116098827Y-96521770D01*
X116098825Y-96521770D01*
X116089934Y-96519660D01*
X116061013Y-96523596D01*
X116047663Y-96524500D01*
X115785155Y-96524500D01*
X115726964Y-96505593D01*
X115693691Y-96463386D01*
X115690769Y-96456333D01*
X115688867Y-96446769D01*
X115644552Y-96380448D01*
X115578231Y-96336133D01*
X115568668Y-96334231D01*
X115568666Y-96334230D01*
X115545995Y-96329721D01*
X115519748Y-96324500D01*
X113530252Y-96324500D01*
X113504005Y-96329721D01*
X113481334Y-96334230D01*
X113481332Y-96334231D01*
X113471769Y-96336133D01*
X113405448Y-96380448D01*
X113361133Y-96446769D01*
X113359231Y-96456332D01*
X113359230Y-96456334D01*
X113356342Y-96470855D01*
X113349500Y-96505252D01*
X113349500Y-97144748D01*
X113354721Y-97170995D01*
X113359049Y-97192752D01*
X113361133Y-97203231D01*
X113405448Y-97269552D01*
X113471769Y-97313867D01*
X113481332Y-97315769D01*
X113481334Y-97315770D01*
X113502637Y-97320007D01*
X113530252Y-97325500D01*
X115519748Y-97325500D01*
X115547363Y-97320007D01*
X115568666Y-97315770D01*
X115568668Y-97315769D01*
X115578231Y-97313867D01*
X115644552Y-97269552D01*
X115688867Y-97203231D01*
X115690770Y-97193666D01*
X115693691Y-97186614D01*
X115733428Y-97140088D01*
X115785155Y-97125500D01*
X115909521Y-97125500D01*
X115967712Y-97144407D01*
X115979525Y-97154496D01*
X116055384Y-97230355D01*
X116083161Y-97284872D01*
X116073590Y-97345304D01*
X116030325Y-97388569D01*
X115984776Y-97399357D01*
X115938428Y-97399074D01*
X115938427Y-97399074D01*
X115931376Y-97399031D01*
X115924599Y-97400968D01*
X115924598Y-97400968D01*
X115800309Y-97436490D01*
X115800307Y-97436491D01*
X115793529Y-97438428D01*
X115672280Y-97514930D01*
X115627400Y-97565748D01*
X115574708Y-97596848D01*
X115533885Y-97597311D01*
X115524519Y-97595448D01*
X115524509Y-97595447D01*
X115519748Y-97594500D01*
X113530252Y-97594500D01*
X113504005Y-97599721D01*
X113481334Y-97604230D01*
X113481332Y-97604231D01*
X113471769Y-97606133D01*
X113405448Y-97650448D01*
X113361133Y-97716769D01*
X113359231Y-97726332D01*
X113359230Y-97726334D01*
X113357413Y-97735471D01*
X113349500Y-97775252D01*
X113349500Y-98414748D01*
X113353418Y-98434444D01*
X113358705Y-98461023D01*
X113361133Y-98473231D01*
X113405448Y-98539552D01*
X113471769Y-98583867D01*
X113481332Y-98585769D01*
X113481334Y-98585770D01*
X113493914Y-98588272D01*
X113530252Y-98595500D01*
X115519748Y-98595500D01*
X115556086Y-98588272D01*
X115568666Y-98585770D01*
X115568668Y-98585769D01*
X115578231Y-98583867D01*
X115644552Y-98539552D01*
X115688867Y-98473231D01*
X115690769Y-98463671D01*
X115693245Y-98457693D01*
X115732982Y-98411168D01*
X115780994Y-98396650D01*
X115804631Y-98395763D01*
X115809762Y-98395570D01*
X115813474Y-98395500D01*
X115832948Y-98395500D01*
X115833384Y-98395419D01*
X115891871Y-98408627D01*
X115932233Y-98454612D01*
X115937857Y-98515538D01*
X115911293Y-98563734D01*
X115632883Y-98842144D01*
X115578366Y-98869921D01*
X115543563Y-98869237D01*
X115524517Y-98865448D01*
X115524511Y-98865447D01*
X115519748Y-98864500D01*
X113530252Y-98864500D01*
X113506438Y-98869237D01*
X113481334Y-98874230D01*
X113481332Y-98874231D01*
X113471769Y-98876133D01*
X113405448Y-98920448D01*
X113404980Y-98921148D01*
X113355476Y-98946371D01*
X113295044Y-98936800D01*
X113269985Y-98918593D01*
X113157169Y-98805776D01*
X113029496Y-98678103D01*
X113001719Y-98623587D01*
X113000500Y-98608100D01*
X113000500Y-97846903D01*
X113019407Y-97788712D01*
X113030625Y-97777938D01*
X113029550Y-97776863D01*
X113036442Y-97769971D01*
X113044552Y-97764552D01*
X113088867Y-97698231D01*
X113091400Y-97685500D01*
X113097860Y-97653020D01*
X113100500Y-97639748D01*
X113100500Y-97100252D01*
X113093534Y-97065231D01*
X113090770Y-97051334D01*
X113090769Y-97051332D01*
X113088867Y-97041769D01*
X113044552Y-96975448D01*
X113036442Y-96970029D01*
X113036057Y-96969644D01*
X113008280Y-96915127D01*
X113017851Y-96854695D01*
X113036057Y-96829636D01*
X113049611Y-96816082D01*
X113082979Y-96766142D01*
X113090298Y-96748474D01*
X113099052Y-96704462D01*
X113100000Y-96694840D01*
X113100000Y-96645680D01*
X113095878Y-96632995D01*
X113091757Y-96630000D01*
X112499000Y-96630000D01*
X112440809Y-96611093D01*
X112404845Y-96561593D01*
X112400000Y-96531000D01*
X112400000Y-96214320D01*
X112800000Y-96214320D01*
X112804122Y-96227005D01*
X112808243Y-96230000D01*
X113084320Y-96230000D01*
X113097005Y-96225878D01*
X113100000Y-96221757D01*
X113100000Y-96165160D01*
X113099052Y-96155538D01*
X113090298Y-96111526D01*
X113082979Y-96093858D01*
X113049611Y-96043918D01*
X113036082Y-96030389D01*
X112986142Y-95997021D01*
X112968474Y-95989702D01*
X112924462Y-95980948D01*
X112914840Y-95980000D01*
X112815680Y-95980000D01*
X112802995Y-95984122D01*
X112800000Y-95988243D01*
X112800000Y-96214320D01*
X112400000Y-96214320D01*
X112400000Y-95995680D01*
X112395878Y-95982995D01*
X112391757Y-95980000D01*
X112285160Y-95980000D01*
X112275536Y-95980948D01*
X112268813Y-95982285D01*
X112208052Y-95975093D01*
X112163122Y-95933560D01*
X112150500Y-95885187D01*
X112150500Y-95869840D01*
X113350000Y-95869840D01*
X113350948Y-95879462D01*
X113359702Y-95923474D01*
X113367021Y-95941142D01*
X113400389Y-95991082D01*
X113413918Y-96004611D01*
X113463858Y-96037979D01*
X113481526Y-96045298D01*
X113525538Y-96054052D01*
X113535160Y-96055000D01*
X114309320Y-96055000D01*
X114322005Y-96050878D01*
X114325000Y-96046757D01*
X114325000Y-96039320D01*
X114725000Y-96039320D01*
X114729122Y-96052005D01*
X114733243Y-96055000D01*
X115514840Y-96055000D01*
X115524462Y-96054052D01*
X115568474Y-96045298D01*
X115586142Y-96037979D01*
X115636082Y-96004611D01*
X115649611Y-95991082D01*
X115682979Y-95941142D01*
X115690298Y-95923474D01*
X115699052Y-95879462D01*
X115700000Y-95869840D01*
X115700000Y-95770680D01*
X115695878Y-95757995D01*
X115691757Y-95755000D01*
X114740680Y-95755000D01*
X114727995Y-95759122D01*
X114725000Y-95763243D01*
X114725000Y-96039320D01*
X114325000Y-96039320D01*
X114325000Y-95770680D01*
X114320878Y-95757995D01*
X114316757Y-95755000D01*
X113365680Y-95755000D01*
X113352995Y-95759122D01*
X113350000Y-95763243D01*
X113350000Y-95869840D01*
X112150500Y-95869840D01*
X112150500Y-95541198D01*
X112169407Y-95483007D01*
X112218907Y-95447043D01*
X112234863Y-95443286D01*
X112383882Y-95421015D01*
X112423836Y-95415044D01*
X112423837Y-95415044D01*
X112427676Y-95414470D01*
X112431376Y-95413303D01*
X112431382Y-95413302D01*
X112481373Y-95397540D01*
X112522473Y-95384581D01*
X112585926Y-95339320D01*
X113350000Y-95339320D01*
X113354122Y-95352005D01*
X113358243Y-95355000D01*
X114309320Y-95355000D01*
X114322005Y-95350878D01*
X114325000Y-95346757D01*
X114325000Y-95339320D01*
X114725000Y-95339320D01*
X114729122Y-95352005D01*
X114733243Y-95355000D01*
X115684320Y-95355000D01*
X115697005Y-95350878D01*
X115700000Y-95346757D01*
X115700000Y-95240160D01*
X115699052Y-95230538D01*
X115690298Y-95186526D01*
X115682979Y-95168858D01*
X115649611Y-95118918D01*
X115636082Y-95105389D01*
X115586142Y-95072021D01*
X115568474Y-95064702D01*
X115524462Y-95055948D01*
X115514840Y-95055000D01*
X114740680Y-95055000D01*
X114727995Y-95059122D01*
X114725000Y-95063243D01*
X114725000Y-95339320D01*
X114325000Y-95339320D01*
X114325000Y-95070680D01*
X114320878Y-95057995D01*
X114316757Y-95055000D01*
X113535160Y-95055000D01*
X113525538Y-95055948D01*
X113481526Y-95064702D01*
X113463858Y-95072021D01*
X113413918Y-95105389D01*
X113400389Y-95118918D01*
X113367021Y-95168858D01*
X113359702Y-95186526D01*
X113350948Y-95230538D01*
X113350000Y-95240160D01*
X113350000Y-95339320D01*
X112585926Y-95339320D01*
X112630593Y-95307459D01*
X112648813Y-95282837D01*
X112668007Y-95256897D01*
X112709588Y-95200704D01*
X112751728Y-95074760D01*
X112751829Y-95063243D01*
X112752561Y-94979255D01*
X112752595Y-94975366D01*
X112749000Y-94951307D01*
X112667664Y-94407076D01*
X112667664Y-94407075D01*
X112667089Y-94403229D01*
X112637200Y-94308431D01*
X112560078Y-94200312D01*
X112536168Y-94182619D01*
X112493888Y-94151334D01*
X112453323Y-94121317D01*
X112445935Y-94118845D01*
X112445933Y-94118844D01*
X112414891Y-94108458D01*
X112399738Y-94103388D01*
X112350554Y-94066994D01*
X112332155Y-94008641D01*
X112351569Y-93950617D01*
X112401381Y-93915086D01*
X112416828Y-93911546D01*
X114550997Y-93599500D01*
X117006047Y-93240537D01*
X117066360Y-93250826D01*
X117109107Y-93294602D01*
X117117959Y-93355144D01*
X117111834Y-93376380D01*
X117109702Y-93381528D01*
X117100948Y-93425538D01*
X117100000Y-93435160D01*
X117100000Y-93884320D01*
X117104122Y-93897005D01*
X117108243Y-93900000D01*
X118184320Y-93900000D01*
X118197005Y-93895878D01*
X118200000Y-93891757D01*
X118200000Y-93435160D01*
X118199052Y-93425538D01*
X118190298Y-93381526D01*
X118182979Y-93363858D01*
X118149611Y-93313918D01*
X118136082Y-93300389D01*
X118078036Y-93261604D01*
X118079201Y-93259860D01*
X118042418Y-93228446D01*
X118028132Y-93168952D01*
X118051544Y-93112423D01*
X118103712Y-93080452D01*
X118112504Y-93078758D01*
X123964004Y-92223186D01*
X124457418Y-92151042D01*
X124471740Y-92150000D01*
X137446040Y-92150000D01*
X137468227Y-92152518D01*
G37*
G04 #@! TD.AperFunction*
G04 #@! TA.AperFunction,Conductor*
G36*
X110018027Y-94281392D02*
G01*
X110060774Y-94325168D01*
X110069626Y-94385710D01*
X110041202Y-94439892D01*
X110029526Y-94449658D01*
X110019174Y-94457042D01*
X109969407Y-94492541D01*
X109964774Y-94498802D01*
X109964773Y-94498803D01*
X109907807Y-94575788D01*
X109857995Y-94611318D01*
X109828225Y-94615900D01*
X109465534Y-94615900D01*
X109458127Y-94618307D01*
X109458125Y-94618307D01*
X109442588Y-94623355D01*
X109427484Y-94626981D01*
X109411359Y-94629535D01*
X109411358Y-94629535D01*
X109403663Y-94630754D01*
X109382170Y-94641705D01*
X109367826Y-94647647D01*
X109344878Y-94655103D01*
X109338577Y-94659681D01*
X109338573Y-94659683D01*
X109325354Y-94669287D01*
X109312113Y-94677401D01*
X109290625Y-94688350D01*
X109268062Y-94710913D01*
X109268058Y-94710916D01*
X109266985Y-94711989D01*
X109266825Y-94712069D01*
X109263254Y-94715410D01*
X109263246Y-94715417D01*
X109262309Y-94714346D01*
X109211614Y-94739898D01*
X108978882Y-94774680D01*
X108978879Y-94774681D01*
X108974073Y-94775399D01*
X108969499Y-94777041D01*
X108969496Y-94777042D01*
X108952785Y-94783042D01*
X108917952Y-94795548D01*
X108910735Y-94802104D01*
X108910733Y-94802105D01*
X108892713Y-94818474D01*
X108858910Y-94849180D01*
X108854749Y-94858001D01*
X108854427Y-94858437D01*
X108804616Y-94893968D01*
X108743433Y-94893436D01*
X108715957Y-94879133D01*
X108700550Y-94867733D01*
X108646225Y-94842111D01*
X108627667Y-94837484D01*
X108582856Y-94835332D01*
X108573182Y-94835817D01*
X108524567Y-94843083D01*
X108512632Y-94849033D01*
X108510279Y-94853553D01*
X108608571Y-95511232D01*
X108654554Y-95818910D01*
X108660504Y-95830845D01*
X108665024Y-95833198D01*
X108720994Y-95824833D01*
X108730380Y-95822471D01*
X108772607Y-95807310D01*
X108789004Y-95797458D01*
X108833465Y-95757072D01*
X108844864Y-95741668D01*
X108894676Y-95706138D01*
X108955859Y-95706672D01*
X108983333Y-95720974D01*
X108983770Y-95721297D01*
X108990328Y-95728517D01*
X108999147Y-95732676D01*
X108999149Y-95732678D01*
X109053649Y-95758383D01*
X109053651Y-95758384D01*
X109062470Y-95762543D01*
X109072211Y-95763011D01*
X109079852Y-95763378D01*
X109122031Y-95765404D01*
X109126841Y-95764685D01*
X109126843Y-95764685D01*
X109650792Y-95686380D01*
X109650795Y-95686379D01*
X109655601Y-95685661D01*
X109660175Y-95684019D01*
X109660178Y-95684018D01*
X109687947Y-95674048D01*
X109711722Y-95665512D01*
X109718939Y-95658956D01*
X109718941Y-95658955D01*
X109763548Y-95618435D01*
X109763548Y-95618434D01*
X109770764Y-95611880D01*
X109804790Y-95539738D01*
X109805159Y-95539912D01*
X109833631Y-95494344D01*
X109890361Y-95471422D01*
X109949729Y-95486223D01*
X109977865Y-95512689D01*
X110039922Y-95599688D01*
X110046183Y-95604321D01*
X110046184Y-95604322D01*
X110080183Y-95629480D01*
X110146677Y-95678683D01*
X110272621Y-95720823D01*
X110372014Y-95721691D01*
X110375854Y-95721117D01*
X110375856Y-95721117D01*
X110866135Y-95647844D01*
X110866134Y-95647844D01*
X110869976Y-95647270D01*
X110873676Y-95646103D01*
X110873682Y-95646102D01*
X110925020Y-95629915D01*
X110964773Y-95617381D01*
X111072893Y-95540259D01*
X111087286Y-95520809D01*
X111102948Y-95499642D01*
X111151888Y-95433504D01*
X111154360Y-95426116D01*
X111154362Y-95426112D01*
X111156616Y-95419374D01*
X111193010Y-95370189D01*
X111251363Y-95351790D01*
X111309387Y-95371204D01*
X111344918Y-95421015D01*
X111349500Y-95450786D01*
X111349500Y-95885187D01*
X111330593Y-95943378D01*
X111281093Y-95979342D01*
X111231187Y-95982285D01*
X111224464Y-95980948D01*
X111214840Y-95980000D01*
X111115680Y-95980000D01*
X111102995Y-95984122D01*
X111100000Y-95988243D01*
X111100000Y-96531000D01*
X111081093Y-96589191D01*
X111031593Y-96625155D01*
X111001000Y-96630000D01*
X110415680Y-96630000D01*
X110402995Y-96634122D01*
X110400000Y-96638243D01*
X110400000Y-96694840D01*
X110400948Y-96704462D01*
X110409702Y-96748474D01*
X110417021Y-96766142D01*
X110450389Y-96816082D01*
X110463943Y-96829636D01*
X110491720Y-96884153D01*
X110482149Y-96944585D01*
X110463943Y-96969644D01*
X110463558Y-96970029D01*
X110455448Y-96975448D01*
X110411133Y-97041769D01*
X110409231Y-97051332D01*
X110409230Y-97051334D01*
X110406466Y-97065231D01*
X110399500Y-97100252D01*
X110399500Y-97639748D01*
X110402140Y-97653020D01*
X110408601Y-97685500D01*
X110411133Y-97698231D01*
X110455448Y-97764552D01*
X110463558Y-97769971D01*
X110470450Y-97776863D01*
X110467494Y-97779819D01*
X110493345Y-97812540D01*
X110499500Y-97846903D01*
X110499500Y-97895615D01*
X110480593Y-97953806D01*
X110431093Y-97989770D01*
X110369907Y-97989770D01*
X110362612Y-97987078D01*
X110361339Y-97986551D01*
X110353231Y-97981133D01*
X110294748Y-97969500D01*
X109605252Y-97969500D01*
X109579753Y-97974572D01*
X109556334Y-97979230D01*
X109556332Y-97979231D01*
X109546769Y-97981133D01*
X109480448Y-98025448D01*
X109436133Y-98091769D01*
X109424500Y-98150252D01*
X109424500Y-98830849D01*
X109405593Y-98889040D01*
X109356093Y-98925004D01*
X109324896Y-98929847D01*
X109198895Y-98929077D01*
X109140821Y-98909815D01*
X109105160Y-98860096D01*
X109100500Y-98830079D01*
X109100500Y-98350252D01*
X109088867Y-98291769D01*
X109044552Y-98225448D01*
X109036442Y-98220029D01*
X109036057Y-98219644D01*
X109008280Y-98165127D01*
X109017851Y-98104695D01*
X109036057Y-98079636D01*
X109049611Y-98066082D01*
X109082979Y-98016142D01*
X109090298Y-97998474D01*
X109099052Y-97954462D01*
X109100000Y-97944840D01*
X109100000Y-97895680D01*
X109095878Y-97882995D01*
X109091757Y-97880000D01*
X108499000Y-97880000D01*
X108440809Y-97861093D01*
X108404845Y-97811593D01*
X108400000Y-97781000D01*
X108400000Y-97464320D01*
X108800000Y-97464320D01*
X108804122Y-97477005D01*
X108808243Y-97480000D01*
X109084320Y-97480000D01*
X109097005Y-97475878D01*
X109100000Y-97471757D01*
X109100000Y-97415160D01*
X109099052Y-97405538D01*
X109090298Y-97361526D01*
X109082979Y-97343858D01*
X109049611Y-97293918D01*
X109036082Y-97280389D01*
X108986142Y-97247021D01*
X108968474Y-97239702D01*
X108924462Y-97230948D01*
X108914840Y-97230000D01*
X108815680Y-97230000D01*
X108802995Y-97234122D01*
X108800000Y-97238243D01*
X108800000Y-97464320D01*
X108400000Y-97464320D01*
X108400000Y-97245680D01*
X108395878Y-97232995D01*
X108391757Y-97230000D01*
X108285160Y-97230000D01*
X108275538Y-97230948D01*
X108231526Y-97239702D01*
X108213858Y-97247021D01*
X108163918Y-97280389D01*
X108150389Y-97293918D01*
X108117020Y-97343858D01*
X108115964Y-97346408D01*
X108112989Y-97349892D01*
X108111604Y-97351964D01*
X108111359Y-97351800D01*
X108076227Y-97392934D01*
X108016732Y-97407217D01*
X107960204Y-97383802D01*
X107928235Y-97331632D01*
X107925500Y-97308522D01*
X107925500Y-97280252D01*
X107913867Y-97221769D01*
X107916944Y-97221157D01*
X107913551Y-97178067D01*
X107913396Y-97178036D01*
X107913505Y-97177487D01*
X107913406Y-97176229D01*
X107914307Y-97173456D01*
X107924052Y-97124462D01*
X107925000Y-97114840D01*
X107925000Y-97015680D01*
X107920878Y-97002995D01*
X107916757Y-97000000D01*
X106198503Y-97000000D01*
X106140312Y-96981093D01*
X106107039Y-96938886D01*
X106060181Y-96825760D01*
X106060179Y-96825756D01*
X106057698Y-96819767D01*
X106053752Y-96814625D01*
X106053750Y-96814621D01*
X106022321Y-96773664D01*
X106011275Y-96759267D01*
X105990851Y-96701592D01*
X105998132Y-96677011D01*
X105945407Y-96677011D01*
X105915732Y-96661398D01*
X105850379Y-96611250D01*
X105850375Y-96611248D01*
X105845233Y-96607302D01*
X105839244Y-96604821D01*
X105839240Y-96604819D01*
X105756299Y-96570464D01*
X105709773Y-96530727D01*
X105695490Y-96471232D01*
X105718905Y-96414704D01*
X105771074Y-96382735D01*
X105794185Y-96380000D01*
X105976128Y-96380000D01*
X106034319Y-96398907D01*
X106070283Y-96448407D01*
X106073743Y-96480302D01*
X106075000Y-96480302D01*
X106075000Y-96582856D01*
X106068224Y-96603711D01*
X106089817Y-96600000D01*
X106784320Y-96600000D01*
X106797005Y-96595878D01*
X106800000Y-96591757D01*
X106800000Y-96359000D01*
X106818907Y-96300809D01*
X106868407Y-96264845D01*
X106872095Y-96264261D01*
X107170562Y-96264261D01*
X107195923Y-96301163D01*
X107200000Y-96329280D01*
X107200000Y-96584320D01*
X107204122Y-96597005D01*
X107208243Y-96600000D01*
X107909320Y-96600000D01*
X107922005Y-96595878D01*
X107925000Y-96591757D01*
X107925000Y-96485160D01*
X107924052Y-96475538D01*
X107915298Y-96431526D01*
X107907979Y-96413858D01*
X107874611Y-96363918D01*
X107861082Y-96350389D01*
X107811142Y-96317021D01*
X107793474Y-96309702D01*
X107749462Y-96300948D01*
X107739840Y-96300000D01*
X107240982Y-96300000D01*
X107182791Y-96281093D01*
X107170562Y-96264261D01*
X106872095Y-96264261D01*
X106899000Y-96260000D01*
X107012000Y-96260000D01*
X107039391Y-96251495D01*
X107044926Y-96247691D01*
X107103592Y-96230314D01*
X107160553Y-96250485D01*
X107146827Y-96231593D01*
X107146827Y-96214320D01*
X110400000Y-96214320D01*
X110404122Y-96227005D01*
X110408243Y-96230000D01*
X110684320Y-96230000D01*
X110697005Y-96225878D01*
X110700000Y-96221757D01*
X110700000Y-95995680D01*
X110695878Y-95982995D01*
X110691757Y-95980000D01*
X110585160Y-95980000D01*
X110575538Y-95980948D01*
X110531526Y-95989702D01*
X110513858Y-95997021D01*
X110463918Y-96030389D01*
X110450389Y-96043918D01*
X110417021Y-96093858D01*
X110409702Y-96111526D01*
X110400948Y-96155538D01*
X110400000Y-96165160D01*
X110400000Y-96214320D01*
X107146827Y-96214320D01*
X107146827Y-96170407D01*
X107167065Y-96135142D01*
X107210058Y-96086888D01*
X107216817Y-96077163D01*
X107290512Y-95937976D01*
X107294761Y-95926907D01*
X107302723Y-95895209D01*
X107301868Y-95882671D01*
X107292586Y-95880000D01*
X104878770Y-95880000D01*
X104866656Y-95883936D01*
X104866287Y-95893317D01*
X104872690Y-95919987D01*
X104876822Y-95931096D01*
X104949053Y-96071042D01*
X104955716Y-96080846D01*
X105059248Y-96199527D01*
X105068048Y-96207451D01*
X105196906Y-96298014D01*
X105207344Y-96303610D01*
X105354078Y-96360820D01*
X105365556Y-96363767D01*
X105368905Y-96364208D01*
X105370808Y-96365116D01*
X105371339Y-96365252D01*
X105371312Y-96365356D01*
X105424131Y-96390548D01*
X105453327Y-96444318D01*
X105445342Y-96504980D01*
X105403225Y-96549363D01*
X105393871Y-96553825D01*
X105270760Y-96604819D01*
X105270756Y-96604821D01*
X105264767Y-96607302D01*
X105259625Y-96611248D01*
X105259621Y-96611250D01*
X105165532Y-96683448D01*
X105144549Y-96699549D01*
X105140598Y-96704698D01*
X105056250Y-96814621D01*
X105056248Y-96814625D01*
X105052302Y-96819767D01*
X105049821Y-96825756D01*
X105049819Y-96825760D01*
X104998155Y-96950488D01*
X104994313Y-96959764D01*
X104974534Y-97110000D01*
X104994313Y-97260236D01*
X104996797Y-97266233D01*
X105049819Y-97394240D01*
X105049821Y-97394244D01*
X105052302Y-97400233D01*
X105056248Y-97405375D01*
X105056250Y-97405379D01*
X105115621Y-97482752D01*
X105144549Y-97520451D01*
X105149698Y-97524402D01*
X105259621Y-97608750D01*
X105259625Y-97608752D01*
X105264767Y-97612698D01*
X105270756Y-97615179D01*
X105270760Y-97615181D01*
X105293829Y-97624736D01*
X105340355Y-97664473D01*
X105354638Y-97723968D01*
X105331223Y-97780496D01*
X105283149Y-97811389D01*
X105276118Y-97813398D01*
X105230309Y-97826490D01*
X105230307Y-97826491D01*
X105223529Y-97828428D01*
X105102280Y-97904930D01*
X105097613Y-97910214D01*
X105097611Y-97910216D01*
X105012044Y-98007103D01*
X105012042Y-98007105D01*
X105007377Y-98012388D01*
X105004381Y-98018770D01*
X105004380Y-98018771D01*
X104997417Y-98033601D01*
X104946447Y-98142163D01*
X104945362Y-98149134D01*
X104945361Y-98149136D01*
X104936112Y-98208541D01*
X104908295Y-98263314D01*
X104856816Y-98314793D01*
X104852732Y-98318651D01*
X104839430Y-98330523D01*
X104815999Y-98351434D01*
X104812074Y-98358163D01*
X104812072Y-98358166D01*
X104796674Y-98384568D01*
X104791249Y-98392881D01*
X104789346Y-98395500D01*
X104768704Y-98423912D01*
X104766298Y-98431318D01*
X104765668Y-98433256D01*
X104757033Y-98452535D01*
X104752083Y-98461023D01*
X104743938Y-98498531D01*
X104741359Y-98508071D01*
X104729500Y-98544569D01*
X104729500Y-98593817D01*
X104729340Y-98599445D01*
X104729132Y-98603098D01*
X104704498Y-98663002D01*
X104687377Y-98682388D01*
X104626447Y-98812163D01*
X104625362Y-98819132D01*
X104625361Y-98819135D01*
X104614367Y-98889748D01*
X104604391Y-98953823D01*
X104605306Y-98960820D01*
X104605306Y-98960821D01*
X104620644Y-99078116D01*
X104622980Y-99095979D01*
X104625820Y-99102433D01*
X104625821Y-99102436D01*
X104673844Y-99211575D01*
X104680720Y-99227203D01*
X104699671Y-99249748D01*
X104706283Y-99257614D01*
X104729253Y-99314324D01*
X104729500Y-99321316D01*
X104729500Y-101401030D01*
X104736955Y-101423972D01*
X104740581Y-101439078D01*
X104742232Y-101449500D01*
X104744354Y-101462901D01*
X104755305Y-101484394D01*
X104761248Y-101498740D01*
X104768704Y-101521687D01*
X104781327Y-101539060D01*
X104782883Y-101541202D01*
X104790998Y-101554443D01*
X104801950Y-101575939D01*
X104824513Y-101598502D01*
X104824516Y-101598506D01*
X105406457Y-102180447D01*
X105434234Y-102234964D01*
X105424663Y-102295396D01*
X105381398Y-102338661D01*
X105374339Y-102341915D01*
X105270760Y-102384819D01*
X105270756Y-102384821D01*
X105264767Y-102387302D01*
X105259625Y-102391248D01*
X105259621Y-102391250D01*
X105186961Y-102447005D01*
X105144549Y-102479549D01*
X105140598Y-102484698D01*
X105056250Y-102594621D01*
X105056248Y-102594625D01*
X105052302Y-102599767D01*
X105049821Y-102605756D01*
X105049819Y-102605760D01*
X104996797Y-102733767D01*
X104994313Y-102739764D01*
X104974534Y-102890000D01*
X104994313Y-103040236D01*
X104996797Y-103046233D01*
X105049819Y-103174240D01*
X105049821Y-103174244D01*
X105052302Y-103180233D01*
X105056248Y-103185375D01*
X105056250Y-103185379D01*
X105130976Y-103282763D01*
X105144549Y-103300451D01*
X105149698Y-103304402D01*
X105259621Y-103388750D01*
X105259625Y-103388752D01*
X105264767Y-103392698D01*
X105270756Y-103395179D01*
X105270760Y-103395181D01*
X105392395Y-103445564D01*
X105438921Y-103485301D01*
X105453204Y-103544796D01*
X105429789Y-103601324D01*
X105378121Y-103633171D01*
X105361218Y-103637322D01*
X105213892Y-103692993D01*
X105203394Y-103698482D01*
X105073599Y-103787686D01*
X105064712Y-103795522D01*
X104959942Y-103913113D01*
X104953183Y-103922837D01*
X104879488Y-104062024D01*
X104875239Y-104073093D01*
X104867277Y-104104791D01*
X104868132Y-104117329D01*
X104877414Y-104120000D01*
X107291230Y-104120000D01*
X107303344Y-104116064D01*
X107303713Y-104106683D01*
X107297310Y-104080013D01*
X107293178Y-104068904D01*
X107220947Y-103928958D01*
X107214284Y-103919154D01*
X107166240Y-103864080D01*
X107142235Y-103807801D01*
X107155895Y-103748159D01*
X107202002Y-103707938D01*
X107240843Y-103700000D01*
X107739840Y-103700000D01*
X107749462Y-103699052D01*
X107793474Y-103690298D01*
X107820151Y-103679248D01*
X107821401Y-103682267D01*
X107864379Y-103670142D01*
X107921784Y-103691315D01*
X107955781Y-103742186D01*
X107959500Y-103769066D01*
X107959500Y-104029748D01*
X107962374Y-104044195D01*
X107968767Y-104076334D01*
X107971133Y-104088231D01*
X108015448Y-104154552D01*
X108023558Y-104159971D01*
X108023943Y-104160356D01*
X108051720Y-104214873D01*
X108042149Y-104275305D01*
X108023943Y-104300364D01*
X108010389Y-104313918D01*
X107977021Y-104363858D01*
X107969702Y-104381526D01*
X107960948Y-104425538D01*
X107960000Y-104435160D01*
X107960000Y-104484320D01*
X107964122Y-104497005D01*
X107968243Y-104500000D01*
X108944320Y-104500000D01*
X108957005Y-104495878D01*
X108960000Y-104491757D01*
X108960000Y-104435160D01*
X108959052Y-104425538D01*
X108950298Y-104381526D01*
X108942979Y-104363858D01*
X108909611Y-104313918D01*
X108896057Y-104300364D01*
X108868280Y-104245847D01*
X108877851Y-104185415D01*
X108896057Y-104160356D01*
X108896442Y-104159971D01*
X108904552Y-104154552D01*
X108937998Y-104104497D01*
X108986049Y-104066619D01*
X109020313Y-104060500D01*
X109090500Y-104060500D01*
X109148691Y-104079407D01*
X109184655Y-104128907D01*
X109189500Y-104159500D01*
X109189500Y-104969748D01*
X109190448Y-104974512D01*
X109198284Y-105013907D01*
X109201133Y-105028231D01*
X109245448Y-105094552D01*
X109311769Y-105138867D01*
X109321332Y-105140769D01*
X109321334Y-105140770D01*
X109344005Y-105145279D01*
X109370252Y-105150500D01*
X110384521Y-105150500D01*
X110442712Y-105169407D01*
X110454525Y-105179496D01*
X110729680Y-105454651D01*
X110732380Y-105457780D01*
X110734575Y-105462269D01*
X110741278Y-105468487D01*
X110770822Y-105495893D01*
X110773498Y-105498469D01*
X110787277Y-105512248D01*
X110790987Y-105514793D01*
X110794900Y-105518229D01*
X110816646Y-105538401D01*
X110825134Y-105541788D01*
X110825135Y-105541788D01*
X110827336Y-105542666D01*
X110846652Y-105552980D01*
X110848607Y-105554321D01*
X110848610Y-105554322D01*
X110856146Y-105559492D01*
X110882058Y-105565641D01*
X110895884Y-105570014D01*
X110914132Y-105577294D01*
X110914134Y-105577294D01*
X110920622Y-105579883D01*
X110926915Y-105580500D01*
X110933084Y-105580500D01*
X110955943Y-105583175D01*
X110956173Y-105583230D01*
X110956175Y-105583230D01*
X110965066Y-105585340D01*
X110993988Y-105581404D01*
X111007337Y-105580500D01*
X113636492Y-105580500D01*
X113640617Y-105580803D01*
X113645342Y-105582425D01*
X113694761Y-105580570D01*
X113698474Y-105580500D01*
X113717948Y-105580500D01*
X113722378Y-105579675D01*
X113727571Y-105579339D01*
X113743602Y-105578737D01*
X113748075Y-105578569D01*
X113757208Y-105578226D01*
X113765603Y-105574619D01*
X113774524Y-105572609D01*
X113774826Y-105573951D01*
X113826002Y-105569248D01*
X113862346Y-105585715D01*
X113868244Y-105590000D01*
X114094320Y-105590000D01*
X114107005Y-105585878D01*
X114110000Y-105581757D01*
X114110000Y-105325978D01*
X114128907Y-105267787D01*
X114138997Y-105255974D01*
X114197030Y-105197942D01*
X114420476Y-104974496D01*
X114474992Y-104946719D01*
X114490479Y-104945500D01*
X115340521Y-104945500D01*
X115398712Y-104964407D01*
X115434676Y-105013907D01*
X115434676Y-105075093D01*
X115410525Y-105114504D01*
X115264525Y-105260504D01*
X115210008Y-105288281D01*
X115194521Y-105289500D01*
X114980252Y-105289500D01*
X114957016Y-105294122D01*
X114931334Y-105299230D01*
X114931332Y-105299231D01*
X114921769Y-105301133D01*
X114855448Y-105345448D01*
X114850029Y-105353558D01*
X114849644Y-105353943D01*
X114795127Y-105381720D01*
X114734695Y-105372149D01*
X114709636Y-105353943D01*
X114696082Y-105340389D01*
X114646142Y-105307021D01*
X114628474Y-105299702D01*
X114584462Y-105290948D01*
X114574840Y-105290000D01*
X114525680Y-105290000D01*
X114512995Y-105294122D01*
X114510000Y-105298243D01*
X114510000Y-105891000D01*
X114491093Y-105949191D01*
X114441593Y-105985155D01*
X114411000Y-105990000D01*
X113875680Y-105990000D01*
X113862995Y-105994122D01*
X113860000Y-105998243D01*
X113860000Y-106104840D01*
X113860948Y-106114464D01*
X113871275Y-106166384D01*
X113864083Y-106227145D01*
X113822550Y-106272074D01*
X113759909Y-106283663D01*
X106435889Y-105216966D01*
X106381031Y-105189870D01*
X106352576Y-105135703D01*
X106361395Y-105075157D01*
X106404117Y-105031357D01*
X106450157Y-105020000D01*
X106674495Y-105020000D01*
X106680451Y-105019641D01*
X106797273Y-105005504D01*
X106808783Y-105002677D01*
X106908915Y-104964840D01*
X107960000Y-104964840D01*
X107960948Y-104974462D01*
X107969702Y-105018474D01*
X107977021Y-105036142D01*
X108010389Y-105086082D01*
X108023918Y-105099611D01*
X108073858Y-105132979D01*
X108091526Y-105140298D01*
X108135538Y-105149052D01*
X108145160Y-105150000D01*
X108244320Y-105150000D01*
X108257005Y-105145878D01*
X108260000Y-105141757D01*
X108260000Y-105134320D01*
X108660000Y-105134320D01*
X108664122Y-105147005D01*
X108668243Y-105150000D01*
X108774840Y-105150000D01*
X108784462Y-105149052D01*
X108828474Y-105140298D01*
X108846142Y-105132979D01*
X108896082Y-105099611D01*
X108909611Y-105086082D01*
X108942979Y-105036142D01*
X108950298Y-105018474D01*
X108959052Y-104974462D01*
X108960000Y-104964840D01*
X108960000Y-104915680D01*
X108955878Y-104902995D01*
X108951757Y-104900000D01*
X108675680Y-104900000D01*
X108662995Y-104904122D01*
X108660000Y-104908243D01*
X108660000Y-105134320D01*
X108260000Y-105134320D01*
X108260000Y-104915680D01*
X108255878Y-104902995D01*
X108251757Y-104900000D01*
X107975680Y-104900000D01*
X107962995Y-104904122D01*
X107960000Y-104908243D01*
X107960000Y-104964840D01*
X106908915Y-104964840D01*
X106956108Y-104947007D01*
X106966606Y-104941518D01*
X107096401Y-104852314D01*
X107105288Y-104844478D01*
X107210058Y-104726887D01*
X107216817Y-104717163D01*
X107290512Y-104577976D01*
X107294761Y-104566907D01*
X107302723Y-104535209D01*
X107301868Y-104522671D01*
X107292586Y-104520000D01*
X104878770Y-104520000D01*
X104866656Y-104523936D01*
X104866287Y-104533317D01*
X104872690Y-104559987D01*
X104876822Y-104571096D01*
X104949053Y-104711042D01*
X104955716Y-104720846D01*
X105059248Y-104839527D01*
X105068048Y-104847451D01*
X105100136Y-104870003D01*
X105136873Y-104918932D01*
X105137833Y-104980110D01*
X105102651Y-105030169D01*
X105043210Y-105050000D01*
X102697598Y-105050000D01*
X102639407Y-105031093D01*
X102603443Y-104981593D01*
X102603443Y-104920407D01*
X102641524Y-104869412D01*
X102666395Y-104852318D01*
X102675288Y-104844478D01*
X102780058Y-104726887D01*
X102786817Y-104717163D01*
X102860512Y-104577976D01*
X102864761Y-104566907D01*
X102872723Y-104535209D01*
X102871868Y-104522671D01*
X102862586Y-104520000D01*
X101804000Y-104520000D01*
X101745809Y-104501093D01*
X101709845Y-104451593D01*
X101705000Y-104421000D01*
X101705000Y-104104320D01*
X102105000Y-104104320D01*
X102109122Y-104117005D01*
X102113243Y-104120000D01*
X102861230Y-104120000D01*
X102873344Y-104116064D01*
X102873713Y-104106683D01*
X102867310Y-104080013D01*
X102863178Y-104068904D01*
X102790947Y-103928958D01*
X102784284Y-103919154D01*
X102680752Y-103800473D01*
X102671952Y-103792549D01*
X102543094Y-103701986D01*
X102532656Y-103696390D01*
X102385922Y-103639180D01*
X102374445Y-103636233D01*
X102254352Y-103620423D01*
X102247898Y-103620000D01*
X102120680Y-103620000D01*
X102107995Y-103624122D01*
X102105000Y-103628243D01*
X102105000Y-104104320D01*
X101705000Y-104104320D01*
X101705000Y-103635680D01*
X101700878Y-103622995D01*
X101696757Y-103620000D01*
X101565505Y-103620000D01*
X101559549Y-103620359D01*
X101442727Y-103634496D01*
X101431217Y-103637323D01*
X101283892Y-103692993D01*
X101273394Y-103698482D01*
X101143599Y-103787686D01*
X101134712Y-103795522D01*
X101047917Y-103892938D01*
X100995090Y-103923808D01*
X100934207Y-103917731D01*
X100888524Y-103877028D01*
X100875000Y-103827080D01*
X100875000Y-96172162D01*
X100893907Y-96113971D01*
X100943407Y-96078007D01*
X101004593Y-96078007D01*
X101048603Y-96107082D01*
X101129248Y-96199527D01*
X101138048Y-96207451D01*
X101266906Y-96298014D01*
X101277344Y-96303610D01*
X101424078Y-96360820D01*
X101435555Y-96363767D01*
X101555648Y-96379577D01*
X101562102Y-96380000D01*
X101689320Y-96380000D01*
X101702005Y-96375878D01*
X101705000Y-96371757D01*
X101705000Y-96364320D01*
X102105000Y-96364320D01*
X102109122Y-96377005D01*
X102113243Y-96380000D01*
X102244495Y-96380000D01*
X102250451Y-96379641D01*
X102367273Y-96365504D01*
X102378783Y-96362677D01*
X102526108Y-96307007D01*
X102536606Y-96301518D01*
X102666401Y-96212314D01*
X102675288Y-96204478D01*
X102780058Y-96086887D01*
X102786817Y-96077163D01*
X102860512Y-95937976D01*
X102864761Y-95926907D01*
X102872723Y-95895209D01*
X102871868Y-95882671D01*
X102862586Y-95880000D01*
X102120680Y-95880000D01*
X102107995Y-95884122D01*
X102105000Y-95888243D01*
X102105000Y-96364320D01*
X101705000Y-96364320D01*
X101705000Y-95641941D01*
X107970885Y-95641941D01*
X107986641Y-95747359D01*
X107989005Y-95756754D01*
X108004164Y-95798972D01*
X108014018Y-95815373D01*
X108054402Y-95859831D01*
X108069776Y-95871207D01*
X108124101Y-95896829D01*
X108142659Y-95901456D01*
X108187470Y-95903608D01*
X108197144Y-95903123D01*
X108245759Y-95895857D01*
X108257694Y-95889907D01*
X108260047Y-95885387D01*
X108219239Y-95612341D01*
X108213289Y-95600406D01*
X108208769Y-95598053D01*
X107985173Y-95631471D01*
X107973238Y-95637421D01*
X107970885Y-95641941D01*
X101705000Y-95641941D01*
X101705000Y-95579000D01*
X101723907Y-95520809D01*
X101773407Y-95484845D01*
X101804000Y-95480000D01*
X102861230Y-95480000D01*
X102873344Y-95476064D01*
X102873713Y-95466683D01*
X102867310Y-95440013D01*
X102863178Y-95428904D01*
X102790947Y-95288958D01*
X102784284Y-95279154D01*
X102680752Y-95160473D01*
X102671952Y-95152549D01*
X102639864Y-95129997D01*
X102603127Y-95081068D01*
X102602167Y-95019890D01*
X102637349Y-94969831D01*
X102696790Y-94950000D01*
X105042402Y-94950000D01*
X105100593Y-94968907D01*
X105136557Y-95018407D01*
X105136557Y-95079593D01*
X105098476Y-95130588D01*
X105073605Y-95147682D01*
X105064712Y-95155522D01*
X104959942Y-95273113D01*
X104953183Y-95282837D01*
X104879488Y-95422024D01*
X104875239Y-95433093D01*
X104867277Y-95464791D01*
X104868132Y-95477329D01*
X104877414Y-95480000D01*
X107291230Y-95480000D01*
X107303344Y-95476064D01*
X107303713Y-95466683D01*
X107297310Y-95440013D01*
X107293178Y-95428904D01*
X107220947Y-95288958D01*
X107214284Y-95279154D01*
X107110752Y-95160473D01*
X107101952Y-95152549D01*
X107048434Y-95114936D01*
X107893085Y-95114936D01*
X107893570Y-95124610D01*
X107908226Y-95222675D01*
X107914176Y-95234610D01*
X107918696Y-95236963D01*
X108142292Y-95203545D01*
X108154227Y-95197595D01*
X108156580Y-95193075D01*
X108115772Y-94920030D01*
X108109822Y-94908095D01*
X108105302Y-94905742D01*
X108049332Y-94914107D01*
X108039946Y-94916469D01*
X107997719Y-94931630D01*
X107981322Y-94941482D01*
X107936862Y-94981866D01*
X107925486Y-94997241D01*
X107899864Y-95051566D01*
X107895237Y-95070124D01*
X107893085Y-95114936D01*
X107048434Y-95114936D01*
X106973094Y-95061986D01*
X106962656Y-95056390D01*
X106815922Y-94999180D01*
X106804445Y-94996233D01*
X106684352Y-94980423D01*
X106677898Y-94980000D01*
X106470738Y-94980000D01*
X106412547Y-94961093D01*
X106376583Y-94911593D01*
X106376583Y-94850407D01*
X106412547Y-94800907D01*
X106456415Y-94783042D01*
X109957713Y-94271103D01*
X110018027Y-94281392D01*
G37*
G04 #@! TD.AperFunction*
G04 #@! TA.AperFunction,Conductor*
G36*
X109383691Y-100369418D02*
G01*
X109419655Y-100418918D01*
X109424500Y-100449511D01*
X109424500Y-101449748D01*
X109429643Y-101475605D01*
X109433235Y-101493660D01*
X109436133Y-101508231D01*
X109480448Y-101574552D01*
X109546769Y-101618867D01*
X109556332Y-101620769D01*
X109556334Y-101620770D01*
X109579005Y-101625279D01*
X109605252Y-101630500D01*
X110294748Y-101630500D01*
X110320995Y-101625279D01*
X110343666Y-101620770D01*
X110343668Y-101620769D01*
X110353231Y-101618867D01*
X110361339Y-101613450D01*
X110361340Y-101613449D01*
X110370449Y-101607362D01*
X110429337Y-101590754D01*
X110480453Y-101607363D01*
X110488860Y-101612980D01*
X110506526Y-101620298D01*
X110550538Y-101629052D01*
X110560160Y-101630000D01*
X110684320Y-101630000D01*
X110697005Y-101625878D01*
X110700000Y-101621757D01*
X110700000Y-100799000D01*
X110718907Y-100740809D01*
X110768407Y-100704845D01*
X110799000Y-100700000D01*
X111001000Y-100700000D01*
X111059191Y-100718907D01*
X111095155Y-100768407D01*
X111100000Y-100799000D01*
X111100000Y-101614320D01*
X111104122Y-101627005D01*
X111108243Y-101630000D01*
X111239840Y-101630000D01*
X111249462Y-101629052D01*
X111293474Y-101620298D01*
X111311140Y-101612980D01*
X111319547Y-101607363D01*
X111378435Y-101590754D01*
X111429551Y-101607362D01*
X111438660Y-101613449D01*
X111438661Y-101613450D01*
X111446769Y-101618867D01*
X111456332Y-101620769D01*
X111456334Y-101620770D01*
X111479005Y-101625279D01*
X111505252Y-101630500D01*
X112194748Y-101630500D01*
X112220995Y-101625279D01*
X112243666Y-101620770D01*
X112243668Y-101620769D01*
X112253231Y-101618867D01*
X112319552Y-101574552D01*
X112362695Y-101509985D01*
X112410744Y-101472107D01*
X112471882Y-101469705D01*
X112515013Y-101494984D01*
X112700525Y-101680496D01*
X112728302Y-101735013D01*
X112718731Y-101795445D01*
X112675466Y-101838710D01*
X112630521Y-101849500D01*
X111570252Y-101849500D01*
X111547016Y-101854122D01*
X111521334Y-101859230D01*
X111521332Y-101859231D01*
X111511769Y-101861133D01*
X111445448Y-101905448D01*
X111401133Y-101971769D01*
X111389500Y-102030252D01*
X111389500Y-103269748D01*
X111390448Y-103274512D01*
X111395764Y-103301237D01*
X111401133Y-103328231D01*
X111445448Y-103394552D01*
X111480518Y-103417986D01*
X111518397Y-103466034D01*
X111520799Y-103527173D01*
X111486806Y-103578046D01*
X111480518Y-103582615D01*
X111453919Y-103600388D01*
X111440389Y-103613918D01*
X111407021Y-103663858D01*
X111399702Y-103681526D01*
X111390948Y-103725538D01*
X111390000Y-103735160D01*
X111390000Y-104134320D01*
X111394122Y-104147005D01*
X111398243Y-104150000D01*
X112391000Y-104150000D01*
X112449191Y-104168907D01*
X112485155Y-104218407D01*
X112490000Y-104249000D01*
X112490000Y-104451000D01*
X112471093Y-104509191D01*
X112421593Y-104545155D01*
X112391000Y-104550000D01*
X111405680Y-104550000D01*
X111392995Y-104554122D01*
X111390000Y-104558243D01*
X111390000Y-104880500D01*
X111371093Y-104938691D01*
X111321593Y-104974655D01*
X111291000Y-104979500D01*
X111145479Y-104979500D01*
X111087288Y-104960593D01*
X111075475Y-104950504D01*
X111019496Y-104894525D01*
X110991719Y-104840008D01*
X110990500Y-104824521D01*
X110990500Y-103730252D01*
X110984878Y-103701986D01*
X110980770Y-103681334D01*
X110980769Y-103681332D01*
X110978867Y-103671769D01*
X110934552Y-103605448D01*
X110899482Y-103582014D01*
X110861603Y-103533966D01*
X110859201Y-103472827D01*
X110893194Y-103421954D01*
X110899482Y-103417385D01*
X110926081Y-103399612D01*
X110939611Y-103386082D01*
X110972979Y-103336142D01*
X110980298Y-103318474D01*
X110989052Y-103274462D01*
X110990000Y-103264840D01*
X110990000Y-102865680D01*
X110985878Y-102852995D01*
X110981757Y-102850000D01*
X109989000Y-102850000D01*
X109930809Y-102831093D01*
X109894845Y-102781593D01*
X109890000Y-102751000D01*
X109890000Y-102434320D01*
X110290000Y-102434320D01*
X110294122Y-102447005D01*
X110298243Y-102450000D01*
X110974320Y-102450000D01*
X110987005Y-102445878D01*
X110990000Y-102441757D01*
X110990000Y-102035160D01*
X110989052Y-102025538D01*
X110980298Y-101981526D01*
X110972979Y-101963858D01*
X110939611Y-101913918D01*
X110926082Y-101900389D01*
X110876142Y-101867021D01*
X110858474Y-101859702D01*
X110814462Y-101850948D01*
X110804840Y-101850000D01*
X110305680Y-101850000D01*
X110292995Y-101854122D01*
X110290000Y-101858243D01*
X110290000Y-102434320D01*
X109890000Y-102434320D01*
X109890000Y-101865680D01*
X109885878Y-101852995D01*
X109881757Y-101850000D01*
X109375160Y-101850000D01*
X109365538Y-101850948D01*
X109321526Y-101859702D01*
X109303858Y-101867021D01*
X109253918Y-101900389D01*
X109240389Y-101913918D01*
X109207021Y-101963858D01*
X109199702Y-101981526D01*
X109196598Y-101997131D01*
X109166701Y-102050515D01*
X109135219Y-102065029D01*
X109139373Y-102065855D01*
X109180906Y-102110784D01*
X109190000Y-102152232D01*
X109190000Y-102450331D01*
X109171093Y-102508522D01*
X109121593Y-102544486D01*
X109060407Y-102544486D01*
X109010907Y-102508522D01*
X108993902Y-102469645D01*
X108990298Y-102451526D01*
X108982979Y-102433858D01*
X108949611Y-102383918D01*
X108936057Y-102370364D01*
X108908280Y-102315847D01*
X108917851Y-102255415D01*
X108936057Y-102230356D01*
X108936442Y-102229971D01*
X108944552Y-102224552D01*
X108988867Y-102158231D01*
X108993902Y-102132918D01*
X109023799Y-102079534D01*
X109055281Y-102065020D01*
X109051127Y-102064194D01*
X109009594Y-102019264D01*
X109000500Y-101977817D01*
X109000500Y-101560252D01*
X108993840Y-101526769D01*
X108990770Y-101511334D01*
X108990769Y-101511332D01*
X108988867Y-101501769D01*
X108944552Y-101435448D01*
X108878231Y-101391133D01*
X108868668Y-101389231D01*
X108868666Y-101389230D01*
X108845995Y-101384721D01*
X108819748Y-101379500D01*
X108578972Y-101379500D01*
X108520781Y-101360593D01*
X108484817Y-101311093D01*
X108484817Y-101249907D01*
X108520781Y-101200407D01*
X108527171Y-101196134D01*
X108575809Y-101166270D01*
X108581822Y-101162578D01*
X108592258Y-101151049D01*
X108673299Y-101061515D01*
X108678031Y-101056287D01*
X108740541Y-100927266D01*
X108742517Y-100915525D01*
X108763693Y-100789657D01*
X108763693Y-100789653D01*
X108764327Y-100785887D01*
X108764478Y-100773533D01*
X108744154Y-100631615D01*
X108724158Y-100587635D01*
X108687735Y-100507526D01*
X108687733Y-100507523D01*
X108684815Y-100501105D01*
X108684062Y-100500231D01*
X108669320Y-100443643D01*
X108691643Y-100386675D01*
X108743188Y-100353709D01*
X108768146Y-100350511D01*
X109325500Y-100350511D01*
X109383691Y-100369418D01*
G37*
G04 #@! TD.AperFunction*
G04 #@! TA.AperFunction,Conductor*
G36*
X117969504Y-102639477D02*
G01*
X118054678Y-102724651D01*
X118057378Y-102727780D01*
X118059573Y-102732269D01*
X118066276Y-102738487D01*
X118095820Y-102765893D01*
X118098496Y-102768469D01*
X118112275Y-102782248D01*
X118115985Y-102784793D01*
X118119898Y-102788229D01*
X118141644Y-102808401D01*
X118150130Y-102811787D01*
X118150132Y-102811788D01*
X118152335Y-102812667D01*
X118171646Y-102822978D01*
X118173605Y-102824322D01*
X118173608Y-102824323D01*
X118181144Y-102829493D01*
X118190036Y-102831603D01*
X118190038Y-102831604D01*
X118207064Y-102835644D01*
X118220893Y-102840018D01*
X118237187Y-102846519D01*
X118284228Y-102885644D01*
X118299500Y-102938470D01*
X118299500Y-103494748D01*
X118300448Y-103499512D01*
X118308141Y-103538187D01*
X118311133Y-103553231D01*
X118355448Y-103619552D01*
X118421769Y-103663867D01*
X118431332Y-103665769D01*
X118431334Y-103665770D01*
X118454005Y-103670279D01*
X118480252Y-103675500D01*
X120469748Y-103675500D01*
X120495995Y-103670279D01*
X120518666Y-103665770D01*
X120518668Y-103665769D01*
X120528231Y-103663867D01*
X120594552Y-103619552D01*
X120638867Y-103553231D01*
X120641860Y-103538187D01*
X120649552Y-103499512D01*
X120650500Y-103494748D01*
X120650500Y-103134080D01*
X120669407Y-103075889D01*
X120718907Y-103039925D01*
X120780093Y-103039925D01*
X120786174Y-103042123D01*
X120805624Y-103049883D01*
X120811917Y-103050500D01*
X120818087Y-103050500D01*
X120840943Y-103053175D01*
X120850068Y-103055340D01*
X120878990Y-103051404D01*
X120892339Y-103050500D01*
X121999079Y-103050500D01*
X122057270Y-103069407D01*
X122093234Y-103118907D01*
X122093234Y-103180093D01*
X122069083Y-103219504D01*
X122063558Y-103225029D01*
X122055448Y-103230448D01*
X122011133Y-103296769D01*
X122009231Y-103306332D01*
X122009230Y-103306334D01*
X122006777Y-103318666D01*
X121999500Y-103355252D01*
X121999500Y-104294748D01*
X122011133Y-104353231D01*
X122055448Y-104419552D01*
X122063558Y-104424971D01*
X122069083Y-104430496D01*
X122096860Y-104485013D01*
X122087289Y-104545445D01*
X122044024Y-104588710D01*
X121999079Y-104599500D01*
X121860252Y-104599500D01*
X121834005Y-104604721D01*
X121811334Y-104609230D01*
X121811332Y-104609231D01*
X121801769Y-104611133D01*
X121735448Y-104655448D01*
X121691133Y-104721769D01*
X121689231Y-104731333D01*
X121686309Y-104738386D01*
X121646572Y-104784912D01*
X121594845Y-104799500D01*
X120749500Y-104799500D01*
X120691309Y-104780593D01*
X120655345Y-104731093D01*
X120650500Y-104700500D01*
X120650500Y-104125252D01*
X120643371Y-104089410D01*
X120640770Y-104076334D01*
X120640769Y-104076332D01*
X120638867Y-104066769D01*
X120594552Y-104000448D01*
X120528231Y-103956133D01*
X120518668Y-103954231D01*
X120518666Y-103954230D01*
X120495995Y-103949721D01*
X120469748Y-103944500D01*
X118480252Y-103944500D01*
X118454005Y-103949721D01*
X118431334Y-103954230D01*
X118431332Y-103954231D01*
X118421769Y-103956133D01*
X118355448Y-104000448D01*
X118311133Y-104066769D01*
X118309231Y-104076332D01*
X118309230Y-104076334D01*
X118306629Y-104089410D01*
X118299500Y-104125252D01*
X118299500Y-104479543D01*
X118280593Y-104537734D01*
X118231093Y-104573698D01*
X118169907Y-104573698D01*
X118130496Y-104549547D01*
X117829496Y-104248547D01*
X117801719Y-104194030D01*
X117800500Y-104178543D01*
X117800500Y-102709481D01*
X117819407Y-102651290D01*
X117868907Y-102615326D01*
X117930093Y-102615326D01*
X117969504Y-102639477D01*
G37*
G04 #@! TD.AperFunction*
G04 #@! TA.AperFunction,Conductor*
G36*
X107159191Y-102919407D02*
G01*
X107195155Y-102968907D01*
X107200000Y-102999500D01*
X107200000Y-103301000D01*
X107181093Y-103359191D01*
X107131593Y-103395155D01*
X107101000Y-103400000D01*
X106089817Y-103400000D01*
X106071003Y-103393887D01*
X106075000Y-103417144D01*
X106075000Y-103519698D01*
X106072812Y-103519698D01*
X106061530Y-103571075D01*
X106015786Y-103611710D01*
X105976128Y-103620000D01*
X105794185Y-103620000D01*
X105735994Y-103601093D01*
X105700030Y-103551593D01*
X105700030Y-103490407D01*
X105735994Y-103440907D01*
X105756299Y-103429536D01*
X105839240Y-103395181D01*
X105839244Y-103395179D01*
X105845233Y-103392698D01*
X105850375Y-103388752D01*
X105850379Y-103388750D01*
X105915732Y-103338602D01*
X105973408Y-103318178D01*
X105995662Y-103324770D01*
X105995662Y-103270407D01*
X106011275Y-103240732D01*
X106053750Y-103185379D01*
X106053752Y-103185375D01*
X106057698Y-103180233D01*
X106060179Y-103174244D01*
X106060181Y-103174240D01*
X106107039Y-103061114D01*
X106146776Y-103014589D01*
X106198503Y-103000000D01*
X106784320Y-103000000D01*
X106797005Y-102995878D01*
X106800092Y-102991630D01*
X106801219Y-102984514D01*
X106804691Y-102985064D01*
X106818907Y-102941309D01*
X106868407Y-102905345D01*
X106899000Y-102900500D01*
X107101000Y-102900500D01*
X107159191Y-102919407D01*
G37*
G04 #@! TD.AperFunction*
G04 #@! TA.AperFunction,Conductor*
G36*
X120825283Y-96532114D02*
G01*
X120862970Y-96576948D01*
X120868841Y-96580856D01*
X120868842Y-96580857D01*
X120885217Y-96591757D01*
X120982313Y-96656390D01*
X121082920Y-96687821D01*
X121112425Y-96697039D01*
X121112426Y-96697039D01*
X121119157Y-96699142D01*
X121190828Y-96700456D01*
X121255445Y-96701641D01*
X121255447Y-96701641D01*
X121262499Y-96701770D01*
X121269302Y-96699915D01*
X121269304Y-96699915D01*
X121349693Y-96677998D01*
X121400817Y-96664060D01*
X121495247Y-96606080D01*
X121554728Y-96591744D01*
X121611276Y-96615110D01*
X121629360Y-96635441D01*
X121635448Y-96644552D01*
X121701769Y-96688867D01*
X121711332Y-96690769D01*
X121711334Y-96690770D01*
X121731797Y-96694840D01*
X121760252Y-96700500D01*
X121857060Y-96700500D01*
X121915251Y-96719407D01*
X121951215Y-96768907D01*
X121951215Y-96830093D01*
X121939375Y-96854502D01*
X121927123Y-96872839D01*
X121911133Y-96896769D01*
X121909231Y-96906332D01*
X121909230Y-96906334D01*
X121906397Y-96920577D01*
X121899500Y-96955252D01*
X121899500Y-97894748D01*
X121911133Y-97953231D01*
X121955448Y-98019552D01*
X122021769Y-98063867D01*
X122031332Y-98065769D01*
X122031334Y-98065770D01*
X122054005Y-98070279D01*
X122080252Y-98075500D01*
X122919748Y-98075500D01*
X122945995Y-98070279D01*
X122968666Y-98065770D01*
X122968668Y-98065769D01*
X122978231Y-98063867D01*
X123044552Y-98019552D01*
X123088867Y-97953231D01*
X123100500Y-97894748D01*
X123100500Y-97864479D01*
X123119407Y-97806288D01*
X123168907Y-97770324D01*
X123230093Y-97770324D01*
X123269504Y-97794475D01*
X124070528Y-98595500D01*
X124870504Y-99395476D01*
X124898281Y-99449993D01*
X124899500Y-99465480D01*
X124899500Y-101346492D01*
X124899197Y-101350617D01*
X124897575Y-101355342D01*
X124899420Y-101404500D01*
X124899430Y-101404761D01*
X124899500Y-101408474D01*
X124899500Y-101427948D01*
X124900325Y-101432378D01*
X124900661Y-101437571D01*
X124901774Y-101467208D01*
X124905380Y-101475602D01*
X124905381Y-101475605D01*
X124906317Y-101477783D01*
X124912683Y-101498734D01*
X124914791Y-101510053D01*
X124920253Y-101518914D01*
X124928768Y-101532728D01*
X124935451Y-101545595D01*
X124945964Y-101570063D01*
X124949978Y-101574949D01*
X124954342Y-101579313D01*
X124968613Y-101597368D01*
X124973532Y-101605348D01*
X124996769Y-101623018D01*
X125006839Y-101631810D01*
X125560106Y-102185077D01*
X125587883Y-102239594D01*
X125578312Y-102300026D01*
X125542930Y-102338808D01*
X125422280Y-102414932D01*
X125417613Y-102420216D01*
X125417611Y-102420218D01*
X125332044Y-102517105D01*
X125332042Y-102517107D01*
X125327377Y-102522390D01*
X125324381Y-102528772D01*
X125324380Y-102528773D01*
X125305869Y-102568201D01*
X125266447Y-102652165D01*
X125265362Y-102659134D01*
X125265361Y-102659137D01*
X125253975Y-102732269D01*
X125244391Y-102793825D01*
X125245306Y-102800822D01*
X125245306Y-102800824D01*
X125248107Y-102822244D01*
X125236905Y-102882395D01*
X125219947Y-102905084D01*
X124629527Y-103495504D01*
X124575010Y-103523281D01*
X124559523Y-103524500D01*
X123299500Y-103524500D01*
X123241309Y-103505593D01*
X123205345Y-103456093D01*
X123200500Y-103425500D01*
X123200500Y-103355252D01*
X123193223Y-103318666D01*
X123190770Y-103306334D01*
X123190769Y-103306332D01*
X123188867Y-103296769D01*
X123144552Y-103230448D01*
X123136442Y-103225029D01*
X123130917Y-103219504D01*
X123103140Y-103164987D01*
X123112711Y-103104555D01*
X123155976Y-103061290D01*
X123200921Y-103050500D01*
X123961494Y-103050500D01*
X123965619Y-103050803D01*
X123970344Y-103052425D01*
X124019763Y-103050570D01*
X124023476Y-103050500D01*
X124042950Y-103050500D01*
X124047380Y-103049675D01*
X124052573Y-103049339D01*
X124068604Y-103048737D01*
X124073077Y-103048569D01*
X124082210Y-103048226D01*
X124090604Y-103044620D01*
X124090607Y-103044619D01*
X124092785Y-103043683D01*
X124113736Y-103037317D01*
X124125055Y-103035209D01*
X124147731Y-103021232D01*
X124160598Y-103014548D01*
X124178644Y-103006795D01*
X124178645Y-103006794D01*
X124185065Y-103004036D01*
X124189951Y-103000022D01*
X124194315Y-102995658D01*
X124212370Y-102981387D01*
X124220350Y-102976468D01*
X124238020Y-102953231D01*
X124246812Y-102943161D01*
X124424652Y-102765321D01*
X124427781Y-102762621D01*
X124432270Y-102760426D01*
X124465894Y-102724179D01*
X124468470Y-102721503D01*
X124482249Y-102707724D01*
X124484794Y-102704014D01*
X124488230Y-102700101D01*
X124502188Y-102685054D01*
X124508402Y-102678355D01*
X124511789Y-102669867D01*
X124512668Y-102667664D01*
X124522979Y-102648353D01*
X124524323Y-102646394D01*
X124524324Y-102646391D01*
X124529494Y-102638855D01*
X124535645Y-102612935D01*
X124540015Y-102599116D01*
X124549884Y-102574379D01*
X124550501Y-102568086D01*
X124550501Y-102561916D01*
X124553176Y-102539057D01*
X124553231Y-102538827D01*
X124555341Y-102529935D01*
X124551405Y-102501013D01*
X124550501Y-102487664D01*
X124550501Y-100933509D01*
X124550804Y-100929384D01*
X124552426Y-100924659D01*
X124550571Y-100875239D01*
X124550501Y-100871526D01*
X124550501Y-100852053D01*
X124549676Y-100847623D01*
X124549339Y-100842418D01*
X124548570Y-100821927D01*
X124548227Y-100812792D01*
X124543682Y-100802213D01*
X124537318Y-100781264D01*
X124536885Y-100778937D01*
X124536883Y-100778932D01*
X124535210Y-100769948D01*
X124521233Y-100747272D01*
X124514549Y-100734405D01*
X124504037Y-100709938D01*
X124506397Y-100708924D01*
X124495500Y-100670041D01*
X124495500Y-100305252D01*
X124487759Y-100266334D01*
X124485770Y-100256334D01*
X124485769Y-100256332D01*
X124483867Y-100246769D01*
X124439552Y-100180448D01*
X124390682Y-100147794D01*
X124352804Y-100099746D01*
X124349157Y-100064593D01*
X124347425Y-100064658D01*
X124345570Y-100015239D01*
X124345500Y-100011526D01*
X124345500Y-99992052D01*
X124344675Y-99987622D01*
X124344338Y-99982417D01*
X124344246Y-99979947D01*
X124343226Y-99952792D01*
X124339620Y-99944398D01*
X124339619Y-99944395D01*
X124338683Y-99942217D01*
X124332317Y-99921266D01*
X124330209Y-99909947D01*
X124316232Y-99887271D01*
X124309548Y-99874404D01*
X124301795Y-99856358D01*
X124301794Y-99856357D01*
X124299036Y-99849937D01*
X124295022Y-99845051D01*
X124290658Y-99840687D01*
X124276387Y-99822632D01*
X124276264Y-99822433D01*
X124271468Y-99814652D01*
X124248231Y-99796982D01*
X124238161Y-99788190D01*
X124079496Y-99629525D01*
X124051719Y-99575008D01*
X124050500Y-99559521D01*
X124050500Y-98955252D01*
X124038867Y-98896769D01*
X123994552Y-98830448D01*
X123928231Y-98786133D01*
X123918668Y-98784231D01*
X123918666Y-98784230D01*
X123895995Y-98779721D01*
X123869748Y-98774500D01*
X123030252Y-98774500D01*
X123004005Y-98779721D01*
X122981334Y-98784230D01*
X122981332Y-98784231D01*
X122971769Y-98786133D01*
X122905448Y-98830448D01*
X122861133Y-98896769D01*
X122849500Y-98955252D01*
X122849500Y-99894748D01*
X122852523Y-99909947D01*
X122856450Y-99929686D01*
X122861133Y-99953231D01*
X122868663Y-99964500D01*
X122876794Y-99976669D01*
X122893403Y-100035557D01*
X122872226Y-100092961D01*
X122821352Y-100126954D01*
X122813800Y-100128767D01*
X122804500Y-100130617D01*
X122786334Y-100134230D01*
X122786332Y-100134231D01*
X122776769Y-100136133D01*
X122710448Y-100180448D01*
X122705029Y-100188558D01*
X122698137Y-100195450D01*
X122696416Y-100193729D01*
X122659267Y-100223015D01*
X122598129Y-100225418D01*
X122552429Y-100194884D01*
X122551863Y-100195450D01*
X122549017Y-100192604D01*
X122547254Y-100191426D01*
X122545701Y-100189288D01*
X122544971Y-100188558D01*
X122539552Y-100180448D01*
X122490682Y-100147794D01*
X122452804Y-100099746D01*
X122449157Y-100064593D01*
X122447425Y-100064658D01*
X122445570Y-100015239D01*
X122445500Y-100011526D01*
X122445500Y-99992052D01*
X122444675Y-99987622D01*
X122444338Y-99982417D01*
X122444246Y-99979947D01*
X122443226Y-99952792D01*
X122439620Y-99944398D01*
X122439619Y-99944395D01*
X122438683Y-99942217D01*
X122432317Y-99921266D01*
X122430209Y-99909947D01*
X122416232Y-99887271D01*
X122409548Y-99874404D01*
X122401795Y-99856358D01*
X122401794Y-99856357D01*
X122399036Y-99849937D01*
X122395022Y-99845051D01*
X122390658Y-99840687D01*
X122376387Y-99822632D01*
X122376264Y-99822433D01*
X122371468Y-99814652D01*
X122348231Y-99796982D01*
X122338161Y-99788190D01*
X122179496Y-99629525D01*
X122151719Y-99575008D01*
X122150500Y-99559521D01*
X122150500Y-98955252D01*
X122138867Y-98896769D01*
X122094552Y-98830448D01*
X122028231Y-98786133D01*
X122018668Y-98784231D01*
X122018666Y-98784230D01*
X121995995Y-98779721D01*
X121969748Y-98774500D01*
X121249500Y-98774500D01*
X121191309Y-98755593D01*
X121155345Y-98706093D01*
X121150500Y-98675500D01*
X121150500Y-98348513D01*
X121150803Y-98344384D01*
X121152426Y-98339658D01*
X121150570Y-98290223D01*
X121150500Y-98286509D01*
X121150500Y-98267052D01*
X121149675Y-98262622D01*
X121149339Y-98257436D01*
X121148569Y-98236925D01*
X121148569Y-98236924D01*
X121148226Y-98227792D01*
X121144620Y-98219398D01*
X121144619Y-98219395D01*
X121143683Y-98217217D01*
X121137317Y-98196266D01*
X121135209Y-98184947D01*
X121121232Y-98162271D01*
X121114548Y-98149404D01*
X121106793Y-98131353D01*
X121106792Y-98131351D01*
X121104036Y-98124937D01*
X121100023Y-98120051D01*
X121095657Y-98115685D01*
X121081385Y-98097629D01*
X121081264Y-98097432D01*
X121081263Y-98097431D01*
X121076468Y-98089652D01*
X121064107Y-98080252D01*
X121053244Y-98071992D01*
X121043164Y-98063192D01*
X120900319Y-97920347D01*
X120897619Y-97917219D01*
X120895425Y-97912731D01*
X120859179Y-97879108D01*
X120856503Y-97876532D01*
X120842723Y-97862752D01*
X120839013Y-97860207D01*
X120835100Y-97856771D01*
X120820055Y-97842815D01*
X120813354Y-97836599D01*
X120802664Y-97832334D01*
X120783348Y-97822020D01*
X120781393Y-97820679D01*
X120781390Y-97820678D01*
X120773854Y-97815508D01*
X120747941Y-97809359D01*
X120734116Y-97804986D01*
X120715869Y-97797706D01*
X120715865Y-97797705D01*
X120710258Y-97795468D01*
X120709379Y-97795117D01*
X120709517Y-97794770D01*
X120661167Y-97764936D01*
X120646474Y-97734525D01*
X120644501Y-97735342D01*
X120640770Y-97726335D01*
X120638867Y-97716769D01*
X120594552Y-97650448D01*
X120528231Y-97606133D01*
X120518668Y-97604231D01*
X120518666Y-97604230D01*
X120495995Y-97599721D01*
X120469748Y-97594500D01*
X118480252Y-97594500D01*
X118454005Y-97599721D01*
X118431334Y-97604230D01*
X118431332Y-97604231D01*
X118421769Y-97606133D01*
X118355448Y-97650448D01*
X118311133Y-97716769D01*
X118309231Y-97726332D01*
X118309230Y-97726334D01*
X118307413Y-97735471D01*
X118299500Y-97775252D01*
X118299500Y-98414748D01*
X118303418Y-98434444D01*
X118308705Y-98461023D01*
X118311133Y-98473231D01*
X118355448Y-98539552D01*
X118421769Y-98583867D01*
X118431332Y-98585769D01*
X118431334Y-98585770D01*
X118443914Y-98588272D01*
X118480252Y-98595500D01*
X120450500Y-98595500D01*
X120508691Y-98614407D01*
X120544655Y-98663907D01*
X120549500Y-98694500D01*
X120549500Y-98765500D01*
X120530593Y-98823691D01*
X120481093Y-98859655D01*
X120450500Y-98864500D01*
X118480252Y-98864500D01*
X118456438Y-98869237D01*
X118431334Y-98874230D01*
X118431332Y-98874231D01*
X118421769Y-98876133D01*
X118355448Y-98920448D01*
X118311133Y-98986769D01*
X118309230Y-98996335D01*
X118305499Y-99005342D01*
X118302789Y-99004219D01*
X118280447Y-99044111D01*
X118237673Y-99066591D01*
X118232791Y-99066774D01*
X118224394Y-99070382D01*
X118224393Y-99070382D01*
X118222212Y-99071319D01*
X118201263Y-99077683D01*
X118198936Y-99078116D01*
X118198931Y-99078118D01*
X118189947Y-99079791D01*
X118174347Y-99089407D01*
X118167272Y-99093768D01*
X118154404Y-99100452D01*
X118136358Y-99108205D01*
X118136357Y-99108206D01*
X118129937Y-99110964D01*
X118125051Y-99114978D01*
X118120687Y-99119342D01*
X118102632Y-99133613D01*
X118094652Y-99138532D01*
X118076982Y-99161769D01*
X118068190Y-99171839D01*
X117969504Y-99270525D01*
X117914987Y-99298302D01*
X117854555Y-99288731D01*
X117811290Y-99245466D01*
X117800500Y-99200521D01*
X117800500Y-97767030D01*
X117819407Y-97708839D01*
X117873460Y-97671516D01*
X117882979Y-97668921D01*
X117894014Y-97665913D01*
X117894016Y-97665912D01*
X117900817Y-97664058D01*
X118022991Y-97589043D01*
X118044077Y-97565748D01*
X118114468Y-97487980D01*
X118119200Y-97482752D01*
X118167141Y-97383802D01*
X118178634Y-97360080D01*
X118181710Y-97353731D01*
X118187384Y-97320007D01*
X118215685Y-97265760D01*
X118270466Y-97238508D01*
X118330803Y-97248659D01*
X118351769Y-97264046D01*
X118355448Y-97269552D01*
X118421769Y-97313867D01*
X118431332Y-97315769D01*
X118431334Y-97315770D01*
X118452637Y-97320007D01*
X118480252Y-97325500D01*
X120469748Y-97325500D01*
X120497363Y-97320007D01*
X120518666Y-97315770D01*
X120518668Y-97315769D01*
X120528231Y-97313867D01*
X120594552Y-97269552D01*
X120638867Y-97203231D01*
X120640952Y-97192752D01*
X120645279Y-97170995D01*
X120650500Y-97144748D01*
X120650500Y-96595816D01*
X120669407Y-96537625D01*
X120718907Y-96501661D01*
X120780093Y-96501661D01*
X120825283Y-96532114D01*
G37*
G04 #@! TD.AperFunction*
M02*
