G04 #@! TF.GenerationSoftware,KiCad,Pcbnew,5.1.5-52549c5~84~ubuntu19.10.1*
G04 #@! TF.CreationDate,2020-03-14T21:45:10+01:00*
G04 #@! TF.ProjectId,ESP-TC-PROG,4553502d-5443-42d5-9052-4f472e6b6963,rev?*
G04 #@! TF.SameCoordinates,Original*
G04 #@! TF.FileFunction,Soldermask,Top*
G04 #@! TF.FilePolarity,Negative*
%FSLAX46Y46*%
G04 Gerber Fmt 4.6, Leading zero omitted, Abs format (unit mm)*
G04 Created by KiCad (PCBNEW 5.1.5-52549c5~84~ubuntu19.10.1) date 2020-03-14 21:45:10*
%MOMM*%
%LPD*%
G04 APERTURE LIST*
%ADD10R,0.800000X0.900000*%
%ADD11O,1.727200X1.727200*%
%ADD12R,1.727200X1.727200*%
%ADD13O,1.700000X1.700000*%
%ADD14R,1.700000X1.700000*%
%ADD15R,1.400000X1.200000*%
%ADD16R,1.950000X0.600000*%
%ADD17R,0.650000X1.060000*%
%ADD18R,0.500000X0.600000*%
%ADD19C,0.100000*%
%ADD20R,0.600000X0.500000*%
%ADD21R,1.450000X0.600000*%
%ADD22O,2.100000X1.000000*%
%ADD23O,1.600000X1.000000*%
%ADD24C,0.650000*%
%ADD25R,1.450000X0.300000*%
%ADD26R,0.600000X0.900000*%
G04 APERTURE END LIST*
D10*
X122500000Y-94025000D03*
X123450000Y-96025000D03*
X121550000Y-96025000D03*
D11*
X128060000Y-97460000D03*
X130600000Y-97460000D03*
X128060000Y-100000000D03*
X130600000Y-100000000D03*
X128060000Y-102540000D03*
D12*
X130600000Y-102540000D03*
D13*
X135480000Y-93690000D03*
X135480000Y-96230000D03*
X135480000Y-98770000D03*
X135480000Y-101310000D03*
X135480000Y-103850000D03*
D14*
X135480000Y-106390000D03*
D15*
X112300000Y-104350000D03*
X110100000Y-104350000D03*
X110100000Y-102650000D03*
X112300000Y-102650000D03*
D16*
X119475000Y-95555000D03*
X119475000Y-96825000D03*
X119475000Y-98095000D03*
X119475000Y-99365000D03*
X119475000Y-100635000D03*
X119475000Y-101905000D03*
X119475000Y-103175000D03*
X119475000Y-104445000D03*
X114525000Y-104445000D03*
X114525000Y-103175000D03*
X114525000Y-101905000D03*
X114525000Y-100635000D03*
X114525000Y-99365000D03*
X114525000Y-98095000D03*
X114525000Y-96825000D03*
X114525000Y-95555000D03*
D17*
X110900000Y-98700000D03*
X109950000Y-98700000D03*
X111850000Y-98700000D03*
X111850000Y-100900000D03*
X110900000Y-100900000D03*
X109950000Y-100900000D03*
D18*
X121370000Y-93550000D03*
X120430000Y-93550000D03*
X121205000Y-100625000D03*
X122145000Y-100625000D03*
X124045000Y-100625000D03*
X123105000Y-100625000D03*
D19*
G36*
X108588074Y-95035813D02*
G01*
X108676760Y-95629222D01*
X108182252Y-95703127D01*
X108093566Y-95109718D01*
X108588074Y-95035813D01*
G37*
G36*
X109517748Y-94896873D02*
G01*
X109606434Y-95490282D01*
X109111926Y-95564187D01*
X109023240Y-94970778D01*
X109517748Y-94896873D01*
G37*
D20*
X108500000Y-101830000D03*
X108500000Y-102770000D03*
X108600000Y-98620000D03*
X108600000Y-97680000D03*
D10*
X122500000Y-97425000D03*
X123450000Y-99425000D03*
X121550000Y-99425000D03*
X122600000Y-103825000D03*
X121650000Y-101825000D03*
X123550000Y-101825000D03*
D21*
X107000000Y-97600000D03*
X107000000Y-102400000D03*
X107000000Y-103200000D03*
X107000000Y-96800000D03*
D22*
X106085000Y-95680000D03*
X106085000Y-104320000D03*
D23*
X101905000Y-95680000D03*
X101905000Y-104320000D03*
D24*
X105555000Y-102890000D03*
X105555000Y-97110000D03*
D21*
X107000000Y-103200000D03*
X107000000Y-102400000D03*
D25*
X107000000Y-101750000D03*
X107000000Y-101250000D03*
X107000000Y-100750000D03*
X107000000Y-100250000D03*
X107000000Y-99750000D03*
X107000000Y-99250000D03*
X107000000Y-98750000D03*
X107000000Y-98250000D03*
D21*
X107000000Y-97600000D03*
X107000000Y-96800000D03*
D19*
G36*
X112289182Y-94281414D02*
G01*
X112310241Y-94285579D01*
X112330791Y-94291788D01*
X112350633Y-94299981D01*
X112369576Y-94310080D01*
X112387438Y-94321987D01*
X112404047Y-94335588D01*
X112419244Y-94350751D01*
X112432880Y-94367330D01*
X112444826Y-94385166D01*
X112454966Y-94404087D01*
X112463203Y-94423912D01*
X112469457Y-94444447D01*
X112473668Y-94465498D01*
X112549420Y-94972369D01*
X112551548Y-94993730D01*
X112551571Y-95015197D01*
X112549490Y-95036563D01*
X112545325Y-95057623D01*
X112539116Y-95078172D01*
X112530922Y-95098014D01*
X112520824Y-95116957D01*
X112508917Y-95134820D01*
X112495316Y-95151429D01*
X112480153Y-95166625D01*
X112463574Y-95180261D01*
X112445737Y-95192207D01*
X112426816Y-95202348D01*
X112406992Y-95210584D01*
X112386456Y-95216838D01*
X112365407Y-95221049D01*
X111932713Y-95285716D01*
X111911351Y-95287844D01*
X111889884Y-95287867D01*
X111868518Y-95285786D01*
X111847459Y-95281621D01*
X111826909Y-95275412D01*
X111807067Y-95267219D01*
X111788124Y-95257120D01*
X111770262Y-95245213D01*
X111753653Y-95231612D01*
X111738456Y-95216449D01*
X111724820Y-95199870D01*
X111712874Y-95182034D01*
X111702734Y-95163113D01*
X111694497Y-95143288D01*
X111688243Y-95122753D01*
X111684032Y-95101702D01*
X111608280Y-94594831D01*
X111606152Y-94573470D01*
X111606129Y-94552003D01*
X111608210Y-94530637D01*
X111612375Y-94509577D01*
X111618584Y-94489028D01*
X111626778Y-94469186D01*
X111636876Y-94450243D01*
X111648783Y-94432380D01*
X111662384Y-94415771D01*
X111677547Y-94400575D01*
X111694126Y-94386939D01*
X111711963Y-94374993D01*
X111730884Y-94364852D01*
X111750708Y-94356616D01*
X111771244Y-94350362D01*
X111792293Y-94346151D01*
X112224987Y-94281484D01*
X112246349Y-94279356D01*
X112267816Y-94279333D01*
X112289182Y-94281414D01*
G37*
G36*
X110731482Y-94514214D02*
G01*
X110752541Y-94518379D01*
X110773091Y-94524588D01*
X110792933Y-94532781D01*
X110811876Y-94542880D01*
X110829738Y-94554787D01*
X110846347Y-94568388D01*
X110861544Y-94583551D01*
X110875180Y-94600130D01*
X110887126Y-94617966D01*
X110897266Y-94636887D01*
X110905503Y-94656712D01*
X110911757Y-94677247D01*
X110915968Y-94698298D01*
X110991720Y-95205169D01*
X110993848Y-95226530D01*
X110993871Y-95247997D01*
X110991790Y-95269363D01*
X110987625Y-95290423D01*
X110981416Y-95310972D01*
X110973222Y-95330814D01*
X110963124Y-95349757D01*
X110951217Y-95367620D01*
X110937616Y-95384229D01*
X110922453Y-95399425D01*
X110905874Y-95413061D01*
X110888037Y-95425007D01*
X110869116Y-95435148D01*
X110849292Y-95443384D01*
X110828756Y-95449638D01*
X110807707Y-95453849D01*
X110375013Y-95518516D01*
X110353651Y-95520644D01*
X110332184Y-95520667D01*
X110310818Y-95518586D01*
X110289759Y-95514421D01*
X110269209Y-95508212D01*
X110249367Y-95500019D01*
X110230424Y-95489920D01*
X110212562Y-95478013D01*
X110195953Y-95464412D01*
X110180756Y-95449249D01*
X110167120Y-95432670D01*
X110155174Y-95414834D01*
X110145034Y-95395913D01*
X110136797Y-95376088D01*
X110130543Y-95355553D01*
X110126332Y-95334502D01*
X110050580Y-94827631D01*
X110048452Y-94806270D01*
X110048429Y-94784803D01*
X110050510Y-94763437D01*
X110054675Y-94742377D01*
X110060884Y-94721828D01*
X110069078Y-94701986D01*
X110079176Y-94683043D01*
X110091083Y-94665180D01*
X110104684Y-94648571D01*
X110119847Y-94633375D01*
X110136426Y-94619739D01*
X110154263Y-94607793D01*
X110173184Y-94597652D01*
X110193008Y-94589416D01*
X110213544Y-94583162D01*
X110234593Y-94578951D01*
X110667287Y-94514284D01*
X110688649Y-94512156D01*
X110710116Y-94512133D01*
X110731482Y-94514214D01*
G37*
D20*
X112600000Y-96430000D03*
X112600000Y-97370000D03*
D18*
X113830000Y-105800000D03*
X114770000Y-105800000D03*
D20*
X108500000Y-103760000D03*
X108500000Y-104700000D03*
X119350000Y-93430000D03*
X119350000Y-94370000D03*
X110900000Y-96430000D03*
X110900000Y-97370000D03*
D26*
X116800000Y-94200000D03*
X118300000Y-94200000D03*
M02*
