G04 #@! TF.GenerationSoftware,KiCad,Pcbnew,6.0.2+dfsg-1*
G04 #@! TF.CreationDate,2023-01-01T13:43:32+01:00*
G04 #@! TF.ProjectId,ESP-TC-PROG,4553502d-5443-42d5-9052-4f472e6b6963,rev?*
G04 #@! TF.SameCoordinates,Original*
G04 #@! TF.FileFunction,Soldermask,Top*
G04 #@! TF.FilePolarity,Negative*
%FSLAX46Y46*%
G04 Gerber Fmt 4.6, Leading zero omitted, Abs format (unit mm)*
G04 Created by KiCad (PCBNEW 6.0.2+dfsg-1) date 2023-01-01 13:43:32*
%MOMM*%
%LPD*%
G01*
G04 APERTURE LIST*
G04 Aperture macros list*
%AMRoundRect*
0 Rectangle with rounded corners*
0 $1 Rounding radius*
0 $2 $3 $4 $5 $6 $7 $8 $9 X,Y pos of 4 corners*
0 Add a 4 corners polygon primitive as box body*
4,1,4,$2,$3,$4,$5,$6,$7,$8,$9,$2,$3,0*
0 Add four circle primitives for the rounded corners*
1,1,$1+$1,$2,$3*
1,1,$1+$1,$4,$5*
1,1,$1+$1,$6,$7*
1,1,$1+$1,$8,$9*
0 Add four rect primitives between the rounded corners*
20,1,$1+$1,$2,$3,$4,$5,0*
20,1,$1+$1,$4,$5,$6,$7,0*
20,1,$1+$1,$6,$7,$8,$9,0*
20,1,$1+$1,$8,$9,$2,$3,0*%
%AMRotRect*
0 Rectangle, with rotation*
0 The origin of the aperture is its center*
0 $1 length*
0 $2 width*
0 $3 Rotation angle, in degrees counterclockwise*
0 Add horizontal line*
21,1,$1,$2,0,0,$3*%
G04 Aperture macros list end*
%ADD10C,0.650000*%
%ADD11R,1.450000X0.600000*%
%ADD12R,1.450000X0.300000*%
%ADD13O,2.100000X1.000000*%
%ADD14O,1.600000X1.000000*%
%ADD15R,0.700000X1.300000*%
%ADD16R,0.600000X0.500000*%
%ADD17RoundRect,0.218750X-0.178471X-0.285769X0.254223X-0.221102X0.178471X0.285769X-0.254223X0.221102X0*%
%ADD18R,1.727200X1.727200*%
%ADD19O,1.727200X1.727200*%
%ADD20R,0.800000X0.900000*%
%ADD21RotRect,0.500000X0.600000X188.500000*%
%ADD22R,0.500000X0.600000*%
%ADD23R,0.650000X1.060000*%
%ADD24R,1.950000X0.600000*%
%ADD25R,1.700000X1.700000*%
%ADD26O,1.700000X1.700000*%
%ADD27R,1.400000X1.200000*%
G04 APERTURE END LIST*
D10*
X105555000Y-97110000D03*
X105555000Y-102890000D03*
D11*
X107000000Y-96800000D03*
X107000000Y-97600000D03*
D12*
X107000000Y-98750000D03*
X107000000Y-99750000D03*
X107000000Y-100250000D03*
X107000000Y-101250000D03*
D11*
X107000000Y-97600000D03*
X107000000Y-96800000D03*
X107000000Y-103200000D03*
X107000000Y-102400000D03*
D12*
X107000000Y-101750000D03*
X107000000Y-100750000D03*
X107000000Y-99250000D03*
X107000000Y-98250000D03*
D11*
X107000000Y-102400000D03*
X107000000Y-103200000D03*
D13*
X106085000Y-95680000D03*
D14*
X101905000Y-104320000D03*
X101905000Y-95680000D03*
D13*
X106085000Y-104320000D03*
D15*
X119550000Y-94100000D03*
X117650000Y-94100000D03*
D16*
X110900000Y-97370000D03*
X110900000Y-96430000D03*
X108460000Y-103760000D03*
X108460000Y-104700000D03*
X112600000Y-97370000D03*
X112600000Y-96430000D03*
D17*
X110521150Y-95016400D03*
X112078850Y-94783600D03*
D18*
X130600000Y-102540000D03*
D19*
X128060000Y-102540000D03*
X130600000Y-100000000D03*
X128060000Y-100000000D03*
X130600000Y-97460000D03*
X128060000Y-97460000D03*
D20*
X121550000Y-99425000D03*
X123450000Y-99425000D03*
X122500000Y-97425000D03*
D21*
X109314837Y-95230530D03*
X108385163Y-95369470D03*
D22*
X123105000Y-100625000D03*
X124045000Y-100625000D03*
X122145000Y-100625000D03*
X121205000Y-100625000D03*
X122130000Y-105100000D03*
X123070000Y-105100000D03*
D23*
X109950000Y-100900000D03*
X110900000Y-100900000D03*
X111850000Y-100900000D03*
X111850000Y-98700000D03*
X110900000Y-98700000D03*
X109950000Y-98700000D03*
D24*
X114525000Y-95555000D03*
X114525000Y-96825000D03*
X114525000Y-98095000D03*
X114525000Y-99365000D03*
X114525000Y-100635000D03*
X114525000Y-101905000D03*
X114525000Y-103175000D03*
X114525000Y-104445000D03*
X119475000Y-104445000D03*
X119475000Y-103175000D03*
X119475000Y-101905000D03*
X119475000Y-100635000D03*
X119475000Y-99365000D03*
X119475000Y-98095000D03*
X119475000Y-96825000D03*
X119475000Y-95555000D03*
D25*
X135480000Y-106390000D03*
D26*
X135480000Y-103850000D03*
X135480000Y-101310000D03*
X135480000Y-98770000D03*
X135480000Y-96230000D03*
X135480000Y-93690000D03*
D27*
X110090000Y-104350000D03*
X112290000Y-104350000D03*
X112290000Y-102650000D03*
X110090000Y-102650000D03*
D16*
X108500000Y-102770000D03*
X108500000Y-101830000D03*
D20*
X123550000Y-101825000D03*
X121650000Y-101825000D03*
X122600000Y-103825000D03*
D16*
X120700000Y-94470000D03*
X120700000Y-93530000D03*
D22*
X114310000Y-105790000D03*
X115250000Y-105790000D03*
D16*
X108600000Y-97680000D03*
X108600000Y-98620000D03*
D22*
X122970000Y-96200000D03*
X122030000Y-96200000D03*
M02*
