%
M48
METRIC,000.000
T01C0.50
%
T01
X006425Y045066
X006425Y044066
X006425Y043066
X006425Y042066
X006425Y041066
X003250Y040607
X003250Y041607
X003250Y042607
X003250Y043607
X003250Y044607
X006425Y011066
X006425Y010066
X006425Y009066
X006425Y008066
X006425Y007066
X003250Y006607
X003250Y007607
X003250Y008607
X003250Y009607
X003250Y010607
X003250Y023607
X003250Y024607
X003250Y025607
X003250Y026607
X003250Y027607
X006425Y028066
X006425Y027066
X006425Y026066
X006425Y025066
X006425Y024066
X044479Y047130
X044479Y048130
X044479Y049130
X044479Y050130
X044479Y051130
X047750Y051315
X047750Y050315
X047750Y049315
X047750Y048315
X047750Y047315
X047750Y033315
X047750Y032315
X047750Y031315
X047750Y030315
X047750Y029315
X044479Y029130
X044479Y030130
X044479Y031130
X044479Y032130
X044479Y033130
X044479Y011130
X044479Y012130
X044479Y013130
X044479Y014130
X044479Y015130
X047750Y015315
X047750Y014315
X047750Y013315
X047750Y012315
X047750Y011315
X044479Y001130
X044479Y002130
X044479Y003130
X044479Y004130
X044479Y005130
X047750Y005315
X047750Y004315
X047750Y003315
X047750Y002315
X047750Y001315
X044479Y037130
X044479Y038130
X044479Y039130
X044479Y040130
X044479Y041130
X047750Y041315
X047750Y040315
X047750Y039315
X047750Y038315
X047750Y037315
X047750Y023315
X047750Y022315
X047750Y021315
X047750Y020315
X047750Y019315
X044479Y019130
X044479Y020130
X044479Y021130
X044479Y022130
X044479Y023130
M30