%MOIN*%
%OFA0B0*%
%FSLAX46Y46*%
%IPPOS*%
%LPD*%
%ADD10R,0.031496062992125991X0.035433070866141732*%
%ADD11O,0.068X0.068*%
%ADD12R,0.068X0.068*%
%ADD13O,0.066929133858267723X0.066929133858267723*%
%ADD14R,0.066929133858267723X0.066929133858267723*%
%ADD15R,0.055118110236220472X0.047244094488188976*%
%ADD16R,0.076771653543307089X0.023622047244094488*%
%ADD17R,0.025590551181102365X0.041732283464566935*%
%ADD18R,0.01968503937007874X0.023622047244094488*%
%ADD19C,0.0039370078740157488*%
%ADD20R,0.023622047244094488X0.01968503937007874*%
%ADD21R,0.057086614173228349X0.023622047244094488*%
%ADD22O,0.082677165354330714X0.03937007874015748*%
%ADD23O,0.062992125984251982X0.03937007874015748*%
%ADD24C,0.025590551181102365*%
%ADD25R,0.057086614173228349X0.011811023622047244*%
%ADD26R,0.023622047244094488X0.035433070866141732*%
%ADD37R,0.031496062992125991X0.035433070866141732*%
%ADD38O,0.068X0.068*%
%ADD39R,0.068X0.068*%
%ADD40O,0.066929133858267723X0.066929133858267723*%
%ADD41R,0.066929133858267723X0.066929133858267723*%
%ADD42R,0.055118110236220472X0.047244094488188976*%
%ADD43R,0.076771653543307089X0.023622047244094488*%
%ADD44R,0.025590551181102365X0.041732283464566935*%
%ADD45R,0.01968503937007874X0.023622047244094488*%
%ADD46C,0.0039370078740157488*%
%ADD47R,0.023622047244094488X0.01968503937007874*%
%ADD48R,0.057086614173228349X0.023622047244094488*%
%ADD49O,0.082677165354330714X0.03937007874015748*%
%ADD50O,0.062992125984251982X0.03937007874015748*%
%ADD51C,0.025590551181102365*%
%ADD52R,0.057086614173228349X0.011811023622047244*%
%ADD53R,0.023622047244094488X0.035433070866141732*%
%ADD54C,0.0039370078740157488*%
%ADD55C,0.0039370078740157488*%
%ADD56R,0.031496062992125991X0.035433070866141732*%
%ADD57O,0.068X0.068*%
%ADD58R,0.068X0.068*%
%ADD59O,0.066929133858267723X0.066929133858267723*%
%ADD60R,0.066929133858267723X0.066929133858267723*%
%ADD61R,0.055118110236220472X0.047244094488188976*%
%ADD62R,0.076771653543307089X0.023622047244094488*%
%ADD63R,0.025590551181102365X0.041732283464566935*%
%ADD64R,0.01968503937007874X0.023622047244094488*%
%ADD65C,0.0039370078740157488*%
%ADD66R,0.023622047244094488X0.01968503937007874*%
%ADD67R,0.057086614173228349X0.023622047244094488*%
%ADD68O,0.082677165354330714X0.03937007874015748*%
%ADD69O,0.062992125984251982X0.03937007874015748*%
%ADD70C,0.025590551181102365*%
%ADD71R,0.057086614173228349X0.011811023622047244*%
%ADD72R,0.023622047244094488X0.035433070866141732*%
D10*
X-0003700787Y0005669291D02*
X0001122047Y0001967519D03*
X0001159448Y0001888779D03*
X0001084645Y0001888779D03*
D11*
X0001340944Y0001832283D03*
X0001440944Y0001832283D03*
X0001340944Y0001732283D03*
X0001440944Y0001732283D03*
X0001340944Y0001632283D03*
D12*
X0001440944Y0001632283D03*
D13*
X0001633070Y0001980708D03*
X0001633070Y0001880708D03*
X0001633070Y0001780708D03*
X0001633070Y0001680708D03*
X0001633070Y0001580708D03*
D14*
X0001633070Y0001480708D03*
D15*
X0000720472Y0001561023D03*
X0000633858Y0001561023D03*
X0000633858Y0001627952D03*
X0000720472Y0001627952D03*
D16*
X0001002952Y0001907283D03*
X0001002952Y0001857283D03*
X0001002952Y0001807283D03*
X0001002952Y0001757283D03*
X0001002952Y0001707283D03*
X0001002952Y0001657283D03*
X0001002952Y0001607283D03*
X0001002952Y0001557283D03*
X0000808070Y0001557283D03*
X0000808070Y0001607283D03*
X0000808070Y0001657283D03*
X0000808070Y0001707283D03*
X0000808070Y0001757283D03*
X0000808070Y0001807283D03*
X0000808070Y0001857283D03*
X0000808070Y0001907283D03*
D17*
X0000665354Y0001783464D03*
X0000627952Y0001783464D03*
X0000702755Y0001783464D03*
X0000702755Y0001696850D03*
X0000665354Y0001696850D03*
X0000627952Y0001696850D03*
D18*
X0001077559Y0001986220D03*
X0001040551Y0001986220D03*
X0001071062Y0001707677D03*
X0001108070Y0001707677D03*
X0001182874Y0001707677D03*
X0001145866Y0001707677D03*
D19*
G36*
X0000574333Y0001927723D02*
G01*
X0000577825Y0001904361D01*
X0000558356Y0001901451D01*
X0000554864Y0001924814D01*
X0000574333Y0001927723D01*
G37*
G36*
X0000610934Y0001933193D02*
G01*
X0000614426Y0001909831D01*
X0000594957Y0001906921D01*
X0000591466Y0001930284D01*
X0000610934Y0001933193D01*
G37*
D20*
X0000570866Y0001660236D03*
X0000570866Y0001623228D03*
X0000574803Y0001786614D03*
X0000574803Y0001823622D03*
D10*
X0001122047Y0001833661D03*
X0001159448Y0001754921D03*
X0001084645Y0001754921D03*
X0001125984Y0001581692D03*
X0001088582Y0001660433D03*
X0001163385Y0001660433D03*
D21*
X0000511811Y0001826771D03*
X0000511811Y0001637795D03*
X0000511811Y0001606299D03*
X0000511811Y0001858267D03*
D22*
X0000475787Y0001902362D03*
X0000475787Y0001562204D03*
D23*
X0000311220Y0001902362D03*
X0000311220Y0001562204D03*
D24*
X0000454921Y0001618503D03*
X0000454921Y0001846062D03*
D21*
X0000511811Y0001606299D03*
X0000511811Y0001637795D03*
D25*
X0000511811Y0001663385D03*
X0000511811Y0001683070D03*
X0000511811Y0001702755D03*
X0000511811Y0001722440D03*
X0000511811Y0001742125D03*
X0000511811Y0001761811D03*
X0000511811Y0001781496D03*
X0000511811Y0001801181D03*
D21*
X0000511811Y0001826771D03*
X0000511811Y0001858267D03*
D19*
G36*
X0000720046Y0001957424D02*
G01*
X0000720875Y0001957260D01*
X0000721684Y0001957016D01*
X0000722465Y0001956693D01*
X0000723211Y0001956296D01*
X0000723914Y0001955827D01*
X0000724568Y0001955291D01*
X0000725167Y0001954694D01*
X0000725703Y0001954042D01*
X0000726174Y0001953339D01*
X0000726573Y0001952594D01*
X0000726897Y0001951814D01*
X0000727143Y0001951006D01*
X0000727309Y0001950177D01*
X0000730292Y0001930221D01*
X0000730375Y0001929380D01*
X0000730376Y0001928535D01*
X0000730294Y0001927694D01*
X0000730130Y0001926865D01*
X0000729886Y0001926056D01*
X0000729563Y0001925275D01*
X0000729166Y0001924529D01*
X0000728697Y0001923825D01*
X0000728162Y0001923172D01*
X0000727565Y0001922573D01*
X0000726912Y0001922036D01*
X0000726210Y0001921566D01*
X0000725465Y0001921167D01*
X0000724684Y0001920843D01*
X0000723876Y0001920596D01*
X0000723047Y0001920431D01*
X0000706012Y0001917885D01*
X0000705171Y0001917801D01*
X0000704326Y0001917800D01*
X0000703484Y0001917882D01*
X0000702655Y0001918046D01*
X0000701846Y0001918290D01*
X0000701065Y0001918613D01*
X0000700319Y0001919011D01*
X0000699616Y0001919479D01*
X0000698962Y0001920015D01*
X0000698364Y0001920612D01*
X0000697827Y0001921264D01*
X0000697357Y0001921967D01*
X0000696958Y0001922712D01*
X0000696633Y0001923492D01*
X0000696387Y0001924301D01*
X0000696221Y0001925129D01*
X0000693239Y0001945085D01*
X0000693155Y0001945926D01*
X0000693154Y0001946771D01*
X0000693236Y0001947612D01*
X0000693400Y0001948441D01*
X0000693645Y0001949250D01*
X0000693967Y0001950032D01*
X0000694365Y0001950777D01*
X0000694833Y0001951481D01*
X0000695369Y0001952134D01*
X0000695966Y0001952733D01*
X0000696619Y0001953270D01*
X0000697321Y0001953740D01*
X0000698066Y0001954139D01*
X0000698846Y0001954463D01*
X0000699655Y0001954710D01*
X0000700483Y0001954875D01*
X0000717519Y0001957421D01*
X0000718360Y0001957505D01*
X0000719205Y0001957506D01*
X0000720046Y0001957424D01*
G37*
G36*
X0000658719Y0001948259D02*
G01*
X0000659548Y0001948095D01*
X0000660357Y0001947850D01*
X0000661139Y0001947528D01*
X0000661884Y0001947130D01*
X0000662588Y0001946661D01*
X0000663241Y0001946126D01*
X0000663840Y0001945529D01*
X0000664377Y0001944876D01*
X0000664847Y0001944174D01*
X0000665246Y0001943429D01*
X0000665570Y0001942649D01*
X0000665817Y0001941840D01*
X0000665982Y0001941011D01*
X0000668965Y0001921056D01*
X0000669049Y0001920215D01*
X0000669050Y0001919370D01*
X0000668968Y0001918529D01*
X0000668804Y0001917699D01*
X0000668559Y0001916890D01*
X0000668237Y0001916109D01*
X0000667839Y0001915363D01*
X0000667370Y0001914660D01*
X0000666835Y0001914006D01*
X0000666238Y0001913408D01*
X0000665585Y0001912871D01*
X0000664883Y0001912401D01*
X0000664138Y0001912002D01*
X0000663357Y0001911677D01*
X0000662549Y0001911431D01*
X0000661720Y0001911265D01*
X0000644685Y0001908719D01*
X0000643844Y0001908636D01*
X0000642999Y0001908635D01*
X0000642158Y0001908717D01*
X0000641329Y0001908881D01*
X0000640520Y0001909125D01*
X0000639738Y0001909448D01*
X0000638993Y0001909845D01*
X0000638289Y0001910314D01*
X0000637635Y0001910849D01*
X0000637037Y0001911446D01*
X0000636500Y0001912099D01*
X0000636030Y0001912801D01*
X0000635631Y0001913546D01*
X0000635306Y0001914327D01*
X0000635060Y0001915135D01*
X0000634894Y0001915964D01*
X0000631912Y0001935920D01*
X0000631828Y0001936761D01*
X0000631827Y0001937606D01*
X0000631909Y0001938447D01*
X0000632073Y0001939276D01*
X0000632318Y0001940085D01*
X0000632640Y0001940866D01*
X0000633038Y0001941612D01*
X0000633507Y0001942315D01*
X0000634042Y0001942969D01*
X0000634639Y0001943567D01*
X0000635292Y0001944104D01*
X0000635994Y0001944575D01*
X0000636739Y0001944974D01*
X0000637520Y0001945298D01*
X0000638328Y0001945544D01*
X0000639157Y0001945710D01*
X0000656192Y0001948256D01*
X0000657033Y0001948340D01*
X0000657878Y0001948341D01*
X0000658719Y0001948259D01*
G37*
D20*
X0000732283Y0001872834D03*
X0000732283Y0001835826D03*
D18*
X0000780708Y0001503937D03*
X0000817716Y0001503937D03*
D20*
X0000570866Y0001584251D03*
X0000570866Y0001547244D03*
X0000998031Y0001990944D03*
X0000998031Y0001953936D03*
X0000665354Y0001872834D03*
X0000665354Y0001835826D03*
D26*
X0000897637Y0001960629D03*
X0000956692Y0001960629D03*
G04 next file*
G04 #@! TF.GenerationSoftware,KiCad,Pcbnew,5.1.5-52549c5~84~ubuntu19.10.1*
G04 #@! TF.CreationDate,2020-03-14T21:45:10+01:00*
G04 #@! TF.ProjectId,ESP-TC-PROG,4553502d-5443-42d5-9052-4f472e6b6963,rev?*
G04 #@! TF.SameCoordinates,Original*
G04 #@! TF.FileFunction,Soldermask,Top*
G04 #@! TF.FilePolarity,Negative*
G04 Gerber Fmt 4.6, Leading zero omitted, Abs format (unit mm)*
G04 Created by KiCad (PCBNEW 5.1.5-52549c5~84~ubuntu19.10.1) date 2020-03-14 21:45:10*
G04 APERTURE LIST*
G04 APERTURE END LIST*
D37*
X-0003700787Y0004251968D02*
X0001122047Y0000550196D03*
X0001159448Y0000471456D03*
X0001084645Y0000471456D03*
D38*
X0001340944Y0000414960D03*
X0001440944Y0000414960D03*
X0001340944Y0000314960D03*
X0001440944Y0000314960D03*
X0001340944Y0000214960D03*
D39*
X0001440944Y0000214960D03*
D40*
X0001633070Y0000563385D03*
X0001633070Y0000463385D03*
X0001633070Y0000363385D03*
X0001633070Y0000263385D03*
X0001633070Y0000163385D03*
D41*
X0001633070Y0000063385D03*
D42*
X0000720472Y0000143700D03*
X0000633858Y0000143700D03*
X0000633858Y0000210629D03*
X0000720472Y0000210629D03*
D43*
X0001002952Y0000489960D03*
X0001002952Y0000439960D03*
X0001002952Y0000389960D03*
X0001002952Y0000339960D03*
X0001002952Y0000289960D03*
X0001002952Y0000239960D03*
X0001002952Y0000189960D03*
X0001002952Y0000139960D03*
X0000808070Y0000139960D03*
X0000808070Y0000189960D03*
X0000808070Y0000239960D03*
X0000808070Y0000289960D03*
X0000808070Y0000339960D03*
X0000808070Y0000389960D03*
X0000808070Y0000439960D03*
X0000808070Y0000489960D03*
D44*
X0000665354Y0000366141D03*
X0000627952Y0000366141D03*
X0000702755Y0000366141D03*
X0000702755Y0000279527D03*
X0000665354Y0000279527D03*
X0000627952Y0000279527D03*
D45*
X0001077559Y0000568897D03*
X0001040551Y0000568897D03*
X0001071062Y0000290354D03*
X0001108070Y0000290354D03*
X0001182874Y0000290354D03*
X0001145866Y0000290354D03*
D46*
G36*
X0000574333Y0000510401D02*
G01*
X0000577825Y0000487038D01*
X0000558356Y0000484128D01*
X0000554864Y0000507491D01*
X0000574333Y0000510401D01*
G37*
G36*
X0000610934Y0000515871D02*
G01*
X0000614426Y0000492508D01*
X0000594957Y0000489598D01*
X0000591466Y0000512961D01*
X0000610934Y0000515871D01*
G37*
D47*
X0000570866Y0000242913D03*
X0000570866Y0000205905D03*
X0000574803Y0000369291D03*
X0000574803Y0000406299D03*
D37*
X0001122047Y0000416338D03*
X0001159448Y0000337598D03*
X0001084645Y0000337598D03*
X0001125984Y0000164370D03*
X0001088582Y0000243110D03*
X0001163385Y0000243110D03*
D48*
X0000511811Y0000409448D03*
X0000511811Y0000220472D03*
X0000511811Y0000188976D03*
X0000511811Y0000440944D03*
D49*
X0000475787Y0000485039D03*
X0000475787Y0000144881D03*
D50*
X0000311220Y0000485039D03*
X0000311220Y0000144881D03*
D51*
X0000454921Y0000201181D03*
X0000454921Y0000428740D03*
D48*
X0000511811Y0000188976D03*
X0000511811Y0000220472D03*
D52*
X0000511811Y0000246062D03*
X0000511811Y0000265748D03*
X0000511811Y0000285433D03*
X0000511811Y0000305118D03*
X0000511811Y0000324803D03*
X0000511811Y0000344488D03*
X0000511811Y0000364173D03*
X0000511811Y0000383858D03*
D48*
X0000511811Y0000409448D03*
X0000511811Y0000440944D03*
D46*
G36*
X0000720046Y0000540101D02*
G01*
X0000720875Y0000539937D01*
X0000721684Y0000539693D01*
X0000722465Y0000539370D01*
X0000723211Y0000538973D01*
X0000723914Y0000538504D01*
X0000724568Y0000537968D01*
X0000725167Y0000537371D01*
X0000725703Y0000536719D01*
X0000726174Y0000536017D01*
X0000726573Y0000535272D01*
X0000726897Y0000534491D01*
X0000727143Y0000533683D01*
X0000727309Y0000532854D01*
X0000730292Y0000512898D01*
X0000730375Y0000512057D01*
X0000730376Y0000511212D01*
X0000730294Y0000510371D01*
X0000730130Y0000509542D01*
X0000729886Y0000508733D01*
X0000729563Y0000507952D01*
X0000729166Y0000507206D01*
X0000728697Y0000506503D01*
X0000728162Y0000505849D01*
X0000727565Y0000505250D01*
X0000726912Y0000504714D01*
X0000726210Y0000504243D01*
X0000725465Y0000503844D01*
X0000724684Y0000503520D01*
X0000723876Y0000503274D01*
X0000723047Y0000503108D01*
X0000706012Y0000500562D01*
X0000705171Y0000500478D01*
X0000704326Y0000500477D01*
X0000703484Y0000500559D01*
X0000702655Y0000500723D01*
X0000701846Y0000500967D01*
X0000701065Y0000501290D01*
X0000700319Y0000501688D01*
X0000699616Y0000502156D01*
X0000698962Y0000502692D01*
X0000698364Y0000503289D01*
X0000697827Y0000503942D01*
X0000697357Y0000504644D01*
X0000696958Y0000505389D01*
X0000696633Y0000506169D01*
X0000696387Y0000506978D01*
X0000696221Y0000507806D01*
X0000693239Y0000527762D01*
X0000693155Y0000528603D01*
X0000693154Y0000529448D01*
X0000693236Y0000530289D01*
X0000693400Y0000531119D01*
X0000693645Y0000531927D01*
X0000693967Y0000532709D01*
X0000694365Y0000533455D01*
X0000694833Y0000534158D01*
X0000695369Y0000534812D01*
X0000695966Y0000535410D01*
X0000696619Y0000535947D01*
X0000697321Y0000536417D01*
X0000698066Y0000536816D01*
X0000698846Y0000537141D01*
X0000699655Y0000537387D01*
X0000700483Y0000537553D01*
X0000717519Y0000540099D01*
X0000718360Y0000540182D01*
X0000719205Y0000540183D01*
X0000720046Y0000540101D01*
G37*
G36*
X0000658719Y0000530936D02*
G01*
X0000659548Y0000530772D01*
X0000660357Y0000530528D01*
X0000661139Y0000530205D01*
X0000661884Y0000529807D01*
X0000662588Y0000529339D01*
X0000663241Y0000528803D01*
X0000663840Y0000528206D01*
X0000664377Y0000527553D01*
X0000664847Y0000526851D01*
X0000665246Y0000526106D01*
X0000665570Y0000525326D01*
X0000665817Y0000524517D01*
X0000665982Y0000523689D01*
X0000668965Y0000503733D01*
X0000669049Y0000502892D01*
X0000669050Y0000502047D01*
X0000668968Y0000501206D01*
X0000668804Y0000500377D01*
X0000668559Y0000499567D01*
X0000668237Y0000498786D01*
X0000667839Y0000498041D01*
X0000667370Y0000497337D01*
X0000666835Y0000496683D01*
X0000666238Y0000496085D01*
X0000665585Y0000495548D01*
X0000664883Y0000495078D01*
X0000664138Y0000494679D01*
X0000663357Y0000494354D01*
X0000662549Y0000494108D01*
X0000661720Y0000493942D01*
X0000644685Y0000491396D01*
X0000643844Y0000491313D01*
X0000642999Y0000491312D01*
X0000642158Y0000491394D01*
X0000641329Y0000491558D01*
X0000640520Y0000491802D01*
X0000639738Y0000492125D01*
X0000638993Y0000492522D01*
X0000638289Y0000492991D01*
X0000637635Y0000493527D01*
X0000637037Y0000494124D01*
X0000636500Y0000494776D01*
X0000636030Y0000495478D01*
X0000635631Y0000496223D01*
X0000635306Y0000497004D01*
X0000635060Y0000497812D01*
X0000634894Y0000498641D01*
X0000631912Y0000518597D01*
X0000631828Y0000519438D01*
X0000631827Y0000520283D01*
X0000631909Y0000521124D01*
X0000632073Y0000521953D01*
X0000632318Y0000522762D01*
X0000632640Y0000523543D01*
X0000633038Y0000524289D01*
X0000633507Y0000524992D01*
X0000634042Y0000525646D01*
X0000634639Y0000526245D01*
X0000635292Y0000526781D01*
X0000635994Y0000527252D01*
X0000636739Y0000527651D01*
X0000637520Y0000527975D01*
X0000638328Y0000528221D01*
X0000639157Y0000528387D01*
X0000656192Y0000530933D01*
X0000657033Y0000531017D01*
X0000657878Y0000531018D01*
X0000658719Y0000530936D01*
G37*
D47*
X0000732283Y0000455511D03*
X0000732283Y0000418503D03*
D45*
X0000780708Y0000086614D03*
X0000817716Y0000086614D03*
D47*
X0000570866Y0000166929D03*
X0000570866Y0000129921D03*
X0000998031Y0000573622D03*
X0000998031Y0000536614D03*
X0000665354Y0000455511D03*
X0000665354Y0000418503D03*
D53*
X0000897637Y0000543307D03*
X0000956692Y0000543307D03*
G04 next file*
G04 #@! TF.GenerationSoftware,KiCad,Pcbnew,5.1.5-52549c5~84~ubuntu19.10.1*
G04 #@! TF.CreationDate,2020-03-14T22:11:12+01:00*
G04 #@! TF.ProjectId,edgerail,65646765-7261-4696-9c2e-6b696361645f,rev?*
G04 #@! TF.SameCoordinates,Original*
G04 #@! TF.FileFunction,Soldermask,Top*
G04 #@! TF.FilePolarity,Negative*
G04 Gerber Fmt 4.6, Leading zero omitted, Abs format (unit mm)*
G04 Created by KiCad (PCBNEW 5.1.5-52549c5~84~ubuntu19.10.1) date 2020-03-14 22:11:12*
G04 APERTURE LIST*
G04 APERTURE END LIST*
D54*
G36*
X0000063870Y0002012399D02*
G01*
X0000066255Y0002011925D01*
X0000068501Y0002010994D01*
X0000070747Y0002010064D01*
X0000074790Y0002007363D01*
X0000078229Y0002003924D01*
X0000080930Y0001999881D01*
X0000082791Y0001995389D01*
X0000083740Y0001990620D01*
X0000083740Y0001985757D01*
X0000082791Y0001980988D01*
X0000080930Y0001976496D01*
X0000078229Y0001972453D01*
X0000074790Y0001969014D01*
X0000070747Y0001966313D01*
X0000068501Y0001965382D01*
X0000066255Y0001964452D01*
X0000063870Y0001963978D01*
X0000061486Y0001963503D01*
X0000056623Y0001963503D01*
X0000054239Y0001963978D01*
X0000051854Y0001964452D01*
X0000049608Y0001965382D01*
X0000047362Y0001966313D01*
X0000043319Y0001969014D01*
X0000039880Y0001972453D01*
X0000037179Y0001976496D01*
X0000035318Y0001980988D01*
X0000034370Y0001985757D01*
X0000034370Y0001990620D01*
X0000035318Y0001995389D01*
X0000037179Y0001999881D01*
X0000039880Y0002003924D01*
X0000043319Y0002007363D01*
X0000047362Y0002010064D01*
X0000049608Y0002010994D01*
X0000051854Y0002011925D01*
X0000054239Y0002012399D01*
X0000056623Y0002012874D01*
X0000061486Y0002012874D01*
X0000063870Y0002012399D01*
G37*
G04 next file*
G04 #@! TF.GenerationSoftware,KiCad,Pcbnew,5.1.5-52549c5~84~ubuntu19.10.1*
G04 #@! TF.CreationDate,2020-03-14T22:11:12+01:00*
G04 #@! TF.ProjectId,edgerail,65646765-7261-4696-9c2e-6b696361645f,rev?*
G04 #@! TF.SameCoordinates,Original*
G04 #@! TF.FileFunction,Soldermask,Top*
G04 #@! TF.FilePolarity,Negative*
G04 Gerber Fmt 4.6, Leading zero omitted, Abs format (unit mm)*
G04 Created by KiCad (PCBNEW 5.1.5-52549c5~84~ubuntu19.10.1) date 2020-03-14 22:11:12*
G04 APERTURE LIST*
G04 APERTURE END LIST*
D55*
G36*
X0001944003Y0000034844D02*
G01*
X0001941618Y0000035318D01*
X0001939372Y0000036249D01*
X0001937126Y0000037179D01*
X0001933083Y0000039880D01*
X0001929644Y0000043319D01*
X0001926943Y0000047362D01*
X0001925082Y0000051854D01*
X0001924133Y0000056623D01*
X0001924133Y0000061486D01*
X0001925082Y0000066255D01*
X0001926943Y0000070747D01*
X0001929644Y0000074790D01*
X0001933083Y0000078229D01*
X0001937126Y0000080930D01*
X0001939372Y0000081861D01*
X0001941618Y0000082791D01*
X0001944003Y0000083265D01*
X0001946387Y0000083740D01*
X0001951250Y0000083740D01*
X0001953634Y0000083265D01*
X0001956019Y0000082791D01*
X0001958265Y0000081861D01*
X0001960511Y0000080930D01*
X0001964554Y0000078229D01*
X0001967993Y0000074790D01*
X0001970694Y0000070747D01*
X0001972555Y0000066255D01*
X0001973503Y0000061486D01*
X0001973503Y0000056623D01*
X0001972555Y0000051854D01*
X0001970694Y0000047362D01*
X0001967993Y0000043319D01*
X0001964554Y0000039880D01*
X0001960511Y0000037179D01*
X0001958265Y0000036249D01*
X0001956019Y0000035318D01*
X0001953634Y0000034844D01*
X0001951250Y0000034370D01*
X0001946387Y0000034370D01*
X0001944003Y0000034844D01*
G37*
G04 next file*
G04 #@! TF.GenerationSoftware,KiCad,Pcbnew,5.1.5-52549c5~84~ubuntu19.10.1*
G04 #@! TF.CreationDate,2020-03-14T21:45:10+01:00*
G04 #@! TF.ProjectId,ESP-TC-PROG,4553502d-5443-42d5-9052-4f472e6b6963,rev?*
G04 #@! TF.SameCoordinates,Original*
G04 #@! TF.FileFunction,Soldermask,Top*
G04 #@! TF.FilePolarity,Negative*
G04 Gerber Fmt 4.6, Leading zero omitted, Abs format (unit mm)*
G04 Created by KiCad (PCBNEW 5.1.5-52549c5~84~ubuntu19.10.1) date 2020-03-14 21:45:10*
G04 APERTURE LIST*
G04 APERTURE END LIST*
D56*
X-0003700787Y0004960629D02*
X0001122047Y0001258858D03*
X0001159448Y0001180118D03*
X0001084645Y0001180118D03*
D57*
X0001340944Y0001123622D03*
X0001440944Y0001123622D03*
X0001340944Y0001023622D03*
X0001440944Y0001023622D03*
X0001340944Y0000923622D03*
D58*
X0001440944Y0000923622D03*
D59*
X0001633070Y0001272047D03*
X0001633070Y0001172047D03*
X0001633070Y0001072047D03*
X0001633070Y0000972047D03*
X0001633070Y0000872047D03*
D60*
X0001633070Y0000772047D03*
D61*
X0000720472Y0000852362D03*
X0000633858Y0000852362D03*
X0000633858Y0000919291D03*
X0000720472Y0000919291D03*
D62*
X0001002952Y0001198622D03*
X0001002952Y0001148622D03*
X0001002952Y0001098622D03*
X0001002952Y0001048622D03*
X0001002952Y0000998622D03*
X0001002952Y0000948622D03*
X0001002952Y0000898622D03*
X0001002952Y0000848622D03*
X0000808070Y0000848622D03*
X0000808070Y0000898622D03*
X0000808070Y0000948622D03*
X0000808070Y0000998622D03*
X0000808070Y0001048622D03*
X0000808070Y0001098622D03*
X0000808070Y0001148622D03*
X0000808070Y0001198622D03*
D63*
X0000665354Y0001074803D03*
X0000627952Y0001074803D03*
X0000702755Y0001074803D03*
X0000702755Y0000988188D03*
X0000665354Y0000988188D03*
X0000627952Y0000988188D03*
D64*
X0001077559Y0001277559D03*
X0001040551Y0001277559D03*
X0001071062Y0000999015D03*
X0001108070Y0000999015D03*
X0001182874Y0000999015D03*
X0001145866Y0000999015D03*
D65*
G36*
X0000574333Y0001219062D02*
G01*
X0000577825Y0001195699D01*
X0000558356Y0001192790D01*
X0000554864Y0001216152D01*
X0000574333Y0001219062D01*
G37*
G36*
X0000610934Y0001224532D02*
G01*
X0000614426Y0001201170D01*
X0000594957Y0001198260D01*
X0000591466Y0001221622D01*
X0000610934Y0001224532D01*
G37*
D66*
X0000570866Y0000951574D03*
X0000570866Y0000914566D03*
X0000574803Y0001077952D03*
X0000574803Y0001114960D03*
D56*
X0001122047Y0001125000D03*
X0001159448Y0001046259D03*
X0001084645Y0001046259D03*
X0001125984Y0000873031D03*
X0001088582Y0000951771D03*
X0001163385Y0000951771D03*
D67*
X0000511811Y0001118110D03*
X0000511811Y0000929133D03*
X0000511811Y0000897637D03*
X0000511811Y0001149606D03*
D68*
X0000475787Y0001193700D03*
X0000475787Y0000853543D03*
D69*
X0000311220Y0001193700D03*
X0000311220Y0000853543D03*
D70*
X0000454921Y0000909842D03*
X0000454921Y0001137401D03*
D67*
X0000511811Y0000897637D03*
X0000511811Y0000929133D03*
D71*
X0000511811Y0000954724D03*
X0000511811Y0000974409D03*
X0000511811Y0000994094D03*
X0000511811Y0001013779D03*
X0000511811Y0001033464D03*
X0000511811Y0001053149D03*
X0000511811Y0001072834D03*
X0000511811Y0001092519D03*
D67*
X0000511811Y0001118110D03*
X0000511811Y0001149606D03*
D65*
G36*
X0000720046Y0001248763D02*
G01*
X0000720875Y0001248599D01*
X0000721684Y0001248354D01*
X0000722465Y0001248032D01*
X0000723211Y0001247634D01*
X0000723914Y0001247165D01*
X0000724568Y0001246630D01*
X0000725167Y0001246033D01*
X0000725703Y0001245380D01*
X0000726174Y0001244678D01*
X0000726573Y0001243933D01*
X0000726897Y0001243153D01*
X0000727143Y0001242344D01*
X0000727309Y0001241515D01*
X0000730292Y0001221560D01*
X0000730375Y0001220719D01*
X0000730376Y0001219874D01*
X0000730294Y0001219032D01*
X0000730130Y0001218203D01*
X0000729886Y0001217394D01*
X0000729563Y0001216613D01*
X0000729166Y0001215867D01*
X0000728697Y0001215164D01*
X0000728162Y0001214510D01*
X0000727565Y0001213912D01*
X0000726912Y0001213375D01*
X0000726210Y0001212905D01*
X0000725465Y0001212505D01*
X0000724684Y0001212181D01*
X0000723876Y0001211935D01*
X0000723047Y0001211769D01*
X0000706012Y0001209223D01*
X0000705171Y0001209139D01*
X0000704326Y0001209139D01*
X0000703484Y0001209221D01*
X0000702655Y0001209385D01*
X0000701846Y0001209629D01*
X0000701065Y0001209952D01*
X0000700319Y0001210349D01*
X0000699616Y0001210818D01*
X0000698962Y0001211353D01*
X0000698364Y0001211950D01*
X0000697827Y0001212603D01*
X0000697357Y0001213305D01*
X0000696958Y0001214050D01*
X0000696633Y0001214831D01*
X0000696387Y0001215639D01*
X0000696221Y0001216468D01*
X0000693239Y0001236423D01*
X0000693155Y0001237264D01*
X0000693154Y0001238110D01*
X0000693236Y0001238951D01*
X0000693400Y0001239780D01*
X0000693645Y0001240589D01*
X0000693967Y0001241370D01*
X0000694365Y0001242116D01*
X0000694833Y0001242819D01*
X0000695369Y0001243473D01*
X0000695966Y0001244071D01*
X0000696619Y0001244608D01*
X0000697321Y0001245078D01*
X0000698066Y0001245478D01*
X0000698846Y0001245802D01*
X0000699655Y0001246048D01*
X0000700483Y0001246214D01*
X0000717519Y0001248760D01*
X0000718360Y0001248844D01*
X0000719205Y0001248845D01*
X0000720046Y0001248763D01*
G37*
G36*
X0000658719Y0001239597D02*
G01*
X0000659548Y0001239433D01*
X0000660357Y0001239189D01*
X0000661139Y0001238866D01*
X0000661884Y0001238469D01*
X0000662588Y0001238000D01*
X0000663241Y0001237465D01*
X0000663840Y0001236868D01*
X0000664377Y0001236215D01*
X0000664847Y0001235513D01*
X0000665246Y0001234768D01*
X0000665570Y0001233987D01*
X0000665817Y0001233179D01*
X0000665982Y0001232350D01*
X0000668965Y0001212394D01*
X0000669049Y0001211553D01*
X0000669050Y0001210708D01*
X0000668968Y0001209867D01*
X0000668804Y0001209038D01*
X0000668559Y0001208229D01*
X0000668237Y0001207448D01*
X0000667839Y0001206702D01*
X0000667370Y0001205999D01*
X0000666835Y0001205345D01*
X0000666238Y0001204747D01*
X0000665585Y0001204210D01*
X0000664883Y0001203739D01*
X0000664138Y0001203340D01*
X0000663357Y0001203016D01*
X0000662549Y0001202770D01*
X0000661720Y0001202604D01*
X0000644685Y0001200058D01*
X0000643844Y0001199974D01*
X0000642999Y0001199973D01*
X0000642158Y0001200055D01*
X0000641329Y0001200219D01*
X0000640520Y0001200464D01*
X0000639738Y0001200786D01*
X0000638993Y0001201184D01*
X0000638289Y0001201652D01*
X0000637635Y0001202188D01*
X0000637037Y0001202785D01*
X0000636500Y0001203438D01*
X0000636030Y0001204140D01*
X0000635631Y0001204885D01*
X0000635306Y0001205665D01*
X0000635060Y0001206474D01*
X0000634894Y0001207303D01*
X0000631912Y0001227258D01*
X0000631828Y0001228099D01*
X0000631827Y0001228944D01*
X0000631909Y0001229785D01*
X0000632073Y0001230615D01*
X0000632318Y0001231424D01*
X0000632640Y0001232205D01*
X0000633038Y0001232951D01*
X0000633507Y0001233654D01*
X0000634042Y0001234308D01*
X0000634639Y0001234906D01*
X0000635292Y0001235443D01*
X0000635994Y0001235913D01*
X0000636739Y0001236312D01*
X0000637520Y0001236637D01*
X0000638328Y0001236883D01*
X0000639157Y0001237049D01*
X0000656192Y0001239595D01*
X0000657033Y0001239678D01*
X0000657878Y0001239679D01*
X0000658719Y0001239597D01*
G37*
D66*
X0000732283Y0001164173D03*
X0000732283Y0001127165D03*
D64*
X0000780708Y0000795275D03*
X0000817716Y0000795275D03*
D66*
X0000570866Y0000875590D03*
X0000570866Y0000838582D03*
X0000998031Y0001282283D03*
X0000998031Y0001245275D03*
X0000665354Y0001164173D03*
X0000665354Y0001127165D03*
D72*
X0000897637Y0001251968D03*
X0000956692Y0001251968D03*
M02*