%
M48
METRIC,000.000
T01C0.65
T10C0.40
T11C0.60
T12C1.00
T13C1.02
T14C1.15
%
T01
X011554Y046890
X011554Y041109
X011554Y010890
X011554Y005109
X011554Y028890
X011554Y023109
T10
X011110Y045039
X011430Y045709
X014259Y043225
X014600Y047200
X015100Y042900
X015260Y044569
X015900Y046700
X015999Y048000
X016959Y041290
X017599Y038501
X017749Y046649
X018798Y038399
X019101Y049100
X019619Y041190
X021999Y046100
X022100Y048800
X022499Y044398
X022499Y042999
X022499Y041599
X022499Y040200
X022601Y046649
X023000Y048399
X023099Y047401
X023701Y046799
X023711Y048450
X026401Y049499
X027000Y046550
X027300Y040200
X028499Y048950
X028499Y045498
X030099Y051300
X030299Y049600
X030299Y046900
X030350Y036900
X030899Y041300
X031750Y041201
X031999Y047899
X031999Y044899
X032499Y040251
X032649Y042100
X034198Y049499
X038100Y045999
X038151Y043349
X038151Y041450
X038300Y049100
X039299Y048198
X039799Y044899
X039799Y039451
X039850Y043349
X039850Y041450
X039901Y036900
X011110Y009039
X011430Y009709
X014259Y007225
X014600Y011200
X015100Y006900
X015260Y008569
X015900Y010700
X015999Y012000
X016959Y005290
X017599Y002501
X017749Y010649
X018798Y002399
X019101Y013100
X019619Y005190
X021999Y010100
X022100Y012800
X022499Y008398
X022499Y006999
X022499Y005599
X022499Y004200
X022601Y010649
X023000Y012399
X023099Y011401
X023701Y010799
X023711Y012450
X026401Y013499
X027000Y010550
X027300Y004200
X028499Y012950
X028499Y009498
X030099Y015300
X030299Y013600
X030299Y010900
X030350Y000900
X030899Y005300
X031750Y005201
X031999Y011899
X031999Y008899
X032499Y004251
X032649Y006100
X034198Y013499
X038100Y009999
X038151Y007349
X038151Y005450
X038300Y013100
X039299Y012198
X039799Y008899
X039799Y003451
X039850Y007349
X039850Y005450
X039901Y000900
X011110Y027039
X011430Y027709
X014259Y025225
X014600Y029200
X015100Y024900
X015260Y026569
X015900Y028700
X015999Y030000
X016959Y023290
X017599Y020501
X017749Y028649
X018798Y020399
X019101Y031100
X019619Y023190
X021999Y028100
X022100Y030800
X022499Y026398
X022499Y024999
X022499Y023599
X022499Y022200
X022601Y028649
X023000Y030399
X023099Y029401
X023701Y028799
X023711Y030450
X026401Y031499
X027000Y028550
X027300Y022200
X028499Y030950
X028499Y027498
X030099Y033300
X030299Y031600
X030299Y028900
X030350Y018900
X030899Y023300
X031750Y023201
X031999Y029899
X031999Y026899
X032499Y022251
X032649Y024100
X034198Y031499
X038100Y027999
X038151Y025349
X038151Y023450
X038300Y031100
X039299Y030198
X039799Y026899
X039799Y021451
X039850Y025349
X039850Y023450
X039901Y018900
T11
X008204Y048320G85X007605Y048320
X008204Y039679G85X007605Y039679
X012634Y048320G85X011534Y048320
X012634Y039679G85X011534Y039679
X008204Y012320G85X007605Y012320
X008204Y003679G85X007605Y003679
X012634Y012320G85X011534Y012320
X012634Y003679G85X011534Y003679
X008204Y030320G85X007605Y030320
X008204Y021679G85X007605Y021679
X012634Y030320G85X011534Y030320
X012634Y021679G85X011534Y021679
T12
X041481Y050309
X041481Y047769
X041481Y045229
X041481Y042689
X041481Y040149
X041481Y037609
X041481Y014309
X041481Y011769
X041481Y009229
X041481Y006689
X041481Y004149
X041481Y001609
X041481Y032308
X041481Y029769
X041481Y027229
X041481Y024689
X041481Y022149
X041481Y019609
T13
X034059Y046540
X034059Y044000
X034059Y041460
X036599Y046540
X036599Y044000
X036599Y041460
X034059Y010540
X034059Y008000
X034059Y005460
X036599Y010540
X036599Y008000
X036599Y005460
X034059Y028540
X034059Y026000
X034059Y023460
X036599Y028540
X036599Y026000
X036599Y023460
T14
X001501Y050498
X049498Y001501
M30