%MOIN*%
%OFA0B0*%
%FSLAX46Y46*%
%IPPOS*%
%LPD*%
%ADD10O,0.068X0.068*%
%ADD11R,0.068X0.068*%
%ADD12O,0.066929133858267723X0.066929133858267723*%
%ADD13R,0.066929133858267723X0.066929133858267723*%
%ADD14O,0.082677165354330714X0.03937007874015748*%
%ADD15O,0.062992125984251982X0.03937007874015748*%
%ADD16C,0.025590551181102365*%
%ADD27O,0.068X0.068*%
%ADD28R,0.068X0.068*%
%ADD29O,0.066929133858267723X0.066929133858267723*%
%ADD30R,0.066929133858267723X0.066929133858267723*%
%ADD31O,0.082677165354330714X0.03937007874015748*%
%ADD32O,0.062992125984251982X0.03937007874015748*%
%ADD33C,0.025590551181102365*%
%ADD34C,0.0039370078740157488*%
%ADD35C,0.0039370078740157488*%
%ADD36O,0.068X0.068*%
%ADD37R,0.068X0.068*%
%ADD38O,0.066929133858267723X0.066929133858267723*%
%ADD39R,0.066929133858267723X0.066929133858267723*%
%ADD40O,0.082677165354330714X0.03937007874015748*%
%ADD41O,0.062992125984251982X0.03937007874015748*%
%ADD42C,0.025590551181102365*%
D10*
X-0003700787Y0005669291D02*
X0001340944Y0001832283D03*
X0001440944Y0001832283D03*
X0001340944Y0001732283D03*
X0001440944Y0001732283D03*
X0001340944Y0001632283D03*
D11*
X0001440944Y0001632283D03*
D12*
X0001633070Y0001980708D03*
X0001633070Y0001880708D03*
X0001633070Y0001780708D03*
X0001633070Y0001680708D03*
X0001633070Y0001580708D03*
D13*
X0001633070Y0001480708D03*
D14*
X0000475787Y0001902362D03*
X0000475787Y0001562204D03*
D15*
X0000311220Y0001902362D03*
X0000311220Y0001562204D03*
D16*
X0000454921Y0001618503D03*
X0000454921Y0001846062D03*
G04 next file*
G04 #@! TF.GenerationSoftware,KiCad,Pcbnew,5.1.5-52549c5~84~ubuntu19.10.1*
G04 #@! TF.CreationDate,2020-03-14T21:45:10+01:00*
G04 #@! TF.ProjectId,ESP-TC-PROG,4553502d-5443-42d5-9052-4f472e6b6963,rev?*
G04 #@! TF.SameCoordinates,Original*
G04 #@! TF.FileFunction,Soldermask,Bot*
G04 #@! TF.FilePolarity,Negative*
G04 Gerber Fmt 4.6, Leading zero omitted, Abs format (unit mm)*
G04 Created by KiCad (PCBNEW 5.1.5-52549c5~84~ubuntu19.10.1) date 2020-03-14 21:45:10*
G04 APERTURE LIST*
G04 APERTURE END LIST*
D27*
X-0003700787Y0004251968D02*
X0001340944Y0000414960D03*
X0001440944Y0000414960D03*
X0001340944Y0000314960D03*
X0001440944Y0000314960D03*
X0001340944Y0000214960D03*
D28*
X0001440944Y0000214960D03*
D29*
X0001633070Y0000563385D03*
X0001633070Y0000463385D03*
X0001633070Y0000363385D03*
X0001633070Y0000263385D03*
X0001633070Y0000163385D03*
D30*
X0001633070Y0000063385D03*
D31*
X0000475787Y0000485039D03*
X0000475787Y0000144881D03*
D32*
X0000311220Y0000485039D03*
X0000311220Y0000144881D03*
D33*
X0000454921Y0000201181D03*
X0000454921Y0000428740D03*
G04 next file*
G04 #@! TF.GenerationSoftware,KiCad,Pcbnew,5.1.5-52549c5~84~ubuntu19.10.1*
G04 #@! TF.CreationDate,2020-03-14T22:11:12+01:00*
G04 #@! TF.ProjectId,edgerail,65646765-7261-4696-9c2e-6b696361645f,rev?*
G04 #@! TF.SameCoordinates,Original*
G04 #@! TF.FileFunction,Soldermask,Bot*
G04 #@! TF.FilePolarity,Negative*
G04 Gerber Fmt 4.6, Leading zero omitted, Abs format (unit mm)*
G04 Created by KiCad (PCBNEW 5.1.5-52549c5~84~ubuntu19.10.1) date 2020-03-14 22:11:12*
G04 APERTURE LIST*
G04 APERTURE END LIST*
D34*
G36*
X0000063870Y0002012399D02*
G01*
X0000066255Y0002011925D01*
X0000068501Y0002010994D01*
X0000070747Y0002010064D01*
X0000074790Y0002007363D01*
X0000078229Y0002003924D01*
X0000080930Y0001999881D01*
X0000082791Y0001995389D01*
X0000083740Y0001990620D01*
X0000083740Y0001985757D01*
X0000082791Y0001980988D01*
X0000080930Y0001976496D01*
X0000078229Y0001972453D01*
X0000074790Y0001969014D01*
X0000070747Y0001966313D01*
X0000068501Y0001965382D01*
X0000066255Y0001964452D01*
X0000063870Y0001963978D01*
X0000061486Y0001963503D01*
X0000056623Y0001963503D01*
X0000054239Y0001963978D01*
X0000051854Y0001964452D01*
X0000049608Y0001965382D01*
X0000047362Y0001966313D01*
X0000043319Y0001969014D01*
X0000039880Y0001972453D01*
X0000037179Y0001976496D01*
X0000035318Y0001980988D01*
X0000034370Y0001985757D01*
X0000034370Y0001990620D01*
X0000035318Y0001995389D01*
X0000037179Y0001999881D01*
X0000039880Y0002003924D01*
X0000043319Y0002007363D01*
X0000047362Y0002010064D01*
X0000049608Y0002010994D01*
X0000051854Y0002011925D01*
X0000054239Y0002012399D01*
X0000056623Y0002012874D01*
X0000061486Y0002012874D01*
X0000063870Y0002012399D01*
G37*
G04 next file*
G04 #@! TF.GenerationSoftware,KiCad,Pcbnew,5.1.5-52549c5~84~ubuntu19.10.1*
G04 #@! TF.CreationDate,2020-03-14T22:11:12+01:00*
G04 #@! TF.ProjectId,edgerail,65646765-7261-4696-9c2e-6b696361645f,rev?*
G04 #@! TF.SameCoordinates,Original*
G04 #@! TF.FileFunction,Soldermask,Bot*
G04 #@! TF.FilePolarity,Negative*
G04 Gerber Fmt 4.6, Leading zero omitted, Abs format (unit mm)*
G04 Created by KiCad (PCBNEW 5.1.5-52549c5~84~ubuntu19.10.1) date 2020-03-14 22:11:12*
G04 APERTURE LIST*
G04 APERTURE END LIST*
D35*
G36*
X0001944003Y0000034844D02*
G01*
X0001941618Y0000035318D01*
X0001939372Y0000036249D01*
X0001937126Y0000037179D01*
X0001933083Y0000039880D01*
X0001929644Y0000043319D01*
X0001926943Y0000047362D01*
X0001925082Y0000051854D01*
X0001924133Y0000056623D01*
X0001924133Y0000061486D01*
X0001925082Y0000066255D01*
X0001926943Y0000070747D01*
X0001929644Y0000074790D01*
X0001933083Y0000078229D01*
X0001937126Y0000080930D01*
X0001939372Y0000081861D01*
X0001941618Y0000082791D01*
X0001944003Y0000083265D01*
X0001946387Y0000083740D01*
X0001951250Y0000083740D01*
X0001953634Y0000083265D01*
X0001956019Y0000082791D01*
X0001958265Y0000081861D01*
X0001960511Y0000080930D01*
X0001964554Y0000078229D01*
X0001967993Y0000074790D01*
X0001970694Y0000070747D01*
X0001972555Y0000066255D01*
X0001973503Y0000061486D01*
X0001973503Y0000056623D01*
X0001972555Y0000051854D01*
X0001970694Y0000047362D01*
X0001967993Y0000043319D01*
X0001964554Y0000039880D01*
X0001960511Y0000037179D01*
X0001958265Y0000036249D01*
X0001956019Y0000035318D01*
X0001953634Y0000034844D01*
X0001951250Y0000034370D01*
X0001946387Y0000034370D01*
X0001944003Y0000034844D01*
G37*
G04 next file*
G04 #@! TF.GenerationSoftware,KiCad,Pcbnew,5.1.5-52549c5~84~ubuntu19.10.1*
G04 #@! TF.CreationDate,2020-03-14T21:45:10+01:00*
G04 #@! TF.ProjectId,ESP-TC-PROG,4553502d-5443-42d5-9052-4f472e6b6963,rev?*
G04 #@! TF.SameCoordinates,Original*
G04 #@! TF.FileFunction,Soldermask,Bot*
G04 #@! TF.FilePolarity,Negative*
G04 Gerber Fmt 4.6, Leading zero omitted, Abs format (unit mm)*
G04 Created by KiCad (PCBNEW 5.1.5-52549c5~84~ubuntu19.10.1) date 2020-03-14 21:45:10*
G04 APERTURE LIST*
G04 APERTURE END LIST*
D36*
X-0003700787Y0004960629D02*
X0001340944Y0001123622D03*
X0001440944Y0001123622D03*
X0001340944Y0001023622D03*
X0001440944Y0001023622D03*
X0001340944Y0000923622D03*
D37*
X0001440944Y0000923622D03*
D38*
X0001633070Y0001272047D03*
X0001633070Y0001172047D03*
X0001633070Y0001072047D03*
X0001633070Y0000972047D03*
X0001633070Y0000872047D03*
D39*
X0001633070Y0000772047D03*
D40*
X0000475787Y0001193700D03*
X0000475787Y0000853543D03*
D41*
X0000311220Y0001193700D03*
X0000311220Y0000853543D03*
D42*
X0000454921Y0000909842D03*
X0000454921Y0001137401D03*
M02*