%MOIN*%
%OFA0B0*%
%FSLAX44Y44*%
%IPPOS*%
%LPD*%
%ADD10C,0*%
D10*
X00018897Y00004237D02*
X00018897Y00004237D01*
X00018897Y00002061D01*
X00018896Y00002028D01*
X00018892Y00001995D01*
X00018885Y00001963D01*
X00018875Y00001931D01*
X00018863Y00001901D01*
X00018848Y00001871D01*
X00018831Y00001843D01*
X00018812Y00001816D01*
X00018790Y00001791D01*
X00018767Y00001768D01*
X00018741Y00001747D01*
X00018714Y00001729D01*
X00018686Y00001712D01*
X00018656Y00001698D01*
X00018625Y00001687D01*
X00018593Y00001678D01*
X00018561Y00001671D01*
X00018528Y00001668D01*
X00018495Y00001667D01*
X00018462Y00001669D01*
X00017765Y00001743D01*
X00017737Y00001747D01*
X00017709Y00001753D01*
X00017681Y00001761D01*
X00017654Y00001771D01*
X00017628Y00001783D01*
X00017603Y00001797D01*
X00017579Y00001813D01*
X00017556Y00001831D01*
X00017534Y00001850D01*
X00017514Y00001871D01*
X00017495Y00001893D01*
X00017479Y00001916D01*
X00017464Y00001941D01*
X00017450Y00001967D01*
X00017439Y00001993D01*
X00017430Y00002020D01*
X00017422Y00002048D01*
X00017417Y00002077D01*
X00017414Y00002105D01*
X00017413Y00002134D01*
X00017413Y00004164D01*
X00017414Y00004193D01*
X00017417Y00004221D01*
X00017422Y00004250D01*
X00017430Y00004278D01*
X00017439Y00004305D01*
X00017450Y00004332D01*
X00017464Y00004357D01*
X00017479Y00004382D01*
X00017495Y00004405D01*
X00017514Y00004427D01*
X00017534Y00004448D01*
X00017556Y00004467D01*
X00017579Y00004485D01*
X00017603Y00004501D01*
X00017628Y00004515D01*
X00017654Y00004527D01*
X00017681Y00004537D01*
X00017709Y00004545D01*
X00017737Y00004551D01*
X00017765Y00004556D01*
X00018462Y00004629D01*
X00018495Y00004631D01*
X00018528Y00004630D01*
X00018561Y00004627D01*
X00018593Y00004621D01*
X00018625Y00004612D01*
X00018656Y00004600D01*
X00018686Y00004586D01*
X00018714Y00004570D01*
X00018741Y00004551D01*
X00018767Y00004530D01*
X00018790Y00004507D01*
X00018812Y00004482D01*
X00018831Y00004455D01*
X00018848Y00004427D01*
X00018863Y00004397D01*
X00018875Y00004367D01*
X00018885Y00004335D01*
X00018892Y00004303D01*
X00018896Y00004270D01*
X00018897Y00004237D01*
X00017409Y00020242D02*
X00017409Y00020242D01*
X00017409Y00020243D01*
X00017398Y00020288D01*
X00017381Y00020330D01*
X00017356Y00020370D01*
X00017326Y00020405D01*
X00017291Y00020435D01*
X00017252Y00020459D01*
X00017209Y00020477D01*
X00017164Y00020488D01*
X00017118Y00020492D01*
X00011988Y00020492D01*
X00004448Y00019389D01*
X00002923Y00019389D01*
X00002877Y00019386D01*
X00002831Y00019375D01*
X00002789Y00019357D01*
X00002749Y00019333D01*
X00002714Y00019303D01*
X00002684Y00019268D01*
X00002660Y00019228D01*
X00002642Y00019185D01*
X00002631Y00019140D01*
X00002627Y00019094D01*
X00002627Y00017908D01*
X00002626Y00017881D01*
X00002623Y00017853D01*
X00002619Y00017825D01*
X00002612Y00017798D01*
X00002603Y00017772D01*
X00002592Y00017746D01*
X00002580Y00017721D01*
X00002566Y00017697D01*
X00002550Y00017674D01*
X00002532Y00017652D01*
X00002513Y00017631D01*
X00002493Y00017612D01*
X00002471Y00017594D01*
X00002448Y00017578D01*
X00002424Y00017564D01*
X00002399Y00017551D01*
X00002374Y00017540D01*
X00002347Y00017531D01*
X00002320Y00017524D01*
X00002293Y00017519D01*
X00001633Y00017420D01*
X00001599Y00017416D01*
X00001566Y00017415D01*
X00001532Y00017418D01*
X00001498Y00017423D01*
X00001465Y00017431D01*
X00001433Y00017441D01*
X00001402Y00017455D01*
X00001372Y00017471D01*
X00001344Y00017490D01*
X00001318Y00017511D01*
X00001293Y00017534D01*
X00001270Y00017559D01*
X00001250Y00017586D01*
X00001232Y00017615D01*
X00001216Y00017645D01*
X00001204Y00017676D01*
X00001194Y00017708D01*
X00001186Y00017742D01*
X00001182Y00017775D01*
X00001181Y00017809D01*
X00001181Y00020472D01*
X00000393Y00020472D01*
X00000332Y00020467D01*
X00000272Y00020453D01*
X00000214Y00020429D01*
X00000162Y00020397D01*
X00000115Y00020357D01*
X00000075Y00020310D01*
X00000042Y00020257D01*
X00000019Y00020200D01*
X00000004Y00020140D01*
X00000000Y00020078D01*
X00000000Y00000393D01*
X00000004Y00000332D01*
X00000019Y00000272D01*
X00000042Y00000214D01*
X00000075Y00000162D01*
X00000115Y00000115D01*
X00000162Y00000075D01*
X00000214Y00000042D01*
X00000272Y00000019D01*
X00000332Y00000004D01*
X00000393Y00000000D01*
X00001181Y00000000D01*
X00001181Y00002662D01*
X00001182Y00002696D01*
X00001186Y00002730D01*
X00001194Y00002763D01*
X00001204Y00002795D01*
X00001216Y00002827D01*
X00001232Y00002857D01*
X00001250Y00002885D01*
X00001270Y00002913D01*
X00001293Y00002938D01*
X00001318Y00002961D01*
X00001344Y00002982D01*
X00001372Y00003000D01*
X00001402Y00003017D01*
X00001433Y00003030D01*
X00001465Y00003041D01*
X00001498Y00003049D01*
X00001532Y00003054D01*
X00001566Y00003056D01*
X00001599Y00003055D01*
X00001633Y00003052D01*
X00002293Y00002952D01*
X00002320Y00002947D01*
X00002347Y00002940D01*
X00002374Y00002931D01*
X00002399Y00002920D01*
X00002424Y00002907D01*
X00002448Y00002893D01*
X00002471Y00002877D01*
X00002493Y00002859D01*
X00002513Y00002840D01*
X00002532Y00002820D01*
X00002550Y00002798D01*
X00002566Y00002775D01*
X00002580Y00002751D01*
X00002592Y00002726D01*
X00002603Y00002700D01*
X00002612Y00002673D01*
X00002619Y00002646D01*
X00002623Y00002619D01*
X00002626Y00002591D01*
X00002627Y00002563D01*
X00002627Y00001377D01*
X00002631Y00001331D01*
X00002642Y00001286D01*
X00002660Y00001243D01*
X00002684Y00001204D01*
X00002714Y00001169D01*
X00002749Y00001139D01*
X00002789Y00001114D01*
X00002831Y00001097D01*
X00002877Y00001086D01*
X00002923Y00001082D01*
X00004438Y00001082D01*
X00012007Y-00000019D01*
X00017118Y-00000019D01*
X00017164Y-00000016D01*
X00017209Y-00000005D01*
X00017252Y00000012D01*
X00017291Y00000036D01*
X00017326Y00000066D01*
X00017356Y00000102D01*
X00017381Y00000141D01*
X00017398Y00000184D01*
X00017409Y00000229D01*
X00017409Y00000230D01*
X00017409Y00000230D01*
X00017412Y00000256D01*
X00017417Y00000282D01*
X00017424Y00000308D01*
X00017432Y00000333D01*
X00017442Y00000358D01*
X00017453Y00000382D01*
X00017466Y00000405D01*
X00017481Y00000427D01*
X00017497Y00000448D01*
X00017514Y00000468D01*
X00017533Y00000487D01*
X00017553Y00000504D01*
X00017574Y00000520D01*
X00017597Y00000535D01*
X00017620Y00000548D01*
X00017644Y00000559D01*
X00017668Y00000569D01*
X00017694Y00000577D01*
X00017719Y00000584D01*
X00017745Y00000588D01*
X00018447Y00000690D01*
X00018481Y00000693D01*
X00018514Y00000694D01*
X00018548Y00000691D01*
X00018581Y00000686D01*
X00018614Y00000678D01*
X00018646Y00000667D01*
X00018677Y00000654D01*
X00018707Y00000638D01*
X00018735Y00000619D01*
X00018761Y00000598D01*
X00018786Y00000575D01*
X00018808Y00000550D01*
X00018828Y00000523D01*
X00018846Y00000494D01*
X00018862Y00000464D01*
X00018874Y00000433D01*
X00018884Y00000400D01*
X00018891Y00000367D01*
X00018896Y00000334D01*
X00018897Y00000300D01*
X00018897Y00000300D01*
X00018897Y00000000D01*
X00019685Y00000000D01*
X00019746Y00000004D01*
X00019806Y00000019D01*
X00019863Y00000042D01*
X00019916Y00000075D01*
X00019963Y00000115D01*
X00020003Y00000162D01*
X00020035Y00000214D01*
X00020059Y00000272D01*
X00020073Y00000332D01*
X00020078Y00000393D01*
X00020078Y00020078D01*
X00020073Y00020140D01*
X00020059Y00020200D01*
X00020035Y00020257D01*
X00020003Y00020310D01*
X00019963Y00020357D01*
X00019916Y00020397D01*
X00019863Y00020429D01*
X00019806Y00020453D01*
X00019746Y00020467D01*
X00019685Y00020472D01*
X00018897Y00020472D01*
X00018897Y00020171D01*
X00018896Y00020137D01*
X00018891Y00020104D01*
X00018884Y00020071D01*
X00018874Y00020039D01*
X00018862Y00020008D01*
X00018846Y00019977D01*
X00018828Y00019949D01*
X00018808Y00019922D01*
X00018786Y00019897D01*
X00018761Y00019874D01*
X00018735Y00019853D01*
X00018707Y00019834D01*
X00018677Y00019818D01*
X00018646Y00019804D01*
X00018614Y00019793D01*
X00018581Y00019785D01*
X00018548Y00019780D01*
X00018514Y00019778D01*
X00018481Y00019778D01*
X00018447Y00019782D01*
X00017745Y00019883D01*
X00017719Y00019888D01*
X00017694Y00019894D01*
X00017668Y00019902D01*
X00017644Y00019912D01*
X00017620Y00019924D01*
X00017597Y00019937D01*
X00017574Y00019951D01*
X00017553Y00019967D01*
X00017533Y00019985D01*
X00017514Y00020004D01*
X00017497Y00020024D01*
X00017481Y00020045D01*
X00017466Y00020067D01*
X00017453Y00020090D01*
X00017442Y00020114D01*
X00017432Y00020138D01*
X00017424Y00020164D01*
X00017417Y00020189D01*
X00017412Y00020215D01*
X00017409Y00020242D01*
X00018897Y00005998D02*
X00018897Y00005998D01*
X00018896Y00005964D01*
X00018891Y00005931D01*
X00018884Y00005898D01*
X00018874Y00005866D01*
X00018862Y00005834D01*
X00018846Y00005804D01*
X00018828Y00005776D01*
X00018808Y00005749D01*
X00018786Y00005723D01*
X00018761Y00005700D01*
X00018735Y00005679D01*
X00018707Y00005661D01*
X00018677Y00005645D01*
X00018646Y00005631D01*
X00018614Y00005620D01*
X00018581Y00005612D01*
X00018548Y00005607D01*
X00018514Y00005604D01*
X00018481Y00005605D01*
X00018447Y00005608D01*
X00017745Y00005710D01*
X00017719Y00005715D01*
X00017694Y00005721D01*
X00017668Y00005729D01*
X00017644Y00005739D01*
X00017620Y00005750D01*
X00017597Y00005763D01*
X00017574Y00005778D01*
X00017553Y00005794D01*
X00017533Y00005812D01*
X00017514Y00005830D01*
X00017497Y00005850D01*
X00017481Y00005871D01*
X00017466Y00005894D01*
X00017453Y00005917D01*
X00017442Y00005941D01*
X00017432Y00005965D01*
X00017424Y00005990D01*
X00017417Y00006016D01*
X00017412Y00006042D01*
X00017409Y00006069D01*
X00017409Y00006069D01*
X00017398Y00006114D01*
X00017381Y00006157D01*
X00017356Y00006197D01*
X00017326Y00006232D01*
X00017291Y00006262D01*
X00017252Y00006286D01*
X00017209Y00006304D01*
X00017164Y00006315D01*
X00017118Y00006318D01*
X00011988Y00006318D01*
X00004448Y00005216D01*
X00002923Y00005216D01*
X00002877Y00005212D01*
X00002831Y00005202D01*
X00002789Y00005184D01*
X00002749Y00005160D01*
X00002714Y00005130D01*
X00002684Y00005094D01*
X00002660Y00005055D01*
X00002642Y00005012D01*
X00002631Y00004967D01*
X00002627Y00004921D01*
X00002627Y00004523D01*
X00002626Y00004495D01*
X00002623Y00004467D01*
X00002619Y00004439D01*
X00002612Y00004412D01*
X00002603Y00004386D01*
X00002592Y00004360D01*
X00002580Y00004335D01*
X00002566Y00004311D01*
X00002550Y00004288D01*
X00002532Y00004266D01*
X00002513Y00004245D01*
X00002493Y00004226D01*
X00002471Y00004209D01*
X00002448Y00004193D01*
X00002424Y00004178D01*
X00002399Y00004165D01*
X00002374Y00004155D01*
X00002347Y00004146D01*
X00002320Y00004139D01*
X00002293Y00004133D01*
X00001633Y00004034D01*
X00001599Y00004030D01*
X00001566Y00004030D01*
X00001532Y00004032D01*
X00001498Y00004037D01*
X00001465Y00004045D01*
X00001433Y00004056D01*
X00001402Y00004069D01*
X00001372Y00004085D01*
X00001344Y00004104D01*
X00001318Y00004125D01*
X00001293Y00004148D01*
X00001270Y00004173D01*
X00001250Y00004200D01*
X00001232Y00004229D01*
X00001216Y00004259D01*
X00001204Y00004290D01*
X00001194Y00004323D01*
X00001186Y00004356D01*
X00001182Y00004389D01*
X00001181Y00004423D01*
X00001181Y00009355D01*
X00001182Y00009389D01*
X00001186Y00009423D01*
X00001194Y00009456D01*
X00001204Y00009488D01*
X00001216Y00009520D01*
X00001232Y00009550D01*
X00001250Y00009578D01*
X00001270Y00009605D01*
X00001293Y00009631D01*
X00001318Y00009654D01*
X00001344Y00009675D01*
X00001372Y00009693D01*
X00001402Y00009709D01*
X00001433Y00009723D01*
X00001465Y00009734D01*
X00001498Y00009742D01*
X00001532Y00009747D01*
X00001566Y00009749D01*
X00001599Y00009748D01*
X00001633Y00009745D01*
X00002293Y00009645D01*
X00002320Y00009640D01*
X00002347Y00009633D01*
X00002374Y00009624D01*
X00002399Y00009613D01*
X00002424Y00009600D01*
X00002448Y00009586D01*
X00002471Y00009570D01*
X00002493Y00009552D01*
X00002513Y00009533D01*
X00002532Y00009513D01*
X00002550Y00009491D01*
X00002566Y00009468D01*
X00002580Y00009444D01*
X00002592Y00009419D01*
X00002603Y00009393D01*
X00002612Y00009366D01*
X00002619Y00009339D01*
X00002623Y00009312D01*
X00002626Y00009284D01*
X00002627Y00009256D01*
X00002627Y00008464D01*
X00002631Y00008418D01*
X00002642Y00008373D01*
X00002660Y00008330D01*
X00002684Y00008291D01*
X00002714Y00008255D01*
X00002749Y00008225D01*
X00002789Y00008201D01*
X00002831Y00008183D01*
X00002877Y00008172D01*
X00002923Y00008169D01*
X00004438Y00008169D01*
X00012007Y00007066D01*
X00017118Y00007066D01*
X00017164Y00007070D01*
X00017209Y00007081D01*
X00017252Y00007099D01*
X00017291Y00007123D01*
X00017326Y00007153D01*
X00017356Y00007188D01*
X00017381Y00007228D01*
X00017398Y00007270D01*
X00017409Y00007316D01*
X00017409Y00007316D01*
X00017412Y00007343D01*
X00017417Y00007369D01*
X00017424Y00007394D01*
X00017432Y00007420D01*
X00017442Y00007444D01*
X00017453Y00007468D01*
X00017466Y00007491D01*
X00017481Y00007513D01*
X00017497Y00007535D01*
X00017514Y00007555D01*
X00017533Y00007573D01*
X00017553Y00007591D01*
X00017574Y00007607D01*
X00017597Y00007621D01*
X00017620Y00007634D01*
X00017644Y00007646D01*
X00017668Y00007656D01*
X00017694Y00007664D01*
X00017719Y00007670D01*
X00017745Y00007675D01*
X00018447Y00007777D01*
X00018481Y00007780D01*
X00018514Y00007780D01*
X00018548Y00007778D01*
X00018581Y00007773D01*
X00018614Y00007765D01*
X00018646Y00007754D01*
X00018677Y00007740D01*
X00018707Y00007724D01*
X00018735Y00007706D01*
X00018761Y00007685D01*
X00018786Y00007661D01*
X00018808Y00007636D01*
X00018828Y00007609D01*
X00018846Y00007581D01*
X00018862Y00007551D01*
X00018874Y00007519D01*
X00018884Y00007487D01*
X00018891Y00007454D01*
X00018896Y00007421D01*
X00018897Y00007387D01*
X00018897Y00005998D01*
X00017413Y00011251D02*
X00017413Y00011251D01*
X00017414Y00011279D01*
X00017417Y00011308D01*
X00017422Y00011336D01*
X00017430Y00011364D01*
X00017439Y00011392D01*
X00017450Y00011418D01*
X00017464Y00011444D01*
X00017479Y00011468D01*
X00017495Y00011492D01*
X00017514Y00011514D01*
X00017534Y00011535D01*
X00017556Y00011554D01*
X00017579Y00011572D01*
X00017603Y00011587D01*
X00017628Y00011601D01*
X00017654Y00011614D01*
X00017681Y00011624D01*
X00017709Y00011632D01*
X00017737Y00011638D01*
X00017765Y00011642D01*
X00018462Y00011715D01*
X00018495Y00011717D01*
X00018528Y00011717D01*
X00018561Y00011713D01*
X00018593Y00011707D01*
X00018625Y00011698D01*
X00018656Y00011687D01*
X00018686Y00011673D01*
X00018714Y00011656D01*
X00018741Y00011637D01*
X00018767Y00011616D01*
X00018790Y00011593D01*
X00018812Y00011568D01*
X00018831Y00011542D01*
X00018848Y00011514D01*
X00018863Y00011484D01*
X00018875Y00011453D01*
X00018885Y00011422D01*
X00018892Y00011390D01*
X00018896Y00011357D01*
X00018897Y00011324D01*
X00018897Y00009148D01*
X00018896Y00009115D01*
X00018892Y00009082D01*
X00018885Y00009050D01*
X00018875Y00009018D01*
X00018863Y00008987D01*
X00018848Y00008958D01*
X00018831Y00008930D01*
X00018812Y00008903D01*
X00018790Y00008878D01*
X00018767Y00008855D01*
X00018741Y00008834D01*
X00018714Y00008815D01*
X00018686Y00008799D01*
X00018656Y00008785D01*
X00018625Y00008773D01*
X00018593Y00008764D01*
X00018561Y00008758D01*
X00018528Y00008755D01*
X00018495Y00008754D01*
X00018462Y00008756D01*
X00017765Y00008829D01*
X00017737Y00008833D01*
X00017709Y00008840D01*
X00017681Y00008848D01*
X00017654Y00008858D01*
X00017628Y00008870D01*
X00017603Y00008884D01*
X00017579Y00008900D01*
X00017556Y00008917D01*
X00017534Y00008937D01*
X00017514Y00008957D01*
X00017495Y00008980D01*
X00017479Y00009003D01*
X00017464Y00009028D01*
X00017450Y00009053D01*
X00017439Y00009080D01*
X00017430Y00009107D01*
X00017422Y00009135D01*
X00017417Y00009163D01*
X00017414Y00009192D01*
X00017413Y00009221D01*
X00017413Y00011251D01*
X00017413Y00018337D02*
X00017413Y00018337D01*
X00017414Y00018366D01*
X00017417Y00018395D01*
X00017422Y00018423D01*
X00017430Y00018451D01*
X00017439Y00018478D01*
X00017450Y00018505D01*
X00017464Y00018530D01*
X00017479Y00018555D01*
X00017495Y00018579D01*
X00017514Y00018601D01*
X00017534Y00018621D01*
X00017556Y00018641D01*
X00017579Y00018658D01*
X00017603Y00018674D01*
X00017628Y00018688D01*
X00017654Y00018700D01*
X00017681Y00018710D01*
X00017709Y00018719D01*
X00017737Y00018725D01*
X00017765Y00018729D01*
X00018462Y00018802D01*
X00018495Y00018804D01*
X00018528Y00018803D01*
X00018561Y00018800D01*
X00018593Y00018794D01*
X00018625Y00018785D01*
X00018656Y00018773D01*
X00018686Y00018759D01*
X00018714Y00018743D01*
X00018741Y00018724D01*
X00018767Y00018703D01*
X00018790Y00018680D01*
X00018812Y00018655D01*
X00018831Y00018628D01*
X00018848Y00018600D01*
X00018863Y00018571D01*
X00018875Y00018540D01*
X00018885Y00018508D01*
X00018892Y00018476D01*
X00018896Y00018443D01*
X00018897Y00018410D01*
X00018897Y00016234D01*
X00018896Y00016201D01*
X00018892Y00016169D01*
X00018885Y00016136D01*
X00018875Y00016105D01*
X00018863Y00016074D01*
X00018848Y00016044D01*
X00018831Y00016016D01*
X00018812Y00015990D01*
X00018790Y00015965D01*
X00018767Y00015942D01*
X00018741Y00015921D01*
X00018714Y00015902D01*
X00018686Y00015885D01*
X00018656Y00015871D01*
X00018625Y00015860D01*
X00018593Y00015851D01*
X00018561Y00015845D01*
X00018528Y00015841D01*
X00018495Y00015841D01*
X00018462Y00015843D01*
X00017765Y00015916D01*
X00017737Y00015920D01*
X00017709Y00015926D01*
X00017681Y00015934D01*
X00017654Y00015945D01*
X00017628Y00015957D01*
X00017603Y00015971D01*
X00017579Y00015987D01*
X00017556Y00016004D01*
X00017534Y00016023D01*
X00017514Y00016044D01*
X00017495Y00016066D01*
X00017479Y00016090D01*
X00017464Y00016114D01*
X00017450Y00016140D01*
X00017439Y00016166D01*
X00017430Y00016194D01*
X00017422Y00016222D01*
X00017417Y00016250D01*
X00017414Y00016279D01*
X00017413Y00016307D01*
X00017413Y00018337D01*
X00001181Y00016048D02*
X00001181Y00016048D01*
X00001182Y00016082D01*
X00001186Y00016116D01*
X00001194Y00016149D01*
X00001204Y00016181D01*
X00001216Y00016212D01*
X00001232Y00016243D01*
X00001250Y00016271D01*
X00001270Y00016298D01*
X00001293Y00016324D01*
X00001318Y00016347D01*
X00001344Y00016368D01*
X00001372Y00016386D01*
X00001402Y00016402D01*
X00001433Y00016416D01*
X00001465Y00016427D01*
X00001498Y00016435D01*
X00001532Y00016440D01*
X00001566Y00016442D01*
X00001599Y00016441D01*
X00001633Y00016438D01*
X00002293Y00016338D01*
X00002320Y00016333D01*
X00002347Y00016326D01*
X00002374Y00016317D01*
X00002399Y00016306D01*
X00002424Y00016293D01*
X00002448Y00016279D01*
X00002471Y00016263D01*
X00002493Y00016245D01*
X00002513Y00016226D01*
X00002532Y00016206D01*
X00002550Y00016184D01*
X00002566Y00016161D01*
X00002580Y00016137D01*
X00002592Y00016112D01*
X00002603Y00016086D01*
X00002612Y00016059D01*
X00002619Y00016032D01*
X00002623Y00016005D01*
X00002626Y00015977D01*
X00002627Y00015949D01*
X00002627Y00015551D01*
X00002631Y00015504D01*
X00002642Y00015459D01*
X00002660Y00015417D01*
X00002684Y00015377D01*
X00002714Y00015342D01*
X00002749Y00015312D01*
X00002789Y00015288D01*
X00002831Y00015270D01*
X00002877Y00015259D01*
X00002923Y00015255D01*
X00004438Y00015255D01*
X00012007Y00014153D01*
X00017118Y00014153D01*
X00017164Y00014157D01*
X00017209Y00014167D01*
X00017252Y00014185D01*
X00017291Y00014209D01*
X00017326Y00014240D01*
X00017356Y00014275D01*
X00017381Y00014314D01*
X00017398Y00014357D01*
X00017409Y00014402D01*
X00017409Y00014403D01*
X00017412Y00014429D01*
X00017417Y00014455D01*
X00017424Y00014481D01*
X00017432Y00014506D01*
X00017442Y00014531D01*
X00017453Y00014555D01*
X00017466Y00014578D01*
X00017481Y00014600D01*
X00017497Y00014621D01*
X00017514Y00014641D01*
X00017533Y00014660D01*
X00017553Y00014677D01*
X00017574Y00014693D01*
X00017597Y00014708D01*
X00017620Y00014721D01*
X00017644Y00014732D01*
X00017668Y00014742D01*
X00017694Y00014750D01*
X00017719Y00014757D01*
X00017745Y00014762D01*
X00018447Y00014863D01*
X00018481Y00014867D01*
X00018514Y00014867D01*
X00018548Y00014865D01*
X00018581Y00014859D01*
X00018614Y00014851D01*
X00018646Y00014840D01*
X00018677Y00014827D01*
X00018707Y00014811D01*
X00018735Y00014792D01*
X00018761Y00014771D01*
X00018786Y00014748D01*
X00018808Y00014723D01*
X00018828Y00014696D01*
X00018846Y00014667D01*
X00018862Y00014637D01*
X00018874Y00014606D01*
X00018884Y00014574D01*
X00018891Y00014541D01*
X00018896Y00014507D01*
X00018897Y00014473D01*
X00018897Y00013085D01*
X00018896Y00013051D01*
X00018891Y00013017D01*
X00018884Y00012984D01*
X00018874Y00012952D01*
X00018862Y00012921D01*
X00018846Y00012891D01*
X00018828Y00012862D01*
X00018808Y00012835D01*
X00018786Y00012810D01*
X00018761Y00012787D01*
X00018735Y00012766D01*
X00018707Y00012747D01*
X00018677Y00012731D01*
X00018646Y00012718D01*
X00018614Y00012707D01*
X00018581Y00012699D01*
X00018548Y00012693D01*
X00018514Y00012691D01*
X00018481Y00012692D01*
X00018447Y00012695D01*
X00017745Y00012796D01*
X00017719Y00012801D01*
X00017694Y00012808D01*
X00017668Y00012816D01*
X00017644Y00012826D01*
X00017620Y00012837D01*
X00017597Y00012850D01*
X00017574Y00012865D01*
X00017553Y00012881D01*
X00017533Y00012898D01*
X00017514Y00012917D01*
X00017497Y00012937D01*
X00017481Y00012958D01*
X00017466Y00012980D01*
X00017453Y00013003D01*
X00017442Y00013027D01*
X00017432Y00013052D01*
X00017424Y00013077D01*
X00017417Y00013103D01*
X00017412Y00013129D01*
X00017409Y00013155D01*
X00017409Y00013156D01*
X00017398Y00013201D01*
X00017381Y00013244D01*
X00017356Y00013283D01*
X00017326Y00013319D01*
X00017291Y00013349D01*
X00017252Y00013373D01*
X00017209Y00013391D01*
X00017164Y00013401D01*
X00017118Y00013405D01*
X00011988Y00013405D01*
X00004448Y00012303D01*
X00002923Y00012303D01*
X00002877Y00012299D01*
X00002831Y00012288D01*
X00002789Y00012270D01*
X00002749Y00012246D01*
X00002714Y00012216D01*
X00002684Y00012181D01*
X00002660Y00012141D01*
X00002642Y00012099D01*
X00002631Y00012054D01*
X00002627Y00012007D01*
X00002627Y00011216D01*
X00002626Y00011188D01*
X00002623Y00011160D01*
X00002619Y00011132D01*
X00002612Y00011105D01*
X00002603Y00011079D01*
X00002592Y00011053D01*
X00002580Y00011028D01*
X00002566Y00011004D01*
X00002550Y00010981D01*
X00002532Y00010959D01*
X00002513Y00010938D01*
X00002493Y00010919D01*
X00002471Y00010901D01*
X00002448Y00010885D01*
X00002424Y00010871D01*
X00002399Y00010858D01*
X00002374Y00010848D01*
X00002347Y00010839D01*
X00002320Y00010831D01*
X00002293Y00010826D01*
X00001633Y00010727D01*
X00001599Y00010723D01*
X00001566Y00010722D01*
X00001532Y00010725D01*
X00001498Y00010730D01*
X00001465Y00010738D01*
X00001433Y00010748D01*
X00001402Y00010762D01*
X00001372Y00010778D01*
X00001344Y00010797D01*
X00001318Y00010818D01*
X00001293Y00010841D01*
X00001270Y00010866D01*
X00001250Y00010893D01*
X00001232Y00010922D01*
X00001216Y00010952D01*
X00001204Y00010983D01*
X00001194Y00011016D01*
X00001186Y00011049D01*
X00001182Y00011082D01*
X00001181Y00011116D01*
X00001181Y00016048D01*
M02*