G04 #@! TF.GenerationSoftware,KiCad,Pcbnew,5.1.5-52549c5~84~ubuntu19.10.1*
G04 #@! TF.CreationDate,2020-03-14T22:11:12+01:00*
G04 #@! TF.ProjectId,edgerail,65646765-7261-4696-9c2e-6b696361645f,rev?*
G04 #@! TF.SameCoordinates,Original*
G04 #@! TF.FileFunction,Soldermask,Bot*
G04 #@! TF.FilePolarity,Negative*
%FSLAX46Y46*%
G04 Gerber Fmt 4.6, Leading zero omitted, Abs format (unit mm)*
G04 Created by KiCad (PCBNEW 5.1.5-52549c5~84~ubuntu19.10.1) date 2020-03-14 22:11:12*
%MOMM*%
%LPD*%
G04 APERTURE LIST*
%ADD10C,0.100000*%
G04 APERTURE END LIST*
D10*
G36*
X11622322Y-10885048D02*
G01*
X11682889Y-10897095D01*
X11739943Y-10920728D01*
X11796997Y-10944360D01*
X11899687Y-11012975D01*
X11987025Y-11100313D01*
X12055640Y-11203003D01*
X12102905Y-11317112D01*
X12127000Y-11438245D01*
X12127000Y-11561755D01*
X12102905Y-11682888D01*
X12055640Y-11796997D01*
X11987025Y-11899687D01*
X11899687Y-11987025D01*
X11796997Y-12055640D01*
X11739943Y-12079272D01*
X11682889Y-12102905D01*
X11622322Y-12114952D01*
X11561755Y-12127000D01*
X11438245Y-12127000D01*
X11377679Y-12114953D01*
X11317111Y-12102905D01*
X11260058Y-12079273D01*
X11203003Y-12055640D01*
X11100313Y-11987025D01*
X11012975Y-11899687D01*
X10944360Y-11796997D01*
X10897095Y-11682888D01*
X10873000Y-11561755D01*
X10873000Y-11438245D01*
X10897095Y-11317112D01*
X10944360Y-11203003D01*
X11012975Y-11100313D01*
X11100313Y-11012975D01*
X11203003Y-10944360D01*
X11260057Y-10920728D01*
X11317111Y-10897095D01*
X11377678Y-10885048D01*
X11438245Y-10873000D01*
X11561755Y-10873000D01*
X11622322Y-10885048D01*
G37*
M02*
